<?xml version="1.0" encoding="utf-8"?>
<!-- Generator: Adobe Illustrator 23.0.3, SVG Export Plug-In . SVG Version: 6.00 Build 0)  -->
<svg version="1.1" id="Logos" xmlns="http://www.w3.org/2000/svg" xmlns:xlink="http://www.w3.org/1999/xlink" x="0px" y="0px"
	 viewBox="0 0 540 540" style="enable-background:new 0 0 540 540;" xml:space="preserve">
<style type="text/css">
	.st0{fill:#FFFFFF;}
	.st1{fill:#002855;}
	.st2{fill:#C19A53;}
</style>
<path class="st0" d="M379.6,322.8c-24.6,0-30-24.3-36.1-24.3c-1.6,0-3.8,1.8-7.5,6.3c-8.9,10.7-42.4,54.2-64.3,54.3
	c-19.6,0.1-33.1-13.8-32.9-33.5c0.1-6.9,1.6-16.3,1.8-23.2c0.1-1.6-0.2-2.5-0.7-2.7s-1.4,0.2-2.6,1.1
	c-18.3,14.8-74.2,79.8-85.3,94.1c-3.4,4.4-10,8.3-17.1,6.1c-6.4-2-8.5-8.4-8.9-14.8c-0.9-13.3,2.4-30.5,3.1-34.5
	c1.1-6.3,2.3-11.7,1.6-11.7s-3.7,2.1-5.7,3.5c-8.2,5.4-28.8,20-55,29.9C108.7,448,185.8,495,270,495c124.3,0,225-100.7,225-225
	c0-12.8-1.1-25.7-3.3-38.3c-9.5,16.2-20.9,31.2-34,44.6C432.1,302.9,401.8,322.8,379.6,322.8z"/>
<path class="st0" d="M183.5,262c13.9-13.5,54-61.1,70-98.5c2.6-6.1,10.4-22.9,4.6-23.4c-3.7-0.4-12.2,3.8-24.9,17.6
	c-22,23.9-44.9,76.7-53.8,101.9c-1.4,3.9-3.4,8.9-2.9,9S178.6,266.8,183.5,262z"/>
<path class="st0" d="M142.3,298.5c6.1-20.8,18-66.2,41.6-107.9c25.4-44.9,55.9-76.4,81.6-72.9c20.7,2.8,22.5,24.8,20.2,35.7
	c-5.3,24.8-23.4,53.1-44.2,79.1c-29.6,37-64.7,69.4-76.8,80.7c-0.5,0.4-1,1-1.3,1.6c-0.3,1.2-0.6,2.4-0.8,3.6
	c-1.8,9.5-3.3,16.5-5.2,26.3c-0.2,1.2-0.7,3.5,0.5,3.9s2.8-1.8,3.8-2.8c12.4-14.2,51.4-62.7,74.2-75.2c9.8-5.3,18.3-6.1,27.2-1.9
	c6.3,3,10.2,9,9.8,17.6c-0.4,9.5-2.6,33.6-2.6,40.1c0,3.2,0.5,5.9,2.2,5.8c1.4,0,5.6-3.9,8.2-6.4c23.2-21.6,44.5-48.8,65.4-76.2
	c5.8-7.6,11.4-10.2,17.5-9.2c8,1.3,15.5,8.8,12.6,17.5c-10.4,31.9-5.8,42,0.2,42c10.9,0.1,34.8-12.9,61.5-38.3
	c17.9-17.2,33.8-36.4,47.5-57.1C457.3,112.2,371.5,45,270,45C145.7,45,45,145.7,45,270c0,27.8,5.1,55.3,15.1,81.2
	c36.4-15.5,69.9-41.2,78.8-47.6C140.5,302.3,141.7,300.5,142.3,298.5z M382.9,185.9c9.5-2.8,8.7,10.9,7.3,17.7s-6.1,19.7-13.5,15.2
	c-6.2,0.1-8.2-4.9-9.7-14.9S373.8,188.5,382.9,185.9z"/>
<path class="st1" d="M437.8,261.7c-26.6,25.4-50.6,38.5-61.5,38.3c-6-0.1-10.6-10.1-0.2-42c2.8-8.7-4.6-16.1-12.6-17.5
	c-6-1-11.7,1.6-17.5,9.2c-20.9,27.4-42.1,54.6-65.4,76.2c-2.7,2.5-6.9,6.4-8.2,6.4c-1.8,0-2.2-2.6-2.2-5.8c0-6.5,2.2-30.7,2.6-40.1
	c0.4-8.6-3.4-14.6-9.8-17.6c-8.9-4.2-17.4-3.4-27.2,1.9c-22.8,12.4-61.8,60.9-74.2,75.2c-0.9,1.1-2.7,3.3-3.8,2.8s-0.7-2.8-0.5-3.9
	c1.9-9.8,3.4-16.8,5.2-26.3c0.2-1.2,0.5-2.4,0.8-3.6c0.3-0.6,0.8-1.2,1.3-1.6c12.1-11.3,47.3-43.7,76.8-80.7
	c20.8-26,38.8-54.3,44.2-79.1c2.3-10.9,0.5-32.8-20.2-35.7c-25.7-3.5-56.3,28-81.6,72.9c-23.6,41.7-35.5,87.1-41.6,107.9
	c-0.6,2-1.8,3.8-3.5,5.1c-8.9,6.4-42.3,32.1-78.8,47.6c2.9,7.5,6.2,14.8,9.9,22c26.2-10,46.9-24.6,55-29.9c2-1.4,5-3.5,5.7-3.5
	s-0.4,5.4-1.6,11.7c-0.7,4-4,21.2-3.1,34.5c0.4,6.4,2.5,12.8,8.9,14.8c7.1,2.2,13.7-1.7,17.1-6.1c11-14.3,67-79.3,85.3-94.1
	c1.2-0.9,2-1.4,2.6-1.1s0.8,1.1,0.7,2.7c-0.2,7-1.7,16.3-1.8,23.2c-0.2,19.8,13.3,33.6,32.8,33.5c21.9-0.1,55.4-43.6,64.3-54.3
	c3.7-4.5,5.9-6.3,7.5-6.3c6.1,0,11.5,24.3,36.1,24.3c22.2,0,52.5-20,78.1-46.5c13.1-13.5,24.5-28.5,34-44.6
	c-1.6-9.2-3.7-18.2-6.4-27.1C471.6,225.3,455.7,244.4,437.8,261.7z M179.4,259.6c8.9-25.2,31.8-78,53.8-101.9
	c12.7-13.8,21.2-18,24.9-17.6c5.8,0.5-2,17.3-4.6,23.4c-16,37.3-56.1,85-70,98.5c-4.9,4.8-6.6,6.7-7,6.6S178,263.5,179.4,259.6z"/>
<path class="st2" d="M376.7,218.8c7.3,4.5,12-8.4,13.5-15.2s2.2-20.4-7.3-17.7c-9,2.6-17.3,7.9-15.9,18S370.5,219,376.7,218.8z"/>
</svg>
