<?xml version="1.0" encoding="utf-8"?>
<!-- Generator: Adobe Illustrator 23.0.4, SVG Export Plug-In . SVG Version: 6.00 Build 0)  -->
<svg version="1.1" id="レイヤー_1" xmlns="http://www.w3.org/2000/svg" xmlns:xlink="http://www.w3.org/1999/xlink" x="0px"
	 y="0px" viewBox="0 0 554 225" style="enable-background:new 0 0 554 225;" xml:space="preserve">
<style type="text/css">
	.st0{enable-background:new    ;}
	.st1{fill:#FFFFFF;}
	.st2{fill:#CDAE75;}
</style>
<g id="グループ_63" transform="translate(-326 -92)">
	<g transform="matrix(1, 0, 0, 1, 326, 92)">
		<g class="st0">
			<path class="st1" d="M37.2,30.5v25.3h6c0.4,0,0.7,0.1,0.9,0.4c0.2,0.3,0.4,0.6,0.4,1v20.4c0,0.9-0.4,1.4-1.3,1.4
				c-0.4,0-0.7-0.1-1-0.4c-0.3-0.2-0.4-0.6-0.4-1V58.4h-5.9c-0.4,0-0.7-0.1-1-0.4c-0.3-0.2-0.4-0.5-0.4-0.9V31.8H20
				c-0.9,0-1.4-0.4-1.4-1.3c0-0.9,0.5-1.4,1.4-1.4h15.9C36.7,29.2,37.2,29.6,37.2,30.5z M29.7,36.2c0.4,0,0.7,0.1,0.9,0.4
				c0.2,0.3,0.4,0.6,0.4,1c0,0.9-0.4,1.3-1.3,1.3H20c-0.9,0-1.4-0.4-1.4-1.3c0-0.4,0.1-0.7,0.4-1c0.2-0.3,0.6-0.4,1-0.4H29.7z
				 M37.2,83.7c0,0.9-0.4,1.3-1.3,1.3c-0.4,0-0.7-0.1-1-0.4c-0.3-0.2-0.4-0.5-0.4-0.9V64.4c0-0.4,0.1-0.8,0.4-1
				c0.3-0.2,0.6-0.4,1-0.4c0.9,0,1.3,0.5,1.3,1.4V83.7z M43.2,29.2h10.4c0.9,0,1.3,0.5,1.3,1.4c0,0.9-0.4,1.3-1.3,1.3H43.2
				c-0.4,0-0.7-0.1-1-0.4c-0.3-0.2-0.4-0.5-0.4-0.9c0-0.4,0.1-0.8,0.4-1C42.5,29.3,42.8,29.2,43.2,29.2z M41.8,50V37.6
				c0-0.4,0.1-0.7,0.4-1c0.3-0.3,0.6-0.4,1-0.4H58c0.4,0,0.8,0.1,1,0.4c0.2,0.3,0.4,0.6,0.4,1c0,0.9-0.5,1.3-1.4,1.3H44.4V50
				c0,0.9-0.4,1.3-1.3,1.3c-0.4,0-0.7-0.1-1-0.4C41.9,50.7,41.8,50.4,41.8,50z M58.4,29.1c0.4,0.1,0.7,0.3,0.9,0.7
				c0.2,0.4,0.2,0.7,0.1,1.1h-0.1c-0.2,0.7-0.6,1-1.4,1c-0.6-0.2-1-0.5-1.2-0.8c-0.2-0.3-0.3-0.7-0.2-1.1l0.1-0.1
				c0.2-0.6,0.6-1,1.4-1C58.3,29,58.4,29,58.4,29.1z"/>
			<path class="st1" d="M76.1,55.2c-0.4,0-0.7-0.1-1-0.4c-0.3-0.2-0.4-0.5-0.4-0.9V30.6c0-0.4,0.1-0.7,0.4-0.9
				c0.3-0.2,0.6-0.4,1-0.4c0.9,0,1.3,0.4,1.3,1.3v23.3C77.4,54.7,77,55.2,76.1,55.2z M76.1,84.4c-0.4,0-0.7-0.1-1-0.4
				c-0.3-0.3-0.4-0.6-0.4-1V61.2c0-0.4,0.1-0.7,0.4-1c0.3-0.3,0.6-0.4,1-0.4h24.1c0.4,0,0.7,0.1,0.9,0.4c0.2,0.3,0.4,0.6,0.4,1
				c0,0.9-0.4,1.3-1.3,1.3H77.4v20.6c0,0.4-0.1,0.7-0.4,1C76.8,84.3,76.5,84.4,76.1,84.4z M83.2,55.2c-0.4,0-0.8-0.1-1-0.4
				c-0.2-0.3-0.4-0.6-0.4-1V30.6c0-0.9,0.5-1.3,1.4-1.3c0.9,0,1.3,0.4,1.3,1.3v22h22c0.9,0,1.4,0.4,1.4,1.3v24.6
				c0,0.4-0.1,0.7-0.4,1c-0.2,0.3-0.6,0.4-1,0.4c-0.4,0-0.7-0.1-0.9-0.4c-0.2-0.3-0.4-0.6-0.4-1V55.2H83.2z M81.9,67.2
				c0-0.9,0.5-1.3,1.4-1.3c0.9,0,1.3,0.4,1.3,1.3v16.2c0,0.9-0.4,1.3-1.3,1.3c-0.9,0-1.4-0.4-1.4-1.3V67.2z M107.1,81.6
				c0.4,0.2,0.6,0.4,0.8,0.8c0.2,0.3,0.2,0.7,0.1,1.1v0.1c-0.3,0.6-0.7,1-1.4,1c-0.6-0.2-1-0.4-1.2-0.8c-0.2-0.4-0.3-0.7-0.2-1.1
				c0.2-0.7,0.6-1,1.4-1c0.1,0,0.2,0,0.2,0C106.9,81.5,107,81.6,107.1,81.6z M106.5,48.9c-0.9,0-1.3-0.4-1.3-1.3v-17
				c0-0.4,0.1-0.7,0.4-1c0.2-0.3,0.5-0.4,0.9-0.4c0.4,0,0.8,0.1,1,0.4c0.2,0.3,0.4,0.6,0.4,1v17C107.9,48.5,107.4,48.9,106.5,48.9z
				 M113.6,84.4c-0.4,0-0.7-0.1-0.9-0.4c-0.2-0.3-0.4-0.6-0.4-1V36.2c0-0.9,0.4-1.3,1.3-1.3c0.4,0,0.7,0.1,1,0.4
				c0.3,0.2,0.4,0.5,0.4,0.9v46.9c0,0.4-0.1,0.7-0.4,1C114.3,84.3,114,84.4,113.6,84.4z"/>
			<path class="st1" d="M131.6,84.9c-1.1-0.3-1.5-0.9-1.2-1.8l19.7-52.9c0.3-0.6,0.7-0.9,1.3-0.9h1.1c0.6,0,1,0.3,1.3,0.9l9.5,29
				c0.1,0.4,0.1,0.7-0.1,1c-0.2,0.3-0.4,0.5-0.8,0.6c-0.1,0-0.2,0-0.2,0c0,0-0.1,0-0.2,0c-0.6,0-1-0.3-1.3-1l-8.9-27l-19,51
				C132.7,84.7,132.2,84.9,131.6,84.9z M139.2,85.1c-0.6-0.2-1-0.4-1.2-0.8c-0.2-0.3-0.3-0.7-0.2-1.2c0.3-0.7,0.7-1,1.4-1
				c0.1,0,0.2,0,0.2,0c0.1,0,0.1,0,0.2,0c0.4,0.2,0.6,0.4,0.8,0.8c0.2,0.3,0.2,0.7,0.1,1.1v0.1C140.3,84.8,139.8,85.1,139.2,85.1z
				 M140.6,80.7c-1.1-0.3-1.5-0.9-1.2-1.8l11.1-32.8c0.3-0.6,0.7-0.9,1.3-0.9c0.1,0,0.2,0,0.2,0c0.1,0,0.1,0,0.2,0
				c0.4,0.1,0.6,0.3,0.8,0.7c0.2,0.3,0.2,0.7,0.1,1l-11.2,32.8C141.6,80.4,141.2,80.7,140.6,80.7z M168.4,80.6c-0.6,0-1-0.3-1.2-0.9
				l-2-6h-15.9c-0.4,0-0.7-0.1-0.9-0.4c-0.2-0.3-0.4-0.6-0.4-1c0-0.9,0.4-1.3,1.3-1.3h16.9c0.6,0,1,0.3,1.3,0.9l2.2,7
				c0.1,0.3,0.1,0.6-0.1,1c-0.2,0.3-0.4,0.5-0.8,0.6L168.4,80.6z M176.9,84.9c-0.6,0-1-0.3-1.3-0.8l-6.4-17.4h-17.8
				c-0.4,0-0.8-0.1-1-0.4c-0.2-0.3-0.4-0.6-0.4-1c0-0.9,0.5-1.3,1.4-1.3h18.7c0.5,0,0.9,0.2,1.2,0.7l6.7,18.4c0.3,0.9,0,1.4-0.8,1.7
				L176.9,84.9z M168.1,61c-0.6,0-1-0.3-1.3-0.9l-8-24.6c-0.3-0.9,0-1.4,0.8-1.7c0.1-0.1,0.2-0.1,0.4-0.1c0.6,0,1.1,0.3,1.3,0.9
				l8.1,24.6c0.1,0.4,0.1,0.7-0.1,1c-0.2,0.3-0.4,0.5-0.8,0.6L168.1,61z"/>
			<path class="st1" d="M195.6,85.2c-0.9,0-1.3-0.4-1.3-1.3V30.4c0-0.7,0.3-1.1,1-1.3c0.1,0,0.1,0,0.2,0c0.1,0,0.1,0,0.2,0
				c0.5,0,0.9,0.2,1.1,0.6l33,53.4c0.5,0.7,0.3,1.4-0.4,1.8c-0.3,0.1-0.6,0.2-0.7,0.2c-0.5,0-0.9-0.2-1.1-0.6l-30.5-49.4v48.8
				c0,0.4-0.1,0.7-0.4,0.9C196.3,85,195.9,85.2,195.6,85.2z M204,79.9c0,0.9-0.5,1.3-1.4,1.3c-0.9,0-1.3-0.4-1.3-1.3V57.2
				c0-0.9,0.4-1.4,1.3-1.4c0.9,0,1.4,0.5,1.4,1.4V79.9z M206,35c-0.5-0.7-0.3-1.4,0.4-1.8c0.2-0.1,0.4-0.2,0.7-0.2
				c0.5,0,0.9,0.2,1.1,0.6l19,30.3V30.4c0-0.4,0.1-0.7,0.4-1c0.2-0.3,0.5-0.4,0.9-0.4c0.4,0,0.7,0.1,1,0.4c0.3,0.3,0.4,0.6,0.4,1v38
				c0,0.7-0.3,1.1-1,1.3c-0.7,0-1.3-0.2-1.5-0.6L206,35z M235.2,31.8c-0.4-0.1-0.7-0.3-0.9-0.7c-0.2-0.4-0.2-0.7-0.1-1.1h0.1
				c0.2-0.7,0.6-1,1.4-1c0.1,0,0.2,0,0.2,0c0,0,0.1,0,0.2,0c0.9,0.4,1.2,1,1,1.8l-0.1,0.1c-0.2,0.6-0.6,1-1.4,1L235.2,31.8z
				 M235.6,33.6c0.4,0,0.8,0.1,1,0.4c0.2,0.3,0.4,0.6,0.4,1v49c0,0.9-0.5,1.3-1.4,1.3c-0.9,0-1.3-0.4-1.3-1.3v-49
				c0-0.4,0.1-0.7,0.4-1C234.9,33.7,235.2,33.6,235.6,33.6z"/>
			<path class="st1" d="M256.5,82.8c0.3-0.6,0.7-1,1.4-1c0.2,0,0.4,0,0.5,0.1c0.4,0.1,0.6,0.3,0.8,0.7c0.2,0.3,0.2,0.7,0.1,1.1v0.1
				c-0.2,0.6-0.6,1-1.4,1c-0.6-0.2-1-0.4-1.2-0.8C256.5,83.6,256.4,83.2,256.5,82.8z M256.6,78.8V64.9c0-0.3,0.1-0.6,0.2-0.8
				l27.4-34.8c0.3-0.3,0.6-0.5,1-0.5c0.3,0,0.6,0.1,0.8,0.2c0.7,0.5,0.8,1.1,0.2,1.8l-27,34.5v13.4c0,0.4-0.1,0.7-0.4,1
				c-0.3,0.3-0.6,0.4-1,0.4c-0.4,0-0.7-0.1-0.9-0.4C256.7,79.5,256.6,79.1,256.6,78.8z M257.9,54.7c-0.4,0-0.7-0.1-0.9-0.4
				c-0.2-0.3-0.4-0.6-0.4-1v-23c0-0.4,0.1-0.7,0.4-1c0.2-0.3,0.5-0.4,0.9-0.4c0.4,0,0.7,0.1,1,0.4c0.3,0.3,0.4,0.6,0.4,1v23
				c0,0.4-0.1,0.7-0.4,1C258.6,54.5,258.2,54.7,257.9,54.7z M266.3,45.2c0,0.4-0.1,0.7-0.4,1c-0.3,0.3-0.6,0.4-1,0.4
				c-0.4,0-0.7-0.1-0.9-0.4c-0.2-0.3-0.4-0.6-0.4-1v-7.7c0-0.9,0.4-1.3,1.3-1.3c0.4,0,0.7,0.1,1,0.4c0.3,0.2,0.4,0.5,0.4,0.9V45.2z
				 M264.9,84.7c-0.9,0-1.3-0.4-1.3-1.3V68.6c0-0.4,0.1-0.6,0.2-0.8l4.7-6c0.3-0.3,0.6-0.5,1-0.5c0.5,0,0.8,0.2,1,0.5l16,21
				c0.5,0.7,0.4,1.3-0.2,1.8c-0.2,0.2-0.5,0.2-0.8,0.2c-0.4,0-0.8-0.2-1-0.5l-15-19.6l-3.4,4.2v14.4c0,0.4-0.1,0.7-0.4,0.9
				C265.6,84.6,265.3,84.7,264.9,84.7z M296.1,29.1c0.7,0.6,0.7,1.2,0.2,1.8l-20.1,25.4l20.2,26.2c0.2,0.3,0.3,0.6,0.2,0.9
				c-0.1,0.3-0.2,0.7-0.6,0.9c-0.2,0.2-0.4,0.2-0.8,0.2c-0.4,0-0.7-0.2-1-0.5l-20.7-27c-0.4-0.5-0.4-1.1,0-1.6l20.8-26.2
				c0.3-0.3,0.6-0.5,1-0.5C295.6,28.8,295.9,28.9,296.1,29.1z"/>
			<path class="st1" d="M334.7,29.5c0.1-0.1,0.3-0.2,0.6-0.2c0.5,0,0.9,0.2,1.2,0.6l17.2,31.7c0.1,0.1,0.2,0.3,0.2,0.6v21.5
				c0,0.9-0.4,1.3-1.3,1.3c-0.4,0-0.7-0.1-1-0.4c-0.3-0.2-0.4-0.5-0.4-0.9V62.6l-17-31.4c-0.2-0.3-0.2-0.7-0.1-1
				C334.1,29.9,334.4,29.6,334.7,29.5z M343.9,29.2c0.4,0.1,0.6,0.3,0.8,0.7c0.2,0.3,0.2,0.7,0.1,1.1v0.1c-0.3,0.6-0.7,1-1.4,1
				c-0.6-0.2-1-0.4-1.2-0.8c-0.2-0.3-0.3-0.7-0.2-1.2c0.3-0.6,0.7-1,1.4-1C343.6,29.2,343.8,29.2,343.9,29.2z M344.9,33.4
				c0.1-0.1,0.3-0.2,0.6-0.2c0.5,0,0.9,0.2,1.1,0.6l12.9,23.6l15-27.5c0.3-0.4,0.6-0.6,1.1-0.6c0.3,0,0.5,0.1,0.6,0.2
				c0.3,0.2,0.5,0.4,0.6,0.8c0.1,0.3,0.1,0.7-0.1,1l-16.1,29.6c-0.3,0.4-0.7,0.6-1.2,0.6h-0.1c-0.5,0-0.9-0.2-1.1-0.6l-14-25.7
				c-0.2-0.3-0.2-0.7-0.1-1C344.4,33.8,344.6,33.6,344.9,33.4z M358.6,46.7c-0.3,0-0.5-0.1-0.6-0.2c-0.3-0.2-0.5-0.4-0.6-0.8
				c-0.1-0.3-0.1-0.7,0.1-1l6.2-11.3c0.3-0.5,0.6-0.7,1.1-0.7c0.1,0,0.3,0.1,0.6,0.2c0.3,0.2,0.5,0.4,0.6,0.8c0.1,0.4,0.1,0.7-0.1,1
				L359.7,46C359.4,46.5,359.1,46.7,358.6,46.7z M360.7,83.8c0,0.9-0.4,1.3-1.3,1.3c-0.4,0-0.7-0.1-1-0.4c-0.3-0.2-0.4-0.5-0.4-0.9
				V67.6c0-0.4,0.1-0.7,0.4-0.9c0.3-0.2,0.6-0.4,1-0.4c0.9,0,1.3,0.4,1.3,1.3V83.8z"/>
			<path class="st1" d="M387.6,56.7c0-2.6,0.3-5.1,1-7.6c0.7-2.5,1.6-4.9,2.9-7.1c1.3-2.2,2.8-4.2,4.6-6c1.8-1.8,3.9-3.3,6.2-4.5
				c0.1-0.1,0.3-0.2,0.6-0.2c0.5,0,0.9,0.2,1.1,0.6c0.2,0.4,0.3,0.7,0.1,1.1c-0.1,0.3-0.4,0.6-0.7,0.8c-2.1,1.1-3.9,2.5-5.6,4.1
				c-1.7,1.6-3,3.4-4.2,5.4c-1.1,2-2,4.1-2.6,6.4c-0.6,2.3-0.9,4.6-0.9,6.9c0,3.3,0.6,6.4,1.7,9.5c1.1,3.1,2.7,5.8,4.8,8.1
				c2.1,2.3,4.5,4.2,7.4,5.6c2.9,1.4,6,2.1,9.4,2.1c3.4,0,6.5-0.7,9.4-2.1c2.8-1.4,5.3-3.3,7.3-5.7c2.1-2.4,3.7-5.1,4.8-8.1
				s1.7-6.2,1.7-9.4c0-3.1-0.5-6.2-1.6-9.2c-1.1-3-2.6-5.6-4.5-7.9c-1.9-2.3-4.2-4.2-6.9-5.7c-2.7-1.5-5.7-2.3-8.9-2.6V37
				c0,0.9-0.4,1.3-1.3,1.3c-2.5,0-4.7,0.5-6.7,1.5c-2,1-3.7,2.4-5.2,4.1c-1.4,1.7-2.5,3.7-3.3,5.8c-0.8,2.2-1.2,4.5-1.2,6.8
				c0,2.3,0.4,4.5,1.2,6.7c0.8,2.2,1.9,4.1,3.3,5.8c1.4,1.7,3.2,3.1,5.2,4.1c2,1,4.2,1.5,6.7,1.5c2.5,0,4.7-0.5,6.7-1.5
				c2-1,3.8-2.4,5.2-4s2.5-3.6,3.3-5.8c0.8-2.2,1.2-4.5,1.2-6.8c0-3.8-0.9-7.3-2.8-10.3s-4.3-5.3-7.5-6.6c-0.3-0.1-0.5-0.3-0.7-0.7
				c-0.1-0.3-0.1-0.7,0-1c0.2-0.5,0.6-0.8,1.2-0.8c0.2,0,0.4,0,0.5,0.1c1.8,0.8,3.4,1.9,4.9,3.2c1.4,1.3,2.7,2.8,3.7,4.5
				c1,1.7,1.8,3.5,2.4,5.5c0.6,2,0.8,4.1,0.8,6.2c0,2.7-0.5,5.3-1.4,7.8c-0.9,2.5-2.2,4.7-3.9,6.6s-3.7,3.5-6,4.6
				c-2.3,1.1-4.9,1.7-7.8,1.7c-2.8,0-5.4-0.6-7.7-1.8c-2.3-1.2-4.3-2.7-6-4.6s-3-4.1-3.9-6.6c-0.9-2.5-1.4-5.1-1.4-7.8
				c0-2.6,0.4-5.1,1.2-7.5c0.8-2.4,2-4.6,3.6-6.5c1.5-1.9,3.4-3.5,5.6-4.7c2.2-1.3,4.6-2,7.2-2.1V30c0-0.9,0.5-1.3,1.4-1.3
				c3.8,0,7.3,0.8,10.4,2.4c3.1,1.6,5.9,3.7,8.2,6.2s4.1,5.6,5.4,8.9c1.3,3.4,1.9,6.9,1.9,10.5c0,3.6-0.6,7.1-1.9,10.5
				c-1.3,3.4-3.1,6.4-5.4,9c-2.3,2.6-5,4.7-8.2,6.2c-3.2,1.5-6.6,2.3-10.4,2.3c-3.8,0-7.3-0.8-10.4-2.3c-3.2-1.5-5.9-3.6-8.2-6.2
				c-2.3-2.6-4.1-5.6-5.4-9C388.3,63.8,387.6,60.3,387.6,56.7z M405.7,30.4c0.2-0.6,0.6-1,1.4-1c0.2,0,0.4,0,0.5,0.1
				c0.4,0.1,0.6,0.3,0.8,0.7s0.2,0.7,0.1,1.1c-0.3,0.7-0.7,1-1.4,1c-0.6-0.2-1.1-0.5-1.3-0.8C405.6,31.3,405.6,30.9,405.7,30.4
				L405.7,30.4z"/>
			<path class="st1" d="M453.2,58V31.2c0-0.4,0.1-0.7,0.4-1c0.2-0.3,0.6-0.4,1-0.4c0.4,0,0.7,0.1,0.9,0.4c0.2,0.3,0.4,0.6,0.4,1V58
				c0,3.4,0.5,6.5,1.5,9.5c1,3,2.3,5.6,4,7.8c1.7,2.3,3.7,4.1,6,5.5c2.3,1.4,4.7,2.2,7.4,2.4v-5.6c0-0.4,0.1-0.7,0.4-1
				c0.2-0.3,0.5-0.4,0.9-0.4c2.3,0,4.3-0.6,6-1.8c1.7-1.2,3-2.6,4-4.4c1-1.8,1.8-3.7,2.3-5.8c0.5-2.1,0.7-4.2,0.7-6.2V35.8
				c0-0.4,0.1-0.8,0.4-1c0.3-0.2,0.6-0.4,1-0.4c0.9,0,1.3,0.5,1.3,1.4v22.3c0,2.2-0.3,4.5-0.8,6.9c-0.5,2.3-1.4,4.5-2.6,6.4
				c-1.2,1.9-2.7,3.6-4.5,5c-1.8,1.4-4,2.2-6.5,2.4v5.8c0,0.4-0.1,0.7-0.4,1c-0.3,0.3-0.6,0.4-1,0.4c-3.6,0-6.8-0.9-9.6-2.6
				c-2.8-1.7-5.2-3.9-7.1-6.6c-1.9-2.7-3.4-5.7-4.4-9C453.7,64.4,453.2,61.2,453.2,58z M460.2,37.6c0-0.4,0.1-0.7,0.4-1
				c0.2-0.3,0.6-0.4,1-0.4c0.4,0,0.7,0.1,0.9,0.4c0.2,0.3,0.4,0.6,0.4,1v20.6c0,1.5,0.2,3.1,0.5,4.7c0.3,1.6,0.8,3.1,1.4,4.6
				c0.6,1.5,1.5,2.8,2.5,4c1,1.2,2.2,2.3,3.5,3.1c0.3,0.2,0.5,0.5,0.6,0.8c0.1,0.3,0.1,0.7-0.2,1c-0.2,0.4-0.6,0.6-1.1,0.6
				c-0.3,0-0.6-0.1-0.7-0.2c-2.9-1.8-5.1-4.3-6.8-7.6c-1.6-3.3-2.4-7-2.4-11V37.6z M481.6,82.9c2.4-0.9,4.5-2.2,6.3-4
				c1.8-1.7,3.3-3.7,4.5-5.9c1.2-2.2,2.1-4.6,2.7-7.1c0.6-2.5,0.9-5,0.9-7.4V31.2c0-0.4,0.1-0.7,0.4-1c0.2-0.3,0.5-0.4,0.9-0.4
				s0.7,0.1,1,0.4c0.3,0.3,0.4,0.6,0.4,1v27.4c0,2.6-0.3,5.3-1,8.1c-0.7,2.8-1.7,5.4-3,7.8c-1.3,2.5-3,4.6-5,6.6s-4.3,3.3-7,4.2
				c-0.9,0.2-1.5-0.1-1.7-0.7c-0.2-0.4-0.2-0.7,0-1C481.1,83.2,481.3,83,481.6,82.9z M490.8,29.9c0.4,0.2,0.6,0.4,0.8,0.8
				c0.2,0.3,0.2,0.7,0.1,1.1v0.1c-0.3,0.6-0.7,1-1.4,1c-0.6-0.2-1-0.4-1.2-0.8c-0.2-0.4-0.3-0.7-0.2-1.1v-0.1c0.3-0.6,0.7-1,1.4-1
				c0.1,0,0.2,0,0.2,0C490.6,29.9,490.6,29.9,490.8,29.9z"/>
			<path class="st1" d="M518.4,29.2c0.4,0.1,0.6,0.3,0.8,0.7c0.2,0.3,0.2,0.7,0.1,1.1v0.1c-0.3,0.6-0.7,1-1.4,1
				c-0.6-0.2-1-0.4-1.2-0.8c-0.2-0.3-0.3-0.7-0.2-1.2c0.2-0.6,0.6-1,1.4-1C518.1,29.2,518.2,29.2,518.4,29.2z M519.2,35.1v13h6
				c0.9,0,1.3,0.4,1.3,1.3V69c0,0.9-0.4,1.3-1.3,1.3c-0.4,0-0.7-0.1-1-0.4c-0.3-0.2-0.4-0.5-0.4-0.9V50.8h-5.9c-0.4,0-0.7-0.1-1-0.4
				c-0.3-0.3-0.4-0.6-0.4-1V35.1c0-0.4,0.1-0.7,0.4-1c0.3-0.3,0.6-0.4,1-0.4c0.4,0,0.7,0.1,0.9,0.4C519,34.4,519.2,34.7,519.2,35.1z
				 M518,70.3c-0.4,0-0.7-0.1-1-0.4c-0.3-0.2-0.4-0.5-0.4-0.9V56.7c0-0.4,0.1-0.7,0.4-1c0.3-0.3,0.6-0.4,1-0.4
				c0.4,0,0.7,0.1,0.9,0.4c0.2,0.3,0.4,0.6,0.4,1V69C519.2,69.9,518.8,70.3,518,70.3z M516.6,83.6v-7.4c0-0.4,0.1-0.8,0.4-1
				c0.3-0.2,0.6-0.4,1-0.4h7.5c0.9,0,1.3,0.5,1.3,1.4v7.4c0,0.9-0.4,1.4-1.3,1.4H518c-0.4,0-0.7-0.1-1-0.4
				C516.7,84.4,516.6,84.1,516.6,83.6z M519.2,77.5v4.9h4.9v-4.9H519.2z M525.2,29c0.9,0,1.3,0.4,1.3,1.3v12c0,0.4-0.1,0.7-0.4,1
				c-0.2,0.3-0.5,0.4-0.9,0.4s-0.7-0.1-1-0.4c-0.3-0.3-0.4-0.6-0.4-1v-12c0-0.4,0.1-0.7,0.4-0.9C524.5,29.1,524.8,29,525.2,29z"/>
		</g>
	</g>
	<g transform="matrix(1, 0, 0, 1, 326, 92)">
		<g class="st0">
			<path class="st2" d="M126.6,133.5h5c2.2,0,3.9,0.2,5,0.5c2.2,0.8,3.5,2.8,3.5,5.2c0,2-1,3.8-2.5,4.7c-1.5,1-3.8,1.1-6.7,1.1h-2.1
				v10h-2.2V133.5z M128.8,135.6v7.3c1.2,0,2.5,0,3.6,0c1.9,0,3.3-0.1,4.3-0.9c0.8-0.6,1.3-1.7,1.3-2.8c0-1.1-0.5-2.2-1.4-2.8
				c-1-0.7-2.2-0.8-3.9-0.8H128.8z"/>
			<path class="st2" d="M144.6,132.9h2V155h-2V132.9z"/>
			<path class="st2" d="M153.2,147.2c0.1,3.7,2.6,6.3,6,6.3c3.3,0,4.9-1.9,6.1-3.8l1.7,0.9c-1.6,3.2-4.1,4.8-7.6,4.8
				c-5.3,0-8.3-4-8.3-8.3c0-4.3,3.2-8.4,8.2-8.4c4.5,0,8.2,3.3,8.2,8.5H153.2z M165.3,145.4c-0.8-3.3-3.2-4.8-6-4.8
				c-2.8,0-5,1.5-5.9,4.8H165.3z"/>
			<path class="st2" d="M186.1,139.1h2V155h-2v-2.7c-1.7,2.1-3.9,3.1-6.4,3.1c-4.6,0-8.2-3.9-8.2-8.4c0-4.5,3.6-8.3,8.2-8.3
				c2.6,0,4.8,1.1,6.4,3.3V139.1z M173.6,147.1c0,3.4,2.7,6.5,6.3,6.5c3.3,0,6.4-2.5,6.4-6.4c0-3.7-2.8-6.5-6.3-6.5
				C176.3,140.6,173.6,143.6,173.6,147.1z"/>
			<path class="st2" d="M193.4,151.7c1,1.1,2.1,1.8,3.3,1.8c1.6,0,2.9-1.1,2.9-2.6c0-0.9-0.5-1.8-1.3-2.2c-3.7-2-5.5-2.9-5.5-5.7
				c0-2.5,1.9-4.2,4.4-4.2c1.7,0,3.1,0.8,4.4,2.2l-1.3,1.3c-1-0.9-1.9-1.5-3.2-1.5c-1.3,0-2.4,0.9-2.4,2.1c0,0.8,0.5,1.7,1.2,2.1
				c3.7,2.1,5.7,2.9,5.7,5.8c0,2.5-1.9,4.7-4.8,4.7c-1.8,0-3.6-0.8-4.7-2.3L193.4,151.7z"/>
			<path class="st2" d="M207.5,147.2c0.1,3.7,2.6,6.3,6,6.3c3.3,0,4.9-1.9,6.1-3.8l1.7,0.9c-1.6,3.2-4.1,4.8-7.6,4.8
				c-5.3,0-8.3-4-8.3-8.3c0-4.3,3.2-8.4,8.2-8.4c4.5,0,8.2,3.3,8.2,8.5H207.5z M219.6,145.4c-0.8-3.3-3.2-4.8-6-4.8
				c-2.8,0-5,1.5-5.9,4.8H219.6z"/>
			<path class="st2" d="M251.6,151.8c0,2.6-0.1,4.8-1.4,6.5c-1.4,1.8-3.7,2.9-6.8,2.9c-4.6,0-6.8-1.9-8.2-5h2.2
				c1.2,2.1,3.1,3.1,5.9,3.1c2.6,0,4.6-1,5.5-2.7c0.6-1.1,0.7-2.2,0.7-3.5V152c-1.6,2-3.9,3-6.4,3c-4.4,0-8.2-3.4-8.2-8.1
				c0-4.7,3.9-8.3,8.2-8.3c2.8,0,4.7,1.2,6.4,3.2v-2.8h2.1V151.8z M237.1,147.1c0,3.2,2.2,6,6.4,6c3.5,0,6.1-2.4,6.1-6.1
				c0-3.8-2.9-6.3-6.1-6.3C239.9,140.6,237.1,143.4,237.1,147.1z"/>
			<path class="st2" d="M258.2,147.2c0.1,3.7,2.6,6.3,6,6.3c3.3,0,4.9-1.9,6.1-3.8l1.7,0.9c-1.6,3.2-4.1,4.8-7.6,4.8
				c-5.3,0-8.3-4-8.3-8.3c0-4.3,3.2-8.4,8.2-8.4c4.5,0,8.2,3.3,8.2,8.5H258.2z M270.3,145.4c-0.8-3.3-3.2-4.8-6-4.8
				c-2.8,0-5,1.5-5.9,4.8H270.3z"/>
			<path class="st2" d="M279.1,133.1h2v5.9h3.3v1.8h-3.3V155h-2v-14.1h-2.8v-1.8h2.8V133.1z"/>
			<path class="st2" d="M295.8,139.1h2.2l5.5,12.3l5.3-12.3h2.2l-9.5,21.7h-2.2l3.1-7L295.8,139.1z"/>
			<path class="st2" d="M330.4,147.1c0,4.5-3.5,8.3-8.3,8.3s-8.3-3.8-8.3-8.3c0-4.6,3.5-8.4,8.3-8.4
				C326.9,138.7,330.4,142.5,330.4,147.1z M315.9,147.1c0,3.5,2.6,6.3,6.2,6.3c3.6,0,6.2-2.9,6.2-6.3c0-3.5-2.8-6.5-6.2-6.5
				C318.7,140.6,315.9,143.6,315.9,147.1z"/>
			<path class="st2" d="M346.7,139.1h2.2v8.2c0,5.4-2.4,8.1-7,8.1s-7-2.7-7-8.1v-8.2h2.2v7.8c0,1.7,0,3.1,0.5,4
				c0.8,1.6,2.4,2.5,4.4,2.5c1.5,0,2.8-0.5,3.6-1.4c1.3-1.3,1.2-2.9,1.2-5.2V139.1z"/>
			<path class="st2" d="M355.6,141.4c1.2-1.7,2.5-2.7,4.1-2.7c0.9,0,1.4,0.3,1.8,0.5l-1.1,1.7c-0.2-0.1-0.6-0.3-1.1-0.3
				c-1.5,0-2.8,1.3-3.5,3.5c-0.3,1-0.3,2.7-0.3,4.8v6.1h-2.2v-15.9h2.2V141.4z"/>
			<path class="st2" d="M374.7,141.4c1.2-1.7,2.5-2.7,4.1-2.7c0.9,0,1.4,0.3,1.8,0.5l-1.1,1.7c-0.2-0.1-0.6-0.3-1.1-0.3
				c-1.5,0-2.8,1.3-3.4,3.5c-0.3,1-0.3,2.7-0.3,4.8v6.1h-2.2v-15.9h2.2V141.4z"/>
			<path class="st2" d="M384.5,147.2c0.1,3.7,2.6,6.3,6,6.3c3.3,0,4.9-1.9,6.1-3.8l1.7,0.9c-1.6,3.2-4.1,4.8-7.6,4.8
				c-5.3,0-8.3-4-8.3-8.3c0-4.3,3.2-8.4,8.2-8.4c4.5,0,8.2,3.3,8.2,8.5H384.5z M396.6,145.4c-0.8-3.3-3.2-4.8-6-4.8
				c-2.8,0-5,1.5-5.9,4.8H396.6z"/>
			<path class="st2" d="M401.4,139.1h2.1l4.9,11.5l5.1-11.5h0.4l5.1,11.5l4.9-11.5h2.1l-6.9,15.9h-0.4l-5.1-11.4l-5.1,11.4h-0.4
				L401.4,139.1z"/>
			<path class="st2" d="M443.3,139.1h2V155h-2v-2.7c-1.7,2.1-3.9,3.1-6.4,3.1c-4.7,0-8.2-3.9-8.2-8.4c0-4.5,3.6-8.3,8.2-8.3
				c2.6,0,4.8,1.1,6.4,3.3V139.1z M430.8,147.1c0,3.4,2.7,6.5,6.3,6.5c3.3,0,6.4-2.5,6.4-6.4c0-3.7-2.8-6.5-6.3-6.5
				C433.4,140.6,430.8,143.6,430.8,147.1z"/>
			<path class="st2" d="M452.1,141.4c1.2-1.7,2.5-2.7,4.1-2.7c0.9,0,1.4,0.3,1.8,0.5l-1.1,1.7c-0.2-0.1-0.6-0.3-1.1-0.3
				c-1.5,0-2.8,1.3-3.4,3.5c-0.3,1-0.3,2.7-0.3,4.8v6.1H450v-15.9h2.2V141.4z"/>
			<path class="st2" d="M474.4,152.3c-1.7,2.1-3.9,3.1-6.4,3.1c-4.7,0-8.2-3.9-8.2-8.4c0-4.5,3.6-8.3,8.2-8.3c2.6,0,4.8,1.1,6.4,3.3
				v-9.1h2V155h-2V152.3z M461.9,147.1c0,3.4,2.7,6.5,6.3,6.5c3.3,0,6.3-2.5,6.3-6.4c0-3.7-2.7-6.5-6.3-6.5
				C464.6,140.6,461.9,143.6,461.9,147.1z"/>
		</g>
		<g class="st0">
			<path class="st2" d="M140.1,181.1h2V197h-2v-2.7c-1.7,2.1-3.9,3.1-6.4,3.1c-4.6,0-8.2-3.9-8.2-8.4c0-4.5,3.6-8.3,8.2-8.3
				c2.6,0,4.8,1.1,6.4,3.3V181.1z M127.7,189.1c0,3.4,2.7,6.5,6.3,6.5c3.3,0,6.4-2.5,6.4-6.4c0-3.7-2.8-6.5-6.3-6.5
				C130.3,182.6,127.7,185.6,127.7,189.1z"/>
			<path class="st2" d="M149.5,175.1h2v5.9h3.3v1.8h-3.3V197h-2v-14.1h-2.8v-1.8h2.8V175.1z"/>
			<path class="st2" d="M167.9,174.9h2v9c1.6-2.2,3.6-3.3,6-3.3c3.4,0,5.9,2.4,5.9,7.2v9.1h-2v-8.7c0-3.8-1.1-5.8-4.2-5.8
				c-1.7,0-3.1,0.8-4.2,2.2c-1.2,1.5-1.4,3.1-1.4,5.6v6.7h-2V174.9z"/>
			<path class="st2" d="M203,189.1c0,4.5-3.5,8.3-8.3,8.3s-8.3-3.8-8.3-8.3c0-4.6,3.5-8.4,8.3-8.4C199.5,180.7,203,184.5,203,189.1z
				 M188.5,189.1c0,3.5,2.6,6.3,6.2,6.3c3.6,0,6.2-2.9,6.2-6.3c0-3.5-2.8-6.5-6.2-6.5C191.3,182.6,188.5,185.6,188.5,189.1z"/>
			<path class="st2" d="M209.5,175.1h2v5.9h3.3v1.8h-3.3V197h-2v-14.1h-2.8v-1.8h2.8V175.1z"/>
			<path class="st2" d="M220.1,189.2c0.1,3.7,2.6,6.3,6,6.3c3.3,0,4.9-1.9,6.1-3.8l1.7,0.9c-1.6,3.2-4.1,4.8-7.6,4.8
				c-5.3,0-8.3-4-8.3-8.3c0-4.3,3.2-8.4,8.2-8.4c4.5,0,8.2,3.3,8.2,8.5H220.1z M232.2,187.4c-0.8-3.3-3.2-4.8-6-4.8
				c-2.8,0-5,1.5-5.9,4.8H232.2z"/>
			<path class="st2" d="M238.9,174.9h2V197h-2V174.9z"/>
			<path class="st2" d="M256.2,178.6c0-2.6,0.6-4.1,3.2-4.1c0.9,0,1.7,0.2,2.3,0.5v2c-0.5-0.2-1.1-0.5-1.9-0.5c-1.7,0-1.6,1-1.6,2.5
				v2.2h3.4v1.8h-3.4V197h-2v-14.1h-2.1v-1.8h2.1V178.6z"/>
			<path class="st2" d="M266.9,183.4c1.2-1.7,2.5-2.7,4.1-2.7c0.9,0,1.4,0.3,1.8,0.5l-1.1,1.7c-0.2-0.1-0.6-0.3-1.1-0.3
				c-1.5,0-2.8,1.3-3.4,3.5c-0.3,1-0.3,2.7-0.3,4.8v6.1h-2.2v-15.9h2.2V183.4z"/>
			<path class="st2" d="M291.3,189.1c0,4.5-3.5,8.3-8.3,8.3s-8.3-3.8-8.3-8.3c0-4.6,3.5-8.4,8.3-8.4
				C287.7,180.7,291.3,184.5,291.3,189.1z M276.8,189.1c0,3.5,2.6,6.3,6.2,6.3c3.6,0,6.2-2.9,6.2-6.3c0-3.5-2.8-6.5-6.2-6.5
				C279.5,182.6,276.8,185.6,276.8,189.1z"/>
			<path class="st2" d="M298,183.9c1.6-2.2,3.6-3.3,6-3.3c3.5,0,5.9,2.4,5.9,7.4v8.9h-2v-8.7c0-3.8-1.2-5.8-4.3-5.8
				c-1.7,0-3.1,0.8-4.2,2.2c-1.2,1.6-1.4,3.1-1.4,5.6v6.7h-2v-15.9h2V183.9z"/>
			<path class="st2" d="M317,175.1h2v5.9h3.3v1.8H319V197h-2v-14.1h-2.8v-1.8h2.8V175.1z"/>
			<path class="st2" d="M330.2,195.6c0,1-0.8,1.8-1.8,1.8c-1,0-1.8-0.8-1.8-1.8s0.8-1.8,1.8-1.8
				C329.3,193.8,330.2,194.6,330.2,195.6z M329.4,174.9v16.7h-2.1v-16.7H329.4z"/>
		</g>
	</g>
	<g id="グループ_60" transform="translate(322.804 196.201)">
		<g id="グループ_44" transform="translate(29.866 26.18)">
			<path id="パス_17" class="st2" d="M72.5,15.8H6.3C2.8,15.8,0,13,0,9.5V6.3C0,2.8,2.8,0,6.3,0h27c1.2,0,2.1,1,2.1,2.2
				c0,1.1-0.9,2.1-2.1,2.1h-27c-1.2,0-2.1,1-2.1,2.1v3.3c0,1.2,1,2.1,2.1,2.1h66.4c1.2,0,2.1-1,2.1-2.1V6.4c0-1.2-1-2.1-2.1-2.1h-27
				c-1.2,0-2.2-0.9-2.2-2.1C43.5,1,44.4,0,45.6,0c0,0,0.1,0,0.1,0h27c3.4,0,6.2,2.8,6.3,6.3v3.3C78.8,13,76,15.7,72.5,15.8z"/>
		</g>
		<g id="グループ_45" transform="translate(37.974 37.702)">
			<path id="パス_18" class="st2" d="M52.3,58H18.6c-1.2,0-2.2-0.9-2.2-2.1c0-1.2,0.9-2.2,2.1-2.2c0,0,0.1,0,0.1,0h33.7
				c3.3,0,6-2.7,6-6V4.3H4.3v24.9c0,1.2-0.9,2.2-2.1,2.2S0,30.4,0,29.3c0,0,0-0.1,0-0.1v-27C0,1,1,0,2.1,0h58.3c1.2,0,2.1,1,2.1,2.1
				v45.8C62.6,53.6,58,58.1,52.3,58C52.4,58,52.3,58,52.3,58z"/>
		</g>
		<g id="グループ_46" transform="translate(61.018 19.637)">
			<path id="パス_19" class="st2" d="M8.2,16.5C3.7,16.5,0,12.8,0,8.2S3.7,0,8.3,0s8.2,3.7,8.2,8.2C16.5,12.8,12.8,16.5,8.2,16.5z
				 M8.2,4.1C6,4.1,4.1,6,4.1,8.2s1.8,4.1,4.1,4.1s4.1-1.8,4.1-4.1C12.4,6,10.5,4.1,8.2,4.1z"/>
		</g>
		<g id="グループ_49" transform="translate(47.22 14.799)">
			<g id="グループ_47" transform="translate(24.945)">
				<path id="パス_20" class="st2" d="M13.3,15.5c-0.5,0-1.1-0.2-1.4-0.6c-0.9-0.7-1-2-0.2-2.9c0,0,0-0.1,0.1-0.1l2.4-2.7
					c0.4-0.6,0.7-1.3,0.7-2c0-0.9-0.4-1.7-1-2.3C12.7,4,11,4,9.8,5l-6.3,6c-0.8,0.8-2.1,0.8-2.9-0.1c0,0,0,0-0.1-0.1
					C-0.2,10-0.2,8.7,0.7,8l6.3-6c2.7-2.6,7-2.7,9.8-0.1c1.6,1.4,2.4,3.3,2.4,5.4c-0.1,1.8-0.7,3.5-1.8,4.8l-2.4,2.7
					C14.5,15.2,13.9,15.5,13.3,15.5z"/>
			</g>
			<g id="グループ_48" transform="translate(0 0.054)">
				<path id="パス_21" class="st2" d="M5.8,15.5c-0.6,0-1.2-0.3-1.6-0.7L1.8,12c-2.7-3-2.4-7.6,0.6-10.2c0,0,0,0,0,0
					c2.8-2.4,7.1-2.4,9.8,0.1l6.3,6c0.9,0.8,1,2.1,0.2,3c-0.8,0.9-2.1,1-3,0.2c0,0,0,0-0.1-0.1l-6.3-6c-1.1-1.1-3-1.1-4.1,0
					c-0.7,0.6-1,1.4-1,2.3c0,0.7,0.3,1.4,0.7,2L7.4,12c0.7,0.9,0.7,2.2-0.1,3C6.8,15.3,6.3,15.5,5.8,15.5z"/>
			</g>
		</g>
		<g id="グループ_52" transform="translate(53.075 30.003)">
			<g id="グループ_50" transform="translate(0 0.041)">
				<path id="パス_22" class="st2" d="M2.1,16.9c-0.5,0-0.9-0.2-1.3-0.4c-0.9-0.7-1.1-2-0.4-3l9.7-12.7c0.7-1,2-1.2,3-0.5
					c1,0.7,1.2,2,0.5,3c0,0,0,0,0,0.1L3.8,16C3.4,16.6,2.8,16.9,2.1,16.9z"/>
			</g>
			<g id="グループ_51" transform="translate(18.45)">
				<path id="パス_23" class="st2" d="M11.8,16.9c-0.7,0-1.3-0.3-1.7-0.9L0.4,3.4c-0.7-0.9-0.6-2.3,0.4-3c0.9-0.7,2.3-0.6,3,0.4
					c0,0,0,0,0,0.1l9.7,12.7c0.7,0.9,0.5,2.2-0.4,2.9c0,0,0,0-0.1,0C12.7,16.8,12.3,16.9,11.8,16.9z"/>
			</g>
		</g>
		<g id="グループ_53" transform="translate(67.134 37.702)">
			<path id="パス_24" class="st2" d="M2.1,58C1,58,0,57.1,0,55.9V2.1C0,1,0.9,0,2.1,0c1.2,0,2.2,0.9,2.2,2.1c0,0,0,0.1,0,0.1V56
				C4.2,57.2,3.3,58.1,2.1,58z"/>
		</g>
		<g id="グループ_59" transform="translate(18.196 64.444)">
			<g id="グループ_54" transform="translate(6.549)">
				<path id="パス_25" class="st2" d="M16.9,33.9c-1.8,0-3.3-1.1-4.4-2c-0.4-0.4-0.9-0.7-1.4-1c-0.6-0.2-1.1-0.3-1.7-0.3
					c-1.6,0-3.2-0.6-4.4-1.7c-1.1-1.2-1.7-2.8-1.7-4.4c-0.1-0.7-0.1-1.3-0.3-1.7c-0.3-0.5-0.6-1-1-1.4c-0.9-1.1-2-2.6-2-4.4
					s1.1-3.3,2-4.4c0.4-0.4,0.7-0.9,1-1.4c0.2-0.6,0.3-1.1,0.3-1.7C3.3,7.8,3.9,6.2,5,5c1.2-1.1,2.8-1.7,4.4-1.7
					c0.7-0.1,1.3-0.1,1.7-0.3c0.5-0.3,1-0.6,1.4-1c1.1-0.9,2.6-2,4.4-2s3.3,1.1,4.4,2c0.4,0.4,0.9,0.7,1.4,1
					c0.6,0.2,1.1,0.3,1.7,0.3c1.6,0,3.2,0.6,4.4,1.7c1.1,1.2,1.7,2.8,1.7,4.4c0.1,0.7,0.1,1.3,0.3,1.7c0.3,0.5,0.6,1,1,1.4
					c0.9,1.1,2,2.6,2,4.4s-1.1,3.3-2,4.4c-0.4,0.4-0.7,0.9-1,1.4c-0.2,0.6-0.3,1.1-0.3,1.7c0,1.6-0.6,3.2-1.7,4.4
					c-1.2,1.1-2.8,1.7-4.4,1.7c-0.7,0.1-1.3,0.1-1.7,0.3c-0.5,0.3-1,0.6-1.4,1C20.2,33.1,18.6,33.8,16.9,33.9z M16.9,4
					c-0.4,0-1.1,0.6-1.8,1.1c-0.7,0.6-1.5,1.2-2.4,1.6c-0.9,0.4-1.9,0.6-2.8,0.6c-0.7,0.1-1.4,0.3-2,0.6c-0.3,0.6-0.5,1.3-0.6,2
					c-0.1,1-0.3,1.9-0.6,2.8c-0.4,0.9-1,1.7-1.6,2.4C4.6,15.8,4,16.5,4,16.9s0.6,1.1,1.1,1.8c0.6,0.7,1.2,1.5,1.6,2.4
					c0.4,0.9,0.6,1.9,0.6,2.8c0.1,0.7,0.3,1.4,0.6,2c0.6,0.3,1.3,0.5,2,0.6c1,0.1,1.9,0.3,2.8,0.6c0.9,0.4,1.7,1,2.4,1.6
					c0.7,0.6,1.4,1.1,1.8,1.1s1.1-0.6,1.8-1.1c0.7-0.6,1.5-1.2,2.4-1.6c0.9-0.4,1.9-0.6,2.8-0.6c0.7-0.1,1.4-0.3,2-0.6
					c0.3-0.6,0.5-1.3,0.6-2c0.1-1,0.3-1.9,0.6-2.8c0.4-0.9,1-1.7,1.6-2.4c0.6-0.7,1.1-1.4,1.1-1.8s-0.6-1.1-1.1-1.8
					c-0.6-0.7-1.2-1.5-1.6-2.4c-0.4-0.9-0.6-1.9-0.6-2.8c-0.1-0.7-0.3-1.4-0.6-2c-0.6-0.3-1.3-0.5-2-0.6c-1-0.1-1.9-0.3-2.8-0.6
					c-0.9-0.4-1.7-1-2.4-1.6C18.1,4.6,17.4,4,16.9,4L16.9,4z"/>
			</g>
			<g id="グループ_55" transform="translate(14.799 8.25)">
				<path id="パス_26" class="st2" d="M8.7,17.4C3.9,17.4,0,13.5,0,8.7S3.9,0,8.7,0c4.8,0.1,8.6,3.9,8.7,8.7
					C17.3,13.5,13.5,17.3,8.7,17.4z M8.7,4C6.2,4,4.1,6,4.1,8.5s2,4.6,4.6,4.6c2.5,0,4.6-2,4.6-4.6c0-2.5-2-4.5-4.4-4.6
					C8.8,4,8.7,4,8.7,4z"/>
			</g>
			<g id="グループ_58" transform="translate(0 20.461)">
				<g id="グループ_56" transform="translate(0 0.081)">
					<path id="パス_27" class="st2" d="M12.7,29.8c-0.7,0-1.4-0.4-1.8-1L8,24l-5.5,1.1c-0.7,0.1-1.5-0.1-2-0.7
						C0,23.8-0.1,23,0.1,22.3L9.5,1.2c0.5-1,1.7-1.5,2.7-1c1,0.5,1.5,1.7,1,2.7L5.4,20.1l3-0.6c0.9-0.1,1.8,0.3,2.3,1l1.6,2.7
						l6.4-14.1c0.5-1,1.7-1.5,2.7-1c1,0.5,1.5,1.7,1,2.7l-8,17.8C14.2,29.4,13.4,29.9,12.7,29.8L12.7,29.8z"/>
				</g>
				<g id="グループ_57" transform="translate(24.307)">
					<path id="パス_28" class="st2" d="M10,29.9L10,29.9c-0.8,0-1.5-0.5-1.8-1.3l-8-17.8c-0.5-1,0-2.2,1-2.7c1-0.5,2.2,0,2.7,1
						l0,0l6.4,14.1l1.6-2.7c0.5-0.8,1.4-1.2,2.3-1l3,0.6L9.3,2.9c-0.5-1,0-2.2,1-2.7c1-0.5,2.2,0,2.7,1l9.4,20.9
						c0.3,0.7,0.2,1.5-0.3,2.1c-0.5,0.6-1.2,0.9-2,0.7l-5.5-0.9l-2.8,4.8C11.4,29.6,10.7,30,10,29.9z"/>
				</g>
			</g>
		</g>
	</g>
</g>
</svg>
