<svg xmlns="http://www.w3.org/2000/svg" xmlns:xlink="http://www.w3.org/1999/xlink" viewBox="0 0 1559.31 871.48"><defs><style>.cls-1{fill:none;}.cls-2{clip-path:url(#clip-path);}.cls-3{fill:url(#名称未設定グラデーション_6);}.cls-13,.cls-16,.cls-19,.cls-22,.cls-25,.cls-30,.cls-31,.cls-32,.cls-33,.cls-4,.cls-7,.cls-8{fill-rule:evenodd;}.cls-4{fill:url(#linear-gradient);}.cls-5{fill:url(#linear-gradient-2);}.cls-6{fill:url(#linear-gradient-3);}.cls-7{fill:url(#linear-gradient-4);}.cls-8{fill:#ffa47a;}.cls-9{fill:url(#linear-gradient-5);}.cls-10{fill:url(#linear-gradient-6);}.cls-11{fill:url(#linear-gradient-7);}.cls-12{fill:url(#linear-gradient-8);}.cls-13{fill:url(#linear-gradient-9);}.cls-14{fill:url(#linear-gradient-10);}.cls-15{fill:url(#linear-gradient-11);}.cls-16{fill:url(#linear-gradient-12);}.cls-17{fill:url(#linear-gradient-13);}.cls-18{fill:url(#linear-gradient-14);}.cls-19{fill:url(#linear-gradient-15);}.cls-20{fill:url(#linear-gradient-16);}.cls-21{fill:url(#linear-gradient-17);}.cls-22{fill:url(#linear-gradient-18);}.cls-23{fill:url(#linear-gradient-19);}.cls-24{fill:url(#linear-gradient-20);}.cls-25{fill:url(#linear-gradient-21);}.cls-26{fill:url(#linear-gradient-22);}.cls-27{fill:url(#linear-gradient-23);}.cls-28,.cls-31{fill:#a8798a;}.cls-29,.cls-30{fill:#ffd07f;}.cls-32{fill:#704560;}.cls-33{fill:#c7764d;}.cls-34{fill:url(#linear-gradient-24);}.cls-35{fill:url(#linear-gradient-25);}.cls-36{fill:url(#linear-gradient-26);}.cls-37{fill:url(#linear-gradient-27);}.cls-38{fill:url(#linear-gradient-28);}.cls-39{fill:url(#linear-gradient-29);}.cls-40{fill:url(#linear-gradient-30);}</style><clipPath id="clip-path"><rect class="cls-1" x="149.06" y="137.41" width="1282.05" height="656.05"/></clipPath><linearGradient id="名称未設定グラデーション_6" x1="123.16" y1="445.46" x2="1669.37" y2="445.46" gradientTransform="matrix(-1, 0, 0, 1, 1682.47, 0)" gradientUnits="userSpaceOnUse"><stop offset="0" stop-color="#ffd38c"/><stop offset="1" stop-color="#ff6352"/></linearGradient><linearGradient id="linear-gradient" x1="604.35" y1="733.36" x2="604.35" y2="324.71" gradientTransform="matrix(1, 0, 0, 1, 0, 0)" xlink:href="#名称未設定グラデーション_6"/><linearGradient id="linear-gradient-2" x1="987.44" y1="733.36" x2="987.44" y2="405.7" gradientUnits="userSpaceOnUse"><stop offset="0" stop-color="#ed9a74"/><stop offset="1" stop-color="#a8798a"/></linearGradient><linearGradient id="linear-gradient-3" x1="1027.93" y1="733.36" x2="1027.93" y2="405.7" gradientUnits="userSpaceOnUse"><stop offset="0" stop-color="#ffaf8a"/><stop offset="1" stop-color="#ffd07f"/></linearGradient><linearGradient id="linear-gradient-4" x1="965.1" y1="728.71" x2="965.1" y2="410.35" gradientUnits="userSpaceOnUse"><stop offset="0" stop-color="#ed856b"/><stop offset="1" stop-color="#855975"/></linearGradient><linearGradient id="linear-gradient-5" x1="314.88" y1="733.36" x2="314.88" y2="405.7" xlink:href="#linear-gradient-2"/><linearGradient id="linear-gradient-6" x1="364.22" y1="733.36" x2="364.22" y2="405.7" xlink:href="#linear-gradient-3"/><linearGradient id="linear-gradient-7" x1="885.51" y1="733.36" x2="885.51" y2="660.75" xlink:href="#linear-gradient-2"/><linearGradient id="linear-gradient-8" x1="965.1" y1="733.36" x2="965.1" y2="660.75" xlink:href="#linear-gradient-3"/><linearGradient id="linear-gradient-9" x1="860.84" y1="725.92" x2="860.84" y2="668.2" xlink:href="#linear-gradient-4"/><linearGradient id="linear-gradient-10" x1="885.97" y1="660.75" x2="885.97" y2="611.42" xlink:href="#linear-gradient-2"/><linearGradient id="linear-gradient-11" x1="957.65" y1="660.75" x2="957.65" y2="611.42" xlink:href="#linear-gradient-3"/><linearGradient id="linear-gradient-12" x1="865.03" y1="654.24" x2="865.03" y2="617.93" xlink:href="#linear-gradient-4"/><linearGradient id="linear-gradient-13" x1="437.76" y1="733.36" x2="437.76" y2="474.58" xlink:href="#linear-gradient-2"/><linearGradient id="linear-gradient-14" x1="489.89" y1="733.36" x2="489.89" y2="474.58" xlink:href="#linear-gradient-3"/><linearGradient id="linear-gradient-15" x1="408.44" y1="725.92" x2="408.44" y2="482.03" xlink:href="#linear-gradient-4"/><linearGradient id="linear-gradient-16" x1="215.07" y1="733.36" x2="215.07" y2="576.98" xlink:href="#linear-gradient-2"/><linearGradient id="linear-gradient-17" x1="256.96" y1="733.36" x2="256.96" y2="576.98" xlink:href="#linear-gradient-3"/><linearGradient id="linear-gradient-18" x1="190.87" y1="725.92" x2="190.87" y2="585.35" xlink:href="#linear-gradient-4"/><linearGradient id="linear-gradient-19" x1="215.53" y1="576.98" x2="215.53" y2="525.78" xlink:href="#linear-gradient-2"/><linearGradient id="linear-gradient-20" x1="249.98" y1="576.98" x2="249.98" y2="525.78" xlink:href="#linear-gradient-3"/><linearGradient id="linear-gradient-21" x1="195.52" y1="570.46" x2="195.52" y2="533.22" xlink:href="#linear-gradient-4"/><linearGradient id="linear-gradient-22" x1="275.69" y1="732.36" x2="275.69" y2="400.27" gradientUnits="userSpaceOnUse"><stop offset="0" stop-color="#ff5252"/><stop offset="1" stop-color="#c44166"/></linearGradient><linearGradient id="linear-gradient-23" x1="322.05" y1="732.36" x2="322.05" y2="400.27" gradientUnits="userSpaceOnUse"><stop offset="0" stop-color="#ffae52"/><stop offset="1" stop-color="#c4414a"/></linearGradient><linearGradient id="linear-gradient-24" x1="275.79" y1="399.26" x2="275.79" y2="383.59" xlink:href="#linear-gradient-22"/><linearGradient id="linear-gradient-25" x1="282.62" y1="399.26" x2="282.62" y2="383.59" xlink:href="#linear-gradient-23"/><linearGradient id="linear-gradient-26" x1="275.79" y1="381.07" x2="275.79" y2="348.72" xlink:href="#linear-gradient-22"/><linearGradient id="linear-gradient-27" x1="279.08" y1="381.07" x2="279.08" y2="348.72" xlink:href="#linear-gradient-23"/><linearGradient id="linear-gradient-28" x1="275.79" y1="308.28" x2="275.79" y2="298.17" xlink:href="#linear-gradient-22"/><linearGradient id="linear-gradient-29" x1="278.57" y1="308.28" x2="278.57" y2="298.17" xlink:href="#linear-gradient-23"/><linearGradient id="linear-gradient-30" x1="275.54" y1="298.17" x2="275.54" y2="256.22" xlink:href="#linear-gradient-22"/></defs><title>back-city</title><g id="Layer_2" data-name="Layer 2"><g id="レイヤー_1" data-name="レイヤー 1"><g class="cls-2"><path class="cls-3" d="M1559.31,715.18c-222.9,2.19-446.06-60.63-635.09-178.78-57-35.65-110.9-76.12-167-113.26C572.63,300.92,420.42,200.46,146.52,173L13.1,527.51C261.92,670.14,556.18,759,836.6,698.81c77.08-16.53,151.35-43.87,227-65.9C1221.08,587.08,1344,522,1547.29,540.05Z"/><path class="cls-4" d="M1060.51,454.1V733.36H165.9c-36.16-88.43-10.2-147.89,17.73-220.58v41.85H258.1V369.39h86.57v83.78H446.14V423.38H462V363.81h16.76v-39.1h61.43v39.1h16.76v59.57H571.8V533.22H717v26.07h98.67V512.75h69.82v-148h76.33V454.1Z"/><rect class="cls-5" x="924.6" y="405.7" width="125.67" height="327.67"/><rect class="cls-6" x="1005.59" y="405.7" width="44.68" height="327.67"/><path class="cls-7" d="M1001.87,427.11V410.35H928.33v16.76Zm0,301.6V712.88H928.33v15.83Zm0-17.69V694.27H928.33V711Zm0-19.55V674.72H928.33v16.75Zm0-18.61V657H928.33v15.83Zm0-19.55V637.48H928.33v15.83Zm0-18.62V618.87H928.33v15.82Zm0-19.55V599.32H928.33v15.82Zm0-18.62V580.7H928.33v15.82Zm0-19.54V561.15H928.33V577Zm0-17.69V542.53H928.33v16.76Zm0-19.55V523H928.33v16.75Zm0-18.62V505.3H928.33v15.82Zm0-18.61V485.75H928.33v16.76Zm0-19.55V467.13H928.33V483Zm0-18.62V448.52H928.33v15.82Zm0-19.55V429H928.33v15.82Z"/><path class="cls-8" d="M1047.48,427.11V410.35h-39.1v16.76Zm0,301.6V712.88h-39.1v15.83Zm0-17.69V694.27h-39.1V711Zm0-19.55V674.72h-39.1v16.75Zm0-18.61V657h-39.1v15.83Zm0-19.55V637.48h-39.1v15.83Zm0-18.62V618.87h-39.1v15.82Zm0-19.55V599.32h-39.1v15.82Zm0-18.62V580.7h-39.1v15.82Zm0-19.54V561.15h-39.1V577Zm0-17.69V542.53h-39.1v16.76Zm0-19.55V523h-39.1v16.75Zm0-18.62V505.3h-39.1v15.82Zm0-18.61V485.75h-39.1v16.76Zm0-19.55V467.13h-39.1V483Zm0-18.62V448.52h-39.1v15.82Zm0-19.55V429h-39.1v15.82Z"/><rect class="cls-9" x="238.55" y="405.7" width="152.66" height="327.67"/><rect class="cls-10" x="337.22" y="405.7" width="53.99" height="327.67"/><path class="cls-8" d="M339.09,733.36h5.58v-323h-5.58Zm44.68,0h5.58v-323h-5.58Zm-5.59,0h5.59v-323h-5.59Zm-7.44,0h5.58v-323h-5.58Zm-5.59,0h4.65v-323h-4.65Zm-6.52,0h5.59v-323h-5.59Zm-5.58,0h3.72v-323h-3.72Zm-7.45,0h5.59v-323H345.6Z"/><rect class="cls-11" x="783.11" y="660.75" width="204.79" height="72.61"/><rect class="cls-12" x="942.29" y="660.75" width="45.61" height="72.61"/><path class="cls-8" d="M946.94,725.92h4.66V709.16h-4.66Zm31.65,0h6.52V709.16h-6.52Zm-7.44,0h5.58V709.16h-5.58Zm-8.38,0h5.58V709.16h-5.58Zm-8.38,0h6.52V709.16h-6.52Zm-7.45-21.41h4.66V688.68h-4.66Zm31.65,0h6.52V688.68h-6.52Zm-7.44,0h5.58V688.68h-5.58Zm-8.38,0h5.58V688.68h-5.58Zm-8.38,0h6.52V688.68h-6.52ZM946.94,684h4.66V668.2h-4.66Zm31.65,0h6.52V668.2h-6.52Zm-7.44,0h5.58V668.2h-5.58Zm-8.38,0h5.58V668.2h-5.58Zm-8.38,0h6.52V668.2h-6.52Z"/><path class="cls-13" d="M849.2,725.92h9.31V709.16H849.2Zm75.4,0h9.31V709.16H924.6Zm-136.83,0h9.3V709.16h-9.3Zm0-21.41h9.3V688.68h-9.3Zm0-20.48h9.3V668.2h-9.3Zm121,41.89H919V709.16H908.78Zm-14.89,0h10.23V709.16H893.89Zm-14.9,0h10.24V709.16H879Zm-14.89,0h10.24V709.16H864.1Zm60.5-21.41h9.31V688.68H924.6Zm-15.82,0H919V688.68H908.78Zm-14.89,0h10.23V688.68H893.89Zm-14.9,0h10.24V688.68H879Zm-14.89,0h10.24V688.68H864.1ZM924.6,684h9.31V668.2H924.6Zm-15.82,0H919V668.2H908.78Zm-14.89,0h10.23V668.2H893.89ZM879,684h10.24V668.2H879Zm-14.89,0h10.24V668.2H864.1Zm-30.72,41.89h10.24V709.16H833.38Zm-14.9,0h10.24V709.16H818.48Zm-15.82,0h11.17V709.16H802.66Zm46.54-21.41h9.31V688.68H849.2Zm-15.82,0h10.24V688.68H833.38Zm-14.9,0h10.24V688.68H818.48Zm-15.82,0h11.17V688.68H802.66ZM849.2,684h9.31V668.2H849.2Zm-15.82,0h10.24V668.2H833.38Zm-14.9,0h10.24V668.2H818.48Zm-15.82,0h11.17V668.2H802.66Z"/><rect class="cls-14" x="795.21" y="611.42" width="181.52" height="49.34"/><rect class="cls-15" x="938.57" y="611.42" width="38.17" height="49.34"/><path class="cls-8" d="M942.29,654.24h5.59V638.41h-5.59Zm25.13,0H973V638.41h-5.59Zm-8.37,0h6.51V638.41h-6.51Zm-7.45,0h4.65V638.41H951.6Zm-9.31-20.48h5.59V617.93h-5.59Zm25.13,0H973V617.93h-5.59Zm-8.37,0h6.51V617.93h-6.51Zm-7.45,0h4.65V617.93H951.6Z"/><path class="cls-16" d="M844.55,654.24h10.24V638.41H844.55Zm77.26,0h8.38V638.41h-8.38Zm-16.75,0H915.3V638.41H905.06Zm-14.9,0H900.4V638.41H890.16Zm-14.89,0h10.24V638.41H875.27Zm-14.9,0h9.31V638.41h-9.31Zm61.44-20.48h8.38V617.93h-8.38Zm-16.75,0H915.3V617.93H905.06Zm-14.9,0H900.4V617.93H890.16Zm-14.89,0h10.24V617.93H875.27Zm-14.9,0h9.31V617.93h-9.31Zm-30.72,20.48h10.24V638.41H829.65Zm-14.89,0H825V638.41H814.76Zm-14.89,0h10.24V638.41H799.87Zm44.68-20.48h10.24V617.93H844.55Zm-14.9,0h10.24V617.93H829.65Zm-14.89,0H825V617.93H814.76Zm-14.89,0h10.24V617.93H799.87Z"/><rect class="cls-17" x="358.63" y="474.58" width="158.25" height="258.78"/><rect class="cls-18" x="462.89" y="474.58" width="53.99" height="258.78"/><path class="cls-19" d="M365.15,497.85h10.24V482H365.15Zm0,228.07h10.24V709.16H365.15Zm76.33,0h10.24V709.16H441.48Zm-14.89,0h10.24V709.16H426.59Zm-15.83,0h11.17V709.16H410.76Zm-14.89,0H407V709.16H395.87Zm-14.89,0h9.3V709.16H381Zm-15.83-21.41h10.24V688.68H365.15Zm76.33,0h10.24V688.68H441.48Zm-14.89,0h10.24V688.68H426.59Zm-15.83,0h11.17V688.68H410.76Zm-14.89,0H407V688.68H395.87Zm-14.89,0h9.3V688.68H381ZM365.15,684h10.24V668.2H365.15Zm76.33,0h10.24V668.2H441.48Zm-14.89,0h10.24V668.2H426.59Zm-15.83,0h11.17V668.2H410.76Zm-14.89,0H407V668.2H395.87ZM381,684h9.3V668.2H381Zm-15.83-20.48h10.24V647.72H365.15Zm76.33,0h10.24V647.72H441.48Zm-14.89,0h10.24V647.72H426.59Zm-15.83,0h11.17V647.72H410.76Zm-14.89,0H407V647.72H395.87Zm-14.89,0h9.3V647.72H381Zm-15.83-20.48h10.24V626.31H365.15Zm76.33,0h10.24V626.31H441.48Zm-14.89,0h10.24V626.31H426.59Zm-15.83,0h11.17V626.31H410.76Zm-14.89,0H407V626.31H395.87Zm-14.89,0h9.3V626.31H381Zm-15.83-21.41h10.24V605.83H365.15Zm76.33,0h10.24V605.83H441.48Zm-14.89,0h10.24V605.83H426.59Zm-15.83,0h11.17V605.83H410.76Zm-14.89,0H407V605.83H395.87Zm-14.89,0h9.3V605.83H381Zm-15.83-20.48h10.24V585.35H365.15Zm76.33,0h10.24V585.35H441.48Zm-14.89,0h10.24V585.35H426.59Zm-15.83,0h11.17V585.35H410.76Zm-14.89,0H407V585.35H395.87Zm-14.89,0h9.3V585.35H381ZM365.15,580.7h10.24V564.87H365.15Zm76.33,0h10.24V564.87H441.48Zm-14.89,0h10.24V564.87H426.59Zm-15.83,0h11.17V564.87H410.76Zm-14.89,0H407V564.87H395.87Zm-14.89,0h9.3V564.87H381Zm-15.83-20.48h10.24V544.4H365.15Zm76.33,0h10.24V544.4H441.48Zm-14.89,0h10.24V544.4H426.59Zm-15.83,0h11.17V544.4H410.76Zm-14.89,0H407V544.4H395.87Zm-14.89,0h9.3V544.4H381Zm-15.83-20.48h10.24V523H365.15Zm76.33,0h10.24V523H441.48Zm-14.89,0h10.24V523H426.59Zm-15.83,0h11.17V523H410.76Zm-14.89,0H407V523H395.87Zm-14.89,0h9.3V523H381Zm-15.83-21.41h10.24V502.51H365.15Zm76.33,0h10.24V502.51H441.48Zm-14.89,0h10.24V502.51H426.59Zm-15.83,0h11.17V502.51H410.76Zm-14.89,0H407V502.51H395.87Zm-14.89,0h9.3V502.51H381Zm60.5-20.48h10.24V482H441.48Zm-14.89,0h10.24V482H426.59Zm-15.83,0h11.17V482H410.76Zm-14.89,0H407V482H395.87Zm-14.89,0h9.3V482H381Z"/><path class="cls-8" d="M467.55,497.85h4.65V482h-4.65Zm0,228.07h4.65V709.16h-4.65Zm40.95,0h4.66V709.16H508.5Zm-8.37,0h5.58V709.16h-5.58Zm-8.38,0h5.58V709.16h-5.58Zm-8.38,0H489V709.16h-5.59Zm-7.45,0h5.59V709.16h-5.59Zm-8.37-21.41h4.65V688.68h-4.65Zm40.95,0h4.66V688.68H508.5Zm-8.37,0h5.58V688.68h-5.58Zm-8.38,0h5.58V688.68h-5.58Zm-8.38,0H489V688.68h-5.59Zm-7.45,0h5.59V688.68h-5.59ZM467.55,684h4.65V668.2h-4.65Zm40.95,0h4.66V668.2H508.5Zm-8.37,0h5.58V668.2h-5.58Zm-8.38,0h5.58V668.2h-5.58Zm-8.38,0H489V668.2h-5.59Zm-7.45,0h5.59V668.2h-5.59Zm-8.37-20.48h4.65V647.72h-4.65Zm40.95,0h4.66V647.72H508.5Zm-8.37,0h5.58V647.72h-5.58Zm-8.38,0h5.58V647.72h-5.58Zm-8.38,0H489V647.72h-5.59Zm-7.45,0h5.59V647.72h-5.59Zm-8.37-20.48h4.65V626.31h-4.65Zm40.95,0h4.66V626.31H508.5Zm-8.37,0h5.58V626.31h-5.58Zm-8.38,0h5.58V626.31h-5.58Zm-8.38,0H489V626.31h-5.59Zm-7.45,0h5.59V626.31h-5.59Zm-8.37-21.41h4.65V605.83h-4.65Zm40.95,0h4.66V605.83H508.5Zm-8.37,0h5.58V605.83h-5.58Zm-8.38,0h5.58V605.83h-5.58Zm-8.38,0H489V605.83h-5.59Zm-7.45,0h5.59V605.83h-5.59Zm-8.37-20.48h4.65V585.35h-4.65Zm40.95,0h4.66V585.35H508.5Zm-8.37,0h5.58V585.35h-5.58Zm-8.38,0h5.58V585.35h-5.58Zm-8.38,0H489V585.35h-5.59Zm-7.45,0h5.59V585.35h-5.59Zm-8.37-20.48h4.65V564.87h-4.65Zm40.95,0h4.66V564.87H508.5Zm-8.37,0h5.58V564.87h-5.58Zm-8.38,0h5.58V564.87h-5.58Zm-8.38,0H489V564.87h-5.59Zm-7.45,0h5.59V564.87h-5.59Zm-8.37-20.48h4.65V544.4h-4.65Zm40.95,0h4.66V544.4H508.5Zm-8.37,0h5.58V544.4h-5.58Zm-8.38,0h5.58V544.4h-5.58Zm-8.38,0H489V544.4h-5.59Zm-7.45,0h5.59V544.4h-5.59Zm-8.37-20.48h4.65V523h-4.65Zm40.95,0h4.66V523H508.5Zm-8.37,0h5.58V523h-5.58Zm-8.38,0h5.58V523h-5.58Zm-8.38,0H489V523h-5.59Zm-7.45,0h5.59V523h-5.59Zm-8.37-21.41h4.65V502.51h-4.65Zm40.95,0h4.66V502.51H508.5Zm-8.37,0h5.58V502.51h-5.58Zm-8.38,0h5.58V502.51h-5.58Zm-8.38,0H489V502.51h-5.59Zm-7.45,0h5.59V502.51h-5.59Zm32.58-20.48h4.66V482H508.5Zm-8.37,0h5.58V482h-5.58Zm-8.38,0h5.58V482h-5.58Zm-8.38,0H489V482h-5.59Zm-7.45,0h5.59V482h-5.59Z"/><rect class="cls-20" x="149.91" y="576.98" width="130.32" height="156.39"/><rect class="cls-21" x="233.69" y="576.98" width="46.54" height="156.39"/><path class="cls-22" d="M216,725.92h10.24V709.16H216Zm-14.9,0h10.24V709.16H201.1Zm-14.89,0h10.24V709.16H186.21Zm-14.89,0h9.31V709.16h-9.31Zm-15.83,0h10.24V709.16H155.49ZM216,704.51h10.24V688.68H216Zm-14.9,0h10.24V688.68H201.1Zm-14.89,0h10.24V688.68H186.21Zm-14.89,0h9.31V688.68h-9.31Zm-15.83,0h10.24V688.68H155.49ZM216,684h10.24V668.2H216Zm-14.9,0h10.24V668.2H201.1Zm-14.89,0h10.24V668.2H186.21Zm-14.89,0h9.31V668.2h-9.31Zm-15.83,0h10.24V668.2H155.49ZM216,663.55h10.24V647.72H216Zm-14.9,0h10.24V647.72H201.1Zm-14.89,0h10.24V647.72H186.21Zm-14.89,0h9.31V647.72h-9.31Zm-15.83,0h10.24V647.72H155.49ZM216,643.07h10.24V626.31H216Zm-14.9,0h10.24V626.31H201.1Zm-14.89,0h10.24V626.31H186.21Zm-14.89,0h9.31V626.31h-9.31Zm-15.83,0h10.24V626.31H155.49ZM216,621.66h10.24V605.83H216Zm-14.9,0h10.24V605.83H201.1Zm-14.89,0h10.24V605.83H186.21Zm-14.89,0h9.31V605.83h-9.31Zm-15.83,0h10.24V605.83H155.49ZM216,601.18h10.24V585.35H216Zm-14.9,0h10.24V585.35H201.1Zm-14.89,0h10.24V585.35H186.21Zm-14.89,0h9.31V585.35h-9.31Zm-15.83,0h10.24V585.35H155.49Z"/><path class="cls-8" d="M238.34,725.92h5.58V709.16h-5.58Zm33.51,0h5.59V709.16h-5.59Zm-8.38,0h5.59V709.16h-5.59Zm-8.37,0h5.58V709.16H255.1Zm-9.31,0h6.51V709.16h-6.51Zm-7.45-21.41h5.58V688.68h-5.58Zm33.51,0h5.59V688.68h-5.59Zm-8.38,0h5.59V688.68h-5.59Zm-8.37,0h5.58V688.68H255.1Zm-9.31,0h6.51V688.68h-6.51ZM238.34,684h5.58V668.2h-5.58Zm33.51,0h5.59V668.2h-5.59Zm-8.38,0h5.59V668.2h-5.59Zm-8.37,0h5.58V668.2H255.1Zm-9.31,0h6.51V668.2h-6.51Zm-7.45-20.48h5.58V647.72h-5.58Zm33.51,0h5.59V647.72h-5.59Zm-8.38,0h5.59V647.72h-5.59Zm-8.37,0h5.58V647.72H255.1Zm-9.31,0h6.51V647.72h-6.51Zm-7.45-20.48h5.58V626.31h-5.58Zm33.51,0h5.59V626.31h-5.59Zm-8.38,0h5.59V626.31h-5.59Zm-8.37,0h5.58V626.31H255.1Zm-9.31,0h6.51V626.31h-6.51Zm-7.45-21.41h5.58V605.83h-5.58Zm33.51,0h5.59V605.83h-5.59Zm-8.38,0h5.59V605.83h-5.59Zm-8.37,0h5.58V605.83H255.1Zm-9.31,0h6.51V605.83h-6.51Zm-7.45-20.48h5.58V585.35h-5.58Zm33.51,0h5.59V585.35h-5.59Zm-8.38,0h5.59V585.35h-5.59Zm-8.37,0h5.58V585.35H255.1Zm-9.31,0h6.51V585.35h-6.51Z"/><rect class="cls-23" x="162.01" y="525.78" width="107.05" height="51.2"/><rect class="cls-24" x="230.89" y="525.78" width="38.17" height="51.2"/><path class="cls-25" d="M213.21,570.46h10.24V554.63H213.21Zm-14.9,0h10.24V554.63H198.31Zm-15.82,0h11.17V554.63H182.49Zm-14.9,0h11.17V554.63H167.59ZM213.21,550h10.24V533.22H213.21Zm-14.9,0h10.24V533.22H198.31Zm-15.82,0h11.17V533.22H182.49Zm-14.9,0h11.17V533.22H167.59Z"/><path class="cls-8" d="M234.62,570.46h5.58V554.63h-5.58Zm25.13,0h5.58V554.63h-5.58Zm-7.45,0h5.59V554.63H252.3Zm-8.38,0h4.66V554.63h-4.66ZM234.62,550h5.58V533.22h-5.58Zm25.13,0h5.58V533.22h-5.58Zm-7.45,0h5.59V533.22H252.3Zm-8.38,0h4.66V533.22h-4.66Z"/><path class="cls-26" d="M268.52,464h4.38c-.16-19.71-.24-40.43-.24-63.69h6.08c0,23.26.07,44,.25,63.69h3.87q-1.29-29.56-1.31-63.69h6.07c0,104.63,9.46,173.57,24.43,224,14.7,49.4,34.72,80.34,56.36,108.14h-7.68c-2.39-3.54-4.74-6.44-7.08-9.64l1.38,6.67c.57.94,1.15,2,1.72,3h-7.08c-10.54-18.2-21-28.94-29-33.23-2.79-1.5-5.11-2.16-6.81-1.7-1.45.39-2.6,1.88-3.36,4.21-1.8,5.6-1.24,15.05,2.72,30.72h-6.65l-6-5.26c.44,1.75.9,2.73,1.36,5.26h-6.28c-.54-2.53-1.07-4.2-1.61-6.29l-5,6.29h-3.11l7.39-9.47c-.12-.46-.23-1-.34-1.5l-14.84-5.53a92.23,92.23,0,0,1,6,16.5h-6.31c-3.36-11.62-7.62-20-12.6-25.72-4.47-5.22-9.49-8.25-14.87-8.85S239,699,232.77,703.1c-8.46,5.5-17.34,15.11-26.2,29.26h-7.13c.64-1,1.28-2.28,1.91-3.29L200,719.6c-3.07,4.34-6.22,8.72-9.39,12.76H183c21.64-27.8,41.66-58.74,56.34-108.14,15-50.38,24.45-119.32,24.45-224h6.07q0,34.13-1.31,63.69ZM206,710.68l11.89-3.17c.81-.83,1.62-1.64,2.44-2.41l-2.51-13.72c-3.82,6.8-7.77,13.21-11.82,19.3Zm17.56-30.06,14.17-7.44c.23-.6.45-1.22.66-1.82l-4.55-13.28c-3.27,8-6.72,15.51-10.28,22.54ZM238,647.1l9.89-6.57c.21-.76.4-1.52.6-2.29l-3.82-11.12c-2.12,7-4.35,13.66-6.67,20Zm10.47-33.39,7-6.92,2.62-.89,2,2.43,2,6.56L265.7,608l2.46-2.12,2.41.78,7,7.51c-1-13.62-1.75-28.39-2.42-45.07H258.08c-2.78,16.17-6,31.08-9.57,44.61Zm10-47.14H275.1c-.2-4.55-.37-9.6-.53-14.66H260.75c-.71,5.06-1.47,10.11-2.26,14.66Zm2.6-16.68H274.5q-.24-7.57-.43-15.16H263c-.6,5-1.22,10.11-1.89,15.16Zm2.17-17.69H274c-.12-4.55-.23-9.6-.34-14.15h-8.84c-.49,4.55-1,9.6-1.56,14.15Zm1.79-16.68h8.56q-.14-7.59-.26-15.16h-7c-.39,5.05-.82,10.1-1.26,15.16Zm1.45-17.19h6.81c-.07-5.05-.14-9.6-.19-14.65h-5.63c-.3,5.05-.64,9.6-1,14.65Zm1.15-17.18h5.43c-.05-5.06-.11-9.61-.14-14.66h-4.53c-.23,4.55-.48,9.6-.76,14.66ZM247.27,618.24q-.69,2.46-1.39,4.88L249.63,634c1.82-7.26,3.55-15,5.13-23.09ZM236.59,651c-.46,1.22-.92,2.43-1.4,3.63l4.46,13c.72-2.13,1.45-4.31,2.17-6.52,1.76-5.36,3.47-11,5.13-17Zm-15,33.38-2,3.67,2.77,15.13c1.75-1.54,3.51-2.92,5.22-4.16,2.76-6.57,5.79-14,8.86-22.45ZM203.9,713.75c-.6.86-1.2,1.75-1.8,2.62l1.27,9.4a137.3,137.3,0,0,1,11.37-14.93ZM283,466.49h-4c.05,5.05.09,9.6.16,14.66h4.56c-.28-5.06-.53-10.11-.76-14.66Zm.92,17.19h-4.71c.07,5.05.15,9.6.22,14.65h5.48c-.35-5.05-.69-9.6-1-14.65Zm1.18,16.68h-5.64c.09,5.05.16,10.1.27,15.16h6.63c-.44-5.06-.87-10.11-1.26-15.16Zm1.49,17.69h-6.81c.11,4.55.21,9.6.34,14.15h8c-.55-4.55-1.06-9.6-1.56-14.15Zm1.84,16.68h-8.26l.42,15.16h9.73c-.67-5-1.29-10.11-1.89-15.16Zm2.23,17.18h-10c.18,5.06.36,10.11.53,14.66h11.73c-.79-4.55-1.55-9.6-2.26-14.66Zm2.67,17.19h-12c.64,16.17,1.42,30.41,2.34,43.64l4.26-7.42,2.33.44,4.05,8.1,1.46-10.46,5.94,5.64c-3.1-12.27-5.89-25.79-8.35-39.94Zm12.35,54.52-1.49,6.44c.3,1.12.58,2.23.88,3.35l5,4.37q-2-5.87-3.82-12.11c-.21-.67-.41-1.36-.6-2Zm9.55,28.47-1.45,7.69c.14.38.3.77.46,1.15.33.86.69,1.71,1,2.56l8,7.72q-4.18-9-8.08-19.12ZM333,690.32l.55,9c.69,1.12,1.36,2.22,2.05,3.33l7.31,4.2c-3.38-5.26-6.71-10.75-9.91-16.54Zm17.12,27.27c-1.43-2.06-2.84-4.13-4.26-6.23L340.05,708a148.35,148.35,0,0,1,11.27,15.16Zm-19.86-32.32c-1.36-2.56-2.71-5.17-4-7.86l-8.56-8.2a261.39,261.39,0,0,0,13.16,25.55Zm-16.72-37.54c-.63-1.77-1.27-3.54-1.91-5.34l-5.41-4.73q2.65,9.21,5.85,17.81Zm-9.28-29c-.52-1.79-1-3.62-1.49-5.48l-2.88-2.67c.9,4.89,1.89,9.6,3,14.2Zm-12,99.65c-1.75-7.42-3.36-15-4.86-22.95l-11.75,15.41c.29.48.57,1,.83,1.5Zm-5.44-26.17c-.2-1-.38-2-.57-3.08L271.4,675.39c.53,11.28,1.29,21.87,2.25,32.18.23.33.46.69.69,1.06Zm-1.24-7c-1.42-8.47-2.71-17.43-3.88-27.08L271.17,670.4l.07,1.54Zm-4.27-30.35c-.1-.94-.21-1.9-.31-2.87l-10.55-10c.07,7.27.22,14.2.45,20.87,0,1.33.08,2.66.12,4Zm-.72-6.59c-.78-7.26-1.49-14.91-2.14-23l-8,11.44c0,.65,0,1.29,0,1.94Zm-2.44-26.84-.27-3.58-7.37-7.75c-.11,7.82-.15,15.26-.13,22.36Zm5.75-4.52c.1,1.6.23,3.15.35,4.71l0,.2,4.92,6.81c-.71-5.47-1.4-11.19-2.09-17.24Zm.74,9.56c.55,6.72,1.13,13.09,1.77,19.18l3.89-8.46c-.14-1.17-.3-2.32-.46-3.51Zm2.28,23.89c.18,1.58.36,3.15.53,4.69l6.65,7.09-.05-.27c-1.1-6.5-2.12-13.17-3.13-20.24Zm1,8.77c1,8.11,2.08,15.72,3.27,23l4.23-12.3c-.21-1.1-.41-2.2-.6-3.32Zm4.12,28c.3,1.81.62,3.58.95,5.33l9.22,9.78c-2.23-9.42-4.16-18.42-5.89-27.57Zm1.79,9.76c1.3,6.78,2.7,13.3,4.21,19.69l5.44-7c0-.68,0-1.31,0-2l-.16-.66Zm4.93,22.73c.23,1,.48,2,.73,3l6.58,5.74a104.45,104.45,0,0,1-2.43-15Zm-64.21-24.77a31.38,31.38,0,0,1,13.76-3.36l-7.11-13.8c-2.28,6.22-4.53,11.94-6.65,17.16Zm16.57-3.18c.32,0,.62.07.92.12l14.33-19.3c0-1-.09-2-.12-3l-9.2-15.63-13.41,17c-.44,1.28-.88,2.52-1.32,3.74Zm3.54.67a29.33,29.33,0,0,1,13.48,8.3c-.65-7.82-1.17-15.88-1.59-24.33Zm51.23,4.37a10.24,10.24,0,0,1,5.57-5l-9.9-15.53c1.32,6.81,2.75,13.56,4.33,20.5Zm9.53-5.59a18.47,18.47,0,0,1,8.1,2.46c.5.26,1,.55,1.51.87-4-7-7.64-14.12-11-21.41Zm-56.26-77.7c-.84,4.25-1.72,8.37-2.64,12.39l4-7.84Zm-5,22.34q-.75,2.93-1.52,5.79l4.7,8,8.21-10.41c0-1.63,0-3.27,0-4.94L261.6,621.3Zm-2.41,9q-2.59,9.44-5.34,17.8c-.14.46-.3.92-.44,1.36l9.76-12.39Zm14.31,19.55,0-1.31c-.21-6.43-.36-13.08-.44-20.08l-6.92,8.8Zm-.54-38.48q0-6,.08-12.44l-2.44,4.76Zm26.94-10.18c.24,2,.47,3.93.7,5.86l.48-3.48Zm1.87,15.11c.27,2.07.55,4.1.81,6.12l4.5,6.15,1-7.28c-.71-2.57-1.38-5.15-2-7.79l-3.06-6.11ZM295.88,642c.67,4.67,1.35,9.17,2.05,13.58l1.26-9.07Zm3.4,21.6c.35,2.07.72,4.14,1.09,6.2l12.55,19.63-1.75-23.14c-.5-1.19-1-2.37-1.47-3.58s-1-2.57-1.51-3.86l-6.95-9.52Zm6-12.89c-1-3-2-6.06-2.94-9.18l-.6,4.34Zm-8.81-32.55-.21-.95-.06.44Z"/><path class="cls-27" d="M275.7,400.27h3c0,23.26.07,44,.25,63.69h3.87q-1.29-29.56-1.31-63.69h6.07c0,104.63,9.46,173.57,24.43,224,14.7,49.4,34.72,80.34,56.36,108.14h-7.68c-2.39-3.54-4.74-6.44-7.08-9.64l1.38,6.67c.57.94,1.15,2,1.72,3h-7.08c-10.54-18.2-21-28.94-29-33.23-2.79-1.5-5.11-2.16-6.81-1.7-1.45.39-2.6,1.88-3.36,4.21-1.8,5.6-1.24,15.05,2.72,30.72h-6.65l-6-5.26c.44,1.75.9,2.73,1.36,5.26h-3.13c-24.27-91-23.08-221.9-23.08-332.09ZM283,466.49h-4c.05,5.05.09,9.6.16,14.66h4.56c-.28-5.06-.53-10.11-.76-14.66Zm.92,17.19h-4.71c.07,5.05.15,9.6.22,14.65h5.48c-.35-5.05-.69-9.6-1-14.65Zm1.18,16.68h-5.64c.09,5.05.16,10.1.27,15.16h6.63c-.44-5.06-.87-10.11-1.26-15.16Zm1.49,17.69h-6.81c.11,4.55.21,9.6.34,14.15h8c-.55-4.55-1.06-9.6-1.56-14.15Zm1.84,16.68h-8.26l.42,15.16h9.73c-.67-5-1.29-10.11-1.89-15.16Zm2.23,17.18h-10c.18,5.06.36,10.11.53,14.66h11.73c-.79-4.55-1.55-9.6-2.26-14.66Zm2.67,17.19h-12c.64,16.17,1.42,30.41,2.34,43.64l4.26-7.42,2.33.44,4.05,8.1,1.46-10.46,5.94,5.64c-3.1-12.27-5.89-25.79-8.35-39.94Zm12.35,54.52-1.49,6.44c.3,1.12.58,2.23.88,3.35l5,4.37q-2-5.87-3.82-12.11c-.21-.67-.41-1.36-.6-2Zm9.55,28.47-1.45,7.69c.14.38.3.77.46,1.15.33.86.69,1.71,1,2.56l8,7.72q-4.18-9-8.08-19.12ZM333,690.32l.55,9c.69,1.12,1.36,2.22,2.05,3.33l7.31,4.2c-3.38-5.26-6.71-10.75-9.91-16.54Zm17.12,27.27c-1.43-2.06-2.84-4.13-4.26-6.23L340.05,708a148.35,148.35,0,0,1,11.27,15.16Zm-19.86-32.32c-1.36-2.56-2.71-5.17-4-7.86l-8.56-8.2a261.39,261.39,0,0,0,13.16,25.55Zm-16.72-37.54c-.63-1.77-1.27-3.54-1.91-5.34l-5.41-4.73q2.65,9.21,5.85,17.81Zm-9.28-29c-.52-1.79-1-3.62-1.49-5.48l-2.88-2.67c.9,4.89,1.89,9.6,3,14.2Zm-20.36-1.83c.1,1.6.23,3.15.35,4.71l0,.2,4.92,6.81c-.71-5.47-1.4-11.19-2.09-17.24Zm.74,9.56c.55,6.72,1.13,13.09,1.77,19.18l3.89-8.46c-.14-1.17-.3-2.32-.46-3.51Zm2.28,23.89c.18,1.58.36,3.15.53,4.69l6.65,7.09-.05-.27c-1.1-6.5-2.12-13.17-3.13-20.24Zm1,8.77c1,8.11,2.08,15.72,3.27,23l4.23-12.3c-.21-1.1-.41-2.2-.6-3.32Zm4.12,28c.3,1.81.62,3.58.95,5.33l9.22,9.78c-2.23-9.42-4.16-18.42-5.89-27.57Zm1.79,9.76c1.3,6.78,2.7,13.3,4.21,19.69l5.44-7c0-.68,0-1.31,0-2l-.16-.66Zm4.93,22.73c.23,1,.48,2,.73,3l6.58,5.74a104.45,104.45,0,0,1-2.43-15Zm7.13-22.91a10.24,10.24,0,0,1,5.57-5l-9.9-15.53c1.32,6.81,2.75,13.56,4.33,20.5Zm9.53-5.59a18.47,18.47,0,0,1,8.1,2.46c.5.26,1,.55,1.51.87-4-7-7.64-14.12-11-21.41Zm-23-75.42c.24,2,.47,3.93.7,5.86l.48-3.48Zm1.87,15.11c.27,2.07.55,4.1.81,6.12l4.5,6.15,1-7.28c-.71-2.57-1.38-5.15-2-7.79l-3.06-6.11ZM295.88,642c.67,4.67,1.35,9.17,2.05,13.58l1.26-9.07Zm3.4,21.6c.35,2.07.72,4.14,1.09,6.2l12.55,19.63-1.75-23.14c-.5-1.19-1-2.37-1.47-3.58s-1-2.57-1.51-3.86l-6.95-9.52Zm6-12.89c-1-3-2-6.06-2.94-9.18l-.6,4.34Zm-8.81-32.55-.21-.95-.06.44Z"/><path class="cls-28" d="M289.69,479.13c1.22,21.23,2.94,40.43,5.11,58.12h-6.12c-.09-.5-.19-1.51-.28-2.52h-8.26l.07,2.52h-6.09l-.05-2.52H263c-.09,1-.19,2-.28,2.52h-6.12c2.17-17.69,3.89-36.89,5.11-58.12h6.07c0,.5-.07,1-.11,2h5.43l0-2h6.07l0,2h4.56c0-1-.07-1.52-.12-2ZM263.26,532.2H274c-.12-4.55-.23-9.6-.34-14.15h-8.84c-.49,4.55-1,9.6-1.56,14.15Zm1.79-16.68h8.56q-.14-7.59-.26-15.16h-7c-.39,5.05-.82,10.1-1.26,15.16Zm1.45-17.19h6.81c-.07-5.05-.14-9.6-.19-14.65h-5.63c-.3,5.05-.64,9.6-1,14.65Zm17.39-14.65h-4.71c.07,5.05.15,9.6.22,14.65h5.48c-.35-5.05-.69-9.6-1-14.65Zm1.18,16.68h-5.64c.09,5.05.16,10.1.27,15.16h6.63c-.44-5.06-.87-10.11-1.26-15.16Zm1.49,17.69h-6.81c.11,4.55.21,9.6.34,14.15h8c-.55-4.55-1.06-9.6-1.56-14.15Z"/><path class="cls-29" d="M289.69,479.13c1.22,21.23,2.94,40.43,5.11,58.12h-6.12c-.09-.5-.19-1.51-.28-2.52h-8.26l.07,2.52H276.8c-.53-19.2-.82-38.92-1-58.12h3.29l0,2h4.56c0-1-.07-1.52-.12-2Zm-5.8,4.55h-4.71c.07,5.05.15,9.6.22,14.65h5.48c-.35-5.05-.69-9.6-1-14.65Zm1.18,16.68h-5.64c.09,5.05.16,10.1.27,15.16h6.63c-.44-5.06-.87-10.11-1.26-15.16Zm1.49,17.69h-6.81c.11,4.55.21,9.6.34,14.15h8c-.55-4.55-1.06-9.6-1.56-14.15Z"/><polygon class="cls-30" points="231.92 575.16 319.46 575.16 316.01 614.59 235.37 614.59 231.92 575.16"/><polygon class="cls-31" points="231.92 575.16 284.38 575.16 283.91 614.59 235.37 614.59 231.92 575.16"/><path class="cls-32" d="M275.54,598.92h4v9.6h-4Zm-7.07,0h5v9.6h-5Zm-6.07,0h4v9.6h-4Zm-7.08,0h5.06v9.6h-5.06Zm-6.06,0h4.55v9.6h-4.55Zm-7.08,0h5.06v9.6h-5.06Zm-5,0h3.48v9.6H238Zm38.35-17.69h4v9.6h-4Zm-7.07,0h5v9.6h-5Zm-6.07,0h4v9.6h-4Zm-7.08,0h5.06v9.6h-5.06Zm-6.06,0h4.55v9.6h-4.55Zm-7.08,0h5.06v9.6h-5.06Zm-6.06,0h4.55v9.6h-4.2l-.35-7.32Z"/><path class="cls-33" d="M286.66,581.23h5.06v9.6h-5.06Zm0,17.69h5.06v9.6h-5.06Zm26.29,0h2.76l-.83,9.6H313Zm-6.58,0h5.06v9.6h-5.06Zm-6.57,0h5.06v9.6H299.8Zm-6.06,0h4.55v9.6h-4.55ZM313,581.23h4.3l-.81,9.6H313Zm-6.58,0h5.06v9.6h-5.06Zm-6.57,0h5.06v9.6H299.8Zm-6.06,0h4.55v9.6h-4.55Z"/><rect class="cls-28" x="259.87" y="421.5" width="31.84" height="25.78"/><rect class="cls-29" x="276.55" y="421.5" width="15.16" height="25.78"/><rect class="cls-28" x="257.35" y="428.08" width="34.37" height="10.11"/><rect class="cls-29" x="278.07" y="428.08" width="16.17" height="8.09"/><rect class="cls-28" x="262.91" y="381.07" width="25.78" height="29.82"/><rect class="cls-29" x="276.55" y="381.07" width="12.13" height="29.82"/><rect class="cls-34" x="262.91" y="383.59" width="25.78" height="15.67"/><rect class="cls-35" x="276.55" y="383.59" width="12.13" height="15.67"/><rect class="cls-36" x="269.98" y="348.72" width="11.63" height="32.35"/><rect class="cls-37" x="276.55" y="348.72" width="5.05" height="32.35"/><rect class="cls-28" x="269.98" y="335.07" width="11.63" height="13.65"/><rect class="cls-29" x="276.55" y="335.07" width="5.05" height="13.65"/><rect class="cls-28" x="272.51" y="308.28" width="6.57" height="26.79"/><rect class="cls-29" x="276.05" y="308.28" width="3.03" height="26.79"/><rect class="cls-38" x="270.99" y="298.17" width="9.6" height="10.11"/><rect class="cls-39" x="276.55" y="298.17" width="4.04" height="10.11"/><rect class="cls-40" x="274.03" y="256.22" width="3.03" height="41.95"/><rect class="cls-1" width="1536.5" height="871.48"/></g></g></g></svg>