<svg xmlns="http://www.w3.org/2000/svg" xmlns:xlink="http://www.w3.org/1999/xlink" viewBox="0 0 1280 364.67"><defs><style>.cls-1,.cls-2,.cls-3{fill-rule:evenodd;}.cls-1{fill:url(#linear-gradient);}.cls-2{fill:url(#linear-gradient-2);}.cls-3{fill:url(#linear-gradient-3);}</style><linearGradient id="linear-gradient" x1="2041.83" y1="-807.17" x2="2041.83" y2="-2087.17" gradientTransform="matrix(0, 1, 1, 0, 2087.17, -1859.5)" gradientUnits="userSpaceOnUse"><stop offset="0" stop-color="#fff8bd"/><stop offset="1" stop-color="#ffb593"/></linearGradient><linearGradient id="linear-gradient-2" x1="2047.86" y1="-807.17" x2="2047.86" y2="-2087.17" gradientTransform="matrix(0, 1, 1, 0, 2087.17, -1859.5)" gradientUnits="userSpaceOnUse"><stop offset="0" stop-color="#ffe8a3"/><stop offset="1" stop-color="#ff8668"/></linearGradient><linearGradient id="linear-gradient-3" x1="2055.73" y1="-807.17" x2="2055.73" y2="-2087.17" gradientTransform="matrix(0, 1, 1, 0, 2087.17, -1859.5)" gradientUnits="userSpaceOnUse"><stop offset="0" stop-color="#ffd38c"/><stop offset="1" stop-color="#ff6352"/></linearGradient></defs><title>back-gradient</title><g id="Layer_2" data-name="Layer 2"><g id="レイヤー_1" data-name="レイヤー 1"><path class="cls-1" d="M0,138.15V364.67l1280-1V9.53C1077.55-29.06,986.14,61.6,741.94,67.92,435.47,75.86,293.88,208.28,0,138.15Z"/><path class="cls-2" d="M0,163.77v200.9l1280-1V22.34c-202.45-38.6-293.86,43.53-538.06,49.85C435.47,80.13,293.88,233.9,0,163.77Z"/><path class="cls-3" d="M0,189.39V364.67l1280-1V39.42c-202.45-38.6-293.86,30.72-538.06,37C435.47,84.4,293.88,259.51,0,189.39Z"/></g></g></svg>