<svg xmlns="http://www.w3.org/2000/svg" viewBox="0 0 70 70"><defs><style>.cls-1{fill:#f66;}.cls-2,.cls-3,.cls-5{fill:#fff;}.cls-3{font-size:9.73px;font-family:Montserrat-Medium, Montserrat;font-weight:500;}.cls-4,.cls-5{font-family:NotoSansCJKjp-Regular-83pv-RKSJ-H, Noto Sans CJK JP;}.cls-4{font-weight:400;letter-spacing:-0.25em;}.cls-5{font-size:8.29px;letter-spacing:-0.19em;}.cls-6{letter-spacing:-0.13em;}.cls-7{letter-spacing:-0.06em;}.cls-8{letter-spacing:-0.06em;}</style></defs><title>アセット 1</title><g id="レイヤー_2" data-name="レイヤー 2"><g id="レイヤー_1-2" data-name="レイヤー 1"><circle class="cls-1" cx="35" cy="35" r="35"/><path class="cls-2" d="M57,31.84h2.24a.39.39,0,0,0,.4-.39V29.21a.4.4,0,0,0-.4-.4H57a.4.4,0,0,0-.4.4v2.24A.39.39,0,0,0,57,31.84Zm.39-2.24h1.45v1.45H57.37Z"/><polygon class="cls-2" points="50.95 29.78 50.55 29.78 46.44 29.78 46.44 30.57 50.55 30.57 50.95 30.57 51.35 30.57 52.75 30.57 52.75 29.78 51.35 29.78 50.95 29.78"/><polygon class="cls-2" points="50.95 31.1 50.55 31.1 46.44 31.1 46.44 31.89 50.55 31.89 50.95 31.89 51.35 31.89 52.75 31.89 52.75 31.1 51.35 31.1 50.95 31.1"/><path class="cls-2" d="M59.28,22.52H46.42a1.72,1.72,0,0,0-1.68,1.71v7.49a1.73,1.73,0,0,0,1.69,1.72H59.28A1.72,1.72,0,0,0,61,31.72V24.23A1.72,1.72,0,0,0,59.28,22.52Zm.93,9.2a.93.93,0,0,1-.93.93H46.46a.93.93,0,0,1-.92-.93V27H60.21Zm0-5.52H45.54V25.05H60.21Zm0-1.94H45.54v0a.92.92,0,0,1,.92-.92H59.28a.93.93,0,0,1,.93.92Z"/><path class="cls-2" d="M41.68,49.5v1.28a1,1,0,0,1-1,1H34.19a8,8,0,0,0-.49-2.67h7.88a7.34,7.34,0,0,1-.09-.82H33.33a4.58,4.58,0,0,0-.35-.54l1.43-1.63.82-.94.2-.22A2.16,2.16,0,0,0,36,43.33a2.36,2.36,0,0,0,0-.28,2.07,2.07,0,0,0-.37-.86,1.94,1.94,0,0,0-.33-.37,2.19,2.19,0,0,0-2.95,0c-.05,0-.1.1-.15.15l-.33.37L30.39,44V32H41.68v9.69a.49.49,0,0,1,.59.26,2.48,2.48,0,0,1,.23.68V30.52a1.78,1.78,0,0,0-1.78-1.78H31.34a1.78,1.78,0,0,0-1.78,1.78v10.1l-2.85,2.77a4.09,4.09,0,0,0-1.22,3.44l.88,7.35A3.17,3.17,0,0,1,26.08,56L25,58.36a.42.42,0,0,0,0,.31.4.4,0,0,0,.21.23l6.42,3a.39.39,0,0,0,.18,0,.4.4,0,0,0,.37-.23l1.59-3.37.9-1.46a4.13,4.13,0,0,0,.61-2.16V52.56h5.49a1.78,1.78,0,0,0,1.78-1.78v-.27A1.44,1.44,0,0,1,41.68,49.5Zm-11.29-19a1,1,0,0,1,.95-1h9.38a1,1,0,0,1,1,1v.62H30.39Zm4,24.21a3.24,3.24,0,0,1-.49,1.72L33,57.93l0,0-1.42,3-5.68-2.67.95-2a4.11,4.11,0,0,0,.36-2.24l-.89-7.35a3.29,3.29,0,0,1,1-2.75l2.28-2.22v3.18l-1.71,2,.31.27.31.27,1.09-1.25.42-.46.41-.47,2.21-2.53.14-.16a1.39,1.39,0,0,1,1.94-.13,1.41,1.41,0,0,1,.38.53,1.5,1.5,0,0,1,.09.42,1.4,1.4,0,0,1-.34,1l-2.68,3a.4.4,0,0,0,0,.54,3,3,0,0,1,.22.28,3.21,3.21,0,0,1,.26.41,3.91,3.91,0,0,1,.2.41,7.13,7.13,0,0,1,.56,2.67v.41l0,.41a5.59,5.59,0,0,1-.78,2.36l.35.22.35.21a6.47,6.47,0,0,0,.9-2.79h.25Z"/><path class="cls-2" d="M34.87,50.37a1.16,1.16,0,1,0,.36-.84A1.16,1.16,0,0,0,34.87,50.37ZM36,50a.34.34,0,1,1,0,.68A.34.34,0,1,1,36,50Z"/><path class="cls-2" d="M60,52.36a.49.49,0,0,0-.12-.4L57.69,49.3a3.23,3.23,0,0,0-.62-2.84l-4.91-6.08,0,0L51.85,40l-.09-.1,0,0-.07-.07-.08-.06,0,0-.07,0,0,0-.16-.08h0l-.09,0h0l-.14,0,0,0h-.07l-.11,0h-.52l-.09,0-.08,0h0l0,0a4.77,4.77,0,0,0-.88.61l-.05,0h0a1.41,1.41,0,0,0-.29.4,1.2,1.2,0,0,0-.33-.13h-.05l-.08,0h-.34l-.36,0h0l-.18.07h0l-.08,0-.05,0-.1.06,0,0-.12.08-.46.38-.13.11,0,0-.09.1,0,0-.08.11v0a.83.83,0,0,0-.07.13h0a2.52,2.52,0,0,0-.33-.13h-.12l-.08,0h-.55l-.09,0-.07,0-.08,0-.06,0-.09,0,0,0-.1.06,0,0-.11.08-.47.38-.11.09s0,0-.05,0l0,.05-.07.08v0l-.07.1L41,39.3v0L39.89,38a1.78,1.78,0,0,0-.26-.22h0a1.91,1.91,0,0,0-1.43-.35,2.06,2.06,0,0,0-.63.22h0a.16.16,0,0,1-.08,0l0,0a1.39,1.39,0,0,0-.27.21l0,0a.85.85,0,0,0-.23.27h0a.86.86,0,0,0-.07.1l-.13.26a2.33,2.33,0,0,0-.13.52v.08h0s0,0,0,.07a.09.09,0,0,0,0,.05c0,.09,0,.19,0,.28s0,.17.07.25a.32.32,0,0,0,0,.09h0a2.77,2.77,0,0,0,.1.26h0a.16.16,0,0,0,0,.07l4.06,5a.41.41,0,0,1,0,.53h0a2.21,2.21,0,0,0-.57,2.35l0,.1.93,1.52v0A10.36,10.36,0,0,1,42.08,51l.53.86a3.78,3.78,0,0,0,2.24,1.68l3.74,1a4.86,4.86,0,0,0,2.8.12l2,2.51a.49.49,0,0,0,.37.2h.14a.47.47,0,0,0,.26-.11l5.57-4.51A.49.49,0,0,0,60,52.36Zm-6,3.68L52,53.67a.53.53,0,0,0-.51-.2l-.09,0a3.8,3.8,0,0,1-2.47,0l0,0-3.75-1a2.65,2.65,0,0,1-1.59-1.19l-1.06-1.74-.59-1-.56-.91a1.1,1.1,0,0,1,.25-1.07l.2-.17.4.5,2.93,3.61.42-.34.2-.17.23-.18-.47-.59L45,48.6l-.79-1L42.39,45.4h0v0h0l-.7-.86-.51-.64-1.79-2.21-.24-.29L39,41.2l-.39-.49-.74-.91,0,0,0,0,0,0a.08.08,0,0,1,0,0h0a.68.68,0,0,1-.08-.31.38.38,0,0,1,0-.15.75.75,0,0,1,.18-.43h0l0,0h0l0,0h0l0,0h0a.77.77,0,0,1,.39-.17.82.82,0,0,1,.76.29l.73.9.41.51.38.47,3.05,3.78,0,0,.11.13.53.66.69.86.39.47.79-.65.06,0,0,0,0,0-1.16-1.44-.37-.45-.11-.14h0a.21.21,0,0,1,0-.06s0,0,0,0l0,0s0,0,0-.06v0a.13.13,0,0,1,0-.06v-.07s0,0,0,0v0h0a.43.43,0,0,1,0,0,.17.17,0,0,0,0-.05l0,0,0-.06h0l.07-.07.47-.38.07-.05h0l.09,0h0l.09,0h.11l.09,0h0l.06,0h0l0,0h0l0,0,.06.06.18.22.14.18.2.25h0l.19.24.64.79.14.18,0,0h0l0,.05.16.19.43-.35.18-.15.24-.19-.19-.24-.42-.53-.4-.49-.2-.24h0a.35.35,0,0,1,0-.08h0l0-.08v0s0,0,0-.08h0v0a.14.14,0,0,1,0-.09h0a.29.29,0,0,1,0-.09h0a.2.2,0,0,1,0-.08v0l0-.07h0l.07-.07.46-.37.08-.05h0l.08,0h.32l.07,0h0l.06,0,0,0a.23.23,0,0,1,.07.07l0,0,.38.48.11.13h0l.32.38,0,0,.36.45h0L50,43l.18-.14h0l.08-.07-.15,0,.24-.19.19-.15h0L50.21,42l-.32-.39h0a.53.53,0,0,1,.08-.73l.3-.24.08,0h0l.08,0h.21l.08,0h0l.07,0h0l.06,0,0,0a.23.23,0,0,1,.07.07l.3.37,1.62,2,.35.43h0l2.95,3.65a2.1,2.1,0,0,1,.34,2.07.58.58,0,0,0,.09.54l2,2.46Z"/><text class="cls-3" transform="translate(9.4 25.65)">GET<tspan class="cls-4" x="17.31" y="0">！</tspan></text><text class="cls-5" transform="translate(15.91 14.29)">グ<tspan class="cls-6" x="6.74" y="0">ッ</tspan><tspan class="cls-7" x="13.92" y="0">ズ</tspan><tspan class="cls-8" x="21.74" y="0">を</tspan></text></g></g></svg>