<svg xmlns="http://www.w3.org/2000/svg" viewBox="0 0 70 70"><defs><style>.cls-1{fill:#f66;}.cls-2{fill:#fff;}</style></defs><title>アセット 8</title><g id="レイヤー_2" data-name="レイヤー 2"><g id="レイヤー_1-2" data-name="レイヤー 1"><circle class="cls-1" cx="35" cy="35" r="35"/><path class="cls-2" d="M57,31.84h2.24a.39.39,0,0,0,.4-.39V29.21a.4.4,0,0,0-.4-.4H57a.4.4,0,0,0-.4.4v2.24A.39.39,0,0,0,57,31.84Zm.39-2.24h1.45v1.45H57.37Z"/><polygon class="cls-2" points="50.95 29.78 50.55 29.78 46.44 29.78 46.44 30.57 50.55 30.57 50.95 30.57 51.35 30.57 52.75 30.57 52.75 29.78 51.35 29.78 50.95 29.78"/><polygon class="cls-2" points="50.95 31.1 50.55 31.1 46.44 31.1 46.44 31.89 50.55 31.89 50.95 31.89 51.35 31.89 52.75 31.89 52.75 31.1 51.35 31.1 50.95 31.1"/><path class="cls-2" d="M59.28,22.52H46.42a1.72,1.72,0,0,0-1.68,1.71v7.49a1.73,1.73,0,0,0,1.69,1.72H59.28A1.72,1.72,0,0,0,61,31.72V24.23A1.72,1.72,0,0,0,59.28,22.52Zm.93,9.2a.93.93,0,0,1-.93.93H46.46a.93.93,0,0,1-.92-.93V27H60.21Zm0-5.52H45.54V25.05H60.21Zm0-1.94H45.54v0a.92.92,0,0,1,.92-.92H59.28a.93.93,0,0,1,.93.92Z"/><path class="cls-2" d="M41.68,49.5v1.28a1,1,0,0,1-1,1H34.19a8,8,0,0,0-.49-2.67h7.88a7.34,7.34,0,0,1-.09-.82H33.33a4.58,4.58,0,0,0-.35-.54l1.43-1.63.82-.94.2-.22A2.16,2.16,0,0,0,36,43.33a2.36,2.36,0,0,0,0-.28,2.07,2.07,0,0,0-.37-.86,1.94,1.94,0,0,0-.33-.37,2.19,2.19,0,0,0-2.95,0c-.05,0-.1.1-.15.15l-.33.37L30.39,44V32H41.68v9.69a.49.49,0,0,1,.59.26,2.48,2.48,0,0,1,.23.68V30.52a1.78,1.78,0,0,0-1.78-1.78H31.34a1.78,1.78,0,0,0-1.78,1.78v10.1l-2.85,2.77a4.09,4.09,0,0,0-1.22,3.44l.88,7.35A3.17,3.17,0,0,1,26.08,56L25,58.36a.42.42,0,0,0,0,.31.4.4,0,0,0,.21.23l6.42,3a.39.39,0,0,0,.18,0,.4.4,0,0,0,.37-.23l1.59-3.37.9-1.46a4.13,4.13,0,0,0,.61-2.16V52.56h5.49a1.78,1.78,0,0,0,1.78-1.78v-.27A1.44,1.44,0,0,1,41.68,49.5Zm-11.29-19a1,1,0,0,1,.95-1h9.38a1,1,0,0,1,1,1v.62H30.39Zm4,24.21a3.24,3.24,0,0,1-.49,1.72L33,57.93l0,0-1.42,3-5.68-2.67.95-2a4.11,4.11,0,0,0,.36-2.24l-.89-7.35a3.29,3.29,0,0,1,1-2.75l2.28-2.22v3.18l-1.71,2,.31.27.31.27,1.09-1.25.42-.46.41-.47,2.21-2.53.14-.16a1.39,1.39,0,0,1,1.94-.13,1.41,1.41,0,0,1,.38.53,1.5,1.5,0,0,1,.09.42,1.4,1.4,0,0,1-.34,1l-2.68,3a.4.4,0,0,0,0,.54,3,3,0,0,1,.22.28,3.21,3.21,0,0,1,.26.41,3.91,3.91,0,0,1,.2.41,7.13,7.13,0,0,1,.56,2.67v.41l0,.41a5.59,5.59,0,0,1-.78,2.36l.35.22.35.21a6.47,6.47,0,0,0,.9-2.79h.25Z"/><path class="cls-2" d="M34.87,50.37a1.16,1.16,0,1,0,.36-.84A1.16,1.16,0,0,0,34.87,50.37ZM36,50a.34.34,0,1,1,0,.68A.34.34,0,1,1,36,50Z"/><path class="cls-2" d="M60,52.36a.49.49,0,0,0-.12-.4L57.69,49.3a3.23,3.23,0,0,0-.62-2.84l-4.91-6.08,0,0L51.85,40l-.09-.1,0,0-.07-.07-.08-.06,0,0-.07,0,0,0-.16-.08h0l-.09,0h0l-.14,0,0,0h-.07l-.11,0h-.52l-.09,0-.08,0h0l0,0a4.77,4.77,0,0,0-.88.61l-.05,0h0a1.41,1.41,0,0,0-.29.4,1.2,1.2,0,0,0-.33-.13h-.05l-.08,0h-.34l-.36,0h0l-.18.07h0l-.08,0-.05,0-.1.06,0,0-.12.08-.46.38-.13.11,0,0-.09.1,0,0-.08.11v0a.83.83,0,0,0-.07.13h0a2.52,2.52,0,0,0-.33-.13h-.12l-.08,0h-.55l-.09,0-.07,0-.08,0-.06,0-.09,0,0,0-.1.06,0,0-.11.08-.47.38-.11.09s0,0-.05,0l0,.05-.07.08v0l-.07.1L41,39.3v0L39.89,38a1.78,1.78,0,0,0-.26-.22h0a1.91,1.91,0,0,0-1.43-.35,2.06,2.06,0,0,0-.63.22h0a.16.16,0,0,1-.08,0l0,0a1.39,1.39,0,0,0-.27.21l0,0a.85.85,0,0,0-.23.27h0a.86.86,0,0,0-.07.1l-.13.26a2.33,2.33,0,0,0-.13.52v.08h0s0,0,0,.07a.09.09,0,0,0,0,.05c0,.09,0,.19,0,.28s0,.17.07.25a.32.32,0,0,0,0,.09h0a2.77,2.77,0,0,0,.1.26h0a.16.16,0,0,0,0,.07l4.06,5a.41.41,0,0,1,0,.53h0a2.21,2.21,0,0,0-.57,2.35l0,.1.93,1.52v0A10.36,10.36,0,0,1,42.08,51l.53.86a3.78,3.78,0,0,0,2.24,1.68l3.74,1a4.86,4.86,0,0,0,2.8.12l2,2.51a.49.49,0,0,0,.37.2h.14a.47.47,0,0,0,.26-.11l5.57-4.51A.49.49,0,0,0,60,52.36Zm-6,3.68L52,53.67a.53.53,0,0,0-.51-.2l-.09,0a3.8,3.8,0,0,1-2.47,0l0,0-3.75-1a2.65,2.65,0,0,1-1.59-1.19l-1.06-1.74-.59-1-.56-.91a1.1,1.1,0,0,1,.25-1.07l.2-.17.4.5,2.93,3.61.42-.34.2-.17.23-.18-.47-.59L45,48.6l-.79-1L42.39,45.4h0v0h0l-.7-.86-.51-.64-1.79-2.21-.24-.29L39,41.2l-.39-.49-.74-.91,0,0,0,0,0,0a.08.08,0,0,1,0,0h0a.68.68,0,0,1-.08-.31.38.38,0,0,1,0-.15.75.75,0,0,1,.18-.43h0l0,0h0l0,0h0l0,0h0a.77.77,0,0,1,.39-.17.82.82,0,0,1,.76.29l.73.9.41.51.38.47,3.05,3.78,0,0,.11.13.53.66.69.86.39.47.79-.65.06,0,0,0,0,0-1.16-1.44-.37-.45-.11-.14h0a.21.21,0,0,1,0-.06s0,0,0,0l0,0s0,0,0-.06v0a.13.13,0,0,1,0-.06v-.07s0,0,0,0v0h0a.43.43,0,0,1,0,0,.17.17,0,0,0,0-.05l0,0,0-.06h0l.07-.07.47-.38.07-.05h0l.09,0h0l.09,0h.11l.09,0h0l.06,0h0l0,0h0l0,0,.06.06.18.22.14.18.2.25h0l.19.24.64.79.14.18,0,0h0l0,.05.16.19.43-.35.18-.15.24-.19-.19-.24-.42-.53-.4-.49-.2-.24h0a.35.35,0,0,1,0-.08h0l0-.08v0s0,0,0-.08h0v0a.14.14,0,0,1,0-.09h0a.29.29,0,0,1,0-.09h0a.2.2,0,0,1,0-.08v0l0-.07h0l.07-.07.46-.37.08-.05h0l.08,0h.32l.07,0h0l.06,0,0,0a.23.23,0,0,1,.07.07l0,0,.38.48.11.13h0l.32.38,0,0,.36.45h0L50,43l.18-.14h0l.08-.07-.15,0,.24-.19.19-.15h0L50.21,42l-.32-.39h0a.53.53,0,0,1,.08-.73l.3-.24.08,0h0l.08,0h.21l.08,0h0l.07,0h0l.06,0,0,0a.23.23,0,0,1,.07.07l.3.37,1.62,2,.35.43h0l2.95,3.65a2.1,2.1,0,0,1,.34,2.07.58.58,0,0,0,.09.54l2,2.46Z"/><path class="cls-2" d="M25.84,7.76a10.32,10.32,0,0,1-1,1.47,8.05,8.05,0,0,1,.57,3.39,7.12,7.12,0,0,1-.48,3.3.7.7,0,0,1-.53.3,4.15,4.15,0,0,1-1,.05,1.41,1.41,0,0,0-.2-.69,6,6,0,0,0,.94,0,.37.37,0,0,0,.29-.16,7.33,7.33,0,0,0,.33-2.82v-.42a8.15,8.15,0,0,1-1.43,1.69,3,3,0,0,0-.47-.55,6.63,6.63,0,0,0,1.82-2.22,5.58,5.58,0,0,0-.32-1.31,10.81,10.81,0,0,1-1,.93,2.65,2.65,0,0,0-.49-.45,8,8,0,0,0,1.2-1.14,6,6,0,0,0-1-1.29l.51-.37a6,6,0,0,1,1,1.12,7.33,7.33,0,0,0,.73-1.15Zm1.44.34V7.38h.66V8.1h1.59V7.38h.66V8.1h1.6v.58h-1.6v.55h-.64c-.1.18-.2.34-.29.49h2.22v.48h-2.2v.5h1.91v.41H29.28v.53H31.2V12H29.28v.55h2.49v.49H26.46v-2.3a5.43,5.43,0,0,1-.6.65A4,4,0,0,0,25.4,11a5.59,5.59,0,0,0,1.49-2.07l.39.1V8.68H25.81V8.1Zm4,5.67a4.42,4.42,0,0,1-1.73,1.49,11.81,11.81,0,0,0,2.42.46,2.91,2.91,0,0,0-.4.57,10.66,10.66,0,0,1-2.79-.68,13.26,13.26,0,0,1-2.92.69,3.66,3.66,0,0,0-.33-.57A13.9,13.9,0,0,0,28,15.25a4.18,4.18,0,0,1-1.21-1l.41-.16H26.09v-.56h4.75ZM28.63,10.2H27.09v.5h1.54Zm0,.91H27.09v.53h1.54Zm0,.93H27.09v.55h1.54Zm-.69-3.36v.55h-.53a4.52,4.52,0,0,1-.25.49H28.6A4.29,4.29,0,0,0,28.91,9l.62.11V8.68Zm-.49,5.4a3.9,3.9,0,0,0,1.32.91,4.62,4.62,0,0,0,1.43-.91Z"/><path class="cls-2" d="M35.53,9.81a9.53,9.53,0,0,1-.8,1.19v5.28H34V11.82a9.14,9.14,0,0,1-1.14,1,4.06,4.06,0,0,0-.38-.69,9.06,9.06,0,0,0,2.4-2.63Zm-.11-2.12A9.68,9.68,0,0,1,33,10a3,3,0,0,0-.38-.58,7.54,7.54,0,0,0,2.06-2Zm6.09,5.93H40.06v1.87c0,.39-.09.58-.37.69a4.85,4.85,0,0,1-1.48.12,2.59,2.59,0,0,0-.23-.66c.54,0,1,0,1.16,0s.2-.05.2-.18V13.62H35.43V13h3.91v-.83H35.66v-.62h5.67v.62H40.06V13h1.45Zm-.63-2.72H36.25V7.7h4.63Zm-4.09,2.89A8.27,8.27,0,0,1,38,15.14l-.55.39a8.51,8.51,0,0,0-1.2-1.41Zm3.37-5.54H37V9h3.21Zm0,1.3H37v.79h3.21Z"/><path class="cls-2" d="M10.16,22.43h.51v1.15a8.74,8.74,0,0,1-.4,3,1.28,1.28,0,0,0-.44-.32,8.86,8.86,0,0,0,.33-2.72ZM10,21.1h3.2v.63H11.93v5.66h-.62V21.73H10Zm3-1.32H10.23v-.63H13Zm-.37,2.64h.5V26h-.5Zm6.19,4.2v.56H13.22v-.56h1.62a4.43,4.43,0,0,0-.38-1.13l.57-.15a4.43,4.43,0,0,1,.43,1.15l-.39.13h1.81l-.33-.11A7.64,7.64,0,0,0,17,25.32l.64.19c-.2.39-.37.81-.55,1.11Zm-.12-3.57H13.4v-.57h5.27Zm-.23-1h-4.8V19.19H15v-.68h.55v.68h.88v-.68H17v.68h1.44ZM14,25.27V23.53h4.18v1.74Zm.28-4.9h.85v-.69h-.85Zm0,1.17h.85v-.7h-.85Zm.32,3.26h3V24h-3Zm1.88-4.43v-.69h-.88v.69Zm-.88.47v.7h.88v-.7Zm2.26-1.16h-.9v.69h.9Zm0,1.16h-.9v.7h.9Z"/><path class="cls-2" d="M22.06,23.86v3.55h-.68V24.08l-1.6.49-.2-.69c.5-.13,1.12-.3,1.8-.51V21.2H20.5a7.71,7.71,0,0,1-.43,1.44,2.8,2.8,0,0,0-.56-.32,11.55,11.55,0,0,0,.68-3.25l.63.11c-.05.44-.12.89-.19,1.32h.75v-2h.68v2h1v.7h-1v2l1.12-.35.1.64Zm6.36-3.72s0,.28,0,.36c-.21,4.41-.43,5.92-.82,6.41a.84.84,0,0,1-.67.37,5.8,5.8,0,0,1-1.11,0,1.52,1.52,0,0,0-.2-.71c.44,0,.83.05,1,.05a.41.41,0,0,0,.36-.17c.31-.34.53-1.78.72-5.63h-.47c-.48,2.55-1.55,5.14-3.17,6.42a2.52,2.52,0,0,0-.6-.44c1.59-1.15,2.65-3.54,3.15-6h-.8a9.54,9.54,0,0,1-2.39,4.41,2.11,2.11,0,0,0-.58-.42,8.23,8.23,0,0,0,2.35-4h-.84a8,8,0,0,1-1.11,1.85,3.8,3.8,0,0,0-.55-.42,8.31,8.31,0,0,0,1.7-3.74l.66.14a11.67,11.67,0,0,1-.43,1.49h3.79Z"/><path class="cls-2" d="M3.92,37.94A1.75,1.75,0,0,0,4.26,37l.28.07a1.78,1.78,0,0,1-.36,1ZM4,36.45l1-.05V36H4.12v-.31H5v-.36H4.15V33.52h2v1.81H5.32v.36h.9V36h-.9v.38l1-.06v.31c-.83.07-1.68.12-2.28.15Zm.46-1.4H5V33.8H4.46Zm.26-1a3.69,3.69,0,0,1,.18.79l-.21.05a3.08,3.08,0,0,0-.16-.79ZM5,37a3.28,3.28,0,0,1,.14.89l-.26,0A4,4,0,0,0,4.7,37Zm.49,0a3.33,3.33,0,0,1,.27.83l-.26.06A3.76,3.76,0,0,0,5.2,37Zm.44-3.13h-.6v1.25h.6Zm-.52,1A5.49,5.49,0,0,0,5.58,34l.23.08c-.09.27-.19.6-.28.81Zm.57,2a3.53,3.53,0,0,1,.45.78l-.26.11a3.1,3.1,0,0,0-.43-.79Zm1.68-2v1h.9v2.27H8.14v-.22H6.83v.24H6.48V35.78h.75V33.34h.38v1.12H8.72v.36Zm.53,1.32H6.83v1.34H8.14Z"/><path class="cls-2" d="M10.22,35.27h-1v-.22h1v-.16H9.44V34h.78v-.18h-1v-.22h1v-.26h.31v.26h1v.22h-1V34h.8v.9h-.8v.16h1v.22h-1v.35H11v-.3h.29v.52H9.47v-.52h.29v.3h.46Zm1.5,1.78h2.1v.27h-2.1v.38c0,.2-.05.28-.21.33a3.44,3.44,0,0,1-.84,0,1.94,1.94,0,0,0-.13-.3h.69c.08,0,.11,0,.11-.1v-.37H9.26v-.27h2.08v-.29H9.58V36.5h1.76v-.26c-.52,0-1.05,0-1.54,0A1,1,0,0,0,9.73,36a21.68,21.68,0,0,0,3.09-.2l.27.21a11.28,11.28,0,0,1-1.37.16v.29h1.81v.26H11.72Zm-2-2.71h.5v-.17h-.5Zm.5.37v-.19h-.5v.19Zm.31-.54v.17h.52v-.17Zm.52.35h-.52v.19h.52Zm2.53.13a1.65,1.65,0,0,1-.68.81,3.45,3.45,0,0,0,1,.28,1.08,1.08,0,0,0-.21.28,3.27,3.27,0,0,1-1.14-.39,3.81,3.81,0,0,1-.94.26.81.81,0,0,0-.15-.27,3.42,3.42,0,0,0,.81-.18,1.6,1.6,0,0,1-.46-.51l.22-.06h-.44V34.6h.09a.88.88,0,0,0-.24-.23c.36-.18.42-.38.42-.58v-.3h1.32V34c0,.07,0,.12,0,.13s0,0,.08,0h.24a.14.14,0,0,0,0-.07s0-.13,0-.25a.7.7,0,0,0,.24.13.87.87,0,0,1,0,.33.25.25,0,0,1-.13.12.78.78,0,0,1-.22,0h-.24a.38.38,0,0,1-.26-.08c-.06-.06-.08-.14-.08-.37v-.23h-.66v0a.86.86,0,0,1-.49.8h1.66Zm-1.44.22a1.62,1.62,0,0,0,.46.44,1.54,1.54,0,0,0,.53-.44Z"/><path class="cls-2" d="M15.45,37a1.54,1.54,0,0,0,1.31.59c.57,0,1.75,0,2.37,0A1.49,1.49,0,0,0,19,38c-.57,0-1.66,0-2.24,0a1.88,1.88,0,0,1-1.48-.62c-.23.23-.49.45-.75.67l-.21-.38a9.16,9.16,0,0,0,.75-.59v-1h-.68v-.36h1.06Zm-.14-1.73a3.83,3.83,0,0,0-.9-.62l.26-.25a3.68,3.68,0,0,1,.91.6Zm.15-1a3.22,3.22,0,0,0-.84-.65l.25-.24a3.29,3.29,0,0,1,.86.62Zm3.59.16H15.81v-.29h3.24Zm-.81,2.91V37.2H16.59v.15h-.37V36h2.4v1.36Zm.32-2.3H16.29v-.28h2.27Zm-2.27.33h2.27v.29H16.29Zm2.23-1.56H16.34v-.29h2.18Zm-.28,3.09v-.63H16.59v.63Z"/><path class="cls-2" d="M21.2,36.67a7.65,7.65,0,0,0-.52-.71v2.12h-.37V36.15a5.35,5.35,0,0,1-.63.63,2,2,0,0,0-.19-.33,5,5,0,0,0,1.38-1.8H19.63v-.36h.67v-.93h.37v.93h.45l.2.13a5.14,5.14,0,0,1-.59,1.17l.2.23a6.32,6.32,0,0,0,.36-.54l.24.17a6.84,6.84,0,0,1-.44.56c.15.17.29.34.34.41Zm3.11.89v.36H21.23v-.36h1.42v-.77H21.54v-.35h1.11v-.61H21.56V33.59h2.56v2.24H23v.61h1.13v.35H23v.77Zm-2.39-3h.73v-.62h-.73Zm.73.94v-.62h-.73v.62Zm1.1-1.56H23v.62h.73Zm0,.94H23v.62h.73Z"/><path class="cls-2" d="M25,37.39a.36.36,0,0,1,.35-.37.35.35,0,0,1,.34.37.34.34,0,0,1-.34.36A.35.35,0,0,1,25,37.39Zm.12-3.07v-.54h.48v.54l-.07,2.21h-.32Z"/></g></g></svg>