<svg xmlns="http://www.w3.org/2000/svg" viewBox="0 0 70 70"><defs><style>.cls-1{fill:#f66;}.cls-2{fill:#fff;}</style></defs><title>アセット 7</title><g id="レイヤー_2" data-name="レイヤー 2"><g id="レイヤー_1-2" data-name="レイヤー 1"><circle class="cls-1" cx="35" cy="35" r="35"/><path class="cls-2" d="M57,31.84h2.24a.39.39,0,0,0,.4-.39V29.21a.4.4,0,0,0-.4-.4H57a.4.4,0,0,0-.4.4v2.24A.39.39,0,0,0,57,31.84Zm.39-2.24h1.45v1.45H57.37Z"/><polygon class="cls-2" points="50.95 29.78 50.55 29.78 46.44 29.78 46.44 30.57 50.55 30.57 50.95 30.57 51.35 30.57 52.75 30.57 52.75 29.78 51.35 29.78 50.95 29.78"/><polygon class="cls-2" points="50.95 31.1 50.55 31.1 46.44 31.1 46.44 31.89 50.55 31.89 50.95 31.89 51.35 31.89 52.75 31.89 52.75 31.1 51.35 31.1 50.95 31.1"/><path class="cls-2" d="M59.28,22.52H46.42a1.72,1.72,0,0,0-1.68,1.71v7.49a1.73,1.73,0,0,0,1.69,1.72H59.28A1.72,1.72,0,0,0,61,31.72V24.23A1.72,1.72,0,0,0,59.28,22.52Zm.93,9.2a.93.93,0,0,1-.93.93H46.46a.93.93,0,0,1-.92-.93V27H60.21Zm0-5.52H45.54V25.05H60.21Zm0-1.94H45.54v0a.92.92,0,0,1,.92-.92H59.28a.93.93,0,0,1,.93.92Z"/><path class="cls-2" d="M41.68,49.5v1.28a1,1,0,0,1-1,1H34.19a8,8,0,0,0-.49-2.67h7.88a7.34,7.34,0,0,1-.09-.82H33.33a4.58,4.58,0,0,0-.35-.54l1.43-1.63.82-.94.2-.22A2.16,2.16,0,0,0,36,43.33a2.36,2.36,0,0,0,0-.28,2.07,2.07,0,0,0-.37-.86,1.94,1.94,0,0,0-.33-.37,2.19,2.19,0,0,0-2.95,0c-.05,0-.1.1-.15.15l-.33.37L30.39,44V32H41.68v9.69a.49.49,0,0,1,.59.26,2.48,2.48,0,0,1,.23.68V30.52a1.78,1.78,0,0,0-1.78-1.78H31.34a1.78,1.78,0,0,0-1.78,1.78v10.1l-2.85,2.77a4.09,4.09,0,0,0-1.22,3.44l.88,7.35A3.17,3.17,0,0,1,26.08,56L25,58.36a.42.42,0,0,0,0,.31.4.4,0,0,0,.21.23l6.42,3a.39.39,0,0,0,.18,0,.4.4,0,0,0,.37-.23l1.59-3.37.9-1.46a4.13,4.13,0,0,0,.61-2.16V52.56h5.49a1.78,1.78,0,0,0,1.78-1.78v-.27A1.44,1.44,0,0,1,41.68,49.5Zm-11.29-19a1,1,0,0,1,.95-1h9.38a1,1,0,0,1,1,1v.62H30.39Zm4,24.21a3.24,3.24,0,0,1-.49,1.72L33,57.93l0,0-1.42,3-5.68-2.67.95-2a4.11,4.11,0,0,0,.36-2.24l-.89-7.35a3.29,3.29,0,0,1,1-2.75l2.28-2.22v3.18l-1.71,2,.31.27.31.27,1.09-1.25.42-.46.41-.47,2.21-2.53.14-.16a1.39,1.39,0,0,1,1.94-.13,1.41,1.41,0,0,1,.38.53,1.5,1.5,0,0,1,.09.42,1.4,1.4,0,0,1-.34,1l-2.68,3a.4.4,0,0,0,0,.54,3,3,0,0,1,.22.28,3.21,3.21,0,0,1,.26.41,3.91,3.91,0,0,1,.2.41,7.13,7.13,0,0,1,.56,2.67v.41l0,.41a5.59,5.59,0,0,1-.78,2.36l.35.22.35.21a6.47,6.47,0,0,0,.9-2.79h.25Z"/><path class="cls-2" d="M34.87,50.37a1.16,1.16,0,1,0,.36-.84A1.16,1.16,0,0,0,34.87,50.37ZM36,50a.34.34,0,1,1,0,.68A.34.34,0,1,1,36,50Z"/><path class="cls-2" d="M60,52.36a.49.49,0,0,0-.12-.4L57.69,49.3a3.23,3.23,0,0,0-.62-2.84l-4.91-6.08,0,0L51.85,40l-.09-.1,0,0-.07-.07-.08-.06,0,0-.07,0,0,0-.16-.08h0l-.09,0h0l-.14,0,0,0h-.07l-.11,0h-.52l-.09,0-.08,0h0l0,0a4.77,4.77,0,0,0-.88.61l-.05,0h0a1.41,1.41,0,0,0-.29.4,1.2,1.2,0,0,0-.33-.13h-.05l-.08,0h-.34l-.36,0h0l-.18.07h0l-.08,0-.05,0-.1.06,0,0-.12.08-.46.38-.13.11,0,0-.09.1,0,0-.08.11v0a.83.83,0,0,0-.07.13h0a2.52,2.52,0,0,0-.33-.13h-.12l-.08,0h-.55l-.09,0-.07,0-.08,0-.06,0-.09,0,0,0-.1.06,0,0-.11.08-.47.38-.11.09s0,0-.05,0l0,.05-.07.08v0l-.07.1L41,39.3v0L39.89,38a1.78,1.78,0,0,0-.26-.22h0a1.91,1.91,0,0,0-1.43-.35,2.06,2.06,0,0,0-.63.22h0a.16.16,0,0,1-.08,0l0,0a1.39,1.39,0,0,0-.27.21l0,0a.85.85,0,0,0-.23.27h0a.86.86,0,0,0-.07.1l-.13.26a2.33,2.33,0,0,0-.13.52v.08h0s0,0,0,.07a.09.09,0,0,0,0,.05c0,.09,0,.19,0,.28s0,.17.07.25a.32.32,0,0,0,0,.09h0a2.77,2.77,0,0,0,.1.26h0a.16.16,0,0,0,0,.07l4.06,5a.41.41,0,0,1,0,.53h0a2.21,2.21,0,0,0-.57,2.35l0,.1.93,1.52v0A10.36,10.36,0,0,1,42.08,51l.53.86a3.78,3.78,0,0,0,2.24,1.68l3.74,1a4.86,4.86,0,0,0,2.8.12l2,2.51a.49.49,0,0,0,.37.2h.14a.47.47,0,0,0,.26-.11l5.57-4.51A.49.49,0,0,0,60,52.36Zm-6,3.68L52,53.67a.53.53,0,0,0-.51-.2l-.09,0a3.8,3.8,0,0,1-2.47,0l0,0-3.75-1a2.65,2.65,0,0,1-1.59-1.19l-1.06-1.74-.59-1-.56-.91a1.1,1.1,0,0,1,.25-1.07l.2-.17.4.5,2.93,3.61.42-.34.2-.17.23-.18-.47-.59L45,48.6l-.79-1L42.39,45.4h0v0h0l-.7-.86-.51-.64-1.79-2.21-.24-.29L39,41.2l-.39-.49-.74-.91,0,0,0,0,0,0a.08.08,0,0,1,0,0h0a.68.68,0,0,1-.08-.31.38.38,0,0,1,0-.15.75.75,0,0,1,.18-.43h0l0,0h0l0,0h0l0,0h0a.77.77,0,0,1,.39-.17.82.82,0,0,1,.76.29l.73.9.41.51.38.47,3.05,3.78,0,0,.11.13.53.66.69.86.39.47.79-.65.06,0,0,0,0,0-1.16-1.44-.37-.45-.11-.14h0a.21.21,0,0,1,0-.06s0,0,0,0l0,0s0,0,0-.06v0a.13.13,0,0,1,0-.06v-.07s0,0,0,0v0h0a.43.43,0,0,1,0,0,.17.17,0,0,0,0-.05l0,0,0-.06h0l.07-.07.47-.38.07-.05h0l.09,0h0l.09,0h.11l.09,0h0l.06,0h0l0,0h0l0,0,.06.06.18.22.14.18.2.25h0l.19.24.64.79.14.18,0,0h0l0,.05.16.19.43-.35.18-.15.24-.19-.19-.24-.42-.53-.4-.49-.2-.24h0a.35.35,0,0,1,0-.08h0l0-.08v0s0,0,0-.08h0v0a.14.14,0,0,1,0-.09h0a.29.29,0,0,1,0-.09h0a.2.2,0,0,1,0-.08v0l0-.07h0l.07-.07.46-.37.08-.05h0l.08,0h.32l.07,0h0l.06,0,0,0a.23.23,0,0,1,.07.07l0,0,.38.48.11.13h0l.32.38,0,0,.36.45h0L50,43l.18-.14h0l.08-.07-.15,0,.24-.19.19-.15h0L50.21,42l-.32-.39h0a.53.53,0,0,1,.08-.73l.3-.24.08,0h0l.08,0h.21l.08,0h0l.07,0h0l.06,0,0,0a.23.23,0,0,1,.07.07l.3.37,1.62,2,.35.43h0l2.95,3.65a2.1,2.1,0,0,1,.34,2.07.58.58,0,0,0,.09.54l2,2.46Z"/><path class="cls-2" d="M23.77,10.15a6.23,6.23,0,0,1-1,.86,4.64,4.64,0,0,1,.57,2.5,3.87,3.87,0,0,1-.5,2.4.78.78,0,0,1-.51.27,4.09,4.09,0,0,1-1.07.05,1.31,1.31,0,0,0-.23-.64,5.63,5.63,0,0,0,1,0,.4.4,0,0,0,.31-.16,3.82,3.82,0,0,0,.31-1.95c0-.13,0-.27,0-.41a7.77,7.77,0,0,1-1.85,1.49,2.09,2.09,0,0,0-.44-.56,5.69,5.69,0,0,0,2.19-1.71,3.53,3.53,0,0,0-.34-.9,10.66,10.66,0,0,1-1.39.78,3.25,3.25,0,0,0-.44-.48,9.51,9.51,0,0,0,1.48-.79A3.88,3.88,0,0,0,21,10l.46-.37a4.45,4.45,0,0,1,1,.86,7.49,7.49,0,0,0,.75-.71Zm-.85-1.32H20.65V8.17h2.27V7.4h.72v.77h2.52V7.4h.71v.77h2.26v.66H26.87v.74h-.7V8.83H23.64v.79h-.72Zm3.75,3.37a4.92,4.92,0,0,0,2.58,3.49,2.58,2.58,0,0,0-.48.59,5.3,5.3,0,0,1-2.43-3.07,5.22,5.22,0,0,1-2.43,3.1,2.66,2.66,0,0,0-.53-.47,4.8,4.8,0,0,0,2.46-3.64h-2.2v-.68H25.9c0-.12,0-.22,0-.34V9.77h.68v1.75h2.55v.68Zm.7-2.39A6,6,0,0,1,28.73,11l-.51.4a6.09,6.09,0,0,0-1.33-1.2Z"/><path class="cls-2" d="M33,9.81a12.39,12.39,0,0,1-.8,1.19v5.28h-.71V11.82a9.14,9.14,0,0,1-1.14,1,4.91,4.91,0,0,0-.38-.69,9,9,0,0,0,2.39-2.63ZM32.9,7.69A9.51,9.51,0,0,1,30.52,10a2.63,2.63,0,0,0-.38-.58,7.58,7.58,0,0,0,2.07-2ZM39,13.62H37.54v1.87c0,.39-.08.58-.37.69a4.85,4.85,0,0,1-1.48.12,2.25,2.25,0,0,0-.23-.66c.54,0,1,0,1.17,0s.19-.05.19-.18V13.62h-3.9V13h3.9v-.83H33.14v-.62h5.68v.62H37.54V13H39Zm-.63-2.72H33.74V7.7h4.62Zm-4.09,2.89a8.85,8.85,0,0,1,1.24,1.35l-.56.39a8.92,8.92,0,0,0-1.19-1.41Zm3.37-5.54h-3.2V9h3.2Zm0,1.3h-3.2v.79h3.2Z"/><path class="cls-2" d="M13,20.57a9.28,9.28,0,0,1-1.27,2.08C12.17,23,13,23.8,13.29,24l-.45.59c-.26-.32-.86-.91-1.32-1.35V27.4h-.71V23.61a10.2,10.2,0,0,1-1.6,1.28,3.08,3.08,0,0,0-.38-.67A8.49,8.49,0,0,0,12,21H9.17v-.66h1.64V18.52h.71v1.81h.91l.13,0Zm3.71,6c.47,0,.55-.38.62-1.85a1.82,1.82,0,0,0,.68.31c-.11,1.67-.3,2.24-1.25,2.24H15c-.94,0-1.22-.28-1.22-1.34V18.69h.74V26c0,.51.09.62.56.62Z"/><path class="cls-2" d="M21.19,23.86v3.55h-.67V24.08l-1.61.49-.19-.69c.49-.13,1.12-.3,1.8-.51V21.2h-.89a7.71,7.71,0,0,1-.43,1.44,2.73,2.73,0,0,0-.55-.32,11.57,11.57,0,0,0,.67-3.25l.63.11c-.05.44-.11.89-.18,1.32h.75v-2h.67v2h1v.7h-1v2l1.13-.35.1.64Zm6.37-3.72s0,.28,0,.36c-.22,4.41-.43,5.92-.82,6.41a.86.86,0,0,1-.67.37,5.81,5.81,0,0,1-1.11,0,1.54,1.54,0,0,0-.21-.71c.44,0,.83.05,1,.05a.4.4,0,0,0,.36-.17c.32-.34.53-1.78.73-5.63h-.47c-.49,2.55-1.56,5.14-3.18,6.42a2.17,2.17,0,0,0-.6-.44c1.6-1.15,2.65-3.54,3.15-6H25a9.55,9.55,0,0,1-2.4,4.41,2.06,2.06,0,0,0-.57-.42,8.22,8.22,0,0,0,2.34-4H23.5a8.39,8.39,0,0,1-1.11,1.85,3.9,3.9,0,0,0-.56-.42,8.42,8.42,0,0,0,1.71-3.74l.66.14a13.58,13.58,0,0,1-.44,1.49h3.8Z"/><path class="cls-2" d="M4.2,37.9a3,3,0,0,0,.71-1l.36.09a3.52,3.52,0,0,1-.71,1.12Zm4.1-1.34H4.84V34.9h1.5V33.33h.38v.55h2v.37h-2v.65H8.3Zm-.39-1.29H5.21v.92h2.7ZM6.11,37a5.72,5.72,0,0,1,.13,1L5.86,38a5.72,5.72,0,0,0-.12-1Zm1,0a5,5,0,0,1,.39,1L7.17,38a4.59,4.59,0,0,0-.36-1Zm1-.1a5.62,5.62,0,0,1,.7,1L8.53,38A5.61,5.61,0,0,0,7.87,37Z"/><path class="cls-2" d="M12,37.41H13.2v-1.3h.39v2H13.2v-.29H10V36.11h.4v1.3h1.24v-1.7H9.53v-.38h2.06v-.82H9.91v-.38h1.68v-.8H12v.8h1.69v.38H12v.82h2v.38H12Z"/><path class="cls-2" d="M15.68,37.14c.11,0,.23.14.41.24a2.88,2.88,0,0,0,1.34.21c.59,0,1.4,0,1.93-.1a1.64,1.64,0,0,0-.13.43c-.4,0-1.29,0-1.81,0A3,3,0,0,1,16,37.73c-.21-.11-.38-.26-.49-.26s-.43.27-.67.56l-.28-.36a2.64,2.64,0,0,1,.74-.53v-1.5h-.67v-.37h1Zm-.25-2.56a4.1,4.1,0,0,0-.73-.82l.3-.21a4.67,4.67,0,0,1,.76.8Zm3.35,2.61c-.27-.27-.68-.62-1.12-1a4.15,4.15,0,0,1-1.54,1,2.19,2.19,0,0,0-.23-.33,3.81,3.81,0,0,0,1.47-.9c-.43-.33-.88-.67-1.29-.95l.26-.23c.4.26.84.59,1.27.91a4,4,0,0,0,.61-1.2h-2.3v-.36h1.54a4.46,4.46,0,0,0-.36-.73l.36-.11a4.2,4.2,0,0,1,.4.74l-.27.1h1.69v.36h-.66a4.4,4.4,0,0,1-.71,1.42c.46.36.89.71,1.18,1Z"/><path class="cls-2" d="M24.48,37.55v.38H19.87v-.38H22v-.72H20.22v-.38H22v-.58H20.38V33.53H24v2.34H22.4v.58h1.8v.38H22.4v.72Zm-3.7-3H22v-.63H20.78Zm0,1H22v-.64H20.78Zm2.84-1.62H22.38v.63h1.24Zm0,1H22.38v.64h1.24Z"/><path class="cls-2" d="M25.26,37.39a.36.36,0,0,1,.35-.37.35.35,0,0,1,.34.37.34.34,0,0,1-.34.36A.35.35,0,0,1,25.26,37.39Zm.12-3.07v-.54h.48l0,.54-.06,2.21h-.33Z"/></g></g></svg>