<svg xmlns="http://www.w3.org/2000/svg" viewBox="0 0 88.88 88.88"><defs><style>.cls-1{fill:#006335;}.cls-2{fill:#fff;}</style></defs><title>アセット 23</title><g id="レイヤー_2" data-name="レイヤー 2"><g id="section1"><circle class="cls-1" cx="44.44" cy="44.44" r="44.44"/><path class="cls-2" d="M20.6,54.83h-3v-.5h3ZM18.5,60v.38H18V57.61h2.42V60Zm1.9-4H18v-.49H20.4ZM18,56.51H20.4V57H18Zm2.4-2.76H18v-.49h2.36ZM18.5,58.11v1.37h1.36V58.11ZM22.6,55c0,.41,0,.84-.07,1.25h2.22v.27c-.1,2.43-.21,3.31-.45,3.59a.78.78,0,0,1-.58.27,9.1,9.1,0,0,1-1,0,1.21,1.21,0,0,0-.19-.57c.42,0,.81,0,1,0s.21,0,.28-.1.28-1,.38-2.93H22.47a5.32,5.32,0,0,1-1.65,3.61,1.49,1.49,0,0,0-.46-.44c1.41-1.08,1.57-3.11,1.62-5H20.71v-.58h1.88V53h.6v1.47h1.92V55Z"/><path class="cls-2" d="M32.22,53.54v6.78h-.64v-.5H27.52v.53h-.61V53.54Zm-4.7.59v2.21h4.06V54.13Zm4.06,5.09V56.94H27.52v2.28Z"/><path class="cls-2" d="M39.75,56.74A7.74,7.74,0,0,0,41.64,58a2.7,2.7,0,0,0-.43.51,7.37,7.37,0,0,1-1.46-1v2.89h-.62V56.93a9.48,9.48,0,0,1-1.21-1.6,7.39,7.39,0,0,1-3.38,5.07,2.32,2.32,0,0,0-.49-.45,6,6,0,0,0,2.43-2.4,9.86,9.86,0,0,0-1.57-1.17,4.82,4.82,0,0,1-.54.63,4,4,0,0,0-.49-.39A7.71,7.71,0,0,0,35.83,53l.6.13c-.11.38-.23.76-.37,1.12H37.6l.11,0,.39.15c0,.24-.08.47-.12.69l.32-.13a7.59,7.59,0,0,0,.83,1.2V53h.62Zm-3.92-2a8.77,8.77,0,0,1-.61,1.14A9.79,9.79,0,0,1,36.75,57a9.72,9.72,0,0,0,.67-2.21Z"/><path class="cls-2" d="M49.25,53.35v7.1h-.63V60H43.15v.41h-.61v-7.1Zm-.63,6.12V53.91H43.15v5.56Zm-.48-1.26v.51H43.69v-.51h1.88V56.83H44v-.52h1.54V55.15H43.8V54.6H48v.55H46.14v1.16h1.64v.52H46.14v1.38ZM47,57a5.59,5.59,0,0,1,.83.89l-.42.25a6.32,6.32,0,0,0-.79-.93Z"/><path class="cls-2" d="M54.33,53.23c0,.1,0,.23,0,.37.07,1.08.51,4.86,3.59,6.27a1.63,1.63,0,0,0-.45.5,6.74,6.74,0,0,1-3.41-4.73,6.76,6.76,0,0,1-3.27,4.73,2,2,0,0,0-.49-.47c3.31-1.69,3.31-5.59,3.37-6.67Z"/><path class="cls-2" d="M65.56,59.63c0,.4-.09.61-.38.7a5.69,5.69,0,0,1-1.53.11,2.42,2.42,0,0,0-.22-.62c.59,0,1.16,0,1.33,0s.19-.05.19-.21V55H59.6v5.47H59V54.38h2.23A9.13,9.13,0,0,0,61.76,53l.75.13c-.18.43-.39.9-.6,1.29h3.65Zm-4.33-.89v.58h-.55V56.05h3.17v2.69Zm0-2.14v1.59h2.05V56.6Z"/><path class="cls-2" d="M68.44,53.59c0,.14-.1.36-.14.52a10.81,10.81,0,0,0-.23,4.26c.11-.34.27-.82.42-1.23l.36.23c-.19.56-.44,1.38-.52,1.78a1.65,1.65,0,0,0,0,.36l0,.28-.55.06a8.68,8.68,0,0,1-.43-2.57,21.66,21.66,0,0,1,.3-3.23,2.69,2.69,0,0,0,0-.54Zm5.39,2c-.37.06-.82.11-1.31.15v.27c0,1.87,0,3.19-1.71,4.2l-.6-.47a2.89,2.89,0,0,0,.79-.51c.87-.75.91-1.66.91-3.22v-.24c-.34,0-.7,0-1,0s-1,0-1.31-.05v-.66a8.65,8.65,0,0,0,1.3.09l1,0c0-.51,0-1.05,0-1.25a3,3,0,0,0-.07-.49h.76c0,.14,0,.3,0,.48s0,.71,0,1.22A9.35,9.35,0,0,0,73.83,55Z"/><path class="cls-2" d="M47.42,19.52l-1,5.2h6.86L53,25.93H46.14L45,31.55H43.64l2.65-13.24h9.07l-.25,1.21Z"/><path class="cls-2" d="M57,31.12a3.78,3.78,0,0,1-1.57-1.47,4.27,4.27,0,0,1-.56-2.23,6.09,6.09,0,0,1,.74-3,5.4,5.4,0,0,1,2-2.11,5.74,5.74,0,0,1,3-.76,4.67,4.67,0,0,1,3.3,1.13,4,4,0,0,1,1.22,3.06,6.14,6.14,0,0,1-.74,3,5.33,5.33,0,0,1-2,2.11,5.74,5.74,0,0,1-3,.77A5.16,5.16,0,0,1,57,31.12Zm4.69-1.27a4.05,4.05,0,0,0,1.54-1.66,5.11,5.11,0,0,0,.56-2.39A3,3,0,0,0,63,23.52a3.34,3.34,0,0,0-2.41-.82,4.14,4.14,0,0,0-2.21.6A4.23,4.23,0,0,0,56.79,25a5.11,5.11,0,0,0-.56,2.39,3,3,0,0,0,.86,2.27,3.38,3.38,0,0,0,2.41.81A4.14,4.14,0,0,0,61.71,29.85Z"/><path class="cls-2" d="M71.41,22a5.71,5.71,0,0,1,2.42-.46l-.25,1.3-.38,0a3.76,3.76,0,0,0-2.63.93,4.83,4.83,0,0,0-1.39,2.76l-1,5.05H66.83l2-9.95h1.29l-.35,1.82A4.09,4.09,0,0,1,71.41,22Z"/><path class="cls-2" d="M15.86,36.4H11.19l.24-1.21H22.15l-.27,1.21H17.24l-2.41,12H13.45Z"/><path class="cls-2" d="M22.45,48a3.74,3.74,0,0,1-1.58-1.47,4.35,4.35,0,0,1-.55-2.22,6.23,6.23,0,0,1,.73-3,5.51,5.51,0,0,1,2.05-2.1,5.81,5.81,0,0,1,3-.77,4.63,4.63,0,0,1,3.3,1.14,4,4,0,0,1,1.22,3.06,6.24,6.24,0,0,1-.74,3,5.36,5.36,0,0,1-2.05,2.12,5.75,5.75,0,0,1-3,.76A5.15,5.15,0,0,1,22.45,48Zm4.69-1.26a4.08,4.08,0,0,0,1.54-1.67,5.08,5.08,0,0,0,.56-2.39,3,3,0,0,0-.86-2.27A3.36,3.36,0,0,0,26,39.57a4.15,4.15,0,0,0-3.75,2.28,5,5,0,0,0-.56,2.39,3,3,0,0,0,.86,2.27,3.36,3.36,0,0,0,2.41.81A4.25,4.25,0,0,0,27.14,46.73Z"/><path class="cls-2" d="M43.21,38.48l-2,9.94H39.94l.32-1.59a4.74,4.74,0,0,1-3.84,1.68,3.66,3.66,0,0,1-2.6-.86,3.09,3.09,0,0,1-.94-2.39A5.53,5.53,0,0,1,33,44.15l1.13-5.67h1.34l-1.13,5.67a5.44,5.44,0,0,0-.09.89,2.18,2.18,0,0,0,.63,1.68,2.7,2.7,0,0,0,1.9.58,3.93,3.93,0,0,0,2.63-.88,4.5,4.5,0,0,0,1.39-2.59l1.06-5.35Z"/><path class="cls-2" d="M49.56,38.86A5.87,5.87,0,0,1,52,38.4l-.25,1.31-.38,0a3.8,3.8,0,0,0-2.63.92,4.83,4.83,0,0,0-1.39,2.76l-1,5.05H45l2-9.94h1.28l-.34,1.81A4.16,4.16,0,0,1,49.56,38.86Z"/><path class="cls-2" d="M54.38,38.48h1.34l-2,9.94H52.41ZM55,36a.88.88,0,0,1-.25-.62,1,1,0,0,1,.29-.73,1,1,0,0,1,.75-.3.93.93,0,0,1,.66.26.83.83,0,0,1,.26.6,1,1,0,0,1-1.06,1A.85.85,0,0,1,55,36Z"/><path class="cls-2" d="M58.11,48.17a4.29,4.29,0,0,1-1.67-.87l.64-1a4.46,4.46,0,0,0,1.49.79,6.31,6.31,0,0,0,2,.3,4.23,4.23,0,0,0,2.18-.46,1.46,1.46,0,0,0,.77-1.31,1,1,0,0,0-.31-.76,2.32,2.32,0,0,0-.77-.44c-.3-.1-.74-.21-1.32-.34a14.26,14.26,0,0,1-1.68-.45,2.64,2.64,0,0,1-1.1-.72,1.92,1.92,0,0,1-.45-1.36A2.65,2.65,0,0,1,59,39.24a5.29,5.29,0,0,1,3.14-.84,7,7,0,0,1,1.88.26,4.52,4.52,0,0,1,1.48.67l-.57,1.08a4.11,4.11,0,0,0-1.33-.64A6,6,0,0,0,62,39.55a3.83,3.83,0,0,0-2.11.5,1.48,1.48,0,0,0-.76,1.32,1,1,0,0,0,.32.79,1.92,1.92,0,0,0,.8.46c.33.1.76.2,1.32.32a16.76,16.76,0,0,1,1.65.44,2.65,2.65,0,0,1,1.09.71,1.89,1.89,0,0,1,.45,1.32,2.62,2.62,0,0,1-1.2,2.28,5.56,5.56,0,0,1-3.2.82A7.49,7.49,0,0,1,58.11,48.17Z"/><path class="cls-2" d="M68.89,45.41a4.42,4.42,0,0,0-.07.63c0,.88.48,1.32,1.43,1.32a2.52,2.52,0,0,0,1.54-.51l.32,1a3.58,3.58,0,0,1-2.21.64,2.5,2.5,0,0,1-1.77-.6,2.13,2.13,0,0,1-.65-1.66,3.84,3.84,0,0,1,.07-.78l1.16-5.86H67l.21-1.13h1.77l.44-2.18h1.34l-.44,2.18h3l-.23,1.13h-3Z"/></g></g></svg>