<svg xmlns="http://www.w3.org/2000/svg" viewBox="0 0 88.88 88.88"><defs><style>.cls-1{fill:#006335;}.cls-2{fill:#fff;}</style></defs><title>アセット 1</title><g id="レイヤー_2" data-name="レイヤー 2"><g id="レイヤー_1-2" data-name="レイヤー 1"><circle class="cls-1" cx="44.44" cy="44.44" r="44.44"/><path class="cls-2" d="M23.22,19.82H19.46v-.75h3.76Zm2.58.25c0,.46,0,.93-.08,1.4h2.7s0,.28,0,.4c-.12,2.95-.24,4.05-.56,4.42a.93.93,0,0,1-.74.37,8.83,8.83,0,0,1-1.29,0,2.41,2.41,0,0,0-.28-.9c.48,0,.93.05,1.13.05a.41.41,0,0,0,.37-.13c.2-.22.31-1.11.41-3.35H25.63a6.54,6.54,0,0,1-2,4.38,2.76,2.76,0,0,0-.63-.65v.09H20.73v.42h-.81V23.17h3V26c1.62-1.36,1.8-3.7,1.87-5.89H23.36v-.9h2.2V17.41h1v1.76h2.3v.9ZM23,21.18h-3v-.73h3Zm-3,.62h3v.74h-3Zm3-3.33H20v-.74h3Zm-.8,5.46H20.73v1.46h1.42Z"/><path class="cls-2" d="M37.69,18.05v8.51h-1v-.62H31.91v.66h-1V18.05ZM31.91,19v2.48h4.78V19Zm4.78,6V22.41H31.91V25Z"/><path class="cls-2" d="M47.1,22.09a9,9,0,0,0,2.23,1.49,3.29,3.29,0,0,0-.67.81,7.82,7.82,0,0,1-1.56-1.06v3.35h-1V22.41a11.62,11.62,0,0,1-1.39-1.83c-.75,3-2.22,5-4.08,6.06a3.37,3.37,0,0,0-.76-.7,7.06,7.06,0,0,0,2.88-2.81A13.14,13.14,0,0,0,41,21.81a8.71,8.71,0,0,1-.6.7,8.68,8.68,0,0,0-.79-.62,9.27,9.27,0,0,0,2.4-4.5l.94.19c-.13.46-.26.89-.42,1.32h1.67l.18,0,.63.21c-.06.3-.11.59-.16.87l.37-.15a7.76,7.76,0,0,0,.87,1.27V17.41h1Zm-4.91-2.3a8.83,8.83,0,0,1-.68,1.3,14.48,14.48,0,0,1,1.7,1.19A11.22,11.22,0,0,0,44,19.79Z"/><path class="cls-2" d="M58.78,17.83v8.88h-1v-.49H51.34v.49h-1V17.83Zm-1,7.51V18.71H51.34v6.63Zm-.48-1.56v.78H51.89v-.78h2.2v-1.5H52.3v-.8h1.79V20.25H52v-.83H57.1v.83H55v1.23h1.89v.8H55v1.5h1.4a7.07,7.07,0,0,0-.91-1.11l.6-.32a6.86,6.86,0,0,1,1,1.06l-.62.37Z"/><path class="cls-2" d="M65.15,17.67c0,.14,0,.32,0,.5.09,1.35.62,5.91,4.42,7.65a2.92,2.92,0,0,0-.72.79,8.1,8.1,0,0,1-4.11-5.47,8.45,8.45,0,0,1-3.91,5.48,3.27,3.27,0,0,0-.78-.74c4.06-2.16,4-6.87,4.07-8.21Z"/><path class="cls-2" d="M23.49,32.53s0,.27,0,.4c-.06,3.32-.12,4.49-.38,4.85a.76.76,0,0,1-.62.36,5.74,5.74,0,0,1-1.05,0,2,2,0,0,0-.25-.84,7.91,7.91,0,0,0,.86,0,.3.3,0,0,0,.3-.14c.15-.21.21-1.16.26-3.83h-1a8.17,8.17,0,0,1-1.42,4.84,5.05,5.05,0,0,0-.7-.56,7.94,7.94,0,0,0,1.3-4.86V31.36H19.66v-.88h1.67V28.91h.9v1.57h1.56v.82a7.51,7.51,0,0,0,1.05-2.41l.93.19a10.06,10.06,0,0,1-.35,1.1h3.32v.87H25a6.43,6.43,0,0,1-1,1.51,5.36,5.36,0,0,0-.78-.6,3,3,0,0,0,.51-.6H21.61v1.17ZM29,33.6A16.5,16.5,0,0,1,27.3,35,4.76,4.76,0,0,0,29,37.4a3.41,3.41,0,0,0-.64.77c-1.34-1-2-2.8-2.4-5.05l-.54.22V38.2h-.9V33.67l-.4.12a3.3,3.3,0,0,0-.57-.79,12.2,12.2,0,0,0,4.18-1.75l.69.51a10.65,10.65,0,0,1-1.68,1,12.92,12.92,0,0,0,.29,1.43A12.23,12.23,0,0,0,28.32,33Z"/><path class="cls-2" d="M33.3,31.39A14,14,0,0,1,32.19,33v5.28h-.94V34c-.34.34-.68.65-1,.92a4.81,4.81,0,0,0-.65-.81,10.63,10.63,0,0,0,2.81-3Zm-.39-2.13a13.07,13.07,0,0,1-2.68,2.57,4.32,4.32,0,0,0-.53-.76A9.29,9.29,0,0,0,32,28.89ZM39,33.16H37.54v3.91c0,.53-.12.81-.51,1a6.4,6.4,0,0,1-1.92.15,3.8,3.8,0,0,0-.3-.94c.65,0,1.33,0,1.51,0s.26,0,.26-.19v-3.9H33.37v-.9H39Zm-.28-2.77H33.79v-.9h4.93Z"/><path class="cls-2" d="M45.33,32.89c-.46.34-.93.65-1.42,1h3.94v4.33h-1V37.9H43.05v.31h-.94V34.8c-.57.27-1.14.51-1.72.73a5.83,5.83,0,0,0-.58-.78,18,18,0,0,0,4-1.86H40.06V32h3.36V30.91H41v-.82h2.47V28.9h.93v1.19h2.37v.44a10.54,10.54,0,0,0,1.11-1.31l.81.43A14.84,14.84,0,0,1,46.4,32h2.65v.85Zm1.54,1.73H43.05v.84h3.82Zm0,2.48v-.9H43.05v.9ZM45,32a13.41,13.41,0,0,0,1.33-1.13h-2V32Z"/><path class="cls-2" d="M58.84,37.05c0,.54-.13.84-.5,1a6.74,6.74,0,0,1-1.94.16,3.65,3.65,0,0,0-.33-1c.67,0,1.37,0,1.57,0s.26-.06.26-.23v-5.5H51.57V38.2h-.94V30.61H53.4A11.8,11.8,0,0,0,54,28.88l1.2.19c-.22.52-.49,1.08-.74,1.54h4.39Zm-5.23-1v.71h-.86V32.71h3.93v3.38Zm0-2.54v1.7h2.2v-1.7Z"/><path class="cls-2" d="M62.48,29.62c-.07.21-.15.53-.2.73a13.19,13.19,0,0,0-.3,4.92c.14-.37.33-.92.5-1.37l.53.34a24.06,24.06,0,0,0-.67,2.32,1.9,1.9,0,0,0-.05.46c0,.1,0,.25,0,.37l-.87.1a11.2,11.2,0,0,1-.55-3.21,26.24,26.24,0,0,1,.36-4,7.49,7.49,0,0,0,.06-.75Zm6.59,2.72c-.44.06-1,.11-1.56.15v.38c0,2.33-.09,3.89-2.15,5.16l-.94-.73a3.63,3.63,0,0,0,1.07-.71c.94-.87,1-1.9,1-3.73v-.32l-1.21,0c-.46,0-1.12,0-1.59-.06v-1a11.2,11.2,0,0,0,1.57.1l1.21,0c0-.61,0-1.21-.05-1.47a4.64,4.64,0,0,0-.1-.63h1.17a5.9,5.9,0,0,0,0,.63c0,.22,0,.81,0,1.41a14.86,14.86,0,0,0,1.57-.22Z"/><path class="cls-2" d="M25.43,45.81c-.23,0-.6.09-1,.15l-2.36.37c.18.92.32,1.68.39,2s.16.65.26,1l-1.17.2c0-.36-.08-.68-.14-1s-.19-1-.36-2c-1.11.18-2.14.35-2.61.44s-.72.14-.95.2l-.23-1.09c.25,0,.68-.06,1-.1.5-.07,1.54-.23,2.63-.41l-.35-1.86L18.38,44c-.35.06-.61.12-.88.18l-.21-1.11.88-.07c.38,0,1.22-.17,2.14-.31-.1-.51-.17-.87-.2-1a5.43,5.43,0,0,0-.2-.73l1.14-.19c0,.2.06.51.11.73s.09.51.19,1c.92-.15,1.79-.29,2.18-.38s.63-.13.83-.19l.2,1.07-.82.11-2.21.34.36,1.86c1-.16,1.88-.31,2.37-.41s.72-.15,1-.22Z"/><path class="cls-2" d="M31,46.68a9.72,9.72,0,0,0,1.63-2c-.24,0-1.48.29-2.76.56.4,1.43.86,3.12,1,3.6.05.18.17.56.24.75l-1.1.28a5,5,0,0,0-.16-.81c-.14-.49-.6-2.2-1-3.62-.92.18-1.72.36-2,.42l-.25-1c.3,0,.56-.06.89-.11l1.11-.2c-.12-.48-.23-.86-.29-1.08a2.76,2.76,0,0,0-.27-.65l1.09-.26c0,.2.09.45.15.7l.31,1.11L33,43.76a1.46,1.46,0,0,0,.43-.15l.65.46a14.94,14.94,0,0,1-2.17,3.06Z"/><path class="cls-2" d="M39.15,46.72a9.66,9.66,0,0,0,3.52-3.83L43.29,44a10.42,10.42,0,0,1-3.56,3.67,11.29,11.29,0,0,1-3.89,1.52l-.68-1A10.41,10.41,0,0,0,39.15,46.72Zm-.34-3.25-.81.82a23.47,23.47,0,0,0-2.53-2.15l.74-.79A20.87,20.87,0,0,1,38.81,43.47Z"/><path class="cls-2" d="M44.77,45.43c.47-.48,1.31-1.54,2-2.33s1-.74,1.81-.09a22.79,22.79,0,0,1,2.1,2.08c.67.73,1.73,1.85,2.46,2.72l-.84.91c-.68-.87-1.61-1.95-2.23-2.68s-1.53-1.68-1.94-2-.55-.32-.86.07c-.46.56-1.26,1.63-1.7,2.18-.21.3-.45.62-.61.86l-.94-1C44.27,45.92,44.48,45.72,44.77,45.43Zm6.69-3.94a1.27,1.27,0,1,1,0,2.54,1.27,1.27,0,1,1,0-2.54Zm0,2a.7.7,0,1,0-.7-.7A.7.7,0,0,0,51.46,43.47Z"/><path class="cls-2" d="M54.69,44.39c.33,0,1,.06,1.5.06H61.7c.5,0,.9,0,1.14-.06v1.24c-.22,0-.68,0-1.13,0H56.19c-.57,0-1.16,0-1.5,0Z"/><path class="cls-2" d="M68,46.72a9.66,9.66,0,0,0,3.52-3.83L72.14,44a10.42,10.42,0,0,1-3.56,3.67,11.37,11.37,0,0,1-3.89,1.52l-.68-1A10.41,10.41,0,0,0,68,46.72Zm-.34-3.25-.81.82a23.47,23.47,0,0,0-2.53-2.15l.74-.79A20.87,20.87,0,0,1,67.66,43.47Z"/><path class="cls-2" d="M19.59,54,19,56.83H22.8l-.13.66H18.88l-.62,3.11H17.5L19,53.28h5l-.13.67Z"/><path class="cls-2" d="M24.89,60.36a2.13,2.13,0,0,1-.87-.81,2.44,2.44,0,0,1-.31-1.23,3.41,3.41,0,0,1,.41-1.67,3,3,0,0,1,1.13-1.17,3.23,3.23,0,0,1,1.64-.42,2.55,2.55,0,0,1,1.82.63,2.18,2.18,0,0,1,.68,1.69A3.48,3.48,0,0,1,29,59.06a3.1,3.1,0,0,1-1.13,1.17,3.23,3.23,0,0,1-1.64.42A2.92,2.92,0,0,1,24.89,60.36Zm2.6-.7a2.29,2.29,0,0,0,.85-.92,2.86,2.86,0,0,0,.31-1.32,1.64,1.64,0,0,0-.48-1.26,1.86,1.86,0,0,0-1.33-.45A2.29,2.29,0,0,0,24.76,57a2.85,2.85,0,0,0-.3,1.32,1.61,1.61,0,0,0,.47,1.25,1.86,1.86,0,0,0,1.33.45A2.34,2.34,0,0,0,27.49,59.66Z"/><path class="cls-2" d="M32.85,55.32a3,3,0,0,1,1.33-.26l-.13.72h-.21a2.11,2.11,0,0,0-1.46.51,2.71,2.71,0,0,0-.77,1.53l-.55,2.79h-.74l1.08-5.5h.71l-.18,1A2.23,2.23,0,0,1,32.85,55.32Z"/><path class="cls-2" d="M40.15,54H37.57l.14-.67h5.92l-.15.67H40.91L39.59,60.6h-.77Z"/><path class="cls-2" d="M43.8,60.36a2.09,2.09,0,0,1-.88-.81,2.44,2.44,0,0,1-.3-1.23,3.41,3.41,0,0,1,.4-1.67,3,3,0,0,1,1.14-1.17,3.19,3.19,0,0,1,1.63-.42,2.58,2.58,0,0,1,1.83.63,2.18,2.18,0,0,1,.67,1.69,3.37,3.37,0,0,1-.41,1.68,3.1,3.1,0,0,1-1.13,1.17,3.2,3.2,0,0,1-1.64.42A2.84,2.84,0,0,1,43.8,60.36Zm2.59-.7a2.23,2.23,0,0,0,.85-.92,2.74,2.74,0,0,0,.31-1.32,1.64,1.64,0,0,0-.48-1.26,1.85,1.85,0,0,0-1.33-.45,2.3,2.3,0,0,0-1.22.33,2.25,2.25,0,0,0-.85.93,2.74,2.74,0,0,0-.31,1.32,1.65,1.65,0,0,0,.47,1.25,1.87,1.87,0,0,0,1.34.45A2.3,2.3,0,0,0,46.39,59.66Z"/><path class="cls-2" d="M55.27,55.1l-1.1,5.5h-.71l.18-.88a2.61,2.61,0,0,1-2.12.93,2.05,2.05,0,0,1-1.44-.48,1.7,1.7,0,0,1-.51-1.32,3.31,3.31,0,0,1,.06-.61l.62-3.14H51l-.63,3.14a2.32,2.32,0,0,0,0,.49,1.19,1.19,0,0,0,.35.93,1.52,1.52,0,0,0,1,.32,2.14,2.14,0,0,0,1.45-.49,2.48,2.48,0,0,0,.77-1.43l.59-3Z"/><path class="cls-2" d="M58.78,55.32a3.05,3.05,0,0,1,1.34-.26l-.14.72h-.2a2.1,2.1,0,0,0-1.46.51,2.65,2.65,0,0,0-.77,1.53L57,60.6h-.75l1.09-5.5h.71l-.19,1A2.3,2.3,0,0,1,58.78,55.32Z"/><path class="cls-2" d="M61.45,55.1h.74L61.1,60.6h-.74Zm.33-1.35a.45.45,0,0,1-.15-.34.53.53,0,0,1,.17-.4.55.55,0,0,1,.41-.17.5.5,0,0,1,.37.15.45.45,0,0,1,.14.32.54.54,0,0,1-.17.42.57.57,0,0,1-.41.17A.46.46,0,0,1,61.78,53.75Z"/><path class="cls-2" d="M63.51,60.46a2.27,2.27,0,0,1-.92-.48l.35-.58a2.31,2.31,0,0,0,.83.43,3.2,3.2,0,0,0,1.07.17,2.35,2.35,0,0,0,1.21-.25.81.81,0,0,0,.42-.73.54.54,0,0,0-.17-.42,1.32,1.32,0,0,0-.42-.24c-.17,0-.41-.12-.73-.19a6,6,0,0,1-.93-.25,1.46,1.46,0,0,1-.61-.39,1.09,1.09,0,0,1-.25-.76A1.47,1.47,0,0,1,64,55.52a2.91,2.91,0,0,1,1.73-.46,4,4,0,0,1,1,.14,2.5,2.5,0,0,1,.82.37l-.31.6a2.2,2.2,0,0,0-.74-.35,3.15,3.15,0,0,0-.87-.12,2.16,2.16,0,0,0-1.17.27.83.83,0,0,0-.42.73.57.57,0,0,0,.18.44,1.18,1.18,0,0,0,.44.25c.18.06.42.11.73.18a8.18,8.18,0,0,1,.91.24,1.3,1.3,0,0,1,.6.4,1,1,0,0,1,.25.73,1.46,1.46,0,0,1-.66,1.26,3.09,3.09,0,0,1-1.77.45A4,4,0,0,1,63.51,60.46Z"/><path class="cls-2" d="M69.47,58.94a2.05,2.05,0,0,0,0,.34c0,.49.27.73.79.73a1.36,1.36,0,0,0,.85-.28l.18.56a1.94,1.94,0,0,1-1.22.36,1.4,1.4,0,0,1-1-.33,1.21,1.21,0,0,1-.36-.92,1.91,1.91,0,0,1,0-.43l.64-3.24h-1l.11-.63h1l.24-1.2h.75l-.24,1.2h1.67l-.13.63H70.11Z"/></g></g></svg>