<svg xmlns="http://www.w3.org/2000/svg" viewBox="0 0 88.88 88.88"><defs><style>.cls-1{fill:#006335;}.cls-2{fill:#fff;}</style></defs><title>アセット 21</title><g id="レイヤー_2" data-name="レイヤー 2"><g id="section1"><circle class="cls-1" cx="44.44" cy="44.44" r="44.44"/><path class="cls-2" d="M22.37,25.39H17.22v-1h5.15Zm3.52.33c0,.64-.05,1.28-.11,1.92h3.7s0,.39,0,.56c-.16,4-.33,5.54-.76,6a1.27,1.27,0,0,1-1,.51,11.2,11.2,0,0,1-1.77,0,3.26,3.26,0,0,0-.39-1.23c.67,0,1.28.07,1.56.07a.56.56,0,0,0,.5-.18c.28-.31.43-1.52.55-4.59H25.66c-.32,2.36-1,4.54-2.78,6a3.61,3.61,0,0,0-.86-.89v.12H19v.58H17.84V30H22v3.82c2.22-1.86,2.46-5.07,2.56-8.07h-2V24.5h3V22.09h1.33V24.5H30v1.22ZM22,27.25H17.87v-1H22Zm-4.16.85H22v1H17.87ZM22,23.54H17.92v-1H22ZM20.9,31H19v2H20.9Z"/><path class="cls-2" d="M42.16,23V34.61H40.78v-.85H34.24v.91H32.92V23Zm-7.92,1.31v3.38h6.54V24.27Zm6.54,8.19V28.93H34.24v3.53Z"/><path class="cls-2" d="M50.34,27s0,.38,0,.54c-.09,4.56-.17,6.16-.52,6.64a1,1,0,0,1-.84.5,7.32,7.32,0,0,1-1.45,0,2.9,2.9,0,0,0-.33-1.15c.5,0,1,0,1.17,0a.41.41,0,0,0,.41-.19c.21-.29.29-1.58.36-5.24H47.76a11.3,11.3,0,0,1-1.94,6.63,7.57,7.57,0,0,0-1-.78,10.87,10.87,0,0,0,1.77-6.64v-2H45.11V24.24h2.27V22.09h1.24v2.15h2.14v1.12a10,10,0,0,0,1.43-3.3l1.28.26a13.86,13.86,0,0,1-.49,1.5h4.55V25H52.45a9,9,0,0,1-1.4,2.06A6.88,6.88,0,0,0,50,26.27a5.6,5.6,0,0,0,.7-.82H47.77V27Zm7.51,1.46a20.22,20.22,0,0,1-2.29,1.88,6.5,6.5,0,0,0,2.36,3.33,4.68,4.68,0,0,0-.87,1c-1.83-1.33-2.78-3.83-3.28-6.91q-.37.16-.75.3v6.66H51.8V28.6l-.56.17a4.24,4.24,0,0,0-.77-1.09,16.42,16.42,0,0,0,5.72-2.39l.94.7a13.3,13.3,0,0,1-2.3,1.37,15.3,15.3,0,0,0,.4,1.95A16,16,0,0,0,57,27.7Z"/><path class="cls-2" d="M69.08,26a9.27,9.27,0,0,1-2.57,2.62,18.73,18.73,0,0,0,5.18,1.26,7,7,0,0,0-.84,1.25c-.56-.08-1.12-.19-1.66-.32v4H67.87v-.42H62.72v.45H61.45V31c-.65.19-1.32.35-2,.48a4.22,4.22,0,0,0-.64-1.13,20.24,20.24,0,0,0,5.21-1.61,10,10,0,0,1-1.6-1.37,10.83,10.83,0,0,1-2,1.17,3.93,3.93,0,0,0-.86-1,8.6,8.6,0,0,0,3.92-3l1.37.28c-.17.23-.35.47-.55.7H68l.24-.05Zm-8.39,0H59.43V23.27h5.15v-1.2H65.9v1.2h5.22V26H69.8V24.43H60.69Zm7.43,4.52a15.94,15.94,0,0,1-2.86-1.14,18.56,18.56,0,0,1-2.57,1.14Zm-.25,2.72V31.63H62.72v1.65Zm-4.5-6.68A7.66,7.66,0,0,0,65.27,28a8.82,8.82,0,0,0,1.88-1.51h-3.7Z"/><path class="cls-2" d="M28.34,46.59v1.48h1.51v1.2H28.34v3.3c0,.7-.15,1.07-.63,1.29a7.46,7.46,0,0,1-2.29.21,5,5,0,0,0-.4-1.29c.78,0,1.53,0,1.75,0s.29,0,.29-.25V49.27H22.23v-.74L20.9,49v5.12H19.7V49.32L17.51,50l-.34-1.24c.7-.17,1.57-.4,2.53-.68V45.27H18.58a12.77,12.77,0,0,1-.57,1.9c-.2-.15-.68-.44-.93-.58a16.44,16.44,0,0,0,.86-4.53l1.11.2c-.07.59-.14,1.2-.25,1.79h.9V41.34h1.2v2.71h1.29v1.22H20.9v2.46l1.45-.43.11.77h4.6V46.59H22v-1.2h3.42V43.88h-2.6V42.71h2.6V41.33h1.28v1.38h2.68v1.17H26.66v1.51H30v1.2Zm-4.51,2.9a9.89,9.89,0,0,1,1.7,2.14l-1,.66a10.24,10.24,0,0,0-1.66-2.2Z"/><path class="cls-2" d="M37.51,47.92s0,.36,0,.53c-.15,3.39-.29,4.68-.66,5.11a1.18,1.18,0,0,1-.95.44,9.68,9.68,0,0,1-1.68,0,2.67,2.67,0,0,0-.36-1.14,13.91,13.91,0,0,0,1.49.07c.22,0,.36,0,.45-.15s.38-1.24.49-3.74H34.33a8,8,0,0,1-2.42,5,3.05,3.05,0,0,0-.89-.9c1.86-1.5,2.17-4.2,2.29-6.61H31.87V42h5.54v4.61H34.58c0,.44-.06.89-.11,1.33Zm-4.46-2.47h3.11V43.12H33.05Zm6.84,5.22H38.65V43h1.24Zm3.36-9.05V52.45c0,.8-.19,1.18-.68,1.41a8,8,0,0,1-2.61.23,6.07,6.07,0,0,0-.45-1.32c.94,0,1.82,0,2.09,0s.36-.09.36-.34V41.62Z"/><path class="cls-2" d="M47.61,47.73c-.57-.39-1.73-1.06-2.56-1.49l.71-1c.79.39,2,1,2.55,1.38ZM45.33,53a40.86,40.86,0,0,0,2.61-4.38l.93.86c-.71,1.43-1.64,3.09-2.46,4.39ZM48.26,44c-.57-.41-1.72-1.07-2.54-1.53l.72-.92A27.27,27.27,0,0,1,49,42.94ZM54,46.6v2.06H56.9V54H55.67v-.51H51.08v.58H49.9V48.66h2.91V46.6H49V45.37h3.86v-2c-1,.16-2,.27-2.89.34a4.53,4.53,0,0,0-.37-1.09,31.75,31.75,0,0,0,6.6-1.26l1,1a19.07,19.07,0,0,1-3.12.81v2.18h3.67V46.6Zm1.63,3.22H51.08v2.5h4.59Z"/><path class="cls-2" d="M71.35,44.51s0,.44,0,.59c-.15,5.74-.28,7.71-.72,8.31a1.25,1.25,0,0,1-1,.59,9.38,9.38,0,0,1-1.71,0,3.2,3.2,0,0,0-.36-1.23c.64.06,1.21.06,1.46.06a.52.52,0,0,0,.5-.22c.31-.39.45-2.15.56-6.93H68.44c-.18,3.69-.81,6.64-3.19,8.47a4.5,4.5,0,0,0-.94-1,1.5,1.5,0,0,0,.25-.19c-2,.23-4,.44-5.48.58l-.17-1.1c.81,0,1.81-.14,2.91-.23V51.21H59.29v-.94h2.53v-.71H59.33V45.38h2.49v-.72H59v-1h2.86v-.78c-.85.07-1.7.11-2.48.14a4,4,0,0,0-.3-.93,43.19,43.19,0,0,0,6-.68l.61,1a25.62,25.62,0,0,1-2.61.39v.89h2.8v.81h1.46c0-.95,0-1.93,0-3h1.24c0,1,0,2,0,3Zm-11,2.56h1.44v-.84H60.38Zm1.44,1.64v-.84H60.38v.84ZM63,52.16c.86-.09,1.75-.17,2.62-.27,1.14-1.57,1.49-3.66,1.6-6.19H65.75v-1H63v.72h2.58v4.18H63v.71h2.61v.94H63Zm1.48-5.09v-.84H63v.84Zm-1.48.8v.84h1.48v-.84Z"/></g></g></svg>