<svg xmlns="http://www.w3.org/2000/svg" viewBox="0 0 88.11 88.11"><defs><style>.cls-1{fill:#006335;}.cls-2{fill:#fff;}</style></defs><title>アセット 20</title><g id="レイヤー_2" data-name="レイヤー 2"><g id="section1"><circle class="cls-1" cx="44.06" cy="44.06" r="44.06"/><path class="cls-2" d="M21.91,30.29a5.94,5.94,0,0,0,.4,1c-2.59,2-3,2.35-3.19,2.68A4.5,4.5,0,0,0,18.33,33a1.85,1.85,0,0,0,.83-1.39V27.32h-2V26.1h3.26v5.27ZM20.07,25c-.44-.56-1.31-1.5-2-2.16l.88-.77c.65.62,1.56,1.5,2,2Zm4.76.5c0,.59,0,1.2-.07,1.78h3.95s0,.38,0,.55c-.18,4.06-.35,5.56-.79,6a1.29,1.29,0,0,1-1,.52,12.28,12.28,0,0,1-1.76,0,3.16,3.16,0,0,0-.39-1.23,15.43,15.43,0,0,0,1.57.07.53.53,0,0,0,.5-.18c.27-.3.45-1.52.57-4.61H24.66c-.24,2.49-.88,4.67-2.54,6.11a3.79,3.79,0,0,0-.91-.92c2.08-1.75,2.27-4.83,2.34-8.16h-1.9V24.24h3.52a16,16,0,0,0-.62-2l1.24-.32c.24.65.55,1.5.68,2l-1.1.35h4.28v1.25Z"/><path class="cls-2" d="M41.79,22.77V34.31H40.43v-.84H34v.9H32.64V22.77ZM34,24.06v3.36h6.48V24.06Zm6.48,8.12v-3.5H34v3.5Z"/><path class="cls-2" d="M49.91,26.81s0,.37,0,.54c-.08,4.51-.16,6.1-.51,6.58a1,1,0,0,1-.84.49,7.08,7.08,0,0,1-1.43,0,2.81,2.81,0,0,0-.33-1.14,11.58,11.58,0,0,0,1.16,0,.4.4,0,0,0,.41-.19c.21-.29.29-1.57.36-5.19H47.35a11.18,11.18,0,0,1-1.93,6.57,6.13,6.13,0,0,0-1-.77,10.75,10.75,0,0,0,1.76-6.58v-2H44.72V24H47V21.9H48.2V24h2.12v1.12a10.23,10.23,0,0,0,1.42-3.28l1.26.26a12.33,12.33,0,0,1-.48,1.49H57V24.8H52a8.87,8.87,0,0,1-1.39,2.05,6.78,6.78,0,0,0-1-.81,5,5,0,0,0,.69-.81H47.36v1.58Zm7.44,1.45a19.55,19.55,0,0,1-2.27,1.85,6.37,6.37,0,0,0,2.34,3.31,4.63,4.63,0,0,0-.87,1c-1.81-1.32-2.75-3.8-3.24-6.85q-.37.16-.75.3v6.6H51.35V28.35l-.55.17A4.37,4.37,0,0,0,50,27.44a16.31,16.31,0,0,0,5.67-2.36l.94.69a14.27,14.27,0,0,1-2.29,1.36,18.61,18.61,0,0,0,.4,1.92,14.88,14.88,0,0,0,1.71-1.59Z"/><path class="cls-2" d="M68.48,25.79a8.88,8.88,0,0,1-2.55,2.6,19.26,19.26,0,0,0,5.14,1.26,5.84,5.84,0,0,0-.83,1.24c-.56-.09-1.11-.2-1.65-.32v3.91H67.28v-.42h-5.1v.45H60.92V30.69a19.12,19.12,0,0,1-2,.48,4.42,4.42,0,0,0-.63-1.12,20,20,0,0,0,5.16-1.6,8.94,8.94,0,0,1-1.58-1.35,11.41,11.41,0,0,1-2,1.16,3.36,3.36,0,0,0-.85-1,8.63,8.63,0,0,0,3.9-3l1.35.27c-.17.24-.35.47-.54.71h3.58l.23-.06Zm-8.31,0H58.91V23.07H64V21.88h1.31v1.19H70.5v2.75H69.2v-1.6h-9Zm7.36,4.47a14.92,14.92,0,0,1-2.83-1.13,16.2,16.2,0,0,1-2.55,1.13ZM67.28,33V31.35h-5.1V33Zm-4.46-6.62a7.76,7.76,0,0,0,1.89,1.43,8.59,8.59,0,0,0,1.86-1.5H62.91Z"/><path class="cls-2" d="M28.09,46.19v1.47h1.5v1.18h-1.5v3.28c0,.69-.15,1.06-.62,1.28a7.35,7.35,0,0,1-2.27.21,4.74,4.74,0,0,0-.4-1.28c.77,0,1.52,0,1.74,0s.29-.06.29-.25V48.84H22v-.73l-1.33.42v5.08H19.53V48.9l-2.17.65L17,48.32c.68-.16,1.55-.4,2.5-.67V44.88H18.42a12.61,12.61,0,0,1-.57,1.89,6.88,6.88,0,0,0-.92-.58,15.8,15.8,0,0,0,.85-4.49l1.1.19c-.06.59-.13,1.2-.24,1.78h.89V41h1.18v2.69H22v1.21H20.71v2.44l1.45-.43.11.77h4.56V46.19H21.77V45h3.39V43.5H22.59V42.35h2.57V41h1.27v1.38h2.65V43.5H26.43V45H29.7v1.19Zm-4.47,2.87a9.68,9.68,0,0,1,1.69,2.12l-1,.66a10,10,0,0,0-1.63-2.18Z"/><path class="cls-2" d="M37.38,47.54l0,.52c-.13,3.23-.26,4.5-.62,4.93a1.22,1.22,0,0,1-.88.46,10,10,0,0,1-1.52,0A3,3,0,0,0,34,52.26c.53.05,1,.07,1.23.07a.49.49,0,0,0,.45-.17c.19-.23.33-1.14.42-3.45H34.43c-.28,2.17-1,3.9-2.92,5a3.27,3.27,0,0,0-.77-1,4.68,4.68,0,0,0,2.48-4H31.11V47.54h2.23c0-.35,0-.69.06-1h1.19c0,.35,0,.69-.05,1Zm-.29-1.37H31.55V41.59h5.54Zm-1.23-3.44H32.72V45h3.14ZM40,50.25H38.74V42.64H40Zm2.89-9V52c0,.77-.18,1.16-.64,1.37a6.19,6.19,0,0,1-2.43.24,5.94,5.94,0,0,0-.42-1.3c.86,0,1.64,0,1.89,0s.33-.08.33-.33V41.26Z"/><path class="cls-2" d="M47.19,47.32a28,28,0,0,0-2.53-1.48l.7-1c.79.39,2,1,2.54,1.37Zm-2.25,5.27a41.32,41.32,0,0,0,2.59-4.35l.92.85c-.7,1.42-1.63,3.07-2.44,4.35Zm2.9-9c-.56-.4-1.71-1.06-2.52-1.51l.72-.91a25.92,25.92,0,0,1,2.56,1.39Zm5.73,2.6v2H56.4v5.3H55.19V53H50.64v.58H49.47V48.24h2.89v-2H48.53V45h3.83V43c-1,.15-2,.26-2.87.33a4.39,4.39,0,0,0-.37-1.07A31.69,31.69,0,0,0,55.66,41l1,1a18.71,18.71,0,0,1-3.09.8V45h3.64V46.2Zm1.62,3.19H50.64v2.48h4.55Z"/><path class="cls-2" d="M63.84,51.58c-.05-.23-.14-.51-.22-.81-3.6.87-4.13,1.06-4.49,1.25v0a.08.08,0,0,0,0,0c-.07-.24-.27-.85-.4-1.15.22-.09.43-.44.65-.94a28.16,28.16,0,0,0,1.05-3.48H58.6V45.29h6v1.16H61.72a26.48,26.48,0,0,1-1.29,3.89l2.85-.64c-.22-.65-.47-1.34-.72-1.92l1-.27a24.69,24.69,0,0,1,1.35,3.7Zm.53-8.37h-5.3V42.09h5.3Zm6.44.84s0,.44,0,.62c-.16,5.58-.31,7.53-.78,8.14a1.38,1.38,0,0,1-1.05.6,11.51,11.51,0,0,1-1.87,0,3.37,3.37,0,0,0-.39-1.24c.73.06,1.38.06,1.67.06a.52.52,0,0,0,.52-.21c.33-.4.5-2.14.64-6.74H67.75c-.18,3.4-.76,6.43-2.74,8.33a3.22,3.22,0,0,0-1-1c1.79-1.66,2.3-4.33,2.46-7.38H64.79V44.05h1.76c0-.92,0-1.85,0-2.82h1.27c0,1,0,1.9,0,2.82Z"/></g></g></svg>