<svg xmlns="http://www.w3.org/2000/svg" viewBox="0 0 88.88 88.88"><defs><style>.cls-1{fill:#006335;}.cls-2{fill:#fff;}</style></defs><title>アセット 22</title><g id="レイヤー_2" data-name="レイヤー 2"><g id="section1"><circle class="cls-1" cx="44.44" cy="44.44" r="44.44"/><path class="cls-2" d="M47.42,23.62l-1,5.2h6.86L53,30H46.14L45,35.64H43.64l2.65-13.23h9.07l-.25,1.21Z"/><path class="cls-2" d="M57,35.22a3.74,3.74,0,0,1-1.57-1.48,4.21,4.21,0,0,1-.56-2.22,6.06,6.06,0,0,1,.74-3,5.33,5.33,0,0,1,2-2.11,5.74,5.74,0,0,1,3-.77,4.63,4.63,0,0,1,3.3,1.14,4,4,0,0,1,1.22,3.06,6.13,6.13,0,0,1-.74,3,5.3,5.3,0,0,1-2,2.12,5.74,5.74,0,0,1-3,.77A5.29,5.29,0,0,1,57,35.22ZM61.71,34a4.12,4.12,0,0,0,1.54-1.66,5.11,5.11,0,0,0,.56-2.39A3,3,0,0,0,63,27.62a3.34,3.34,0,0,0-2.41-.82,4.12,4.12,0,0,0-3.75,2.27,5.15,5.15,0,0,0-.56,2.4,3,3,0,0,0,.86,2.26,3.34,3.34,0,0,0,2.41.82A4.14,4.14,0,0,0,61.71,34Z"/><path class="cls-2" d="M71.41,26.09a5.71,5.71,0,0,1,2.42-.47l-.25,1.31-.38,0a3.76,3.76,0,0,0-2.63.93,4.77,4.77,0,0,0-1.39,2.76l-1,5H66.83l2-9.94h1.29l-.35,1.81A4.14,4.14,0,0,1,71.41,26.09Z"/><path class="cls-2" d="M15.86,40.5H11.19l.24-1.21H22.15l-.27,1.21H17.24l-2.41,12H13.45Z"/><path class="cls-2" d="M22.45,52.09a3.8,3.8,0,0,1-1.58-1.47,4.35,4.35,0,0,1-.55-2.22,6.2,6.2,0,0,1,.73-3,5.54,5.54,0,0,1,2.05-2.11,5.8,5.8,0,0,1,3-.76,4.67,4.67,0,0,1,3.3,1.13,4,4,0,0,1,1.22,3.07,6.24,6.24,0,0,1-.74,3,5.36,5.36,0,0,1-2.05,2.12,5.75,5.75,0,0,1-3,.76A5.15,5.15,0,0,1,22.45,52.09Zm4.69-1.26a4.14,4.14,0,0,0,1.54-1.67,5.11,5.11,0,0,0,.56-2.39,3,3,0,0,0-.86-2.28A3.35,3.35,0,0,0,26,43.67a4.06,4.06,0,0,0-2.21.61A4.14,4.14,0,0,0,22.22,46a5,5,0,0,0-.56,2.39,3,3,0,0,0,.86,2.27,3.36,3.36,0,0,0,2.41.81A4.25,4.25,0,0,0,27.14,50.83Z"/><path class="cls-2" d="M43.21,42.57l-2,10H39.94l.32-1.59a4.74,4.74,0,0,1-3.84,1.68,3.66,3.66,0,0,1-2.6-.86,3.09,3.09,0,0,1-.94-2.39A5.53,5.53,0,0,1,33,48.25l1.13-5.68h1.34l-1.13,5.68a5.34,5.34,0,0,0-.09.88,2.2,2.2,0,0,0,.63,1.69,2.7,2.7,0,0,0,1.9.58,3.88,3.88,0,0,0,2.63-.89,4.43,4.43,0,0,0,1.39-2.59l1.06-5.35Z"/><path class="cls-2" d="M49.56,43A5.71,5.71,0,0,1,52,42.5l-.25,1.3-.38,0a3.76,3.76,0,0,0-2.63.93,4.83,4.83,0,0,0-1.39,2.76l-1,5.05H45l2-10h1.28l-.34,1.82A4.16,4.16,0,0,1,49.56,43Z"/><path class="cls-2" d="M54.38,42.57h1.34l-2,10H52.41ZM55,40.14a.88.88,0,0,1-.25-.63,1,1,0,0,1,.29-.73,1,1,0,0,1,.75-.29.93.93,0,0,1,.66.26.82.82,0,0,1,.26.59,1,1,0,0,1-.3.76,1,1,0,0,1-.76.3A.89.89,0,0,1,55,40.14Z"/><path class="cls-2" d="M58.11,52.27a4.57,4.57,0,0,1-1.67-.87l.64-1.06a4.29,4.29,0,0,0,1.49.8,6.31,6.31,0,0,0,2,.3A4.23,4.23,0,0,0,62.7,51a1.47,1.47,0,0,0,.77-1.32,1,1,0,0,0-.31-.75,2.16,2.16,0,0,0-.77-.44c-.3-.1-.74-.21-1.32-.34a14.26,14.26,0,0,1-1.68-.45,2.64,2.64,0,0,1-1.1-.72,1.94,1.94,0,0,1-.45-1.36A2.64,2.64,0,0,1,59,43.34a5.29,5.29,0,0,1,3.14-.84,7,7,0,0,1,1.88.25,4.52,4.52,0,0,1,1.48.68l-.57,1.07a4.1,4.1,0,0,0-1.33-.63A5.58,5.58,0,0,0,62,43.65a3.92,3.92,0,0,0-2.11.49,1.51,1.51,0,0,0-.76,1.33,1.05,1.05,0,0,0,.32.79,2,2,0,0,0,.8.45A13.19,13.19,0,0,0,61.6,47a14.35,14.35,0,0,1,1.65.44,2.55,2.55,0,0,1,1.09.71,1.89,1.89,0,0,1,.45,1.32,2.62,2.62,0,0,1-1.2,2.28,5.56,5.56,0,0,1-3.2.82A7.49,7.49,0,0,1,58.11,52.27Z"/><path class="cls-2" d="M68.89,49.51a4.28,4.28,0,0,0-.07.63c0,.88.48,1.32,1.43,1.32A2.52,2.52,0,0,0,71.79,51l.32,1a3.58,3.58,0,0,1-2.21.64,2.5,2.5,0,0,1-1.77-.6,2.16,2.16,0,0,1-.65-1.67,3.8,3.8,0,0,1,.07-.77l1.16-5.86H67l.21-1.14h1.77l.44-2.17h1.34l-.44,2.17h3l-.23,1.14h-3Z"/></g></g></svg>