<svg xmlns="http://www.w3.org/2000/svg" viewBox="0 0 195.66 53.1"><defs><style>.cls-1{fill:#6490a2;}.cls-2{fill:#231815;}</style></defs><title>logo_hotel_met</title><g id="Layer_2" data-name="Layer 2"><g id="レイヤー_1" data-name="レイヤー 1"><rect class="cls-1" y="12.38" width="2.3" height="33.02"/><rect class="cls-1" x="4.28" y="8.26" width="2.3" height="33.02"/><rect class="cls-1" x="8.51" y="4.13" width="2.3" height="33.02"/><rect class="cls-1" x="12.77" width="2.3" height="33.02"/><rect class="cls-1" x="17.03" y="12.38" width="2.3" height="33.02"/><rect class="cls-1" x="21.29" y="8.26" width="2.3" height="33.02"/><rect class="cls-1" x="25.54" y="4.13" width="2.3" height="33.02"/><rect class="cls-1" x="29.8" width="2.3" height="33.02"/><rect class="cls-1" x="34.06" y="12.38" width="2.3" height="33.02"/><rect class="cls-1" x="38.31" y="8.26" width="2.3" height="33.02"/><rect class="cls-1" x="42.57" y="4.13" width="2.3" height="33.02"/><rect class="cls-1" x="46.83" width="2.3" height="33.02"/><path class="cls-2" d="M59.6,12.43h2.69v5H67.4v-5h2.68V25.31H67.4V19.9H62.29v5.41H59.6Z"/><path class="cls-2" d="M78,25.64a6.78,6.78,0,0,1-2.58-.47,5.3,5.3,0,0,1-1.93-1.35,6,6,0,0,1-1.22-2.13,8.8,8.8,0,0,1-.42-2.82,8.78,8.78,0,0,1,.42-2.81,5.9,5.9,0,0,1,1.23-2.13,5.22,5.22,0,0,1,1.94-1.35A6.68,6.68,0,0,1,78,12.11a6.78,6.78,0,0,1,2.58.47,5.07,5.07,0,0,1,1.92,1.35,6.15,6.15,0,0,1,1.2,2.13,9.07,9.07,0,0,1,.41,2.81,9.1,9.1,0,0,1-.4,2.82,6,6,0,0,1-1.19,2.13,5.35,5.35,0,0,1-1.92,1.35A6.85,6.85,0,0,1,78,25.64Zm0-2.31a2.92,2.92,0,0,0,2.53-1.16,5.62,5.62,0,0,0,.83-3.3,5.63,5.63,0,0,0-.83-3.29,3.34,3.34,0,0,0-5.06,0,5.63,5.63,0,0,0-.82,3.29,5.63,5.63,0,0,0,.82,3.3A2.92,2.92,0,0,0,78,23.33Z"/><path class="cls-2" d="M88.64,14.76H84.77V12.43H95.23v2.33H91.35V25.31H88.64Z"/><path class="cls-2" d="M97.12,12.43h8.79v2.29h-6.1v2.82h5.74v2.31H99.81V23h6.48L106,25.31h-8.9Z"/><path class="cls-2" d="M108.11,12.43h2.69V23h6.1l-.29,2.31h-8.5Z"/><path class="cls-2" d="M59.6,28.39h3.23L66,38l3.3-9.61h3.14V41.27H70V32.68l-2.94,8.59H65L62,32.7v8.57H59.6Z"/><path class="cls-2" d="M75,28.39h8.78v2.29h-6.1V33.5h5.74v2.3H77.71V39h6.48l-.27,2.29H75Z"/><path class="cls-2" d="M89.35,30.72H85.47V28.39H95.93v2.33H92.05V41.27h-2.7Z"/><path class="cls-2" d="M97.46,28.39H102a7.67,7.67,0,0,1,2.5.35,4.1,4.1,0,0,1,1.54.92,3.1,3.1,0,0,1,.77,1.26,4.78,4.78,0,0,1-.23,3.46,3.57,3.57,0,0,1-1.52,1.42l2.62,5.47h-2.9l-2.17-4.83h-2.52v4.83H97.46Zm4.75,5.81a3.35,3.35,0,0,0,1-.14,1.51,1.51,0,0,0,.66-.38,1.18,1.18,0,0,0,.34-.58,3,3,0,0,0,.09-.76,2.08,2.08,0,0,0-.11-.66,1.44,1.44,0,0,0-.37-.56,1.89,1.89,0,0,0-.72-.38,4.29,4.29,0,0,0-1.17-.13h-1.85V34.2Z"/><path class="cls-2" d="M114.73,41.59a6.74,6.74,0,0,1-2.58-.46,5.33,5.33,0,0,1-1.93-1.36A6,6,0,0,1,109,37.64,9.61,9.61,0,0,1,109,32a5.9,5.9,0,0,1,1.23-2.13,5.36,5.36,0,0,1,1.94-1.36,6.68,6.68,0,0,1,2.56-.46,6.78,6.78,0,0,1,2.58.46,5.38,5.38,0,0,1,1.92,1.36,6.15,6.15,0,0,1,1.2,2.13,10,10,0,0,1,0,5.62,6,6,0,0,1-1.19,2.13,5.33,5.33,0,0,1-1.93,1.36A6.76,6.76,0,0,1,114.73,41.59Zm0-2.3a2.89,2.89,0,0,0,2.52-1.16,5.55,5.55,0,0,0,.83-3.3,5.54,5.54,0,0,0-.83-3.29,2.88,2.88,0,0,0-2.52-1.17,2.91,2.91,0,0,0-2.53,1.17,5.61,5.61,0,0,0-.83,3.29,5.62,5.62,0,0,0,.83,3.3A2.92,2.92,0,0,0,114.71,39.29Z"/><path class="cls-2" d="M122.65,28.39h4.6a7.65,7.65,0,0,1,2.44.33,4.18,4.18,0,0,1,1.53.89,2.93,2.93,0,0,1,.8,1.28,5.13,5.13,0,0,1,.22,1.52A5.83,5.83,0,0,1,132,34a3.25,3.25,0,0,1-.8,1.36,4,4,0,0,1-1.51.93,7.08,7.08,0,0,1-2.39.34h-2v4.6h-2.65Zm4.58,6a3.83,3.83,0,0,0,1.16-.14,1.88,1.88,0,0,0,.73-.4,1.23,1.23,0,0,0,.37-.62,2.92,2.92,0,0,0,.1-.8,2.76,2.76,0,0,0-.11-.8,1.22,1.22,0,0,0-.38-.57,1.72,1.72,0,0,0-.73-.36,4.17,4.17,0,0,0-1.16-.13H125.3v3.82Z"/><path class="cls-2" d="M139.89,41.59a6.78,6.78,0,0,1-2.58-.46,5.33,5.33,0,0,1-1.93-1.36,6.19,6.19,0,0,1-1.22-2.13,9.61,9.61,0,0,1,0-5.62,6.05,6.05,0,0,1,1.23-2.13,5.36,5.36,0,0,1,1.94-1.36,6.71,6.71,0,0,1,2.56-.46,6.78,6.78,0,0,1,2.58.46,5.21,5.21,0,0,1,1.92,1.36,6.15,6.15,0,0,1,1.2,2.13,8.74,8.74,0,0,1,.42,2.81,9,9,0,0,1-.41,2.81,6,6,0,0,1-1.19,2.13,5.21,5.21,0,0,1-1.92,1.36A6.85,6.85,0,0,1,139.89,41.59Zm0-2.3a2.92,2.92,0,0,0,2.53-1.16,5.62,5.62,0,0,0,.83-3.3,5.61,5.61,0,0,0-.83-3.29,2.91,2.91,0,0,0-2.53-1.17,2.88,2.88,0,0,0-2.52,1.17,5.54,5.54,0,0,0-.83,3.29,5.55,5.55,0,0,0,.83,3.3A2.89,2.89,0,0,0,139.87,39.29Z"/><path class="cls-2" d="M147.81,28.39h2.69V39h6.09l-.28,2.31h-8.5Z"/><path class="cls-2" d="M158.14,28.39h2.69V41.27h-2.69Z"/><path class="cls-2" d="M166.62,30.72h-3.88V28.39H173.2v2.33h-3.88V41.27h-2.7Z"/><path class="cls-2" d="M176.75,28.39h2.56l4.84,12.88h-2.89l-1-3h-4.51l-1,3h-2.78Zm2.78,7.68L178,31.46l-1.55,4.61Z"/><path class="cls-2" d="M185.32,28.39h2.42l5.3,8.44V28.39h2.62V41.27h-2.4l-5.32-8.37v8.37h-2.62Z"/><path class="cls-2" d="M61.19,48.65H59.6V47.7h4.28v.95H62.29V53h-1.1Z"/><path class="cls-2" d="M66.67,53.1a2.89,2.89,0,0,1-1-.19,2.15,2.15,0,0,1-.79-.56,2.48,2.48,0,0,1-.5-.87,3.71,3.71,0,0,1-.17-1.15,3.75,3.75,0,0,1,.17-1.15,2.48,2.48,0,0,1,.5-.87,2.24,2.24,0,0,1,.8-.55,2.61,2.61,0,0,1,1-.19,2.74,2.74,0,0,1,1.06.19,2.09,2.09,0,0,1,.78.55,2.46,2.46,0,0,1,.49.87,3.75,3.75,0,0,1,.17,1.15A3.71,3.71,0,0,1,69,51.48a2.45,2.45,0,0,1-.48.87,2.23,2.23,0,0,1-.79.56A2.9,2.9,0,0,1,66.67,53.1Zm0-1a1.18,1.18,0,0,0,1-.47,2.83,2.83,0,0,0,0-2.69,1.36,1.36,0,0,0-2.07,0,2.83,2.83,0,0,0,0,2.69A1.18,1.18,0,0,0,66.66,52.15Z"/><path class="cls-2" d="M70.08,47.7h1.11v2.11l1.94-2.11h1.2l-1.75,2L74.52,53H73.3l-1.48-2.58-.63.64V53H70.08Z"/><path class="cls-2" d="M76.64,50.82,74.82,47.7H76l1.13,2.13,1.18-2.13h1.16l-1.78,3.12V53H76.64Z"/><path class="cls-2" d="M82,53.1A2.9,2.9,0,0,1,81,52.91a2.23,2.23,0,0,1-.79-.56,2.46,2.46,0,0,1-.49-.87,3.43,3.43,0,0,1-.18-1.15,3.47,3.47,0,0,1,.18-1.15,2.34,2.34,0,0,1,.5-.87,2.21,2.21,0,0,1,.79-.55,3,3,0,0,1,2.1,0,2.21,2.21,0,0,1,.79.55,2.63,2.63,0,0,1,.49.87,3.75,3.75,0,0,1,.17,1.15,3.71,3.71,0,0,1-.17,1.15,2.32,2.32,0,0,1-.49.87,2.11,2.11,0,0,1-.78.56A2.94,2.94,0,0,1,82,53.1Zm0-1a1.18,1.18,0,0,0,1-.47A2.83,2.83,0,0,0,83,49a1.18,1.18,0,0,0-1-.48A1.17,1.17,0,0,0,81,49a2.83,2.83,0,0,0,0,2.69A1.16,1.16,0,0,0,82,52.15Z"/><path class="cls-2" d="M88.71,47.7h1.1V53h-1.1Z"/><path class="cls-2" d="M90.92,47.7H92v2.11L94,47.7h1.2l-1.75,2L95.36,53H94.14l-1.48-2.58L92,51V53H90.92Z"/><path class="cls-2" d="M96,47.7h3.59v.94H97.08v1.15h2.34v.94H97.08V52h2.64l-.11.94H96Z"/><path class="cls-2" d="M100.54,47.7h1.89a3.62,3.62,0,0,1,1,.11,1.53,1.53,0,0,1,.6.31,1,1,0,0,1,.31.44,1.75,1.75,0,0,1,.08.57,1.29,1.29,0,0,1-.13.58,1.08,1.08,0,0,1-.5.46,2.19,2.19,0,0,1,.39.26,1,1,0,0,1,.23.29,1,1,0,0,1,.12.32,1.84,1.84,0,0,1,0,.33,1.79,1.79,0,0,1-.1.62,1.08,1.08,0,0,1-.33.51,1.57,1.57,0,0,1-.6.34,3.16,3.16,0,0,1-.93.13h-2Zm2,2.09a.85.85,0,0,0,.59-.16.64.64,0,0,0,.17-.47.51.51,0,0,0-.21-.46,1.4,1.4,0,0,0-.72-.14h-.79v1.23Zm0,2.31a1.47,1.47,0,0,0,.45-.05.62.62,0,0,0,.29-.15.51.51,0,0,0,.16-.23,1,1,0,0,0,0-.3.7.7,0,0,0-.18-.52.92.92,0,0,0-.65-.18h-1V52.1Z"/><path class="cls-2" d="M105.29,47.7h1.1v3.14a1.68,1.68,0,0,0,.24,1,.9.9,0,0,0,.79.32.87.87,0,0,0,.78-.32,1.69,1.69,0,0,0,.23-1V47.7h1.1v3.14a3.44,3.44,0,0,1-.14,1,1.77,1.77,0,0,1-.43.7,1.61,1.61,0,0,1-.66.41,3,3,0,0,1-.89.13,3.15,3.15,0,0,1-.9-.13,1.72,1.72,0,0,1-.66-.41,2,2,0,0,1-.42-.72,3.47,3.47,0,0,1-.14-1Z"/><path class="cls-2" d="M110.58,47.7h1.11v2.11l1.94-2.11h1.2l-1.75,2L115,53H113.8l-1.48-2.58-.63.64V53h-1.11Z"/><path class="cls-2" d="M115.49,47.7h1.1v3.14a1.68,1.68,0,0,0,.24,1,1.12,1.12,0,0,0,1.57,0,1.69,1.69,0,0,0,.23-1V47.7h1.1v3.14a3.13,3.13,0,0,1-.15,1,1.64,1.64,0,0,1-.42.7,1.61,1.61,0,0,1-.66.41,3.15,3.15,0,0,1-1.79,0,1.72,1.72,0,0,1-.66-.41,1.83,1.83,0,0,1-.42-.72,3.47,3.47,0,0,1-.14-1Z"/><path class="cls-2" d="M120.78,47.7h1.87a3,3,0,0,1,1,.15,1.59,1.59,0,0,1,.63.37,1.36,1.36,0,0,1,.32.52,2.15,2.15,0,0,1,.08.55,1.86,1.86,0,0,1-.18.86,1.46,1.46,0,0,1-.62.58L125,53h-1.19l-.88-2h-1v2h-1.09Zm1.94,2.38a1.31,1.31,0,0,0,.43-.06.87.87,0,0,0,.27-.15.56.56,0,0,0,.13-.24,1.06,1.06,0,0,0,0-.31.77.77,0,0,0,0-.27.57.57,0,0,0-.15-.23.78.78,0,0,0-.3-.16,2,2,0,0,0-.47,0h-.76v1.47Z"/><path class="cls-2" d="M127.9,53.1a2.89,2.89,0,0,1-1.05-.19,2.15,2.15,0,0,1-.79-.56,2.48,2.48,0,0,1-.5-.87,3.43,3.43,0,0,1-.17-1.15,3.47,3.47,0,0,1,.17-1.15,2.48,2.48,0,0,1,.5-.87,2.21,2.21,0,0,1,.79-.55,3,3,0,0,1,2.1,0,2.21,2.21,0,0,1,.79.55,2.46,2.46,0,0,1,.49.87,3.75,3.75,0,0,1,.17,1.15,3.71,3.71,0,0,1-.17,1.15,2.45,2.45,0,0,1-.48.87,2.23,2.23,0,0,1-.79.56A2.9,2.9,0,0,1,127.9,53.1Zm0-1a1.16,1.16,0,0,0,1-.47,2.83,2.83,0,0,0,0-2.69,1.17,1.17,0,0,0-1-.48,1.18,1.18,0,0,0-1,.48,2.83,2.83,0,0,0,0,2.69A1.18,1.18,0,0,0,127.89,52.15Z"/><path class="cls-2" d="M134.94,51.39a2.12,2.12,0,0,0,.11.45,1.13,1.13,0,0,0,.21.35.82.82,0,0,0,.34.23,1.35,1.35,0,0,0,.52.09,1,1,0,0,0,.88-.35,1.63,1.63,0,0,0,.25-1V47.7h.68v3.53a1.86,1.86,0,0,1-.48,1.4,1.81,1.81,0,0,1-1.31.47,1.93,1.93,0,0,1-1.31-.42,1.78,1.78,0,0,1-.57-1.29Z"/><path class="cls-2" d="M139.09,47.7h1.72a2.93,2.93,0,0,1,1,.14,1.53,1.53,0,0,1,.59.34,1.25,1.25,0,0,1,.3.47,2,2,0,0,1,.08.54,1.66,1.66,0,0,1-.21.86,1.39,1.39,0,0,1-.69.55L143,53h-.76l-1-2.21-.21,0h-1.23V53h-.67Zm1.79,2.5a1.92,1.92,0,0,0,.58-.07.89.89,0,0,0,.36-.2.61.61,0,0,0,.18-.31,1.31,1.31,0,0,0,.06-.41,1.14,1.14,0,0,0-.06-.39.69.69,0,0,0-.21-.3.9.9,0,0,0-.38-.18,2.65,2.65,0,0,0-.62-.06h-1V50.2Z"/><path class="cls-2" d="M143.36,50.49h2.17v.64h-2.17Z"/><path class="cls-2" d="M146.52,47.7h3.41v.6H147.2V50h2.58v.6H147.2v1.82h2.87L150,53h-3.44Z"/><path class="cls-2" d="M152.62,47.7h.72l2,5.27h-.74l-.55-1.47h-2.26L151.28,53h-.71Zm1.26,3.21L153,48.47,152,50.91Z"/><path class="cls-2" d="M156.4,51.47a1.17,1.17,0,0,0,.44.8,1.87,1.87,0,0,0,1,.25,1.82,1.82,0,0,0,.57-.08,1,1,0,0,0,.38-.21.6.6,0,0,0,.19-.3,1.15,1.15,0,0,0,.06-.37,1.36,1.36,0,0,0,0-.29.72.72,0,0,0-.15-.27,1.13,1.13,0,0,0-.29-.2,1.83,1.83,0,0,0-.48-.14l-.67-.12a3.15,3.15,0,0,1-.69-.18,1.56,1.56,0,0,1-.51-.28,1.13,1.13,0,0,1-.32-.43,1.65,1.65,0,0,1-.11-.63,1.28,1.28,0,0,1,.15-.63,1.51,1.51,0,0,1,.41-.46,1.94,1.94,0,0,1,.62-.27,3,3,0,0,1,.76-.09,3.15,3.15,0,0,1,.88.11,1.72,1.72,0,0,1,.57.31,1.28,1.28,0,0,1,.33.44,2.3,2.3,0,0,1,.18.5l-.64.13a2.08,2.08,0,0,0-.15-.4.81.81,0,0,0-.24-.28,1,1,0,0,0-.38-.18,2,2,0,0,0-.53-.06,2.56,2.56,0,0,0-.61.07,1.42,1.42,0,0,0-.39.18.66.66,0,0,0-.21.27,1,1,0,0,0-.06.34.9.9,0,0,0,.05.34.63.63,0,0,0,.16.25.79.79,0,0,0,.3.17,2.07,2.07,0,0,0,.45.12l.74.14a2.31,2.31,0,0,1,1.2.51,1.36,1.36,0,0,1,.39,1,1.31,1.31,0,0,1-.13.59,1.33,1.33,0,0,1-.36.49,1.9,1.9,0,0,1-.6.32,2.66,2.66,0,0,1-.84.12A3.7,3.7,0,0,1,157,53a2,2,0,0,1-.66-.3,1.54,1.54,0,0,1-.45-.5,1.88,1.88,0,0,1-.2-.74Z"/><path class="cls-2" d="M162,48.31h-1.73V47.7h4.16v.61h-1.74V53H162Z"/></g></g></svg>