<svg xmlns="http://www.w3.org/2000/svg" viewBox="0 0 178.73 52.42"><defs><style>.cls-1{fill:#a7a9ac;}.cls-2{fill:#fff;}.cls-3{fill:#00345a;}</style></defs><title>logo_tokyo_st_hotel</title><g id="Layer_2" data-name="Layer 2"><g id="レイヤー_1" data-name="レイヤー 1"><path class="cls-1" d="M23.33,13.44h-4.2a0,0,0,0,1,0,0v-.23a0,0,0,0,1,0,0c.88-.09,1.34-.21,1.34-1.56V9.16a0,0,0,0,0,0,0H15.73a0,0,0,0,0,0,0v2.41c0,1.35.46,1.47,1.34,1.56a0,0,0,0,1,0,0v.23a0,0,0,0,1,0,0H12.87a0,0,0,0,1,0,0v-.23a0,0,0,0,1,0,0c.86-.09,1.32-.2,1.32-1.56V6.22c0-1.34-.46-1.45-1.33-1.54,0,0,0,0,0,0V4.41a0,0,0,0,1,0,0H17a0,0,0,0,1,0,0v.23s0,0,0,0c-.88.09-1.34.2-1.34,1.54V8.55a0,0,0,0,0,0,0h4.71a0,0,0,0,0,0,0V6.22c0-1.34-.46-1.45-1.34-1.54,0,0,0,0,0,0V4.41a0,0,0,0,1,0,0h4.2a0,0,0,0,1,0,0v.23s0,0,0,0c-.88.09-1.34.2-1.34,1.54v5.35c0,1.35.46,1.47,1.34,1.56a0,0,0,0,1,0,0v.23a0,0,0,0,1,0,0Z"/><path class="cls-1" d="M33.77,13.44H26.68a0,0,0,0,1-.05,0v-.23a0,0,0,0,1,0,0c1-.09,1.35-.24,1.35-1.56V6.22c0-1.29-.37-1.45-1.35-1.54,0,0,0,0,0,0V4.41a0,0,0,0,1,.05,0h7a0,0,0,0,1,0,0l.13,1.75,0,0h-.24s0,0,0,0a1.61,1.61,0,0,0-1.88-1.39h-2a0,0,0,0,0,0,0V8.58a0,0,0,0,0,0,0h1.54c1.27,0,1.33-.74,1.37-1.22a0,0,0,0,1,0,0h.22a0,0,0,0,1,0,0v2.93a0,0,0,0,1,0,0h-.22a0,0,0,0,1,0,0c0-.53-.1-1.19-1.38-1.21H29.58a0,0,0,0,0,0,0v2.48c0,1.26.31,1.41,1.05,1.41H32a1.94,1.94,0,0,0,1.92-1.45.05.05,0,0,1,0,0h.23l0,0-.38,1.79s0,0,0,0Z"/><path class="cls-1" d="M57.79,13.7a4.8,4.8,0,1,1,5-4.8,4.79,4.79,0,0,1-5,4.8Zm0-9.2c-2.37,0-3.22,2.3-3.22,4.45,0,2.65,1.27,4.36,3.22,4.36S61,11.6,61,9c0-2.15-.85-4.45-3.23-4.45Z"/><path class="cls-1" d="M93.21,13.7a4.8,4.8,0,1,1,5-4.8,4.79,4.79,0,0,1-5,4.8Zm0-9.2C90.83,4.5,90,6.8,90,9c0,2.65,1.27,4.36,3.23,4.36S96.43,11.6,96.43,9c0-2.15-.84-4.45-3.22-4.45Z"/><path class="cls-1" d="M160.34,13.7a4.8,4.8,0,1,1,5-4.8,4.79,4.79,0,0,1-5,4.8Zm0-9.2c-2.38,0-3.22,2.3-3.22,4.45,0,2.65,1.26,4.36,3.22,4.36s3.23-1.71,3.23-4.36c0-2.15-.85-4.45-3.23-4.45Z"/><path class="cls-1" d="M75.46,13.44H73a.14.14,0,0,1-.14-.06s-4.14-4.16-4.14-4.16h0s0,0,0,0v2.32c0,1.35.46,1.47,1.35,1.56a0,0,0,0,1,0,0v.23a0,0,0,0,1,0,0H65.78a0,0,0,0,1,0,0v-.23a0,0,0,0,1,0,0c.88-.09,1.34-.21,1.34-1.56V6.22c0-1.34-.46-1.45-1.34-1.54,0,0,0,0,0,0V4.41a0,0,0,0,1,0,0H70a0,0,0,0,1,0,0v.23s0,0,0,0c-.88.09-1.35.2-1.35,1.54v2.6l0,0h0l2.9-2.7a1.17,1.17,0,0,0,.48-.95c0-.31-.28-.49-.72-.51,0,0,0,0,0,0V4.41a0,0,0,0,1,0,0h3.84a0,0,0,0,1,0,0v.22a0,0,0,0,1,0,0h-.13A3.74,3.74,0,0,0,72.51,6l-.09.09L70,8.38a0,0,0,0,0,0,0v0l3.46,3.45c1,1,1.46,1.21,2,1.25a0,0,0,0,1,0,0v.23a0,0,0,0,1,0,0Z"/><path class="cls-1" d="M83.77,13.44H79.44a0,0,0,0,1,0,0v-.23a0,0,0,0,1,0,0c.88-.09,1.34-.21,1.34-1.56V9.52a.34.34,0,0,0,0-.15S78.59,6,78.59,6c-.8-1.27-1.44-1.3-1.82-1.32,0,0,0,0,0,0V4.41a0,0,0,0,1,0,0h4a0,0,0,0,1,0,0v.22a0,0,0,0,1,0,0c-.61,0-.87.17-.88.48s.11.44.44,1L82,8.71h0L83.85,6a1.55,1.55,0,0,0,.29-.76c0-.47-.54-.57-.85-.59,0,0,0,0,0,0V4.41a0,0,0,0,1,0,0h3a0,0,0,0,1,0,0v.23a0,0,0,0,1,0,0c-.65.09-1,.31-1.85,1.43L82.35,9.3a.29.29,0,0,0,0,.14c0,.05,0,2.13,0,2.13,0,1.39.5,1.49,1.47,1.56a0,0,0,0,1,0,0v.23a0,0,0,0,1,0,0Z"/><path class="cls-1" d="M110,13.74a7.87,7.87,0,0,1-2.42-.47,3.39,3.39,0,0,0-.86-.21h0a.59.59,0,0,0-.54.47s0,0,0,0h-.3a0,0,0,0,1,0,0V9.79a0,0,0,0,1,0,0H106a0,0,0,0,1,0,0,3.5,3.5,0,0,0,3.51,3.4h.08c1.64,0,2.77-.94,2.77-2.33,0-1.63-1.68-2.59-3.27-3.5a12.63,12.63,0,0,1-2-1.32,3.47,3.47,0,0,1-1.28-2.69c0-1.94,1.61-3.35,3.82-3.35a7,7,0,0,1,1.91.34,3.49,3.49,0,0,0,.8.17h.06a.39.39,0,0,0,.36-.33s0,0,0,0h.29a0,0,0,0,1,0,0V3.4a0,0,0,0,1,0,0h-.25s0,0,0,0a3.26,3.26,0,0,0-3.2-2.95,2.26,2.26,0,0,0-2.52,2.09c-.07,1.66,1.42,2.32,2.94,3.19a14.42,14.42,0,0,1,2.46,1.6A3.41,3.41,0,0,1,113.87,10,3.71,3.71,0,0,1,110,13.74Z"/><path class="cls-1" d="M152.36,13.44h-4.2a0,0,0,0,1,0,0v-.22a0,0,0,0,1,0,0c.88-.09,1.34-.21,1.34-1.56V6.22c0-1.34-.46-1.45-1.34-1.54,0,0,0,0,0,0V4.42a0,0,0,0,1,0,0h4.2a0,0,0,0,1,0,0v.22s0,0,0,0c-.88.09-1.34.2-1.34,1.54v5.35c0,1.35.46,1.47,1.34,1.56a0,0,0,0,1,0,0v.22a0,0,0,0,1,0,0Z"/><path class="cls-1" d="M177.27,13.53H177a.08.08,0,0,1-.08,0L170.21,6.2h0a0,0,0,0,0,0,0v5.4c0,1.26.44,1.43,1.45,1.51,0,0,0,0,0,0v.23a0,0,0,0,1,0,0h-3.35a0,0,0,0,1,0,0v-.23s0,0,0,0c.89-.09,1.36-.21,1.36-1.56V6.62c0-1.09-.11-1.77-1.58-1.94,0,0,0,0,0,0V4.42a0,0,0,0,1,0,0h2.47a.12.12,0,0,1,.09,0l6.1,6.6h0s0,0,0,0V6.22c0-1.33-.48-1.45-1.4-1.54,0,0,0,0,0,0V4.42a0,0,0,0,1,0,0h3.34a0,0,0,0,1,0,0v.22s0,0,0,0c-.88.09-1.37.21-1.37,1.54v7.27a0,0,0,0,1,0,0Z"/><path class="cls-1" d="M132.28,11.78l-.56-1.71a.05.05,0,0,0,0,0H128.6a.05.05,0,0,0,0,0L128,11.61a3,3,0,0,0-.17.72c-.06.66.59.74.94.8.05,0,.06,0,.06,0v.22a0,0,0,0,1,0,0h-2.69a0,0,0,0,1,0,0v-.23s0,0,0,0c.84-.19,1-.48,1.55-2l2.41-7a0,0,0,0,1,0,0h1.21s0,0,0,0l2.38,7c.49,1.43.69,1.88,1.73,2a0,0,0,0,1,0,0v.23a0,0,0,0,1,0,0h-4a0,0,0,0,1,0,0v-.21a.05.05,0,0,1,.06-.06c.57-.06,1-.14,1-.69a3.1,3.1,0,0,0-.13-.55ZM130.16,5.4l0,0-1.39,4.1s0,0,0,0a0,0,0,0,0,0,0h2.72l0,0s0,0,0,0l-1.33-4.1,0,0Z"/><path class="cls-1" d="M48.73,13.43h-5a0,0,0,0,1,0,0V13.1s0,0,0,0c1.14-.12,1.64-.45,1.64-2.07V1a0,0,0,0,0,0,0H43.58c-1.73,0-2.34.65-2.64,2.28a0,0,0,0,1,0,0h-.28a0,0,0,0,1,0-.05V.05a0,0,0,0,1,0,0h.23c.06,0,.06,0,.11,0a1.71,1.71,0,0,0,.66.33,6,6,0,0,0,1.24.11h6.76A6.16,6.16,0,0,0,50.87.37,1.78,1.78,0,0,0,51.53,0a.1.1,0,0,1,.08,0h.25a0,0,0,0,1,0,0V3.28a0,0,0,0,1,0,.05h-.28a0,0,0,0,1,0,0C51.25,1.66,50.63,1,48.9,1H47.13a0,0,0,0,0,0,0V11c0,1.62.5,1.95,1.64,2.07a0,0,0,0,1,0,0v.29a0,0,0,0,1-.05,0Z"/><path class="cls-1" d="M8.15,13.43h-5a0,0,0,0,1,0,0V13.1a0,0,0,0,1,0,0C4.3,12.94,4.8,12.61,4.8,11V1a0,0,0,0,0,0,0H3C1.27,1,.65,1.66.36,3.29a0,0,0,0,1,0,0H0a0,0,0,0,1,0-.05V.05A0,0,0,0,1,0,0H.27C.33,0,.33,0,.38,0A1.71,1.71,0,0,0,1,.37,6,6,0,0,0,2.28.48H9A6,6,0,0,0,10.28.37,1.83,1.83,0,0,0,11,0,.1.1,0,0,1,11,0h.25a0,0,0,0,1,0,0V3.28a0,0,0,0,1,0,.05H11a0,0,0,0,1,0,0C10.67,1.66,10.05,1,8.32,1H6.55a0,0,0,0,0,0,0V11c0,1.62.5,1.95,1.64,2.07,0,0,0,0,0,0v.29a0,0,0,0,1,0,0Z"/><path class="cls-1" d="M123.28,4.37A1.45,1.45,0,0,0,124.54,4a.19.19,0,0,1,.08,0h.19a0,0,0,0,1,0,0s.06,2.69.06,2.72,0,0,0,0h-.22s0,0,0,0c-.07-.54-.22-1.84-1.64-1.84h-1.45a0,0,0,0,0,0,0v6.68c0,1.35.46,1.47,1.33,1.56,0,0,0,0,0,0v.22a0,0,0,0,1,0,0h-4.21a0,0,0,0,1,0,0v-.22s0,0,0,0c.89-.09,1.35-.21,1.35-1.56V4.89a0,0,0,0,0,0,0h-1.45c-1.42,0-1.57,1.3-1.64,1.84,0,0,0,0,0,0h-.21s0,0,0,0S116.6,4,116.6,4a0,0,0,0,1,0,0h.19a.15.15,0,0,1,.08,0,1.46,1.46,0,0,0,1.26.42Z"/><path class="cls-1" d="M143.56,4.37A1.46,1.46,0,0,0,144.82,4a.15.15,0,0,1,.08,0h.19a0,0,0,0,1,0,0s.06,2.69.06,2.72,0,0,0,0h-.21s0,0,0,0c-.07-.54-.22-1.84-1.64-1.84h-1.45a0,0,0,0,0,0,0v6.68c0,1.35.46,1.47,1.33,1.56,0,0,0,0,0,0v.22a0,0,0,0,1,0,0h-4.21a0,0,0,0,1,0,0v-.22s0,0,0,0c.89-.09,1.35-.21,1.35-1.56V4.89a0,0,0,0,0,0,0h-1.45c-1.42,0-1.57,1.3-1.64,1.84,0,0,0,0,0,0h-.21a0,0,0,0,1-.05,0s.07-2.72.07-2.72a0,0,0,0,1,0,0h.19a.19.19,0,0,1,.08,0,1.46,1.46,0,0,0,1.26.42Z"/><path class="cls-1" d="M76.87,29.42h-.61a.06.06,0,0,1-.06-.06V25.81a0,0,0,0,0,0,0h-5a0,0,0,0,0-.05,0v3.55a.06.06,0,0,1-.06.06H70.4a.06.06,0,0,1-.06-.06V21.49a.06.06,0,0,1,.06-.06H71a.06.06,0,0,1,.06.06V25a0,0,0,0,0,.05.05h5a0,0,0,0,0,0-.05V21.49a.06.06,0,0,1,.06-.06h.61a.06.06,0,0,1,.06.06v7.87a.06.06,0,0,1-.06.06Z"/><path class="cls-1" d="M103,29.42H98.56a.06.06,0,0,1-.06-.06V21.49a.06.06,0,0,1,.06-.06H103a.06.06,0,0,1,.06.06V22a.06.06,0,0,1-.06.06H99.28a.05.05,0,0,0,0,0V25a.05.05,0,0,0,0,0h3.46a.06.06,0,0,1,.06.06v.55a.06.06,0,0,1-.06.06H99.28a.06.06,0,0,0,0,.06V28.7a.06.06,0,0,0,0,.05H103a.06.06,0,0,1,.06.06v.55a.06.06,0,0,1-.06.06Z"/><path class="cls-1" d="M93.22,29.42h-.61a.06.06,0,0,1-.06-.06V22.15a0,0,0,0,0,0,0H89.68a.06.06,0,0,1-.06-.06v-.55a.06.06,0,0,1,.06-.06h6.48a.06.06,0,0,1,.06.06V22a.06.06,0,0,1-.06.06H93.34a0,0,0,0,0,0,0v7.21a.07.07,0,0,1-.07.06Z"/><path class="cls-1" d="M111.5,29.42h-4.58a.07.07,0,0,1-.07-.06V21.49s0-.06.07-.06h.61a.06.06,0,0,1,.06.06V28.7a.05.05,0,0,0,0,.05h3.86s.07,0,.07.06v.55a.07.07,0,0,1-.07.06Z"/><path class="cls-1" d="M84.22,29.54a4.12,4.12,0,1,1,4.14-4.12,4.08,4.08,0,0,1-4.14,4.12Zm0-7.58a3.46,3.46,0,1,0,3.43,3.46A3.4,3.4,0,0,0,84.22,22Z"/><path class="cls-2" d="M159.59,52.42a0,0,0,0,0,0-.05V47a.08.08,0,0,0,0-.07,7.6,7.6,0,0,1-1.73-1.13s0,0,0,0a.64.64,0,0,0,0-.51,1.29,1.29,0,0,0-1-.52,0,0,0,0,1,0,0v-.54c0-.06,0-.08-.08-.11a3.32,3.32,0,0,1-2.09-2.27v-.4c0-.12-.16-.22-.37-.22s-.36.1-.36.22v.4A3.35,3.35,0,0,1,151.8,44c-.05,0-.07,0-.15,0l-1.74-1.11a.26.26,0,0,0-.18-.06h-8.18a0,0,0,0,1,0,0,.8.8,0,0,0-.52-.54.35.35,0,0,1-.14-.39.06.06,0,0,0,0,0h-.14s0,0,0,0a.37.37,0,0,1-.14.39.75.75,0,0,0-.52.54s0,0,0,0h-6.09a0,0,0,0,1,0,0,1.17,1.17,0,0,0-.46-.26.26.26,0,0,1-.12-.3.06.06,0,0,0,0,0h-.1a.06.06,0,0,0,0,0,.28.28,0,0,1-.11.3,1.09,1.09,0,0,0-.47.26s0,0,0,0h-2.42a0,0,0,0,1,0,0,.47.47,0,0,0-.46-.42h-.44a0,0,0,0,1,0,0V40.4c0-1.31-1.57-2.47-3.72-2.75a.07.07,0,0,1,0,0v-.17a0,0,0,0,0,0,0h-.2a1.26,1.26,0,0,1-.45-1.49.06.06,0,0,0,0,0h-.14a0,0,0,0,1,0-.05V33.33a0,0,0,0,0,0,0h-.13a0,0,0,0,0,0,0v2.46a0,0,0,0,1-.05.05h-.14s0,0,0,0a1.26,1.26,0,0,1-.5,1.5h-.15a0,0,0,0,0,0,0v.17a.07.07,0,0,1,0,0c-2.16.28-3.72,1.44-3.72,2.75v1.94a0,0,0,0,1,0,0h-.44a.47.47,0,0,0-.46.42,0,0,0,0,1,0,0h-2.35s0,0,0,0a1.17,1.17,0,0,0-.46-.26.26.26,0,0,1-.12-.3.06.06,0,0,0,0,0h-.1a.06.06,0,0,0,0,0,.28.28,0,0,1-.11.3,1.09,1.09,0,0,0-.47.26,0,0,0,0,1,0,0H102.43a1.81,1.81,0,0,1-.29-1,0,0,0,0,1,0,0l0,0h.07s0,0,0,0v-.14s0,0,0,0h-.08a0,0,0,0,1,0,0v-.21c0-.12-.12-.22-.33-.28a.27.27,0,0,1-.1-.29,0,0,0,0,0,0,0l0,0h0l0,0s0,0,0,0a.3.3,0,0,1-.13.31c-.18,0-.3.14-.3.26v.21a0,0,0,0,1,0,0H101a0,0,0,0,0,0,0v.14a0,0,0,0,0,0,0h.07l0,0v0a1.75,1.75,0,0,1-.29,1h-12s0,0,0,0a.7.7,0,0,0-.33-.26.27.27,0,0,1-.13-.3s0,0,0,0h-.1s0,0,0,0a.28.28,0,0,1-.11.3.6.6,0,0,0-.34.26,0,0,0,0,1,0,0H86.05a.17.17,0,0,1-.14-.05s-2.15-2-2.45-2.33a.2.2,0,0,1,0-.13V39s0,0,0,0h-.1a0,0,0,0,0,0,0v.92a0,0,0,0,1,0,0H79.65a0,0,0,0,1,0,0V39s0,0,0,0h-.09s0,0,0,0v1.38a.17.17,0,0,1,0,.13l-2.43,2.31a.22.22,0,0,1-.15.06H75.14s0,0,0,0a.62.62,0,0,0-.33-.26.27.27,0,0,1-.12-.3.06.06,0,0,0,0,0h-.1a.06.06,0,0,0,0,0,.29.29,0,0,1-.11.3.63.63,0,0,0-.34.26s0,0,0,0H62a1.73,1.73,0,0,1-.29-1,0,0,0,0,1,0,0l0,0h.07s0,0,0,0v-.14s0,0,0,0h-.08a0,0,0,0,1,0,0v-.21c0-.12-.12-.22-.34-.28a.29.29,0,0,1-.09-.29,0,0,0,0,0,0,0l0,0h0l0,0a0,0,0,0,0,0,0A.3.3,0,0,1,61,41c-.18,0-.3.14-.3.26v.21a0,0,0,0,1,0,0h-.09a0,0,0,0,0,0,0v.14a0,0,0,0,0,0,0h.07l0,0a0,0,0,0,1,0,0,1.86,1.86,0,0,1-.29,1H47.9s0,0,0,0a1.17,1.17,0,0,0-.46-.26.26.26,0,0,1-.12-.3.06.06,0,0,0,0,0h-.1a.06.06,0,0,0,0,0,.28.28,0,0,1-.11.3,1.09,1.09,0,0,0-.47.26s0,0,0,0H44.18a0,0,0,0,1,0,0,.47.47,0,0,0-.46-.42h-.47a0,0,0,0,1,0,0V40.4c0-1.32-1.56-2.47-3.73-2.76,0,0,0,0,0,0v-.17a0,0,0,0,0,0,0h-.2a1.25,1.25,0,0,1-.45-1.49.06.06,0,0,0,0,0h-.15a0,0,0,0,1,0-.05V33.33a0,0,0,0,0,0,0h-.13a0,0,0,0,0-.05,0v2.46s0,.05,0,.05h-.15s0,0,0,0a1.26,1.26,0,0,1-.5,1.5h-.15a0,0,0,0,0,0,0v.17s0,0,0,0c-2.16.28-3.72,1.44-3.72,2.75v1.94a0,0,0,0,1,0,0h-.44a.47.47,0,0,0-.46.42s0,0,0,0H30.28a0,0,0,0,1,0,0,1.24,1.24,0,0,0-.46-.26.27.27,0,0,1-.12-.3.06.06,0,0,0,0,0h-.1a.06.06,0,0,0,0,0,.29.29,0,0,1-.11.3,1.09,1.09,0,0,0-.47.26s0,0-.05,0H26.76a.2.2,0,0,0-.11,0l-2.94,1.9h0l0,0s0-.32,0-.35a.13.13,0,0,0,0-.09L22.84,43a.16.16,0,0,1,0-.09.77.77,0,0,0-.48-.63l-.09,0a.34.34,0,0,1-.11-.36s0,0,0,0H22s0,0,0,0a.06.06,0,0,0,0,0,.37.37,0,0,1-.09.36l-.1,0a.81.81,0,0,0-.5.67.15.15,0,0,1,0,.1l-.79,1.24a.17.17,0,0,0,0,.1v8a0,0,0,0,0,0,.05Z"/><path class="cls-3" d="M62.11,51.34v1a0,0,0,0,0,0,.05h9.43a0,0,0,0,0,0-.05v-1.2a.72.72,0,0,1,1.44,0v1.2a0,0,0,0,0,0,.05h7.41a0,0,0,0,0,0-.05V50.58a0,0,0,0,1,0,0h1.65a0,0,0,0,1,0,0v1.79a0,0,0,0,0,0,.05H97.65a0,0,0,0,0,0-.05V50.58a0,0,0,0,1,0,0h1.33a0,0,0,0,1,0,0v1.79a0,0,0,0,0,0,.05h1.54a0,0,0,0,0,0-.05v-1a.88.88,0,1,1,1.76,0v1a0,0,0,0,0,.05.05h13.81a0,0,0,0,0,.05-.05V50.58a0,0,0,0,1,0,0h1.42a0,0,0,0,1,0,0v1.79a0,0,0,0,0,0,.05h5.16a0,0,0,0,0,0-.05V50.58a0,0,0,0,1,0,0h2.44a0,0,0,0,1,0,0v1.79a0,0,0,0,0,0,.05h5.23a0,0,0,0,0,0-.05V50.58a0,0,0,0,1,0,0h1.42a0,0,0,0,1,0,0v1.79a0,0,0,0,0,.05.05h27.07a0,0,0,0,0,0-.05V47a.08.08,0,0,0,0-.07,7.6,7.6,0,0,1-1.73-1.13s0,0,0,0a.64.64,0,0,0,0-.51,1.29,1.29,0,0,0-1-.52,0,0,0,0,1,0,0v-.54c0-.06,0-.08-.08-.11a3.32,3.32,0,0,1-2.09-2.27v-.4c0-.12-.16-.22-.37-.22s-.36.1-.36.22v.4A3.35,3.35,0,0,1,151.8,44c-.05,0-.07,0-.15,0l-1.74-1.11a.26.26,0,0,0-.18-.06h-8.18a0,0,0,0,1,0,0,.8.8,0,0,0-.52-.54.35.35,0,0,1-.14-.39.06.06,0,0,0,0,0h-.14s0,0,0,0a.37.37,0,0,1-.14.39.75.75,0,0,0-.52.54s0,0,0,0h-6.09a0,0,0,0,1,0,0,1.17,1.17,0,0,0-.46-.26.26.26,0,0,1-.12-.3.06.06,0,0,0,0,0h-.1a.06.06,0,0,0,0,0,.28.28,0,0,1-.11.3,1.09,1.09,0,0,0-.47.26s0,0,0,0h-2.42a0,0,0,0,1,0,0,.47.47,0,0,0-.46-.42h-.44a0,0,0,0,1,0,0V40.4c0-1.31-1.57-2.47-3.72-2.75a.07.07,0,0,1,0,0v-.17a0,0,0,0,0,0,0h-.2a1.26,1.26,0,0,1-.45-1.49.06.06,0,0,0,0,0h-.14a0,0,0,0,1,0-.05V33.33a0,0,0,0,0,0,0h-.13a0,0,0,0,0,0,0v2.46a0,0,0,0,1-.05.05h-.14s0,0,0,0a1.26,1.26,0,0,1-.5,1.5h-.15a0,0,0,0,0,0,0v.17a.07.07,0,0,1,0,0c-2.16.28-3.72,1.44-3.72,2.75v1.94a0,0,0,0,1,0,0h-.44a.47.47,0,0,0-.46.42,0,0,0,0,1,0,0h-2.35s0,0,0,0a1.17,1.17,0,0,0-.46-.26.26.26,0,0,1-.12-.3.06.06,0,0,0,0,0h-.1a.06.06,0,0,0,0,0,.28.28,0,0,1-.11.3,1.09,1.09,0,0,0-.47.26,0,0,0,0,1,0,0H102.43a1.81,1.81,0,0,1-.29-1,0,0,0,0,1,0,0l0,0h.07s0,0,0,0v-.14s0,0,0,0h-.08a0,0,0,0,1,0,0v-.21c0-.12-.12-.22-.33-.28a.27.27,0,0,1-.1-.29,0,0,0,0,0,0,0l0,0h0l0,0s0,0,0,0a.3.3,0,0,1-.13.31c-.18,0-.3.14-.3.26v.21a0,0,0,0,1,0,0H101a0,0,0,0,0,0,0v.14a0,0,0,0,0,0,0h.07l0,0v0a1.75,1.75,0,0,1-.29,1h-12s0,0,0,0a.7.7,0,0,0-.33-.26.27.27,0,0,1-.13-.3s0,0,0,0h-.1s0,0,0,0a.28.28,0,0,1-.11.3.6.6,0,0,0-.34.26,0,0,0,0,1,0,0H86.05a.17.17,0,0,1-.14-.05s-2.15-2-2.45-2.33a.2.2,0,0,1,0-.13V39s0,0,0,0h-.1a0,0,0,0,0,0,0v.92a0,0,0,0,1,0,0H79.65a0,0,0,0,1,0,0V39s0,0,0,0h-.09s0,0,0,0v1.38a.17.17,0,0,1,0,.13l-2.43,2.31a.22.22,0,0,1-.15.06H75.14s0,0,0,0a.62.62,0,0,0-.33-.26.27.27,0,0,1-.12-.3.06.06,0,0,0,0,0h-.1a.06.06,0,0,0,0,0,.29.29,0,0,1-.11.3.63.63,0,0,0-.34.26s0,0,0,0H62a1.73,1.73,0,0,1-.29-1,0,0,0,0,1,0,0l0,0h.07s0,0,0,0v-.14s0,0,0,0h-.08a0,0,0,0,1,0,0v-.21c0-.12-.12-.22-.34-.28a.29.29,0,0,1-.09-.29,0,0,0,0,0,0,0l0,0h0l0,0a0,0,0,0,0,0,0A.3.3,0,0,1,61,41c-.18,0-.3.14-.3.26v.21a0,0,0,0,1,0,0h-.09a0,0,0,0,0,0,0v.14a0,0,0,0,0,0,0h.07l0,0a0,0,0,0,1,0,0,1.86,1.86,0,0,1-.29,1H47.9s0,0,0,0a1.17,1.17,0,0,0-.46-.26.26.26,0,0,1-.12-.3.06.06,0,0,0,0,0h-.1a.06.06,0,0,0,0,0,.28.28,0,0,1-.11.3,1.09,1.09,0,0,0-.47.26s0,0,0,0H44.18a0,0,0,0,1,0,0,.47.47,0,0,0-.46-.42h-.47a0,0,0,0,1,0,0V40.4c0-1.32-1.56-2.47-3.73-2.76,0,0,0,0,0,0v-.17a0,0,0,0,0,0,0h-.2a1.25,1.25,0,0,1-.45-1.49.06.06,0,0,0,0,0h-.15a0,0,0,0,1,0-.05V33.33a0,0,0,0,0,0,0h-.13a0,0,0,0,0-.05,0v2.46s0,.05,0,.05h-.15s0,0,0,0a1.26,1.26,0,0,1-.5,1.5h-.15a0,0,0,0,0,0,0v.17s0,0,0,0c-2.16.28-3.72,1.44-3.72,2.75v1.94a0,0,0,0,1,0,0h-.44a.47.47,0,0,0-.46.42s0,0,0,0H30.28a0,0,0,0,1,0,0,1.24,1.24,0,0,0-.46-.26.27.27,0,0,1-.12-.3.06.06,0,0,0,0,0h-.1a.06.06,0,0,0,0,0,.29.29,0,0,1-.11.3,1.09,1.09,0,0,0-.47.26s0,0-.05,0H26.76a.2.2,0,0,0-.11,0l-2.94,1.9h0l0,0s0-.32,0-.35a.13.13,0,0,0,0-.09L22.84,43a.16.16,0,0,1,0-.09.77.77,0,0,0-.48-.63l-.09,0a.34.34,0,0,1-.11-.36s0,0,0,0H22s0,0,0,0a.06.06,0,0,0,0,0,.37.37,0,0,1-.09.36l-.1,0a.81.81,0,0,0-.5.67.15.15,0,0,1,0,.1l-.79,1.24a.17.17,0,0,0,0,.1v8a0,0,0,0,0,0,.05h9.85a0,0,0,0,0,0-.05V50.58a0,0,0,0,1,0,0h1.42a0,0,0,0,1,.05,0v1.79s0,.05,0,.05h5.22a0,0,0,0,0,0-.05V50.58a0,0,0,0,1,0,0h2.44a0,0,0,0,1,.05,0v1.79s0,.05,0,.05H44.9a0,0,0,0,0,0-.05V50.58a0,0,0,0,1,0,0H46.4a0,0,0,0,1,.05,0v1.79a0,0,0,0,0,0,.05H60.3a0,0,0,0,0,.05-.05v-1a.88.88,0,1,1,1.76,0ZM21.28,45.18a0,0,0,0,1,0,0h-.4a0,0,0,0,1,0,0v-.72a0,0,0,0,1,0,0h.4a0,0,0,0,1,0,0Zm.44-.72a0,0,0,0,1,0,0h.59a0,0,0,0,1,0,0v.72a0,0,0,0,1,0,0h-.59a0,0,0,0,1,0,0Zm.72,7.31a0,0,0,0,1,0,0h-.69a0,0,0,0,1,0,0V50a0,0,0,0,1,0,0h.69a0,0,0,0,1,0,0Zm0-2.54s0,.05,0,.05h-.69s0,0,0-.05V47.85a0,0,0,0,1,0,0h.69a0,0,0,0,1,0,0Zm0-2.17s0,0,0,0h-.69s0,0,0,0V46.3a0,0,0,0,1,0,0h.69a0,0,0,0,1,0,0Zm.87-1.88a0,0,0,0,1,0,0h-.39a0,0,0,0,1-.05,0v-.72a0,0,0,0,1,.05,0h.39a0,0,0,0,1,0,0Zm2.23,1.12a0,0,0,0,1,0,0h.7a0,0,0,0,1,0,0v.76a0,0,0,0,1,0,0h-.7a0,0,0,0,1,0,0Zm0,1.55a0,0,0,0,1,0,0h.7a0,0,0,0,1,0,0v1.38a0,0,0,0,1,0,.05h-.7a0,0,0,0,1,0-.05ZM23.8,46.3a0,0,0,0,1,0,0h.7a0,0,0,0,1,0,0v.76a0,0,0,0,1,0,0h-.7a0,0,0,0,1,0,0Zm.78,5.47a0,0,0,0,1,0,0h-.7a0,0,0,0,1,0,0V50a0,0,0,0,1,0,0h.7a0,0,0,0,1,0,0Zm0-2.54a0,0,0,0,1,0,.05h-.7a0,0,0,0,1,0-.05V47.85a0,0,0,0,1,0,0h.7a0,0,0,0,1,0,0Zm1.74,2.54a0,0,0,0,1,0,0h-.7a0,0,0,0,1,0,0V50a0,0,0,0,1,0,0h.7a0,0,0,0,1,0,0Zm2.28-3.92a0,0,0,0,1,0,0h.55a0,0,0,0,1,0,0v1.38a0,0,0,0,1,0,.05h-.55a0,0,0,0,1,0-.05Zm.64,3.92a0,0,0,0,1,0,0h-.55a0,0,0,0,1,0,0V50a0,0,0,0,1,0,0h.55a0,0,0,0,1,0,0Zm0-4.71a0,0,0,0,1,0,0h-.55a0,0,0,0,1,0,0v-1.2a0,0,0,0,1,0,0h.55a0,0,0,0,1,0,0Zm3.44.79a0,0,0,0,1,0,0h.55a0,0,0,0,1,0,0v1.38a0,0,0,0,1,0,.05h-.55s0,0,0-.05Zm-1.8,1.38a0,0,0,0,1,0,.05h-.55a0,0,0,0,1-.05-.05v-1.1a.32.32,0,0,1,.32-.32.32.32,0,0,1,.32.32Zm0-2.17a0,0,0,0,1,0,0h-.55a0,0,0,0,1-.05,0v-.92a.33.33,0,0,1,.32-.32.32.32,0,0,1,.32.32Zm1,2.17a0,0,0,0,1-.05.05h-.55a0,0,0,0,1,0-.05v-1.1a.32.32,0,0,1,.32-.32.32.32,0,0,1,.32.32Zm0-2.17a0,0,0,0,1-.05,0h-.55a0,0,0,0,1,0,0v-.92a.32.32,0,0,1,.32-.32.33.33,0,0,1,.32.32Zm1.43,4.71a0,0,0,0,1,0,0h-.55a0,0,0,0,1,0,0V50.58a0,0,0,0,1,0,0h.55a0,0,0,0,1,0,0Zm0-4.71a0,0,0,0,1,0,0h-.55s0,0,0,0v-1.2a0,0,0,0,1,0,0h.55a0,0,0,0,1,0,0ZM37.42,41a0,0,0,0,1,0-.05h2a0,0,0,0,1,0,.05v.95a0,0,0,0,1,0,0h-2a0,0,0,0,1,0,0ZM35.69,51.77a0,0,0,0,1,0,0H35a0,0,0,0,1,0,0V50.58a0,0,0,0,1,0,0h.69a0,0,0,0,1,0,0Zm0-2.54a0,0,0,0,1,0,.05H35a0,0,0,0,1,0-.05V47.85a0,0,0,0,1,0,0h.69a0,0,0,0,1,0,0Zm-.78-2.17v-1.2a0,0,0,0,1,0,0h.69a0,0,0,0,1,0,0v1.2a0,0,0,0,1,0,0H35A0,0,0,0,1,34.91,47.06Zm.9-5.15a0,0,0,0,1,0,0H34.5a0,0,0,0,1,0,0V41a0,0,0,0,1,0-.05h1.27a0,0,0,0,1,0,.05Zm2,7.32a0,0,0,0,1,0,.05h-.8a0,0,0,0,1,0-.05v-1a.44.44,0,0,1,.44-.44.44.44,0,0,1,.44.44Zm0-2.17a0,0,0,0,1,0,0h-.8a0,0,0,0,1,0,0v-1a.44.44,0,0,1,.44-.44.44.44,0,0,1,.44.44Zm1.13,2.17a0,0,0,0,1,0,.05h-.8a0,0,0,0,1,0-.05v-1a.44.44,0,0,1,.88,0Zm0-2.17a0,0,0,0,1,0,0h-.8a0,0,0,0,1,0,0v-1a.44.44,0,0,1,.88,0Zm-.46-2a.48.48,0,1,1,.48-.48A.48.48,0,0,1,38.44,45.07ZM40,49.23s0,.05,0,.05h-.79a0,0,0,0,1,0-.05v-1a.44.44,0,0,1,.44-.44.44.44,0,0,1,.44.44Zm0-2.17s0,0,0,0h-.79a0,0,0,0,1,0,0v-1a.44.44,0,0,1,.44-.44.44.44,0,0,1,.44.44Zm.07-2.47h0l-.28.14,0,0h0a.05.05,0,0,1,0,0v-.14a1.24,1.24,0,0,0-1.24-1.25,1.25,1.25,0,0,0-1.24,1.25v.14s0,0,0,0h0l0,0-.28-.14h0a.05.05,0,0,1,0,0v0a1.67,1.67,0,0,1,3.33,0v0A.05.05,0,0,1,40.09,44.59ZM42,51.77a0,0,0,0,1,0,0h-.69a0,0,0,0,1,0,0V50.58a0,0,0,0,1,0,0h.69a0,0,0,0,1,0,0Zm0-2.54a0,0,0,0,1,0,.05h-.69a0,0,0,0,1,0-.05V47.85a0,0,0,0,1,0,0h.69a0,0,0,0,1,0,0Zm0-2.17a0,0,0,0,1,0,0h-.69a0,0,0,0,1,0,0v-1.2a0,0,0,0,1,0,0h.69a0,0,0,0,1,0,0Zm.48-5.15a0,0,0,0,1,0,0H41.12a0,0,0,0,1,0,0V41a0,0,0,0,1,0-.05h1.27a0,0,0,0,1,0,.05Zm1.7,9.86a0,0,0,0,1,0,0h-.55a0,0,0,0,1,0,0V50.58a0,0,0,0,1,0,0h.55a0,0,0,0,1,0,0Zm0-2.54a0,0,0,0,1,0,.05h-.55s0,0,0-.05V47.85a0,0,0,0,1,0,0h.55a0,0,0,0,1,0,0Zm0-2.17a0,0,0,0,1,0,0h-.55s0,0,0,0v-1.2a0,0,0,0,1,0,0h.55a0,0,0,0,1,0,0Zm1.44,2.17a0,0,0,0,1,0,.05H45a0,0,0,0,1,0-.05v-1.1a.32.32,0,0,1,.32-.32.32.32,0,0,1,.32.32Zm0-2.17a0,0,0,0,1,0,0H45a0,0,0,0,1,0,0v-.92a.32.32,0,0,1,.32-.32.33.33,0,0,1,.32.32Zm1,2.17a0,0,0,0,1,0,.05H46a0,0,0,0,1,0-.05v-1.1a.32.32,0,1,1,.63,0Zm0-2.17a0,0,0,0,1,0,0H46a0,0,0,0,1,0,0v-.92a.32.32,0,1,1,.63,0Zm3.16-.76a0,0,0,0,1,0,0h.69a0,0,0,0,1,0,0v.76a0,0,0,0,1,0,0h-.69a0,0,0,0,1,0,0Zm0,1.55a0,0,0,0,1,0,0h.69a0,0,0,0,1,0,0v1.38a0,0,0,0,1,0,.05h-.69a0,0,0,0,1,0-.05Zm-1.52,3.92a0,0,0,0,1,0,0h-.55a0,0,0,0,1,0,0V50a0,0,0,0,1,0,0h.55a0,0,0,0,1,0,0Zm0-2.54s0,.05,0,.05h-.55a0,0,0,0,1,0-.05V47.85a0,0,0,0,1,0,0h.55a0,0,0,0,1,0,0Zm0-2.17s0,0,0,0h-.55a0,0,0,0,1,0,0v-1.2a0,0,0,0,1,0,0h.55a0,0,0,0,1,0,0Zm2.3,4.71a0,0,0,0,1,0,0h-.69a0,0,0,0,1,0,0V50a0,0,0,0,1,0,0h.69a0,0,0,0,1,0,0Zm2,0a0,0,0,0,1,0,0h-.7a0,0,0,0,1,0,0V50a0,0,0,0,1,0,0h.7a0,0,0,0,1,0,0Zm0-2.54a0,0,0,0,1,0,.05h-.7a0,0,0,0,1,0-.05V47.85a0,0,0,0,1,0,0h.7a0,0,0,0,1,0,0Zm0-2.17a0,0,0,0,1,0,0h-.7a0,0,0,0,1,0,0V46.3a0,0,0,0,1,0,0h.7a0,0,0,0,1,0,0Zm2,4.71a0,0,0,0,1,0,0h-.69a0,0,0,0,1,0,0V50a0,0,0,0,1,0,0h.69a0,0,0,0,1,0,0Zm0-2.54s0,.05,0,.05h-.69s0,0,0-.05V47.85a0,0,0,0,1,0,0h.69a0,0,0,0,1,0,0Zm0-2.17s0,0,0,0h-.69s0,0,0,0V46.3a0,0,0,0,1,0,0h.69a0,0,0,0,1,0,0Zm2,4.71a0,0,0,0,1,0,0h-.7a0,0,0,0,1,0,0V50a0,0,0,0,1,0,0h.7a0,0,0,0,1,0,0Zm0-2.54a0,0,0,0,1,0,.05h-.7a0,0,0,0,1,0-.05V47.85a0,0,0,0,1,0,0h.7a0,0,0,0,1,0,0Zm0-2.17a0,0,0,0,1,0,0h-.7a0,0,0,0,1,0,0V46.3a0,0,0,0,1,0,0h.7a0,0,0,0,1,0,0Zm2,4.71a0,0,0,0,1,0,0h-.69a0,0,0,0,1-.05,0V50a0,0,0,0,1,.05,0h.69a0,0,0,0,1,0,0Zm0-2.54a0,0,0,0,1,0,.05h-.69a0,0,0,0,1-.05-.05V47.85a0,0,0,0,1,.05,0h.69a0,0,0,0,1,0,0Zm0-2.17a0,0,0,0,1,0,0h-.69a0,0,0,0,1-.05,0V46.3a0,0,0,0,1,.05,0h.69a0,0,0,0,1,0,0Zm1.46-1.88v-.72a0,0,0,0,1,0,0h.49a0,0,0,0,1,0,0v.72a0,0,0,0,1,0,0H59.9A0,0,0,0,1,59.86,45.18Zm.84,4a0,0,0,0,1-.05.05H60a0,0,0,0,1,0-.05V47.85a0,0,0,0,1,0,0h.69a0,0,0,0,1,.05,0Zm0-2.17a0,0,0,0,1-.05,0H60a0,0,0,0,1,0,0V46.3a0,0,0,0,1,0,0h.69a0,0,0,0,1,.05,0Zm.78-1.88a0,0,0,0,1,0,0H61a0,0,0,0,1,0,0v-.72a0,0,0,0,1,0,0h.48a0,0,0,0,1,0,0Zm.49-.72a0,0,0,0,1,.05,0h.48a0,0,0,0,1,0,0v.72a0,0,0,0,1,0,0H62a0,0,0,0,1-.05,0Zm.57,4.77a0,0,0,0,1,0,.05h-.69a0,0,0,0,1-.05-.05V47.85a0,0,0,0,1,.05,0h.69a0,0,0,0,1,0,0Zm0-2.17a0,0,0,0,1,0,0h-.69a0,0,0,0,1-.05,0V46.3a0,0,0,0,1,.05,0h.69a0,0,0,0,1,0,0Zm2.29,4.71a0,0,0,0,1,0,0h-.7a0,0,0,0,1,0,0V50a0,0,0,0,1,0,0h.7a0,0,0,0,1,0,0Zm0-2.54a0,0,0,0,1,0,.05h-.7a0,0,0,0,1,0-.05V47.85a0,0,0,0,1,0,0h.7a0,0,0,0,1,0,0Zm0-2.17a0,0,0,0,1,0,0h-.7a0,0,0,0,1,0,0V46.3a0,0,0,0,1,0,0h.7a0,0,0,0,1,0,0Zm2,4.71a0,0,0,0,1,0,0h-.69a0,0,0,0,1,0,0V50a0,0,0,0,1,0,0h.69a0,0,0,0,1,0,0Zm0-2.54a0,0,0,0,1,0,.05h-.69a0,0,0,0,1,0-.05V47.85a0,0,0,0,1,0,0h.69a0,0,0,0,1,0,0Zm0-2.17a0,0,0,0,1,0,0h-.69a0,0,0,0,1,0,0V46.3a0,0,0,0,1,0,0h.69a0,0,0,0,1,0,0Zm2,4.71a0,0,0,0,1,0,0H68a0,0,0,0,1,0,0V50a0,0,0,0,1,0,0h.7a0,0,0,0,1,0,0Zm0-2.54a0,0,0,0,1,0,.05H68a0,0,0,0,1,0-.05V47.85a0,0,0,0,1,0,0h.7a0,0,0,0,1,0,0Zm0-2.17a0,0,0,0,1,0,0H68a0,0,0,0,1,0,0V46.3a0,0,0,0,1,0,0h.7a0,0,0,0,1,0,0Zm2,4.71a0,0,0,0,1,0,0H70a0,0,0,0,1,0,0V50a0,0,0,0,1,0,0h.69a0,0,0,0,1,0,0Zm0-2.54a0,0,0,0,1,0,.05H70a0,0,0,0,1,0-.05V47.85a0,0,0,0,1,0,0h.69a0,0,0,0,1,0,0Zm0-2.17a0,0,0,0,1,0,0H70a0,0,0,0,1,0,0V46.3a0,0,0,0,1,0,0h.69a0,0,0,0,1,0,0Zm2,2.17a0,0,0,0,1,0,.05H72a0,0,0,0,1,0-.05V47.85a0,0,0,0,1,0,0h.7a0,0,0,0,1,0,0Zm0-2.17a0,0,0,0,1,0,0H72a0,0,0,0,1,0,0V46.3a0,0,0,0,1,0,0h.7a0,0,0,0,1,0,0Zm2.18,4.67a0,0,0,0,1,0,0h-.55a0,0,0,0,1,0,0V50a0,0,0,0,1,0,0h.55a0,0,0,0,1,0,0Zm0-2.5a0,0,0,0,1,0,.05h-.55a0,0,0,0,1,0-.05V47.85a0,0,0,0,1,0,0h.55a0,0,0,0,1,0,0Zm0-2.17a0,0,0,0,1,0,0h-.55a0,0,0,0,1,0,0v-1a0,0,0,0,1,0,0h.55a0,0,0,0,1,0,0Zm1-1.14a0,0,0,0,1,0,0h.55a0,0,0,0,1,0,0v1.14a0,0,0,0,1,0,0H76a0,0,0,0,1,0,0Zm0,1.93a0,0,0,0,1,0,0h.55a0,0,0,0,1,0,0v1.38a0,0,0,0,1,0,.05H76a0,0,0,0,1,0-.05Zm.72,3.92a0,0,0,0,1,0,0h-.73a0,0,0,0,1,0,0V50.35a.41.41,0,0,1,.81,0Zm1.49-5.85a0,0,0,0,1,0,0h.56a0,0,0,0,1,0,0v1.14a0,0,0,0,1,0,0h-.56a0,0,0,0,1,0,0Zm0,1.93a0,0,0,0,1,0,0h.56a0,0,0,0,1,0,0v1.38a0,0,0,0,1,0,.05h-.56a0,0,0,0,1,0-.05Zm-1.09-1.93a0,0,0,0,1,0,0h.55a0,0,0,0,1,0,0v1.14a0,0,0,0,1,0,0h-.55a0,0,0,0,1,0,0Zm0,1.93a0,0,0,0,1,0,0h.55a0,0,0,0,1,0,0v1.38a0,0,0,0,1,0,.05h-.55a0,0,0,0,1,0-.05Zm.72,3.92a0,0,0,0,1,0,0H77a0,0,0,0,1,0,0V50.35a.41.41,0,0,1,.81,0Zm1.09,0a0,0,0,0,1,0,0H78.1a0,0,0,0,1,0,0V50.35a.41.41,0,0,1,.41-.4.4.4,0,0,1,.4.4ZM82,49.23a0,0,0,0,1,0,.05h-1a0,0,0,0,1-.05-.05V47.85a0,0,0,0,1,.05,0h1a0,0,0,0,1,0,0Zm-.57-4.16a.48.48,0,0,1,0-1,.48.48,0,1,1,0,1Zm.32,1v1a0,0,0,0,1,0,0h-.55a0,0,0,0,1-.05,0v-1a0,0,0,0,1,.05,0h.55A0,0,0,0,1,81.74,46.07Zm1.33-1.48h0l-.28.14,0,0h0a.05.05,0,0,1,0,0v-.14a1.24,1.24,0,1,0-2.48,0v.14a.05.05,0,0,1,0,0h0l0,0-.28-.14h0s0,0,0,0v0a1.67,1.67,0,0,1,3.33,0v0A.05.05,0,0,1,83.07,44.59Zm2.09,1.33a0,0,0,0,1,0,0h.55a0,0,0,0,1,0,0v1.14a0,0,0,0,1,0,0H85.2a0,0,0,0,1,0,0Zm0,1.93a0,0,0,0,1,0,0h.55a0,0,0,0,1,0,0v1.38a0,0,0,0,1,0,.05H85.2a0,0,0,0,1,0-.05Zm-1.09-1.93a0,0,0,0,1,0,0h.55a0,0,0,0,1,0,0v1.14a0,0,0,0,1,0,0h-.55s0,0,0,0Zm0,1.93a0,0,0,0,1,0,0h.55a0,0,0,0,1,0,0v1.38a0,0,0,0,1,0,.05h-.55s0,0,0-.05Zm.72,3.92a0,0,0,0,1,0,0H84a0,0,0,0,1,0,0V50.35a.41.41,0,0,1,.81,0Zm1.09,0a0,0,0,0,1,0,0h-.72a0,0,0,0,1-.05,0V50.35a.41.41,0,0,1,.41-.4.4.4,0,0,1,.4.4Zm.4-5.85a0,0,0,0,1,0,0h.55a0,0,0,0,1,0,0v1.14a0,0,0,0,1,0,0h-.55a0,0,0,0,1,0,0Zm0,1.93a0,0,0,0,1,0,0h.55a0,0,0,0,1,0,0v1.38a0,0,0,0,1,0,.05h-.55a0,0,0,0,1,0-.05ZM87,51.77a0,0,0,0,1,0,0h-.72a0,0,0,0,1,0,0V50.35a.41.41,0,0,1,.81,0Zm1.57,0a0,0,0,0,1,0,0H88a0,0,0,0,1,0,0V50a0,0,0,0,1,0,0h.55a0,0,0,0,1,0,0Zm0-2.5a0,0,0,0,1,0,.05H88a0,0,0,0,1,0-.05V47.85a0,0,0,0,1,0,0h.55a0,0,0,0,1,0,0Zm0-2.17a0,0,0,0,1,0,0H88a0,0,0,0,1,0,0v-1a0,0,0,0,1,0,0h.55a0,0,0,0,1,0,0Zm2.32,4.71a0,0,0,0,1,0,0h-.69a0,0,0,0,1,0,0V50a0,0,0,0,1,0,0h.69a0,0,0,0,1,0,0Zm0-2.54s0,.05,0,.05h-.69s0,0,0-.05V47.85a0,0,0,0,1,0,0h.69a0,0,0,0,1,0,0Zm0-2.17s0,0,0,0h-.69s0,0,0,0V46.3a0,0,0,0,1,0,0h.69a0,0,0,0,1,0,0Zm2,4.71a0,0,0,0,1,0,0h-.7a0,0,0,0,1,0,0V50a0,0,0,0,1,0,0h.7a0,0,0,0,1,0,0Zm0-2.54a0,0,0,0,1,0,.05h-.7a0,0,0,0,1,0-.05V47.85a0,0,0,0,1,0,0h.7a0,0,0,0,1,0,0Zm0-2.17a0,0,0,0,1,0,0h-.7a0,0,0,0,1,0,0V46.3a0,0,0,0,1,0,0h.7a0,0,0,0,1,0,0Zm2,4.71a0,0,0,0,1,0,0h-.69a0,0,0,0,1,0,0V50a0,0,0,0,1,0,0h.69a0,0,0,0,1,0,0Zm0-2.54a0,0,0,0,1,0,.05h-.69a0,0,0,0,1,0-.05V47.85a0,0,0,0,1,0,0h.69a0,0,0,0,1,0,0Zm0-2.17a0,0,0,0,1,0,0h-.69a0,0,0,0,1,0,0V46.3a0,0,0,0,1,0,0h.69a0,0,0,0,1,0,0Zm2,4.71a0,0,0,0,1,0,0h-.69a0,0,0,0,1,0,0V50a0,0,0,0,1,0,0h.69a0,0,0,0,1,0,0Zm0-2.54a0,0,0,0,1,0,.05h-.69a0,0,0,0,1,0-.05V47.85a0,0,0,0,1,0,0h.69a0,0,0,0,1,0,0Zm0-2.17a0,0,0,0,1,0,0h-.69a0,0,0,0,1,0,0V46.3a0,0,0,0,1,0,0h.69a0,0,0,0,1,0,0Zm2,2.17a0,0,0,0,1,0,.05h-.7a0,0,0,0,1,0-.05V47.85a0,0,0,0,1,0,0h.7a0,0,0,0,1,0,0Zm0-2.17a0,0,0,0,1,0,0h-.7a0,0,0,0,1,0,0V46.3a0,0,0,0,1,0,0h.7a0,0,0,0,1,0,0Zm1.51-2.6a0,0,0,0,1,0,0h.48a0,0,0,0,1,0,0v.72a0,0,0,0,1,0,0h-.48a0,0,0,0,1,0,0Zm.78,4.77a0,0,0,0,1,0,.05h-.7a0,0,0,0,1,0-.05V47.85a0,0,0,0,1,0,0h.7a0,0,0,0,1,0,0Zm0-2.17a0,0,0,0,1,0,0h-.7a0,0,0,0,1,0,0V46.3a0,0,0,0,1,0,0h.7a0,0,0,0,1,0,0Zm.84-1.88a0,0,0,0,1,0,0h-.48a0,0,0,0,1,0,0v-.72a0,0,0,0,1,0,0h.48a0,0,0,0,1,0,0Zm1,4a0,0,0,0,1-.05.05h-.69a0,0,0,0,1,0-.05V47.85a0,0,0,0,1,0,0h.69a0,0,0,0,1,.05,0Zm0-2.17a0,0,0,0,1-.05,0h-.69a0,0,0,0,1,0,0V46.3a0,0,0,0,1,0,0h.69a0,0,0,0,1,.05,0Zm0-1.88a0,0,0,0,1,0,0h-.48a0,0,0,0,1,0,0v-.72a0,0,0,0,1,0,0h.48a0,0,0,0,1,0,0Zm2.24,6.59a0,0,0,0,1,0,0h-.7a0,0,0,0,1,0,0V50a0,0,0,0,1,0,0h.7a0,0,0,0,1,0,0Zm0-2.54a0,0,0,0,1,0,.05h-.7a0,0,0,0,1,0-.05V47.85a0,0,0,0,1,0,0h.7a0,0,0,0,1,0,0Zm0-2.17a0,0,0,0,1,0,0h-.7a0,0,0,0,1,0,0v-.75a0,0,0,0,1,0-.05h.7a0,0,0,0,1,0,.05Zm2,4.71a0,0,0,0,1,0,0h-.69a0,0,0,0,1,0,0V50a0,0,0,0,1,0,0h.69a0,0,0,0,1,0,0Zm0-2.54s0,.05,0,.05h-.69s0,0,0-.05V47.85a0,0,0,0,1,0,0h.69a0,0,0,0,1,0,0Zm0-2.17s0,0,0,0h-.69s0,0,0,0V46.3a0,0,0,0,1,0,0h.69a0,0,0,0,1,0,0Zm2,4.71a0,0,0,0,1,0,0h-.7a0,0,0,0,1,0,0V50a0,0,0,0,1,0,0h.7a0,0,0,0,1,0,0Zm0-2.54a0,0,0,0,1,0,.05h-.7a0,0,0,0,1,0-.05V47.85a0,0,0,0,1,0,0h.7a0,0,0,0,1,0,0Zm0-2.17a0,0,0,0,1,0,0h-.7a0,0,0,0,1,0,0V46.3a0,0,0,0,1,0,0h.7a0,0,0,0,1,0,0Zm2,4.71a0,0,0,0,1,0,0h-.7a0,0,0,0,1,0,0V50a0,0,0,0,1,0,0h.7a0,0,0,0,1,0,0Zm0-2.54a0,0,0,0,1,0,.05h-.7a0,0,0,0,1,0-.05V47.85a0,0,0,0,1,0,0h.7a0,0,0,0,1,0,0Zm0-2.17a0,0,0,0,1,0,0h-.7a0,0,0,0,1,0,0V46.3a0,0,0,0,1,0,0h.7a0,0,0,0,1,0,0Zm2,4.71a0,0,0,0,1-.05,0h-.69a0,0,0,0,1,0,0V50a0,0,0,0,1,0,0h.69a0,0,0,0,1,.05,0Zm0-2.54a0,0,0,0,1-.05.05h-.69a0,0,0,0,1,0-.05V47.85a0,0,0,0,1,0,0h.69a0,0,0,0,1,.05,0Zm0-2.17a0,0,0,0,1-.05,0h-.69a0,0,0,0,1,0,0V46.3a0,0,0,0,1,0,0h.69a0,0,0,0,1,.05,0Zm2.15,4.71a0,0,0,0,1,0,0h-.55a0,0,0,0,1,0,0V50a0,0,0,0,1,0,0h.55a0,0,0,0,1,0,0Zm0-2.54a0,0,0,0,1,0,.05h-.55a0,0,0,0,1,0-.05V47.85a0,0,0,0,1,0,0h.55a0,0,0,0,1,0,0Zm0-2.17a0,0,0,0,1,0,0h-.55a0,0,0,0,1,0,0v-1.2a0,0,0,0,1,0,0h.55a0,0,0,0,1,0,0Zm1.64,2.17a0,0,0,0,1,0,.05h-.55a0,0,0,0,1,0-.05v-1.1a.32.32,0,0,1,.32-.32.32.32,0,0,1,.32.32Zm0-2.17a0,0,0,0,1,0,0h-.55a0,0,0,0,1,0,0v-.92a.32.32,0,0,1,.32-.32.33.33,0,0,1,.32.32Zm1,2.17a0,0,0,0,1,0,.05h-.55a0,0,0,0,1,0-.05v-1.1a.32.32,0,1,1,.63,0Zm0-2.17a0,0,0,0,1,0,0h-.55a0,0,0,0,1,0,0v-.92a.32.32,0,1,1,.63,0Zm1.44,4.71a0,0,0,0,1,0,0h-.56a0,0,0,0,1,0,0V50.58a0,0,0,0,1,0,0h.56a0,0,0,0,1,0,0Zm0-2.54a0,0,0,0,1,0,.05h-.56a0,0,0,0,1,0-.05V47.85a0,0,0,0,1,0,0h.56a0,0,0,0,1,0,0Zm0-2.17a0,0,0,0,1,0,0h-.56a0,0,0,0,1,0,0v-1.2a0,0,0,0,1,0,0h.56a0,0,0,0,1,0,0Zm4-6.1a0,0,0,0,1,0-.05h2a0,0,0,0,1,0,.05v.95a0,0,0,0,1,0,0h-2a0,0,0,0,1,0,0Zm-1.71,10.81a0,0,0,0,1,0,0h-.69a0,0,0,0,1-.05,0V50.58a0,0,0,0,1,.05,0h.69a0,0,0,0,1,0,0Zm0-2.54a0,0,0,0,1,0,.05h-.69a0,0,0,0,1-.05-.05V47.85a0,0,0,0,1,.05,0h.69a0,0,0,0,1,0,0Zm0-2.17a0,0,0,0,1,0,0h-.69a0,0,0,0,1-.05,0v-1.2a0,0,0,0,1,.05,0h.69a0,0,0,0,1,0,0Zm.1-5.15a0,0,0,0,1,0,0h-1.27a0,0,0,0,1,0,0V41a0,0,0,0,1,0-.05h1.27a0,0,0,0,1,0,.05Zm1.94,7.32a0,0,0,0,1,0,.05h-.8a0,0,0,0,1,0-.05v-1a.44.44,0,1,1,.88,0Zm0-2.17a0,0,0,0,1,0,0h-.8a0,0,0,0,1,0,0v-1a.44.44,0,1,1,.88,0Zm1.13,2.17a0,0,0,0,1,0,.05H124a0,0,0,0,1,0-.05v-1a.45.45,0,0,1,.89,0Zm0-2.17a0,0,0,0,1,0,0H124a0,0,0,0,1,0,0v-1a.45.45,0,0,1,.89,0Zm-.43-2a.48.48,0,1,1,.48-.48A.49.49,0,0,1,124.4,45.07ZM126,49.23a0,0,0,0,1,0,.05h-.8a0,0,0,0,1,0-.05v-1a.44.44,0,1,1,.88,0Zm0-2.17a0,0,0,0,1,0,0h-.8a0,0,0,0,1,0,0v-1a.44.44,0,1,1,.88,0Zm.09-2.47h0l-.29.14,0,0h0a.05.05,0,0,1,0,0v-.14a1.24,1.24,0,1,0-2.48,0v.14a.05.05,0,0,1,0,0h0l0,0-.29-.14h0s0,0,0,0v0a1.67,1.67,0,0,1,3.34,0v0S126.06,44.58,126,44.59Zm1.89,7.18a0,0,0,0,1,0,0h-.69a0,0,0,0,1,0,0V50.58a0,0,0,0,1,0,0h.69a0,0,0,0,1,0,0Zm0-2.54s0,.05,0,.05h-.69a0,0,0,0,1,0-.05V47.85a0,0,0,0,1,0,0h.69a0,0,0,0,1,0,0Zm0-2.17s0,0,0,0h-.69a0,0,0,0,1,0,0v-1.2a0,0,0,0,1,0,0h.69a0,0,0,0,1,0,0Zm.45-5.15a0,0,0,0,1,0,0h-1.27a0,0,0,0,1,0,0V41a0,0,0,0,1,0-.05h1.27s0,0,0,.05Zm1.79,9.86a0,0,0,0,1,0,0h-.55a0,0,0,0,1-.05,0V50.58a0,0,0,0,1,.05,0h.55a0,0,0,0,1,0,0Zm0-2.54a0,0,0,0,1,0,.05h-.55a0,0,0,0,1-.05-.05V47.85a0,0,0,0,1,.05,0h.55a0,0,0,0,1,0,0Zm0-2.17a0,0,0,0,1,0,0h-.55a0,0,0,0,1-.05,0v-1.2a0,0,0,0,1,.05,0h.55a0,0,0,0,1,0,0Zm1.43,2.17s0,.05,0,.05H131a0,0,0,0,1,0-.05v-1.1a.32.32,0,1,1,.63,0Zm0-2.17s0,0,0,0H131a0,0,0,0,1,0,0v-.92a.32.32,0,1,1,.63,0Zm1,2.17a0,0,0,0,1,0,.05H132a0,0,0,0,1,0-.05v-1.1a.32.32,0,0,1,.32-.32.32.32,0,0,1,.32.32Zm0-2.17a0,0,0,0,1,0,0H132a0,0,0,0,1,0,0v-.92a.33.33,0,0,1,.32-.32.32.32,0,0,1,.32.32Zm1.64,4.71a0,0,0,0,1,0,0h-.55a0,0,0,0,1-.05,0V50a0,0,0,0,1,.05,0h.55a0,0,0,0,1,0,0Zm0-2.54a0,0,0,0,1,0,.05h-.55a0,0,0,0,1-.05-.05V47.85a0,0,0,0,1,.05,0h.55a0,0,0,0,1,0,0Zm0-2.17a0,0,0,0,1,0,0h-.55a0,0,0,0,1-.05,0v-1.2a0,0,0,0,1,.05,0h.55a0,0,0,0,1,0,0Zm3.07,4.71a0,0,0,0,1-.05,0h-.69a0,0,0,0,1,0,0V50a0,0,0,0,1,0,0h.69a0,0,0,0,1,.05,0Zm0-2.54a0,0,0,0,1-.05.05h-.69a0,0,0,0,1,0-.05V47.85a0,0,0,0,1,0,0h.69a0,0,0,0,1,.05,0Zm0-2.17a0,0,0,0,1-.05,0h-.69a0,0,0,0,1,0,0V46.3a0,0,0,0,1,0,0h.69a0,0,0,0,1,.05,0ZM139,51.77a0,0,0,0,1,0,0h-.69a0,0,0,0,1-.05,0V50a0,0,0,0,1,.05,0H139a0,0,0,0,1,0,0Zm0-2.54a0,0,0,0,1,0,.05h-.69a0,0,0,0,1-.05-.05V47.85a0,0,0,0,1,.05,0H139a0,0,0,0,1,0,0Zm0-2.17a0,0,0,0,1,0,0h-.69a0,0,0,0,1-.05,0V46.3a0,0,0,0,1,.05,0H139a0,0,0,0,1,0,0Zm1-1.88a0,0,0,0,1,0,0h-.4a0,0,0,0,1,0,0v-.71a0,0,0,0,1,0,0h.4a0,0,0,0,1,0,0Zm.44-.72a0,0,0,0,1,0,0h.59a0,0,0,0,1,0,0v.72a0,0,0,0,1,0,0h-.59a0,0,0,0,1,0,0Zm.73,7.31a0,0,0,0,1,0,0h-.7a0,0,0,0,1,0,0V50a0,0,0,0,1,0,0h.7a0,0,0,0,1,0,0Zm0-2.54a0,0,0,0,1,0,.05h-.7a0,0,0,0,1,0-.05V47.85a0,0,0,0,1,0,0h.7a0,0,0,0,1,0,0Zm0-2.17a0,0,0,0,1,0,0h-.7a0,0,0,0,1,0,0V46.3a0,0,0,0,1,0,0h.7a0,0,0,0,1,0,0Zm.86-1.88a0,0,0,0,1,0,0h-.4a0,0,0,0,1,0,0v-.71a0,0,0,0,1,0,0h.4a0,0,0,0,1,0,0Zm2.1,6.59a0,0,0,0,1,0,0h-.6a0,0,0,0,1-.05,0V50a0,0,0,0,1,.05,0h.6a0,0,0,0,1,0,0Zm0-2.54a0,0,0,0,1,0,.05h-.6a0,0,0,0,1-.05-.05V47.85a0,0,0,0,1,.05,0h.6a0,0,0,0,1,0,0Zm0-2.17a0,0,0,0,1,0,0h-.6a0,0,0,0,1-.05,0v-.75a0,0,0,0,1,.05-.05h.6a0,0,0,0,1,0,.05Zm1.27,4.71a0,0,0,0,1,0,0h-.6a0,0,0,0,1-.05,0V50a0,0,0,0,1,.05,0h.6a0,0,0,0,1,0,0Zm0-2.54a0,0,0,0,1,0,.05h-.6a0,0,0,0,1-.05-.05V47.85a0,0,0,0,1,.05,0h.6a0,0,0,0,1,0,0Zm0-2.17a0,0,0,0,1,0,0h-.6a0,0,0,0,1-.05,0v-.75a0,0,0,0,1,.05-.05h.6a0,0,0,0,1,0,.05Zm1.27,4.71a0,0,0,0,1,0,0H146a0,0,0,0,1,0,0V50a0,0,0,0,1,0,0h.61a0,0,0,0,1,0,0Zm0-2.54a0,0,0,0,1,0,.05H146a0,0,0,0,1,0-.05V47.85a0,0,0,0,1,0,0h.61a0,0,0,0,1,0,0Zm0-2.17a0,0,0,0,1,0,0H146a0,0,0,0,1,0,0v-.75a0,0,0,0,1,0-.05h.61a0,0,0,0,1,0,.05ZM148,51.77a0,0,0,0,1,0,0h-.61a0,0,0,0,1,0,0V50a0,0,0,0,1,0,0h.61a0,0,0,0,1,0,0Zm0-2.54a0,0,0,0,1,0,.05h-.61a0,0,0,0,1,0-.05V47.85a0,0,0,0,1,0,0h.61a0,0,0,0,1,0,0Zm0-2.17a0,0,0,0,1,0,0h-.61a0,0,0,0,1,0,0v-.75a0,0,0,0,1,0-.05h.61a0,0,0,0,1,0,.05Zm1.26,4.71a0,0,0,0,1,0,0h-.6a0,0,0,0,1,0,0V50a0,0,0,0,1,0,0h.6a0,0,0,0,1,0,0Zm0-2.54s0,.05,0,.05h-.6a0,0,0,0,1,0-.05V47.85a0,0,0,0,1,0,0h.6a0,0,0,0,1,0,0Zm0-2.17s0,0,0,0h-.6a0,0,0,0,1,0,0v-.75a0,0,0,0,1,0-.05h.6s0,0,0,.05Zm1.27,4.71a0,0,0,0,1,0,0h-.6a0,0,0,0,1-.05,0V50a0,0,0,0,1,.05,0h.6a0,0,0,0,1,0,0Zm0-2.54a0,0,0,0,1,0,.05h-.6a0,0,0,0,1-.05-.05V47.85a0,0,0,0,1,.05,0h.6a0,0,0,0,1,0,0Zm0-2.17a0,0,0,0,1,0,0h-.6a0,0,0,0,1-.05,0v-.75a0,0,0,0,1,.05-.05h.6a0,0,0,0,1,0,.05Zm1.27,4.71a0,0,0,0,1,0,0h-.61a0,0,0,0,1,0,0V50a0,0,0,0,1,0,0h.61a0,0,0,0,1,0,0Zm0-2.54a0,0,0,0,1,0,.05h-.61a0,0,0,0,1,0-.05V47.85a0,0,0,0,1,0,0h.61a0,0,0,0,1,0,0Zm0-2.17a0,0,0,0,1,0,0h-.61a0,0,0,0,1,0,0v-.75a0,0,0,0,1,0-.05h.61a0,0,0,0,1,0,.05ZM153,51.77a0,0,0,0,1,0,0h-.61a0,0,0,0,1,0,0V50a0,0,0,0,1,0,0H153a0,0,0,0,1,0,0Zm0-2.54a0,0,0,0,1,0,.05h-.61a0,0,0,0,1,0-.05V47.85a0,0,0,0,1,0,0H153a0,0,0,0,1,0,0Zm0-2.17a0,0,0,0,1,0,0h-.61a0,0,0,0,1,0,0v-.75a0,0,0,0,1,0-.05H153a0,0,0,0,1,0,.05Zm2.33,4.71a0,0,0,0,1,0,0h-.56a0,0,0,0,1,0,0V50a0,0,0,0,1,0,0h.56a0,0,0,0,1,0,0Zm0-2.54a0,0,0,0,1,0,.05h-.56a0,0,0,0,1,0-.05V47.85a0,0,0,0,1,0,0h.56a0,0,0,0,1,0,0Zm0-2.17a0,0,0,0,1,0,0h-.56a0,0,0,0,1,0,0v-1a0,0,0,0,1,0,0h.56a0,0,0,0,1,0,0Zm1,4.71a0,0,0,0,1,0,0h-.55a0,0,0,0,1,0,0V50a0,0,0,0,1,0,0h.55a0,0,0,0,1,0,0Zm0-2.54a0,0,0,0,1,0,.05h-.55a0,0,0,0,1,0-.05V47.85a0,0,0,0,1,0,0h.55a0,0,0,0,1,0,0Zm0-2.17a0,0,0,0,1,0,0h-.55a0,0,0,0,1,0,0v-1a0,0,0,0,1,0,0h.55a0,0,0,0,1,0,0Z"/></g></g></svg>