<svg xmlns="http://www.w3.org/2000/svg" viewBox="0 0 152 53.37"><defs><style>.cls-1{fill:#231815;}.cls-2{fill:#6490a2;}</style></defs><title>logo_jre_hotel</title><g id="Layer_2" data-name="Layer 2"><g id="レイヤー_1" data-name="レイヤー 1"><path class="cls-1" d="M100.41,50.24h1.78c.13,1.08.74,1.5,2,1.5.92,0,1.74-.32,1.74-1.15s-.85-1.05-2.22-1.37c-1.6-.36-3.07-.78-3.07-2.65s1.44-2.68,3.43-2.68,3.32,1,3.46,2.79h-1.74a1.54,1.54,0,0,0-1.73-1.35c-1,0-1.61.41-1.61,1.05s.62.94,2,1.23c1.84.4,3.34.84,3.34,2.77s-1.46,2.83-3.48,2.83C101.85,53.21,100.48,52.13,100.41,50.24Z"/><path class="cls-1" d="M109,44.05h1.81v3.51h3.52V44.05h1.82v9h-1.82V49.06h-3.52V53H109Z"/><path class="cls-1" d="M117.65,44.05h1.81v9h-1.81Z"/><path class="cls-1" d="M121,44.05h4a3.23,3.23,0,0,1,2.17.65,2.11,2.11,0,0,1,.71,1.68,1.84,1.84,0,0,1-1.4,1.79v0a2.24,2.24,0,0,1,1.67,2.22,2.27,2.27,0,0,1-.79,1.86,3.42,3.42,0,0,1-2.26.72H121Zm3.78,3.61c.79,0,1.33-.38,1.33-1.08s-.49-1-1.29-1h-2v2.13Zm-2,3.84h2.09c.88,0,1.41-.49,1.41-1.21A1.29,1.29,0,0,0,124.87,49h-2Z"/><path class="cls-1" d="M129.25,50.13V44.05h1.82v6.08c0,.92.46,1.57,1.67,1.57a1.51,1.51,0,0,0,1.7-1.6V44.05h1.81v6.08c0,1.91-1.18,3-3.47,3S129.25,52.07,129.25,50.13Z"/><path class="cls-1" d="M140,49.55l-3-5.5h2l1.35,2.66c.27.54.59,1.27.59,1.27h0s.34-.73.6-1.27l1.33-2.66h1.9l-3,5.5V53H140Z"/><path class="cls-1" d="M147,44.05h1.88L152,53h-1.89l-.6-1.91h-3.23L145.69,53h-1.84Zm-.27,5.66h2.37l-.8-2.58c-.15-.47-.36-1.37-.36-1.37h0s-.22.9-.37,1.37Z"/><path class="cls-1" d="M36.63,6.35h1.78c.13,1.08.74,1.5,2,1.5.92,0,1.74-.32,1.74-1.15s-.85-1-2.22-1.37c-1.6-.36-3.07-.78-3.07-2.65S38.32,0,40.31,0s3.32,1,3.46,2.79H42A1.54,1.54,0,0,0,40.3,1.44c-1,0-1.61.41-1.61,1.05s.62.94,2,1.23c1.84.4,3.34.84,3.34,2.77S42.52,9.32,40.5,9.32C38.07,9.32,36.7,8.24,36.63,6.35Z"/><path class="cls-1" d="M16.07,4.46h3.39V5.92H16.07Z"/><path class="cls-1" d="M44.69.18h7.2V1.71h-2.7V9.14H47.38V1.71H44.69Z"/><path class="cls-1" d="M31.32.18H33.2l3.15,9H34.46l-.6-1.91H30.63L30,9.14H28.2Zm-.27,5.66h2.37l-.8-2.58c-.15-.47-.36-1.38-.36-1.38h0s-.22.91-.37,1.38Z"/><path class="cls-1" d="M0,6.71v-1H1.63V6.6c0,.83.63,1.25,1.57,1.25S4.58,7.43,4.58,6.6V.18H6.4V6.71c0,1.75-1.35,2.61-3.2,2.61S0,8.46,0,6.71Z"/><path class="cls-1" d="M9.85,9.14V5.55h1.47a1.52,1.52,0,0,1,1.75,1.53c.08.95.1,1.93.32,2.06h1.75V9.06c-.31-.14-.26-1.11-.39-2.37a1.78,1.78,0,0,0-1.36-1.81v0A2.05,2.05,0,0,0,15,2.68c0-1.5-1.16-2.5-2.89-2.5H8v9Zm0-7.49h2c1,0,1.43.54,1.43,1.26s-.49,1.23-1.48,1.23H9.85Z"/><polygon class="cls-1" points="20.87 9.13 27.54 9.13 27.54 7.62 22.68 7.62 22.68 5.19 26.96 5.19 26.96 3.69 22.68 3.69 22.68 1.71 27.54 1.71 27.54 0.18 20.87 0.18 20.87 9.13"/><polygon class="cls-1" points="73.05 28.49 73.05 13.61 69.42 13.61 69.42 31.52 82.46 31.52 82.46 28.49 73.05 28.49"/><polygon class="cls-1" points="3.63 23.63 12.45 23.63 12.45 31.52 16.08 31.52 16.08 13.61 12.45 13.61 12.45 20.62 3.63 20.62 3.63 13.61 0 13.61 0 31.52 3.63 31.52 3.63 23.63"/><path class="cls-1" d="M27,13.25a8.19,8.19,0,0,0-6.29,2.66,9.87,9.87,0,0,0-2.34,6.67,9.86,9.86,0,0,0,2.34,6.66A8.21,8.21,0,0,0,27,31.88a8.17,8.17,0,0,0,6.28-2.64,9.88,9.88,0,0,0,2.33-6.66,9.91,9.91,0,0,0-2.33-6.67A8.17,8.17,0,0,0,27,13.25Zm3.66,13.8a4.25,4.25,0,0,1-3.63,1.81,4.37,4.37,0,0,1-3.68-1.81,7.58,7.58,0,0,1-1.24-4.47,7.6,7.6,0,0,1,1.24-4.49,4.37,4.37,0,0,1,3.68-1.82,4.24,4.24,0,0,1,3.63,1.82,7.7,7.7,0,0,1,1.21,4.49A7.67,7.67,0,0,1,30.7,27.05Z"/><polygon class="cls-1" points="36.33 16.67 41.71 16.67 41.71 31.52 45.34 31.52 45.34 16.67 50.73 16.67 50.73 13.61 36.33 13.61 36.33 16.67"/><polygon class="cls-1" points="53.06 31.52 66.42 31.52 66.42 28.49 56.69 28.49 56.69 23.63 65.24 23.63 65.24 20.62 56.69 20.62 56.69 16.67 66.42 16.67 66.42 13.61 53.06 13.61 53.06 31.52"/><polygon class="cls-1" points="8.82 48.92 8.77 48.92 5.11 35.1 0 35.1 0 53.01 3.33 53.01 3.33 39.87 6.92 53.01 10.59 53.01 14.25 39.87 14.25 53.01 17.63 53.01 17.63 35.1 12.45 35.1 8.82 48.92"/><polygon class="cls-1" points="36.32 38.16 41.71 38.16 41.71 53.01 45.34 53.01 45.34 38.16 50.72 38.16 50.72 35.1 36.32 35.1 36.32 38.16"/><path class="cls-1" d="M59.69,42.17c-2.66-.57-3.91-1-3.91-2.45,0-1.28,1.28-2.1,3.23-2.1s3.26.9,3.46,2.7H66c-.28-3.61-2.88-5.58-6.92-5.58s-6.86,1.82-6.86,5.36c0,3.73,2.93,4.58,6.14,5.31,2.73.62,4.43,1,4.43,2.73s-1.63,2.3-3.48,2.3c-2.55,0-3.78-.85-4-3H51.67c.13,3.79,2.88,5.94,7.74,5.94,4,0,7-2,7-5.66C66.37,43.85,63.37,43,59.69,42.17Z"/><polygon class="cls-1" points="20.96 53.01 34.31 53.01 34.31 49.98 24.59 49.98 24.59 45.12 33.14 45.12 33.14 42.11 24.59 42.11 24.59 38.16 34.31 38.16 34.31 35.1 20.96 35.1 20.96 53.01"/><rect class="cls-2" x="89.62" y="0.18" width="3.63" height="52.82"/></g></g></svg>