<svg xmlns="http://www.w3.org/2000/svg" viewBox="0 0 131.21 117.23"><defs><style>.cls-1{fill:#be9753;}</style></defs><title>logo_handy</title><g id="Layer_2" data-name="Layer 2"><g id="レイヤー_2" data-name="レイヤー 2"><path class="cls-1" d="M127.27,83.1c2.67-.35,3.6,0,3.87-1.17a3.86,3.86,0,0,0-.7-3.11c-.56-.58-1.8-.54-3.15-.57-3.43-.08-2.69,5.19,0,4.85"/><path class="cls-1" d="M120,68c-1.84-.74-2.35,2.24-4.08,6.15-3,6.83-7.18,6.49-6-.28.1-.62.84-2.7,1.12-3.76.47-1.75-1.63-2.79-2.48-1.94-.37.37-1.06,4.21-2.33,6.76-1.63,3.28-3.42,6.09-4.75,5.42s-.3-7.39-.11-8.42,3.11-14.38,3.66-16.26,1.31-4.51,1.31-4.51.45-2.07-1.51-2-1.67,1.9-2,4.64c-.14,1.19-2.17,10.43-3.47,15-.14.49-1,0-1.42-.24-2.41-1.6-5.33-.42-7.66,1.43-4.44,3.51-3.74,7.27-5.92,9.29-4.07,3.78-1.11-8-1.6-10.1-.39-1.7-2.6-1.54-4-.84C76.67,69.5,75,71.89,74,73c-2.62,3-1.67-.41-1.27-1.8.3-1,.42-2.8-.18-3-1.27-.54-1.94.29-2.73,2.2-1.9,4.57-2.67,6.56-4.68,9.48-.7,1-1.82,2-2.15-.16s.21-7.42-.25-9.31a4.12,4.12,0,0,0-3.94-2.47c-5.81.21-10.64,5.5-15.56,12-.3.41.79-5.42.22-8.84a3.69,3.69,0,0,0-2.43-3c-2.33-.63-5.57,2.32-5.57,2.32-1,.87-1.55,1.37-1.25.2,0,0,3.23-13.53,4.38-17.77C61.75,47.14,70.82,37,73.86,29.33c2.76-6.92,3.88-19.8-7.17-26.76-9-5.67-14.4-1.34-17.9,6.93S40.41,34,35.57,51.09c-13.94,3.22-24.22,3.68-32.06,1.53,0,0-1.51-1.24-2.5-.7-2.39,1.29.11,2.26.85,2.49a65.28,65.28,0,0,0,12.71,1.66c6.6.12,16.76-1.75,20.33-2.47-2.17,8.16-5.81,23.23-6.51,27-.3,1.62-.43,2.2,1.12,2.35s1.81-.35,2.72-3.68c.45-1.65.54-3.49,1.84-4.79a10.91,10.91,0,0,1,5.57-2.72c1.3.25,1.11,1.93,1.21,4.33a36.94,36.94,0,0,1-.37,5.79c.05.13-.29,1.07.66,1.07,3.3,0,3.57-2.22,5.88-4.92,4-4.63-.1,2.79,4.49,4.42,3.67,1.3,5.52.27,7.8-1.72s.19,2,3.55,2.26,4.44-2.79,6-5.75c1.36-2.67,1.14-1.29.08,2.65-.87,3.19.44,3.5,1.62,2.81.82-.49.51-3.43,4.92-8.08,4.66-4.91,4.48-1.59,4.18.51-.93,6.62,2.56,9.58,5.23,6.91.46-.46,1.48-2.25,2.06-1.34A3.87,3.87,0,0,0,90.73,83a8.06,8.06,0,0,0,6.83-4c1.37-2.91-.16,1.47,1.92,3.34s4.68-.35,5.89-1.9,1.74-2.48,2.06-2.29a17.75,17.75,0,0,1,.72,2.6c.76,2.5,4.81,3.7,7.14-1.13.78-1.61,1.09-1.39-.18,2.4-2.32,7-7.32,26.63-8.89,32.7-.37,1.45-.67,3.43,2.16,1.93,1.2-.63.3-2.79.25-2.91h0c.06-.36,1-3,3-11.18s9.26-31.38,9.36-31.71S121.67,68.7,120,68ZM51.12,13.63c3.16-7.84,7.32-11.42,11.57-9.58,17.21,7.45,13.13,35.4-23.4,46.14C42.24,38.58,48.72,19.58,51.12,13.63ZM53.6,80.68c-6.89-.87,1.16-12.8,6.1-9.45C61.65,72.56,59.27,81.4,53.6,80.68Zm38.61-.11c-7.21,1.36-3.43-8.74,1.67-9.84C100.71,69.26,96.77,79.72,92.21,80.57Z"/></g></g></svg>