<svg xmlns="http://www.w3.org/2000/svg" viewBox="0 0 97.84 69.88"><defs><style>.cls-1{fill:#00803e;}</style></defs><title>logo_jre</title><g id="Layer_2" data-name="Layer 2"><g id="レイヤー_1" data-name="レイヤー 1"><path class="cls-1" d="M16.81,66c0,1.49-1.52,1.49-1.86,1.49H12.34a1.37,1.37,0,0,1-1.52-1.34V64H8.51v2.38c0,3.13,3.25,3.4,3.43,3.4h3.44a3.58,3.58,0,0,0,3.8-3.68V57.42H16.81Z"/><path class="cls-1" d="M29,57.42H20.85V69.77h2.34V65H29a.9.9,0,0,1,.91.94v3.8h2.34s0-3.31,0-4.29-1.09-1.7-1.09-1.7a2.23,2.23,0,0,0,1.09-1.64V59.71C32.25,58.76,31.34,57.42,29,57.42ZM29.91,62a.89.89,0,0,1-1,.85H23.19V59.52h5.75a1,1,0,0,1,1,1.1Z"/><path class="cls-1" d="M85.11,16.34c0,.85-.12,4.85-3,4.85H57L81.18,51.5H97.84L83,32.81h5.13c8.24,0,9.7-13.85,9.7-17S96.25,0,87.41,0H38V36.44c0,4.6-11.5,4.72-13.56,4.72S13.32,41,13.32,37.4V21.19H0V39.71C0,49.77,15.74,53,25.43,53c7,0,25.66-2.3,25.66-14.17V12H82.2C85,12,85.11,15.5,85.11,16.34Z"/><polygon class="cls-1" points="77.53 59.41 82.05 59.41 82.05 69.88 84.62 69.88 84.62 59.45 89.2 59.45 89.2 57.39 77.53 57.39 77.53 59.41"/><path class="cls-1" d="M73.39,62.25,69,62.12C67.9,62,67.67,61.61,67.67,61c0-1.65,1.17-1.43,3.63-1.43s2.64,0,2.64,1.82l2.42-.11c0-1.54,0-2.44-1.07-3.18-.62-.42-1.46-.78-4.15-.78-4,0-5.93.22-5.93,3.65,0,2.64.66,3.11,2.69,3.31l5,.2a1.48,1.48,0,0,1,1.45,1.5c0,1.89-1.74,1.54-3.83,1.54-3.36,0-3.13-.5-3.13-2H65.15c0,1.48-.11,2.69.8,3.5.58.53,1.64.85,4.83.85,2.88,0,5.84.1,5.89-3.84a3.76,3.76,0,0,0-.74-2.83A4.54,4.54,0,0,0,73.39,62.25Z"/><path class="cls-1" d="M56.25,57.39,51.46,69.64H54l.85-2.32h5.82l1,2.32H64L59,57.39Zm-.67,7.84,2-5.38,2.3,5.38Z"/><polygon class="cls-1" points="41.61 64.53 48.93 64.53 48.93 62.29 41.6 62.29 41.6 59.49 49.69 59.49 49.69 57.38 39.34 57.38 39.34 69.63 49.79 69.63 49.79 67.52 41.61 67.52 41.61 64.53"/><rect class="cls-1" x="34.09" y="62.55" width="3.54" height="1.98"/></g></g></svg>