<svg xmlns="http://www.w3.org/2000/svg" viewBox="0 0 328.59 39.24"><defs><style>.cls-1{fill:#040000;}</style></defs><title>logo_nihonhotel</title><g id="Layer_2" data-name="Layer 2"><g id="レイヤー_1" data-name="レイヤー 1"><path class="cls-1" d="M4.2,34.8V21.93H20.78V33.59a1.06,1.06,0,0,1-1.2,1.21ZM0,38.23H21.87q3.16,0,3.17-3.17V2.39H0ZM4.2,5.82H20.78V18.49H4.2Z"/><path class="cls-1" d="M66.55,5.82V9.33H60.87s2.62,16.22,3,19,1.79,5.8,3.36,6.36L66.75,37c-2.33,0-6-1.49-7.19-8.59-.83-4.83-3.05-19.12-3.05-19.12H51.29V28.42h6.22v3.3H51.29v7.52H46.9V31.72h-6v-3.3h6V9.33H42.81s-3.18,14.16-4.18,18.84c-1.49,7-4,8.13-6.63,8.69l-.56-2.71c.94-.38,1.68-1.22,2.71-5.42S38.4,9.33,38.4,9.33H31.79V5.82H46.9V.27h4.39V5.82Z"/><path class="cls-1" d="M106.8,37.88c-3.17,0-6.54-2.52-7.84-8.87L96.75,15.68H101L103,28c.75,3.83,1.69,6.82,4.3,7.57Zm-14.42.47H88V10.42H75V6.91H88V1.15h4.38V6.91h12.9v3.51H92.38ZM83.3,15.64s-1.67,9.09-2.37,13.56c-1,6.54-4.8,8.19-6.82,8.59l-.84-2.43c2-1,2.8-2.71,3.55-6S79,15.64,79,15.64Z"/><path class="cls-1" d="M137,6.43H111.6V2.85H137ZM127.43,24.9c0,7.66-3.61,11.49-8.34,13.4L118,36.06c2.34-1.21,5.13-3,5.13-9.66V14.72H109.89V11.2h28.87v3.52H127.43Z"/><path class="cls-1" d="M157.55,38.31V3.65h4.33V32c2.47-.46,6.71-2.94,9-13.13l2,.59C172.29,25.09,170.22,36.25,157.55,38.31ZM150.88,3.63V19c0,11-5.84,18.23-9.63,19.07L140.34,36c1.63-.65,6.29-7,6.29-16.45V3.63Z"/><polygon class="cls-1" points="193.42 6.24 193.42 9.2 188.86 9.2 188.86 39.1 185.27 39.1 185.27 9.2 180.23 9.2 180.23 6.24 185.27 6.24 185.27 0.27 188.86 0.27 188.86 6.24 193.42 6.24"/><path class="cls-1" d="M181.32,11.87h3s-.52,9.64-.79,14.61-1.17,9.47-4.33,10.83l-.81-1.54c1.8-1.26,1.8-4.51,2.25-10.83S181.32,11.87,181.32,11.87Z"/><path class="cls-1" d="M189.94,11.9h3l.43,10.43c.45,6.22,1.26,7.76,2.43,8.75l-1.08,1.62c-3-2.43-4.24-5.32-4.33-9.47S189.94,11.9,189.94,11.9Z"/><path class="cls-1" d="M197.32,1.14h3.19l-.81,4.42h3.53V.45H207V5.56h6.24V8.72H207V15h7.42v3.3H207V39.11h-3.77V18.27h-8.07V15h8.07V8.72h-4.7c-.81,1.25-1.35,2.33-3.61,2.69l-.63-1.81c1.08-.63,1.8-2.34,2.25-4.06Z"/><path class="cls-1" d="M201.85,20.78s-.34,4-.89,9a9.94,9.94,0,0,1-5.59,8.39l-.9-1.81c1.29-1.26,2.53-3.52,3-7.31s.8-8.31.8-8.31Z"/><path class="cls-1" d="M208.65,20.75h3.63l.68,8.79c.28,3.43,1,6.32,2.44,7l-.68,1.78c-2.3-.6-4.82-3.13-5.36-8.45Z"/><path class="cls-1" d="M310.05,28,307,29.09s-1.44-6.67-3.38-9.33l1-1.49C308.07,20.07,310.05,28,310.05,28Z"/><path class="cls-1" d="M290,37.92l-4.49.37s0-6.42-1.74-9.66l2.34-.61A20.4,20.4,0,0,1,290,37.92Z"/><path class="cls-1" d="M249.4,1.33h4.2V7.51A2.24,2.24,0,0,1,251.05,10H245.3s1.23,8,2.2,14.54c1.44,9.84,5.32,10.47,6.68,11L253,38c-3-.81-8.48-3.07-9.74-13.45C242.58,19,241.13,10,241.13,10h-21.8V6.74h21.21L239.73,0h4.06l.89,6.74h3.94c.52,0,.78-.27.78-.82Zm-9.85,14.48V19h-7V31.26L241.37,30l.35,1.8-21.63,4.69V33.22l8.3-1.42V19H221V15.81Z"/><path class="cls-1" d="M267.73,2.53h11.82s4.14,5.75,6.5,7.71c3.11,2.57,5,3.25,7.3,3.46l-.29,2c-3.82.1-7.35-.67-9.59-2.24a36.93,36.93,0,0,1-7.3-7.52h-4.63s-5.06,6-6.15,6.73c-2.74,1.86-6.46,2.74-9.68,3.13L255.12,14a12,12,0,0,0,5-2.25C262.87,9.89,267.73,2.53,267.73,2.53ZM286.07,13v3.16H261.33V13Zm.22,22.1L260,37.27l6.07-14H257V20.07h34.12v3.16h-19.6l-4.34,9.54,18.22-1.07Z"/><path class="cls-1" d="M327.66,8.21v3.17h-6.77V35.09h7.7v3.16H308.51V35.09h8.31V11.38h-7.23V8.21h7.23V.27h4.07V8.21Zm-33,22-.9-1.81s7.94-3.61,8.3-18.39h-6.67V7h11.71C306.8,22.42,302.29,26.39,294.71,30.18Z"/><rect class="cls-1" x="300.02" y="0.94" width="3.65" height="7.16"/><rect class="cls-1" x="300.02" y="21.51" width="3.65" height="17.69"/></g></g></svg>