<svg xmlns="http://www.w3.org/2000/svg" viewBox="0 0 118.62 109.62"><defs><style>.cls-1{fill:none;stroke:#ff6352;stroke-miterlimit:10;stroke-width:4px;}</style></defs><title>point_quote</title><g id="Layer_2" data-name="Layer 2"><g id="section3"><path class="cls-1" d="M64,109.62V98.8a5.48,5.48,0,0,1,2.54-4.55,4.64,4.64,0,0,0,2.11-3.9V73.47c0-9.89-18-13.32-29.06-10.92L38.14,40.41a4.27,4.27,0,0,0-4.27-4.26h0a4.27,4.27,0,0,0-4.27,4.26v37.5l-6.79-6.22a5.78,5.78,0,0,0-5.39-1.34L16,70.73a2,2,0,0,0-1.13,3L28.21,93c1.27,2,7.2,2.83,7.2,5.48v11.13"/><ellipse class="cls-1" cx="59.31" cy="20.5" rx="57.31" ry="18.5"/></g></g></svg>