<svg xmlns="http://www.w3.org/2000/svg" viewBox="0 0 78.92 102.74"><defs><style>.cls-1{fill:#0d7b3c;}.cls-2{fill:#000e21;}.cls-3{fill:#b79253;}.cls-4{fill:#231815;}</style></defs><title>アセット 24</title><g id="レイヤー_2" data-name="レイヤー 2"><g id="section1"><path class="cls-1" d="M4.69,18.44c0,.42-.42.42-.51.42H3.45A.39.39,0,0,1,3,18.49v-.62H2.38v.67a1,1,0,0,0,1,.95h1a1,1,0,0,0,1.06-1V16H4.69Z"/><path class="cls-1" d="M8.11,16H5.82v3.45h.66V18.16H8.1a.25.25,0,0,1,.25.27v1.06H9s0-.93,0-1.2-.31-.48-.31-.48A.6.6,0,0,0,9,17.36v-.68C9,16.41,8.75,16,8.11,16Zm.24,1.27a.25.25,0,0,1-.27.24H6.48v-.92h1.6a.26.26,0,0,1,.27.3Z"/><path class="cls-1" d="M23.77,4.57c0,.23,0,1.35-.85,1.35h-7l6.74,8.46h4.66L23.18,9.16h1.44c2.3,0,2.7-3.86,2.7-4.73S26.88,0,24.41,0H10.62V10.18c0,1.28-3.21,1.32-3.79,1.32s-3.11,0-3.11-1.05V5.92H0v5.17c0,2.81,4.4,3.72,7.1,3.72,2,0,7.17-.64,7.17-4V3.35H23C23.74,3.35,23.77,4.33,23.77,4.57Z"/><polygon class="cls-1" points="21.66 16.59 22.92 16.59 22.92 19.52 23.63 19.52 23.63 16.6 24.91 16.6 24.91 16.03 21.66 16.03 21.66 16.59"/><path class="cls-1" d="M20.5,17.39l-1.23,0c-.3,0-.37-.14-.37-.33,0-.46.33-.4,1-.4s.74,0,.74.51l.68,0c0-.43,0-.68-.3-.89A2,2,0,0,0,19.87,16c-1.11,0-1.66.06-1.66,1,0,.73.19.86.76.92l1.4,0a.42.42,0,0,1,.4.42c0,.53-.48.43-1.07.43-.94,0-.87-.14-.87-.57H18.2c0,.42,0,.76.22,1s.46.24,1.35.24,1.63,0,1.65-1.07a1.07,1.07,0,0,0-.21-.79A1.21,1.21,0,0,0,20.5,17.39Z"/><path class="cls-1" d="M15.71,16l-1.34,3.42h.71l.24-.65h1.62l.27.65h.67L16.47,16Zm-.19,2.19.56-1.5.64,1.5Z"/><polygon class="cls-1" points="11.62 18.02 13.67 18.02 13.67 17.4 11.62 17.4 11.62 16.61 13.88 16.61 13.88 16.03 10.99 16.03 10.99 19.45 13.91 19.45 13.91 18.86 11.62 18.86 11.62 18.02"/><rect class="cls-1" x="9.52" y="17.47" width="0.99" height="0.55"/><path class="cls-2" d="M33.64,93.72c.7-.09,1,0,1-.31a1,1,0,0,0-.19-.82c-.14-.15-.47-.14-.83-.15-.91,0-.71,1.37,0,1.28"/><path class="cls-2" d="M31.71,89.74c-.49-.2-.62.59-1.08,1.62-.79,1.81-1.9,1.72-1.58-.07,0-.17.22-.72.3-1,.12-.46-.43-.74-.66-.51s-.28,1.11-.61,1.79c-.43.86-.91,1.61-1.26,1.43s-.08-2,0-2.23.82-3.8,1-4.29.34-1.2.34-1.2.12-.54-.4-.53-.44.5-.52,1.23c0,.31-.57,2.75-.92,4,0,.13-.26,0-.37-.06a1.75,1.75,0,0,0-2,.38c-1.17.93-1,1.92-1.56,2.45-1.08,1-.3-2.12-.42-2.66s-.69-.41-1.05-.23a5,5,0,0,0-1.27,1.22c-.69.8-.44-.11-.33-.48s.11-.73-.05-.8c-.33-.14-.51.08-.72.58a11.94,11.94,0,0,1-1.24,2.51c-.18.27-.48.53-.56,0s.05-2-.07-2.47a1.1,1.1,0,0,0-1-.65c-1.54.06-2.81,1.46-4.11,3.17a17.88,17.88,0,0,0,.05-2.34,1,1,0,0,0-.64-.8c-.62-.17-1.47.61-1.47.61-.26.23-.41.37-.33.06,0,0,.85-3.58,1.16-4.7,6.11-1.48,8.51-4.17,9.31-6.19.73-1.83,1-5.23-1.9-7.07-2.37-1.5-3.8-.36-4.72,1.83a115.16,115.16,0,0,0-3.5,11c-3.68.85-6.4,1-8.47.41,0,0-.4-.33-.66-.19-.63.34,0,.6.22.66a17.22,17.22,0,0,0,3.36.44,30.47,30.47,0,0,0,5.37-.66c-.57,2.16-1.53,6.14-1.72,7.15-.08.43-.11.58.3.62s.48-.09.72-1A2.59,2.59,0,0,1,9,91.45a2.89,2.89,0,0,1,1.48-.72c.34.07.29.51.32,1.15a11,11,0,0,1-.1,1.53s-.08.28.17.28c.87,0,1-.59,1.56-1.3,1.05-1.23,0,.74,1.18,1.17a1.79,1.79,0,0,0,2.07-.46c.6-.53.05.53.93.6s1.18-.74,1.58-1.52.3-.34,0,.7c-.23.84.11.93.42.74a7.45,7.45,0,0,1,1.3-2.13c1.24-1.3,1.19-.42,1.11.13-.25,1.75.68,2.53,1.38,1.83.12-.12.39-.6.55-.35a1,1,0,0,0,1,.6,2.12,2.12,0,0,0,1.8-1c.37-.77,0,.39.51.88s1.24-.09,1.56-.5.46-.65.54-.6a4.28,4.28,0,0,1,.19.68c.2.66,1.27,1,1.89-.3.2-.42.29-.36,0,.64-.61,1.84-1.93,7-2.35,8.64-.1.38-.18.91.57.51.32-.17.08-.74.07-.77h0c0-.1.25-.79.79-3s2.44-8.3,2.47-8.39S32.15,89.91,31.71,89.74ZM13.51,75.36c.84-2.07,1.93-3,3.06-2.53,4.55,2,3.47,9.35-6.19,12.19C11.16,82,12.88,76.93,13.51,75.36Zm.66,17.72c-1.83-.23.3-3.38,1.61-2.5C16.29,90.93,15.66,93.27,14.17,93.08Zm10.2,0c-1.91.36-.91-2.31.44-2.6C26.62,90.06,25.58,92.83,24.37,93.05Z"/><path class="cls-3" d="M13.84,30.79,16,32.9l-.21.21L13.63,31l-2.11,2.11-.22-.21,2.11-2.11L11.3,28.68l.22-.22,2.11,2.11,2.11-2.11.21.22Z"/><path class="cls-3" d="M13.84,61.43,16,63.54l-.21.22-2.11-2.11-2.11,2.11-.22-.22,2.11-2.11L11.3,59.32l.22-.21,2.11,2.11,2.11-2.11.21.21Z"/><path class="cls-4" d="M0,42.06l6.24,6.53V42.46h1v8.65L1,44.57v6.2H0Z"/><path class="cls-4" d="M10.19,50.77h-1V42.46h1Z"/><path class="cls-4" d="M13.22,43.38h.28c1,0,2.26.16,2.26,1.46s-1.15,1.52-2.2,1.52h-.34Zm0,3.9h.6c1.58,0,2.91-.67,2.91-2.42,0-1.52-.79-2.4-3.35-2.4H12.19v8.31h1Z"/><path class="cls-4" d="M19.12,43.38h.28c1,0,2.26.16,2.26,1.46s-1.15,1.52-2.21,1.52h-.33Zm0,3.9h.6c1.57,0,2.91-.67,2.91-2.42,0-1.52-.8-2.4-3.35-2.4H18.09v8.31h1Z"/><path class="cls-4" d="M27.75,50a3.33,3.33,0,0,1-3.32-3.36,3.32,3.32,0,1,1,6.64,0A3.33,3.33,0,0,1,27.75,50Zm0-7.69a4.36,4.36,0,0,0-4.35,4.33,4.35,4.35,0,0,0,8.7,0A4.36,4.36,0,0,0,27.75,42.28Z"/><path class="cls-4" d="M33.45,42.06l6.24,6.53V42.46h1v8.65l-6.24-6.54v6.2h-1Z"/><path class="cls-4" d="M51.17,45.81V42.46h1v8.31h-1v-4h-4v4h-1V42.46h1v3.35Z"/><path class="cls-4" d="M57.92,50a3.33,3.33,0,0,1-3.32-3.36,3.32,3.32,0,1,1,6.63,0A3.33,3.33,0,0,1,57.92,50Zm0-7.69a4.36,4.36,0,0,0-4.36,4.33,4.36,4.36,0,0,0,8.71,0A4.36,4.36,0,0,0,57.92,42.28Z"/><path class="cls-4" d="M66,50.77h-1V43.4h-2v-.94h5v.94H66Z"/><path class="cls-4" d="M69.18,42.46h4.46v.94H70.21v2.33h3.33v1H70.21v3.14h3.43v1H69.18Z"/><path class="cls-4" d="M76.4,49.82h2.52v1H75.36V42.46h1Z"/></g></g></svg>