<svg xmlns="http://www.w3.org/2000/svg" viewBox="0 0 309.21 52.11"><defs><style>.cls-1{fill:#00803e;}.cls-2{fill:#000e22;}.cls-3{fill:#c96;}.cls-4{fill:#231815;}</style></defs><title>アセット 27</title><g id="レイヤー_2" data-name="レイヤー 2"><g id="section2"><path class="cls-1" d="M7.9,43.85c0,.7-.72.7-.88.7H5.8a.65.65,0,0,1-.72-.62v-1H4V44a1.64,1.64,0,0,0,1.61,1.6H7.22A1.69,1.69,0,0,0,9,43.88V39.81H7.9Z"/><path class="cls-1" d="M13.64,39.81H9.79v5.8h1.1V43.38h2.73a.43.43,0,0,1,.43.45v1.78h1.1s0-1.56,0-2-.51-.8-.51-.8a1,1,0,0,0,.51-.77V40.88C15.15,40.44,14.72,39.81,13.64,39.81ZM14.05,42a.42.42,0,0,1-.46.4h-2.7V40.8h2.7a.45.45,0,0,1,.46.51Z"/><path class="cls-1" d="M40,20.51c0,.4-.06,2.28-1.42,2.28H26.79L38.13,37H46l-7-8.78H41.4c3.87,0,4.55-6.51,4.55-8s-.74-7.45-4.89-7.45H17.86V30c0,2.16-5.4,2.22-6.37,2.22s-5.23-.05-5.23-1.76V22.79H0v8.7c0,4.72,7.39,6.26,11.94,6.26,3.3,0,12.06-1.08,12.06-6.66V18.47H38.61C39.92,18.47,40,20.12,40,20.51Z"/><polygon class="cls-1" points="36.42 40.74 38.54 40.74 38.54 45.66 39.75 45.66 39.75 40.76 41.9 40.76 41.9 39.8 36.42 39.8 36.42 40.74"/><path class="cls-1" d="M34.48,42.08,32.41,42c-.51-.05-.62-.25-.62-.55,0-.78.55-.67,1.7-.67s1.24,0,1.24.85l1.14,0c0-.73,0-1.15-.5-1.5a3.26,3.26,0,0,0-1.95-.36c-1.87,0-2.79.1-2.79,1.71,0,1.24.31,1.46,1.27,1.56l2.36.09a.7.7,0,0,1,.68.71c0,.89-.82.72-1.8.72-1.58,0-1.47-.24-1.47-1H30.6c0,.69-.05,1.27.38,1.64.27.25.77.41,2.27.41s2.74,0,2.77-1.81a1.81,1.81,0,0,0-.35-1.33A2.11,2.11,0,0,0,34.48,42.08Z"/><path class="cls-1" d="M26.42,39.8l-2.25,5.75h1.19l.4-1.09h2.73L29,45.55h1.12L27.7,39.8Zm-.31,3.68L27,41l1.08,2.53Z"/><polygon class="cls-1" points="19.55 43.15 22.99 43.15 22.99 42.1 19.54 42.1 19.54 40.78 23.34 40.78 23.34 39.79 18.48 39.79 18.48 45.54 23.39 45.54 23.39 44.55 19.55 44.55 19.55 43.15"/><rect class="cls-1" x="16.02" y="42.22" width="1.66" height="0.93"/><path class="cls-2" d="M307.46,36.94c1.19-.16,1.6,0,1.72-.52a1.75,1.75,0,0,0-.31-1.39c-.25-.25-.8-.23-1.4-.25-1.53,0-1.2,2.31,0,2.16"/><path class="cls-2" d="M304.22,30.24c-.82-.33-1.05,1-1.82,2.73-1.33,3-3.19,2.88-2.66-.13.05-.27.38-1.19.51-1.67.2-.78-.73-1.24-1.11-.86-.16.16-.47,1.87-1,3-.73,1.45-1.52,2.7-2.11,2.4s-.14-3.28-.06-3.74,1.39-6.39,1.63-7.23.58-2,.58-2,.21-.92-.67-.9-.74.84-.88,2.06c-.06.53-1,4.64-1.54,6.69-.07.22-.45,0-.63-.1-1.08-.72-2.37-.19-3.41.63-2,1.56-1.66,3.23-2.63,4.13-1.81,1.68-.5-3.57-.71-4.49-.18-.75-1.16-.68-1.77-.37a8,8,0,0,0-2.12,2.05c-1.16,1.34-.74-.18-.56-.8.13-.47.18-1.25-.08-1.36-.57-.24-.86.13-1.22,1a19.86,19.86,0,0,1-2.07,4.21c-.32.46-.81.91-1-.07s.09-3.29-.11-4.14A1.83,1.83,0,0,0,277,30.18c-2.59.09-4.73,2.44-6.92,5.32a28.3,28.3,0,0,0,.1-3.93,1.66,1.66,0,0,0-1.08-1.35c-1-.27-2.48,1-2.48,1-.44.39-.69.62-.55.1,0,0,1.43-6,1.94-7.9,10.29-2.5,14.31-7,15.67-10.41,1.22-3.08,1.72-8.8-3.19-11.9-4-2.52-6.4-.59-8,3.08s-3.72,10.89-5.87,18.49c-6.2,1.43-10.77,1.63-14.25.68,0,0-.67-.55-1.11-.31-1.07.57,0,1,.37,1.1a28.9,28.9,0,0,0,5.65.74,50.69,50.69,0,0,0,9-1.1c-1,3.63-2.58,10.33-2.89,12-.14.72-.2,1,.49,1s.81-.16,1.21-1.64a4.33,4.33,0,0,1,.82-2.13,4.82,4.82,0,0,1,2.48-1.21c.57.11.49.86.54,1.93a17.4,17.4,0,0,1-.17,2.57c0,.06-.13.48.29.48,1.47,0,1.59-1,2.62-2.19,1.76-2.06-.05,1.24,2,2a3,3,0,0,0,3.47-.76c1-.89.09.88,1.58,1s2-1.24,2.64-2.56.51-.57,0,1.18c-.39,1.42.19,1.56.72,1.25.36-.21.23-1.52,2.18-3.59s2-.71,1.87.23c-.42,2.94,1.13,4.26,2.32,3.07.2-.2.66-1,.91-.59a1.74,1.74,0,0,0,1.71,1,3.61,3.61,0,0,0,3-1.76c.61-1.3-.07.65.85,1.48s2.09-.15,2.62-.84.78-1.1.92-1a8.68,8.68,0,0,1,.32,1.16c.34,1.1,2.14,1.64,3.17-.51.35-.71.49-.62-.08,1.07-1,3.1-3.25,11.83-3.95,14.54-.17.64-.3,1.52,1,.85.53-.28.13-1.24.11-1.29h0c0-.16.43-1.33,1.33-5s4.11-13.95,4.16-14.1S305,30.54,304.22,30.24ZM273.61,6.06C275,2.57,276.86,1,278.75,1.8c7.65,3.31,5.84,15.73-10.4,20.51C269.66,17.15,272.54,8.7,273.61,6.06Zm1.1,29.8c-3.06-.39.52-5.69,2.71-4.2C278.29,32.25,277.23,36.18,274.71,35.86Zm17.16,0c-3.2.61-1.52-3.88.75-4.37C295.65,30.78,293.9,35.43,291.87,35.81Z"/><path class="cls-3" d="M59.1,28.23l3.55,3.55-.36.36-3.55-3.55-3.55,3.55-.36-.36,3.55-3.55-3.55-3.55.36-.36,3.55,3.55,3.55-3.55.36.36Z"/><path class="cls-3" d="M239.21,28.23l3.55,3.55-.36.36-3.55-3.55-3.55,3.55-.36-.36,3.55-3.55-3.55-3.55.36-.36,3.55,3.55,3.55-3.55.36.36Z"/><path class="cls-4" d="M73.54,19.17,85.74,32v-12h2V36.86L75.56,24.08V36.2h-2Z"/><path class="cls-4" d="M93.47,36.2h-2V19.94h2Z"/><path class="cls-4" d="M99.4,21.75h.54c2,0,4.42.31,4.42,2.85s-2.24,3-4.31,3H99.4Zm0,7.63h1.17c3.08,0,5.69-1.31,5.69-4.74,0-3-1.56-4.7-6.56-4.7H97.38V36.2h2Z"/><path class="cls-4" d="M110.93,21.75h.54c2,0,4.42.31,4.42,2.85s-2.24,3-4.31,3h-.65Zm0,7.63h1.17c3.08,0,5.69-1.31,5.69-4.74,0-3-1.55-4.7-6.56-4.7h-2.32V36.2h2Z"/><path class="cls-4" d="M127.81,34.64a6.53,6.53,0,0,1-6.49-6.57,6.49,6.49,0,1,1,13,0A6.53,6.53,0,0,1,127.81,34.64Zm0-15a8.53,8.53,0,0,0-8.51,8.47,8.51,8.51,0,0,0,17,0A8.53,8.53,0,0,0,127.81,19.6Z"/><path class="cls-4" d="M139,19.17,151.15,32v-12h2V36.86L141,24.08V36.2h-2Z"/><path class="cls-4" d="M173.61,26.5V19.94h2V36.2h-2V28.39h-7.73V36.2h-2V19.94h2V26.5Z"/><path class="cls-4" d="M186.8,34.64a6.52,6.52,0,0,1-6.48-6.57,6.49,6.49,0,1,1,13,0A6.52,6.52,0,0,1,186.8,34.64Zm0-15a8.53,8.53,0,0,0-8.51,8.47,8.52,8.52,0,0,0,17,0A8.54,8.54,0,0,0,186.8,19.6Z"/><path class="cls-4" d="M202.52,36.2h-2V21.8h-3.86V19.94h9.75V21.8h-3.86Z"/><path class="cls-4" d="M208.83,19.94h8.73V21.8h-6.7v4.55h6.51V28.2h-6.51v6.14h6.7V36.2h-8.73Z"/><path class="cls-4" d="M223,34.34h4.94V36.2h-7V19.94h2Z"/></g></g></svg>