<svg xmlns="http://www.w3.org/2000/svg" viewBox="0 0 30 38.05"><defs><style>.cls-1{fill:#ff6352;}.cls-2{fill:#fff;}</style></defs><title>アセット 2</title><g id="レイヤー_2" data-name="レイヤー 2"><g id="レイヤー_1-2" data-name="レイヤー 1"><path class="cls-1" d="M30,15A15,15,0,0,0,.51,11.47C-.91,16.62-.34,24.93,15,38c12.14-10.35,15-17.72,15-22.9Z"/><path class="cls-1" d="M15.05,38.05,15,38l-.05,0Z"/><path class="cls-2" d="M12.69,7.54A2.16,2.16,0,0,1,15,5.4a2.14,2.14,0,0,1,2.31,2.14A2.17,2.17,0,0,1,15,9.67,2.18,2.18,0,0,1,12.69,7.54Zm.37,4.53H17V27H13.06Z"/><circle class="cls-2" cx="15.04" cy="7.62" r="2.38"/></g></g></svg>