<svg xmlns="http://www.w3.org/2000/svg" viewBox="0 0 108.88 108"><defs><style>.cls-1{fill:#ff6352;}</style></defs><title>star</title><g id="Layer_2" data-name="Layer 2"><g id="レイヤー_1" data-name="レイヤー 1"><path class="cls-1" d="M53.66,108a2.68,2.68,0,0,1-2.22-1.76V85.46a2.66,2.66,0,0,1,2.22-1.76,1.79,1.79,0,0,1,1.78,1.76v20.78A1.79,1.79,0,0,1,53.66,108Z"/><path class="cls-1" d="M53.66,13.91a2.68,2.68,0,0,1-2.22-1.76V1.76A2.68,2.68,0,0,1,53.66,0a1.79,1.79,0,0,1,1.78,1.76V12.15A1.79,1.79,0,0,1,53.66,13.91Z"/><path class="cls-1" d="M96.87,47.1a1.76,1.76,0,0,1-.29-3.49l10.25-1.71a1.75,1.75,0,1,1,.58,3.46L97.16,47.08Z"/><path class="cls-1" d="M12,46.78l-.29,0L1.47,45a1.75,1.75,0,1,1,.58-3.46L12.3,43.29A1.76,1.76,0,0,1,12,46.78Z"/><path class="cls-1" d="M24.62,100.62a1.69,1.69,0,0,1-.94-.28,1.75,1.75,0,0,1-.54-2.42l5.58-8.77a1.76,1.76,0,1,1,3,1.89L26.1,99.8A1.75,1.75,0,0,1,24.62,100.62Z"/><path class="cls-1" d="M6.88,77.79a1.74,1.74,0,0,1-1.61-1.06,1.77,1.77,0,0,1,.92-2.31l19.08-8.24a1.75,1.75,0,1,1,1.39,3.22L7.58,77.65A1.72,1.72,0,0,1,6.88,77.79Z"/><path class="cls-1" d="M32.28,30.92a1.77,1.77,0,0,1-1.4-.69L18.26,13.71a1.76,1.76,0,1,1,2.79-2.13L33.67,28.09a1.76,1.76,0,0,1-.33,2.47A1.74,1.74,0,0,1,32.28,30.92Z"/><path class="cls-1" d="M101.78,77.79a1.7,1.7,0,0,1-.69-.14L82,69.4a1.76,1.76,0,0,1,1.4-3.22l19.08,8.24a1.76,1.76,0,0,1-.7,3.37Z"/><path class="cls-1" d="M76.39,30.92A1.76,1.76,0,0,1,75,28.09L87.62,11.58a1.76,1.76,0,1,1,2.79,2.13L77.79,30.23A1.77,1.77,0,0,1,76.39,30.92Z"/><path class="cls-1" d="M70.78,79a1.71,1.71,0,0,1-.82-.2l-16.3-8.57-16.3,8.57A1.76,1.76,0,0,1,34.81,77l3.12-18.15L24.74,46a1.76,1.76,0,0,1,1-3l18.23-2.65,8.15-16.51a1.82,1.82,0,0,1,3.14,0l8.16,16.51L81.61,43a1.76,1.76,0,0,1,1,3L69.39,58.82,72.51,77a1.75,1.75,0,0,1-1.73,2ZM53.66,66.51a1.84,1.84,0,0,1,.82.2l14,7.35L65.78,58.5a1.75,1.75,0,0,1,.5-1.55l11.3-11L62,43.67a1.8,1.8,0,0,1-1.33-1l-7-14.15-7,14.15a1.8,1.8,0,0,1-1.33,1L29.74,45.94,41,57a1.75,1.75,0,0,1,.5,1.55L38.88,74.06l14-7.35A1.84,1.84,0,0,1,53.66,66.51Z"/><path class="cls-1" d="M83.78,100.39a1.75,1.75,0,0,1-1.48-.81l-5.59-8.77a1.76,1.76,0,0,1,3-1.88l5.58,8.76a1.76,1.76,0,0,1-.54,2.43A1.79,1.79,0,0,1,83.78,100.39Z"/></g></g></svg>