<svg xmlns="http://www.w3.org/2000/svg" xmlns:xlink="http://www.w3.org/1999/xlink" viewBox="0 0 1020.7 1035.86"><defs><style>.cls-1,.cls-10,.cls-11,.cls-12,.cls-13,.cls-14,.cls-15,.cls-16,.cls-17,.cls-18,.cls-19,.cls-20,.cls-21,.cls-22,.cls-23,.cls-24,.cls-25,.cls-26,.cls-27,.cls-28,.cls-29,.cls-30,.cls-31,.cls-32,.cls-33,.cls-34,.cls-35,.cls-36,.cls-37,.cls-38,.cls-39,.cls-40,.cls-41,.cls-42,.cls-43,.cls-44,.cls-45,.cls-46,.cls-48,.cls-8,.cls-9{fill:none;}.cls-2{fill:url(#linear-gradient);}.cls-3{clip-path:url(#clip-path);}.cls-4{opacity:0.31;}.cls-5{fill:#f7f8f8;}.cls-6{fill:#d6eefb;}.cls-7{clip-path:url(#clip-path-2);}.cls-8{stroke:#3ebff0;stroke-width:1.39px;}.cls-10,.cls-11,.cls-12,.cls-13,.cls-14,.cls-15,.cls-16,.cls-17,.cls-18,.cls-19,.cls-20,.cls-21,.cls-22,.cls-23,.cls-24,.cls-25,.cls-26,.cls-27,.cls-28,.cls-29,.cls-30,.cls-31,.cls-32,.cls-33,.cls-34,.cls-35,.cls-36,.cls-37,.cls-38,.cls-39,.cls-40,.cls-41,.cls-42,.cls-43,.cls-44,.cls-45,.cls-46,.cls-48,.cls-8,.cls-9{stroke-miterlimit:10;}.cls-9{stroke:#bdeae8;}.cls-10,.cls-11,.cls-12,.cls-13,.cls-14,.cls-15,.cls-16,.cls-17,.cls-18,.cls-19,.cls-20,.cls-21,.cls-22,.cls-23,.cls-24,.cls-25,.cls-26,.cls-27,.cls-28,.cls-29,.cls-30,.cls-31,.cls-32,.cls-33,.cls-34,.cls-35,.cls-36,.cls-37,.cls-38,.cls-39,.cls-40,.cls-41,.cls-42,.cls-43,.cls-44,.cls-45,.cls-46,.cls-9{stroke-width:3.62px;}.cls-10{stroke:#d1d8f2;}.cls-11{stroke:#8ec5eb;}.cls-12{stroke:#fad9e7;}.cls-13{stroke:#94dae3;}.cls-14{stroke:#de6a08;}.cls-15{stroke:#f8e064;}.cls-16{stroke:#f583ae;}.cls-17{stroke:#ffc9a3;}.cls-18{stroke:#ffc5a7;}.cls-19{stroke:#fcccde;}.cls-20{stroke:#90d5eb;}.cls-21{stroke:#f5cbe3;}.cls-22{stroke:#898989;}.cls-23{stroke:#ffd8c3;}.cls-24{stroke:#f5c3b4;}.cls-25{stroke:#ce0080;}.cls-26{stroke:#f18d00;}.cls-27{stroke:#eb6ea5;}.cls-28{stroke:#00a0e9;}.cls-29{stroke:#00a67b;}.cls-30{stroke:#fbc93e;}.cls-31{stroke:#70b483;}.cls-32{stroke:#b7cc71;}.cls-33{stroke:#f19ec2;}.cls-34{stroke:#ddde33;}.cls-35{stroke:#7ecef4;}.cls-36{stroke:#8ee1d6;}.cls-37{stroke:#c3dc68;}.cls-38{stroke:#e0bcd2;}.cls-39{stroke:#e8947c;}.cls-40{stroke:#73d5cf;}.cls-41{stroke:#fce891;}.cls-42{stroke:#9bdce5;}.cls-43{stroke:#00b1c7;}.cls-44{stroke:#b7bae9;}.cls-45{stroke:#f9aaca;}.cls-46{stroke:#c4eaef;}.cls-47{fill:#fff;}.cls-48{stroke:#fff;stroke-width:1.97px;}</style><linearGradient id="linear-gradient" x1="661.97" y1="2402.78" x2="1463.63" y2="2402.78" gradientTransform="translate(-426.67 -1543.74) scale(0.89 0.81)" gradientUnits="userSpaceOnUse"><stop offset="0" stop-color="#ffd089"/><stop offset="1" stop-color="#ff6352"/></linearGradient><clipPath id="clip-path"><path class="cls-1" d="M187.82,187.68H820.46a51.89,51.89,0,0,1,51.89,51.89V600.4a27,27,0,0,1-27,27H187.82a27,27,0,0,1-27-27V214.65a27,27,0,0,1,27-27Z" transform="translate(570.05 -248.3) rotate(56.39)"/></clipPath><clipPath id="clip-path-2"><rect class="cls-1" y="18.42" width="1020.7" height="1017.44"/></clipPath></defs><title>top_bg_art</title><g id="Layer_2" data-name="Layer 2"><g id="section1header"><g id="header_bg"><path class="cls-2" d="M187.82,187.68H820.46a51.89,51.89,0,0,1,51.89,51.89V600.4a27,27,0,0,1-27,27H187.82a27,27,0,0,1-27-27V214.65a27,27,0,0,1,27-27Z" transform="translate(570.05 -248.3) rotate(56.39)"/><g class="cls-3"><g class="cls-4"><polygon class="cls-5" points="1019.72 1034.88 5.72 1034.88 5.72 24.14 1019.72 24.14 1019.72 1034.88 1019.72 1034.88"/><path class="cls-6" d="M899.49,720.89l-30.59-30.5,22.38-22.45,30.59,30.5-22.38,22.45ZM833.3,655.22,818.24,670c-.37-.35-14.58-13.81-32.52-30.84l92.87-92.88c13.62,12.55,26.94,24.8,33.25,30.59l-56.1,56,28.57,28.49-22.39,22.45L833.3,655.22ZM816.23,834.88l-19.41-19.36-22.07,22.13L765,828l60.11-60.29,9.71,9.69,19.41,19.36-38,38.15Zm-67-24.46L775,784.57l25-44.14L819,759.82,758.92,820.1l-9.72-9.68Zm-43.35-43.08c-10.74-10.74-14.46-15.23-14.46-30.25v-3.63L775.86,649c17,16.1,30.63,29,32.66,31L775.19,713.2l9.15,9.78-44.88,78-33.61-33.6Zm16.53-92.64c8.54-8.54,12.15-15.68,11.72-23.17-.34-5.83-3.28-10.91-6.93-15.34l17.46-16.92,21.13,20.11-74.37,74.37v-7.69c5.22-5.33,19.72-20.08,31-31.36Zm-31-23.22v-81c3.22,1.13,6.53,3.37,10.57,7.63,2.88,3,16.23,15.88,32.57,31.48l-43.14,41.84Zm25.73-5.54c2,2.56,3,4.62,3.07,6.4.18,3.08-2.33,7.17-7.66,12.5-6.79,6.79-14.74,14.83-21.14,21.34V670.89l25.73-24.95ZM677.51,310.33C672.09,305,574.76,208.49,564.78,199.81c-1.41-1.23-2.83-2.42-4.23-3.6-8.54-7.18-13.78-11.9-13.78-18.07v-2.59h90.75c18.93,0,22.46,3.68,31.89,13.5,10.35,10.79,137.16,137.18,142.64,142.64,10.57,10.19,11.33,16.06,11.33,24.51V470.43c0,20.53,7.84,31.13,15.51,38.8,3.12,3.12,15.51,14.66,29.46,27.54l-92.73,92.75c-27.58-26.21-59.13-56.3-63.56-61-6.8-7.16-13.13-11-20.67-12.42v-209c0-12.47-1.68-25.55-13.88-36.76ZM921.71,567c-13.68-12.58-66.31-61-73-67.61-6.86-6.85-11.42-14.4-11.42-28.94V356.2c0-12.65-2.49-21.9-15.52-34.46-1.32-1.32-132.09-131.67-142.34-142.35-11.21-11.68-18.17-17.77-41.94-17.77H419.93c-12.49,0-20.73-1.9-31-12.2L267.68,24.12l-19.84.24L379,159.18c13.63,13.64,25.78,16.37,41,16.37h112.9v2.59c0,13,9.54,21,18.76,28.74,1.33,1.13,2.7,2.27,4,3.45,9.7,8.43,111.13,109,112.15,110l.21.2c7.91,7.22,9.46,15.2,9.46,26.56v390c0,20.56,6.7,28.26,18.54,40.11l33.62,33.62L915.3,997c-3.77,2.36-14.2,3.28-19.92,3.28H243.17c-27.31,0-40.72-9.73-50.23-19.24L5.59,793.72l-.12,19.5L183.09,990.87c16.13,16.13,34.65,23.32,60.08,23.32H895.38c13,0,23.41-.58,29.62-7.49l23.48,23.54H1015V473.9L921.71,567Z"/><g class="cls-7"><path class="cls-8" d="M899.49,720.89l-30.59-30.5,22.38-22.45,30.59,30.5-22.38,22.45ZM758.92,820.1l-9.72-9.68L775,784.57l25-44.14L819,759.82,758.92,820.1Zm95.35-23.37-19.41-19.36h0l-9.71-9.69L765,828l9.71,9.68,22.07-22.13,19.41,19.36,38-38.15ZM818.24,670c-.37-.35-14.58-13.81-32.52-30.84l92.87-92.88c13.62,12.55,26.94,24.8,33.25,30.59l-56.1,56,28.57,28.49-22.39,22.45L833.3,655.22,818.24,670Zm-78.78,131-33.61-33.6c-10.74-10.74-14.46-15.23-14.46-30.25v-3.63L775.86,649c17,16.1,30.63,29,32.66,31L775.19,713.2l9.15,9.78-44.88,78ZM722.38,674.7c8.54-8.54,12.15-15.68,11.72-23.17-.34-5.83-3.28-10.91-6.93-15.34l17.46-16.92,21.13,20.11-74.37,74.37v-7.69c5.22-5.33,19.72-20.08,31-31.36Zm-31-23.22v-81c3.22,1.13,6.53,3.37,10.57,7.63,2.88,3,16.23,15.88,32.57,31.48l-43.14,41.84Zm25.73-5.54c2,2.56,3,4.62,3.07,6.4.18,3.08-2.33,7.17-7.66,12.5-6.79,6.79-14.74,14.83-21.14,21.34V670.89l25.73-24.95ZM677.51,310.33C672.09,305,574.76,208.49,564.78,199.81c-1.41-1.23-2.83-2.42-4.23-3.6-8.54-7.18-13.78-11.9-13.78-18.07v-2.59h90.75c18.93,0,22.46,3.68,31.89,13.5,10.35,10.79,137.16,137.18,142.64,142.64,10.57,10.19,11.33,16.06,11.33,24.51V470.43c0,20.53,7.84,31.13,15.51,38.8,3.12,3.12,15.51,14.66,29.46,27.54l-92.73,92.75c-27.58-26.21-59.13-56.3-63.56-61-6.8-7.16-13.13-11-20.67-12.42v-209c0-12.47-1.68-25.55-13.88-36.76ZM921.71,567c-13.68-12.58-66.31-61-73-67.61-6.86-6.85-11.42-14.4-11.42-28.94V356.2c0-12.65-2.49-21.9-15.52-34.46-1.32-1.32-132.09-131.67-142.34-142.35-11.21-11.68-18.17-17.77-41.94-17.77H419.93c-12.49,0-20.73-1.9-31-12.2L267.68,24.12l-19.84.24L379,159.18c13.63,13.64,25.78,16.37,41,16.37h112.9v2.59c0,13,9.54,21,18.76,28.74,1.33,1.13,2.7,2.27,4,3.45,9.7,8.43,111.13,109,112.15,110l.21.2c7.91,7.22,9.46,15.2,9.46,26.56v390c0,20.56,6.7,28.26,18.54,40.11l33.62,33.62L915.3,997c-3.77,2.36-14.2,3.28-19.92,3.28H243.17c-27.31,0-40.72-9.73-50.23-19.24L5.59,793.72l-.12,19.5L183.09,990.87c16.13,16.13,34.65,23.32,60.08,23.32H895.38c13,0,23.41-.58,29.62-7.49l23.48,23.54H1015V473.9L921.71,567Z"/></g><path class="cls-9" d="M923.79,47.89s-.28,140.66-.28,145.58c0,7.22-4,10.33-13.15,10.33H589.75c-9.68,0-15.22,4.2-15.22,12.91V343s-.5,5.57,8.28,5.57M839.84,144c3.75,0,11.59.17,11.59,6.65V203.8"/><path class="cls-10" d="M730.21,316H753c10.59,0,13.72,5.29,13.72,22.14V421.4"/><g class="cls-7"><path class="cls-11" d="M72.37,462.36V586c0,10.85.52,16.38,9.38,25.24L199.27,728.77c6.67,6.68,14.49,9.7,28.25,9.7h60.07"/><path class="cls-12" d="M563.05,727.72c0,10.38,1.53,17.89,11,17.89H609.2c8.66,0,12.21,3.35,12.21,12.21v272"/><path class="cls-13" d="M11.34,24.65,141.63,154.94c6.66,6.65,12.37,12.5,30.7,12.5h50.23c13.81,0,19,.88,26.62,8.54l22.23,22.22c5.9,5.91,8.66,14.45,8.66,24.24V325.77"/><path class="cls-14" d="M84.06,282.85v32c0,5.78,1.12,10.91,10.16,10.91"/><path class="cls-15" d="M6.38,315.9H132.65c13.06,0,18.36-.73,26.53-8.91l50.48-50.48c3.33-3.33,6.74-5.46,10.13-6.34a13.48,13.48,0,0,1,2-.36"/><path class="cls-16" d="M6.38,320.64H132.65c13.06,0,20.22-.63,29.88-10.3L213,259.86c4.89-4.9,11-7.75,15.91-2.86"/><path class="cls-17" d="M577.42,830.34H538.18c-14.29,0-20,5.89-29.64,15.53l-32.47,32.48c-11.19,11.19-14.76,15.23-41.59,15.23H172.25c-13.08,0-22.85,2.34-31.81,11.31"/><path class="cls-18" d="M754.32,22.4S628.45,149.09,623.2,154.33s-8.52,9-8.52,14.26V302.44c0,6.46,2.94,8.48,8.48,8.48s14.52,1.33,14.52,14.53v77.18c0,6.74-3.38,9.13-9.13,9.13H612.27c-7.86,0-7.1,9.64-7.1,9.64"/><path class="cls-19" d="M594.5,334.44s.19-29.36,0-39.15c-1-48.83-45.8-67.22-70.92-67.22,0,0-12.06-.28-39.15-.28S447,210.11,447,187.8V24.46"/><path class="cls-20" d="M605.17,24.36V197.44c0,12.29,3.94,21.79,19.51,21.79h28.68c7.7,0,13.6.17,19.34,5.91s45.89,46.05,45.89,46.05c5.24,5.9,6.88,11,6.88,17.86v41.14c0,7.54-5.57,11.31-11.14,11.31H672.86c-5.48,0-6.87,3-6.87,6.88"/><path class="cls-21" d="M490.46,783.53,367.33,906.66c-23.6,23.6-12.51,45.52,11.83,45.52H573.62c5.66,0,10.82,2.21,10.82,9.34v5.41c0,10.81,1.06,19.13-19.14,19.13H240.75c-7.87,0-10.31.05-21.13-10.77"/><path class="cls-22" d="M599.44,23.87V437.22c0,9.67.83,13.12,14.42,27.86s34.09,38,34.09,38c6.39,6.39,7.7,14.92,7.7,23.6v37.37c0,11.8-1.47,20.32-18.19,20.32H530.93c-11.64,0-18.36,1.15-18.36,19.18v32.78c0,12-4.26,18.44-18.44,18.44H471.6c-9.67,0-16.56,5.65-23.11,12.21L308.11,807.37c-8.93,8.94-14.67,10.08-29.74,10.08H258.86"/><path class="cls-23" d="M5.72,462.8H273.41c14.8,0,27.25.67,27.25,12.11v113c0,14.8,4.71,21.19,19.84,21.19h48.1c15.48,0,23.75-5.91,32.22-14.39l30.85-30.85c8.32-8.32,12.15-10,12.15-20.06V440.93c0-10.09,6.38-14.8,15.53-14.8h108.4c9.4,0,12.43,4.38,12.43,10.1V548.9"/></g><path class="cls-24" d="M324.1,352.56c9.43,9.42,17.26,18.41,17.26,33.88V681.77c0,10.43-5.14,20.05-17.26,32.17"/><path class="cls-25" d="M261,527.69h4.74c5.41,0,9.18,3.11,9.18,9.17v15.08c0,7.22,4.59,12,15.25,12h64.41c9.5,0,16.06.49,24.09,8.68s90,89.49,90,89.49c8.36,8,13.6,10.16,23.92,10.16H658c20.63,0,37.69-13.63,37.69-32.61V415.75c0-19-17.06-32.62-37.69-32.62H492.57c-10.32,0-15.56,2.13-23.92,10.16,0,0-81.95,81.3-90,89.49s-14.59,8.69-24.09,8.69H290.17c-10.66,0-15.25,4.75-15.25,12v15.08c0,6.06-3.77,9.18-9.18,9.18H261M30.55,229.4,212.48,411.16c8.19,9,13,14.42,13,25.89v77c0,9.67,6.72,13.61,12.29,13.61H261"/><path class="cls-26" d="M673.06,348.56l-87.87-.09c-7.45-.12-9.6,5-9.6,10.49s0,89.39,0,89.39c-.44,7.74,2.58,16.06,9.46,23.08L604.35,490c5.45,5,9.71,8,9.71,22.18s.52,108.77.52,108.77c-.15,8.74-3.59,14.91-21.79,14.91H515c-11.32,0-18.42-.79-24.65-7s-29-29.81-29-29.81c-3.15-3-6.45-.86-8.6,1.29l-139,139c-2.59,2.58-5.93.18-6.91-.8"/><g class="cls-7"><path class="cls-27" d="M928.41,47.85s.73,128.77.73,143-5.78,17.81-18.78,17.81H798.58c-6.85,0-13.62,4.33-13.62,13.27v110c0,10.59-3.12,16.61-18.29,16.61H671c-11.31,0-11.19,8.32-11.19,13.49,0,19,.28,86.31.28,86.31.43,7.74-2.58,16.06-9.46,23.08l-20,17.82c-5.45,5-11.56,8.43-11.56,22.62,0,5.71-.56,6.16.8,97.23l.16,6.52c0,19.54-4.89,25.32-23.33,25.32H574.36c-10.08,0-11.31,7.13-11.31,13.77v73c0,9.1-2.7,17.09-17.09,17.09H504.54c-14,0-14.08,10.08-14.08,14.07V941.11"/><path class="cls-28" d="M209.5,46.52,413.88,250.91C426.41,263.44,426,275.62,426,287.09v54.74c0,14.18,10,21.47,16.07,27.53L539.78,467c8.68,8.69,12.78,9.84,12.78,34.42V703.71c0,13.77-4.91,18.36-18.36,18.36H493.41c-17.88,0-27.71,11.55-34.1,17.94s-296.82,291.33-296.82,291.33"/><path class="cls-29" d="M697.75,113.13v66.38c0,6.45-6.44,7.59-11.57,7.59H566.7c-7.78,0-18.78,1.71-18.78,14.79v390.7c0,9.86-5.31,15.74-14.79,15.74H491.59c-10,0-20.29,2.28-26.74,8.73l-52.63,52.63s-8.63,9.57-26.08,9.57H240.87c-9.11,0-17,2.11-23.89,9L4.37,900.84"/><path class="cls-30" d="M5.87,26.67,423.36,444.15c8.67,8.67,10.3,15.64,10.3,22.75v39.72c0,8.75-.82,12.23,8.74,21.79l26.38,26.38C475,561,481.68,569,491.9,569H650.49c11,0,16.07.91,22.57,7.41l87.68,87.68c4.11,4.11,11.13,5.1,15.06,1.17l69.88-69.88"/><path class="cls-14" d="M201.06,493.64c-6.09-.08-10.14,4.49-13.27,7.61L99.61,589.43"/><path class="cls-31" d="M476.51,24.26V341.75c0,11.06-2.21,17-8.85,23.6l-25.32,25.32c-9.22,9.22-13.76,17-13.76,26.06V535.47c-.74,7.38,3.52,15.16,8.6,18.44,4.18,2.7,6.88,4.67,18.44,7.38,7.42,1.73,20.65.73,20.65,21.63V696.74c0,11.31,1.1,17.34-9.84,28.28s-310.5,306.32-310.5,306.32"/><path class="cls-32" d="M911.49,349.37v18c0,9.83-4.1,15.89-10.81,22.62,0,0-47.7,48.34-56.22,56.87s-19.34,9-31,9H493.56c-14.92,0-19.68,4.31-28.66,13.28L424.68,509.4c-9.81,9.81-9.95,13.32-34.33,13.32H309.9c-16.82,0-18.78,4.48-28.31,14L119,699.31c-9,9-14.57,11.77-34.2,11.77H5.21"/><path class="cls-33" d="M436.44,24.12v169c0,8.11-.85,17.81-10,26.92l-45.35,45.35c-5.17,5.16-10,6.46-15.49,6.46-75,0-75,55.47-75,73.4V717.64c0,42.9,27.34,70.63,69.64,70.63H554c21.47,0,34.61,21.89,13.71,42.78L366.33,1032.48"/><path class="cls-34" d="M585,339.37V719c0,39-20,64.58-64.9,64.58H360.31c-42.78,0-64.9-28.36-64.9-65.89V345.27c0-26.55,4.92-69.49,75.06-68.67s143.41-.16,143.41-.16c48,0,71.13,25.56,71.13,62.93Z"/><path class="cls-35" d="M441.44,24.2V191.54c0,11,.66,21.47,11.8,32.61L491,261.93c6.64,6.64,11.88,9.77,23.11,9.77,47.38,0,75.62,25.39,75.62,67.67v690.49"/><line class="cls-36" x1="564.61" y1="826.9" x2="361.15" y2="1030.35"/><path class="cls-37" d="M849.57,599.6s-155,153.15-159,157.09-10.73,9.46-21.45,9.46h-16.4c-9.15,0-11.75,7.89-11.75,17.66v27.37c0,9.7-4.34,19.16-19.17,19.16H576.57c-10.57,0-16.87-6.78-16.87-16.87v-6.94c0-10.1-3.79-13.53-14.83-13.53H360.31c-45.18,0-74.38-29.58-74.38-75.36V345.27l.14-46.87c0-44.91,38.19-65.4,67.85-65.4h33.93c16.06,0,29.91-12.07,35.4-16.88,6.26-5.48,8.27-13.32,8.27-22.17V177.23c0-13.35-3.52-16.57-13.82-26.87S290.37,23,290.37,23"/><path class="cls-38" d="M598.65,548.51h97c9.62,0,16-1.16,25.19,8l71,71.05c4.67,4.67,10,4.55,14.51,0S1015,419.19,1015,419.19"/><path class="cls-39" d="M5.72,33.79l309,309c10.76,10.76,15.54,14,15.54,31.21s.34,316.52.34,316.52c0,11.1-1,18.16-8.75,25.9l-48.77,48.77c-7.24,7.23-13.79,11.1-13.79,32.63V903.43c0,13.12,1.73,17.08-18.78,37.6s-91.72,90.73-91.72,90.73"/><path class="cls-40" d="M953.9,24.52V327.58c0,15.17-6.42,22.23-20.21,22.23H893c-11.58,0-16.87,0-28.1,11.23l-52.3,52.3c-12.25,12.25-20.21,12.79-35.64,12.79h-99.9c-10.09,0-17.66,3.87-29.6,15.81l-39.69,39.69c-8.92,8.92-8.51,13.79-8.51,30.28V787.72c0,16.82-7.3,26.58-22.44,41.71l-201,201"/><path class="cls-41" d="M5.72,458.06H273.41c12.74,0,32,0,32,16.85v113c0,12.92,3.25,16.46,15.1,16.46h48.1c13.34,0,20.44-4.57,28.87-13l30.85-30.85c1.38-1.38,2.64-2.58,3.78-3.67,5.5-5.25,7-6.66,7-13V440.93c0-12.05,7.77-19.53,20.27-19.53H777c14.8,0,21.19-.31,32.29-11.41l52.3-52.3c12.45-12.45,19-12.62,31.45-12.62h40.7c10.43,0,15.48-4,15.48-17.49V188"/><path class="cls-42" d="M789.47,531s9.34-4.73,17.95-4.73h18.35c8.78,0,12.79,0,19.6-6.81l99.24-99.24c7.58-7.58,9.43-11.33,9.43-19.1V362.64c0-8.6,2.2-18.43,4.74-21.88"/><path class="cls-43" d="M31.37,453.28h162.1c8.85,0,11.06.08,16.55-5.41s7.87-8.36,22.45-8.36h222.9c8.85,0,14.1,3.44,20.16,9.51l74.08,74.08c3.94,3.93,11.15,7.86,22.95,7.86H825.77c9.68,0,15-.24,23-8.19L948,423.53c8.28-8.28,10.82-13.11,10.82-22.45V24.18"/><path class="cls-44" d="M609.91,24.36V197.44c0,12.43,4,17.06,14.77,17.06h28.68c7.57,0,15.4,0,22.69,7.29,5.74,5.73,45.89,46.06,45.89,46.06l.19.19c5.74,6.46,8.08,12.55,8.08,21V498.84c0,12.29-4.58,17.94-18,17.94H560.84c-17.66,0-25.4-13.62-25.4-25.39V475.58c0-8.41-4-13.79-14.8-13.79H494.07c-11.1,0-15.47,5-15.47,16.82v74.33c0,9.08-3,16.82-10.1,23.88L12.85,1032.48"/><path class="cls-45" d="M834.46,24.2s.33,124.56.33,131.94-3.28,12-12.78,12H632.71c-9.51,0-13.11,3.77-13.11,11.64v75.55c0,5.74-4.26,10.82-10.33,10.82h-21.8c-4.42,0-8,2.62-8,8v11.8c.17,5.08,1.8,8.2,4.75,12.62s10.33,19.82,10.33,37.53V1030"/><path class="cls-12" d="M621.41,949c0,10.41,2.26,19.38,15.1,19.38H800c12.14,0,15.15-6.82,15.15-15.15V914.89"/><path class="cls-46" d="M280.47,537.29v67.83c0,7.57-.7,12.76-8.13,20.19L5.21,892.44"/><path class="cls-25" d="M274.92,550.78v31.07c0,7.6-2.68,13.48-12.18,14.21H242.33c-9.59,0-15.33,2.58-19.39,6.65s-33,32.56-33,32.56l-67.12,67.12c-8.35,8.34-14.6,13.77-31.7,13.77H5.63"/><path class="cls-29" d="M839.84,24.36V170.12c0,12.51-6.8,17-17,17h-139"/></g><path class="cls-9" d="M862.68,203.89c9.48,0,15.37,5.89,15.37,15.38V328c0,7,9.15,7.19,10.19,7.19h46.7c4.33,0,4.8-1.54,4.8-4.81V47.85"/><path class="cls-27" d="M862.68,208.63c7.33,0,10.64,4.29,10.64,10.64V328c0,8.35,7.76,11.93,14.92,11.93h46.7c9.2,0,9.54-6.65,9.54-9.55V47.85"/><path class="cls-9" d="M881.25,127.79h42.38c11.31,0,16.11.34,16.11,14.49"/><path class="cls-27" d="M881.25,123h47.89c10.6,0,15.34,6.48,15.34,19.26"/><g class="cls-7"><path class="cls-40" d="M919.43,247.77v33.57c0,9,5.79,10.74,10.73,10.74h14.32c6.31,0,9.42,1.54,9.42,6.65"/><path class="cls-14" d="M5.87,328.86H346.38c15.24,0,19.26,2.71,25.73,9.18,0,0,41.55,37.45,48.68,44.58s12.95,10.65,23.6,10.65H499.3c6.72,0,12.94-1.15,20.24,6.15l23,23c8.36,8.36,14.75,12.79,14.75,26.72v87.36c0,10.16,3.3,15,14.42,15H597.3c10.73,0,11.9,8.39,11.9,11.71v30.45c0,8.19-3.49,13.25-12.66,13.25h-106c-7.41,0-12.09-1.56-20.48-10l-50.2-50.2c-6.77-6.77-15.74-6.38-27.25-6.38H310.9c-11.51,0-16.25-.73-26.34-11.12s-16-16.95-21.57-22.58c-5.3-5.41-6.52-10-29.55-10H112.1c-7.61,0-10.15-3.9-10.15-10.14v-22"/></g><path class="cls-47" d="M1015,1030.14H5.72V24.15H1015v1006ZM1,19.41V1034.88H1019.72V19.41Z"/><g class="cls-7"><path class="cls-48" d="M1015,1030.14H5.72V24.15H1015v1006ZM1,19.41V1034.88H1019.72V19.41Z"/></g></g></g></g></g></g></svg>