<?xml version="1.0" encoding="UTF-8"?>
<svg width="24px" height="24px" viewBox="0 0 24 24" version="1.1" xmlns="http://www.w3.org/2000/svg" xmlns:xlink="http://www.w3.org/1999/xlink">
    <!-- Generator: Sketch 55.1 (78136) - https://sketchapp.com -->
    <title>10_Freezing Rain</title>
    <desc>Created with Sketch.</desc>
    <g id="10_Freezing-Rain" stroke="none" stroke-width="1" fill="none" fill-rule="evenodd">
        <g>
            <g id="Group-18" transform="translate(2.000000, 4.000000)">
                <g id="022-cloud" transform="translate(0.000000, 1.142857)" fill-rule="nonzero">
                    <path d="M15.85832,11.3968012 L3.55344472,11.3968012 C1.83794919,11.3973562 0.372510872,10.1934601 0.0859750423,8.54819109 C-0.200560751,6.90292207 0.775635175,5.2968924 2.39571413,4.74782003 C2.56551844,2.54485157 4.16642824,0.695176252 6.36902035,0.156679053 C8.57175555,-0.381679044 10.8814946,0.512059369 12.1018826,2.37509276 C12.3725395,2.31066792 12.6500629,2.2778293 12.9285878,2.27769016 C14.8695354,2.27963823 16.4424067,3.80955471 16.4442664,5.69735621 L16.4442664,5.75440632 C17.9194324,6.04564007 18.9275292,7.3768553 18.7761788,8.83344157 C18.6249714,10.290167 17.3635271,11.3983302 15.85832,11.3968012 Z" id="Path" fill="#F2ECDA"></path>
                    <path d="M15.85832,8.54707791 L3.55344472,8.54707791 C2.18313686,8.54554733 0.938572891,7.76966607 0.364786011,6.55909089 C-0.141193646,7.61549163 -0.0557908171,8.85027829 0.590810236,9.83126161 C1.23741129,10.812384 2.35537307,11.4030612 3.55344472,11.3967996 L15.85832,11.3967996 C16.9079023,11.3980519 17.8776608,10.8525974 18.4000916,9.9672078 C18.9225223,9.08181818 18.9173724,7.9921614 18.3867876,7.11136365 C17.8693637,7.99605751 16.9047551,8.5437384 15.85832,8.54707791 L15.85832,8.54707791 Z" id="Path" fill="#EAE2CC"></path>
                    <g id="Group" transform="translate(5.896086, 9.083488)" fill="#1998F1">
                        <polygon id="Path" points="0.00114442664 0.0335343139 1.17303731 0.0335343139 1.17303731 4.59308904 0.00114442664 4.59308904"></polygon>
                        <polygon id="Path" points="2.34493019 0.0335343139 3.51682307 0.0335343139 3.51682307 2.31331168 2.34493019 2.31331168"></polygon>
                        <polygon id="Path" points="2.34493019 3.45320036 3.51682307 3.45320036 3.51682307 4.59308904 2.34493019 4.59308904"></polygon>
                        <polygon id="Path" points="4.68871595 0.0335343139 5.86060883 0.0335343139 5.86060883 4.59308904 4.68871595 4.59308904"></polygon>
                    </g>
                </g>
                <g id="Group-14-Copy-3" transform="translate(12.941176, 0.000000)">
                    <g id="Group-13">
                        <path d="M7.05882353,12.4271845 C7.05882353,14.400396 5.47865206,16 3.52941176,16 C1.58017147,16 0,14.400396 0,12.4271845 C0,11.1607259 0.657122302,10.0168249 1.68797954,9.3784815 L1.68797954,1.78640777 C1.68797954,0.799802 2.47806528,0 3.45268542,0 C4.42730557,0 5.2173913,0.799802 5.2173913,1.78640777 L5.2173913,9.28860013 C6.33219225,9.90318774 7.05882353,11.0952246 7.05882353,12.4271845 Z M3.68286445,1.78640777 C3.68286445,1.65772006 3.57980979,1.55339806 3.45268542,1.55339806 C3.32556106,1.55339806 3.22250639,1.65772006 3.22250639,1.78640777 L3.22250639,10.3653985 L2.75385697,10.5658405 C2.02088224,10.8793349 1.53452685,11.6077892 1.53452685,12.4271845 C1.53452685,13.5424779 2.42766725,14.4466019 3.52941176,14.4466019 C4.63115628,14.4466019 5.52429668,13.5424779 5.52429668,12.4271845 C5.52429668,11.564389 4.98482389,10.8052711 4.19444035,10.5224751 L3.68286445,10.3394354 L3.68286445,1.78640777 Z" id="Combined-Shape" fill="#F2ECDA" fill-rule="nonzero"></path>
                        <g id="Group-12" transform="translate(0.767263, 0.776699)">
                            <path d="M2.68542199,0 C3.23629425,-1.01193592e-16 3.68286445,0.446570198 3.68286445,0.997442455 L3.68286445,10.2524272 L1.68797954,10.2524272 L1.68797954,0.997442455 C1.68797954,0.446570198 2.13454974,1.01193592e-16 2.68542199,0 Z" id="Rectangle-Copy-12" fill="#1998F1"></path>
                            <rect id="Rectangle" fill="#1998F1" x="1.68797954" y="7.9223301" width="1.99488491" height="2.01941748"></rect>
                            <ellipse id="Oval" fill="#92C5FF" cx="2.76214834" cy="11.6504854" rx="2.76214834" ry="2.7961165"></ellipse>
                            <path d="M1.68797954,14.2272903 C2.6798798,13.8030531 3.37595908,12.809058 3.37595908,11.6504854 C3.37595908,10.4919129 2.6798798,9.49791775 1.68797954,9.07368055 C2.01817559,8.93245521 2.38115373,8.85436893 2.76214834,8.85436893 C4.28764074,8.85436893 5.52429668,10.1062329 5.52429668,11.6504854 C5.52429668,13.1947379 4.28764074,14.4466019 2.76214834,14.4466019 C2.38115373,14.4466019 2.01817559,14.3685157 1.68797954,14.2272903 Z" id="Combined-Shape" fill="#1998F1"></path>
                        </g>
                    </g>
                    <rect id="Rectangle" fill="#1998F1" x="3.52941176" y="6.83495146" width="2.76214834" height="1"></rect>
                    <rect id="Rectangle-Copy-13" fill="#1998F1" x="3.52941176" y="3.57281553" width="1.68797954" height="1"></rect>
                </g>
            </g>
            <rect id="Rectangle-Copy-3" x="0" y="0" width="24" height="24"></rect>
        </g>
    </g>
</svg>