<?xml version="1.0" encoding="UTF-8"?>
<svg width="24px" height="24px" viewBox="0 0 24 24" version="1.1" xmlns="http://www.w3.org/2000/svg" xmlns:xlink="http://www.w3.org/1999/xlink">
    <!-- Generator: Sketch 55.1 (78136) - https://sketchapp.com -->
    <title>11_Showers</title>
    <desc>Created with Sketch.</desc>
    <g id="11_Showers" stroke="none" stroke-width="1" fill="none" fill-rule="evenodd">
        <g>
            <rect id="Rectangle-Copy-5" x="0" y="0" width="24" height="24"></rect>
            <g id="031-cloud" transform="translate(2.000000, 4.000000)" fill-rule="nonzero">
                <path d="M16.849465,12.4652513 L3.77553502,12.4652513 C1.95282101,12.4658584 0.395792802,11.149097 0.0913484825,9.349584 C-0.213095798,7.55007101 0.824112374,5.79347606 2.54544626,5.19292816 C2.72586335,2.7834314 4.42683,0.760349026 6.76708412,0.171367714 C9.10749027,-0.417461455 11.561588,0.560064935 12.8582502,2.5977577 C13.1458232,2.52729304 13.4406919,2.49137579 13.7366245,2.49122361 C15.7988813,2.49335431 17.4700572,4.16670047 17.4720331,6.23148335 L17.4720331,6.29388191 C19.0393969,6.61241883 20.1104998,8.06843548 19.9496899,9.66157671 C19.7890321,11.2548701 18.4487475,12.4669237 16.849465,12.4652513 Z" id="Path" fill="#F2ECDA"></path>
                <path d="M16.849465,9.34836647 L3.77553502,9.34836647 C2.31958292,9.34669239 0.997233696,8.49807226 0.387585136,7.17400566 C-0.150018249,8.32944397 -0.0592777432,9.67999188 0.627735875,10.7529424 C1.31474949,11.826045 2.50258389,12.4720982 3.77553502,12.4652496 L16.849465,12.4652496 C17.9646461,12.4666193 18.9950146,11.8700284 19.5500973,10.9016335 C20.10518,9.93323864 20.0997082,8.74142653 19.5359618,7.77805399 C18.9861989,8.7456879 17.9613023,9.34471387 16.849465,9.34836647 L16.849465,9.34836647 Z" id="Path" fill="#EAE2CC"></path>
                <g id="Group" transform="translate(5.058366, 10.636364)" fill="#1998F1">
                    <polygon id="Path" points="0.0285749027 3.76491475 1.8961272 0.024655013 3.0097884 0.582284883 1.14223615 4.32239244"></polygon>
                    <polygon id="Path" points="7.49908802 3.76476257 9.36664031 0.024655013 10.4804535 0.582132701 8.61274926 4.32239244"></polygon>
                    <path d="M5.07432514,3.92715097 L3.96051191,3.37043423 L4.51711455,2.25471795 L5.63092778,2.81189123 L5.07432514,3.92715097 Z M6.18798638,1.69739244 L5.07432514,1.14311081 L5.63092778,0.0273944805 L6.74838887,0.582132701 L6.18798638,1.69739244 Z" id="Shape"></path>
                </g>
            </g>
        </g>
    </g>
</svg>