<?xml version="1.0" encoding="UTF-8"?>
<svg width="24px" height="24px" viewBox="0 0 24 24" version="1.1" xmlns="http://www.w3.org/2000/svg" xmlns:xlink="http://www.w3.org/1999/xlink">
    <!-- Generator: Sketch 55.1 (78136) - https://sketchapp.com -->
    <title>13_Snow Flurries</title>
    <desc>Created with Sketch.</desc>
    <g id="13_Snow-Flurries" stroke="none" stroke-width="1" fill="none" fill-rule="evenodd">
        <g>
            <rect id="Rectangle-Copy-4" x="0" y="0" width="24" height="24"></rect>
            <g id="024-cloud" transform="translate(2.000000, 4.000000)" fill-rule="nonzero">
                <path d="M16.849465,12.1189943 L3.77553502,12.1189943 C1.95282101,12.1195845 0.395792802,10.8393998 0.0913484825,9.08987333 C-0.213095798,7.34034682 0.824112374,5.63254617 2.54544626,5.04868015 C2.72586335,2.70611386 4.42683,0.73922822 6.76708412,0.1666075 C9.10749027,-0.405865303 11.561588,0.544507576 12.8582502,2.52559777 C13.1458232,2.45709045 13.4406919,2.42217091 13.7366245,2.42202295 C15.7988813,2.42409447 17.4700572,4.05095879 17.4720331,6.05838659 L17.4720331,6.11905186 C19.0393969,6.42874053 20.1104998,7.84431227 19.9496899,9.39319958 C19.7890321,10.9422348 18.4487475,12.1206203 16.849465,12.1189943 Z" id="Path" fill="#F2ECDA"></path>
                <path d="M16.849465,9.08868962 L3.77553502,9.08868962 C2.31958292,9.08706205 0.997233696,8.2620147 0.387585136,6.97472773 C-0.150018249,8.09807053 -0.0592777432,9.41110322 0.627735875,10.4542495 C1.31474949,11.4975438 2.50258389,12.1256511 3.77553502,12.1189927 L16.849465,12.1189927 C17.9646461,12.1203243 18.9950146,11.5403054 19.5500973,10.5988104 C20.10518,9.65731534 20.0997082,8.49860913 19.5359618,7.56199693 C18.9861989,8.50275212 17.9613023,9.08513848 16.849465,9.08868962 L16.849465,9.08868962 Z" id="Path" fill="#EAE2CC"></path>
                <polygon id="Path" fill="#1998F1" points="7 11.3675015 6.57839943 10.9459086 5.82212474 11.7018055 5.29816355 11.7018055 5.29816355 11.1775626 6.05443824 10.4216657 5.63276487 10 4.9999636 10.6324985 4.36723513 10 3.94556176 10.4216657 4.70176365 11.1775626 4.70176365 11.7018055 4.17787526 11.7018055 3.42160057 10.9459086 3 11.3675015 3.63243726 12 3 12.6324985 3.42160057 13.0540914 4.17787526 12.2981945 4.70176365 12.2981945 4.70176365 12.8224374 3.94556176 13.5783343 4.36723513 14 4.9999636 13.3675015 5.63276487 14 6.05443824 13.5783343 5.29816355 12.8224374 5.29816355 12.2981945 5.82212474 12.2981945 6.57839943 13.0540914 7 12.6324985 6.36756274 12"></polygon>
                <polygon id="Path-Copy-5" fill="#1998F1" points="17 8.36750146 16.5783994 7.94590856 15.8221247 8.70180547 15.2981636 8.70180547 15.2981636 8.17756261 16.0544382 7.4216657 15.6327649 7 14.9999636 7.63249854 14.3672351 7 13.9455618 7.4216657 14.7017636 8.17756261 14.7017636 8.70180547 14.1778753 8.70180547 13.4216006 7.94590856 13 8.36750146 13.6324373 9 13 9.63249854 13.4216006 10.0540914 14.1778753 9.29819453 14.7017636 9.29819453 14.7017636 9.82243739 13.9455618 10.5783343 14.3672351 11 14.9999636 10.3675015 15.6327649 11 16.0544382 10.5783343 15.2981636 9.82243739 15.2981636 9.29819453 15.8221247 9.29819453 16.5783994 10.0540914 17 9.63249854 16.3675627 9"></polygon>
                <polygon id="Path-Copy-6" fill="#1998F1" points="12 14.3675015 11.5783994 13.9459086 10.8221247 14.7018055 10.2981636 14.7018055 10.2981636 14.1775626 11.0544382 13.4216657 10.6327649 13 9.9999636 13.6324985 9.36723513 13 8.94556176 13.4216657 9.70176365 14.1775626 9.70176365 14.7018055 9.17787526 14.7018055 8.42160057 13.9459086 8 14.3675015 8.63243726 15 8 15.6324985 8.42160057 16.0540914 9.17787526 15.2981945 9.70176365 15.2981945 9.70176365 15.8224374 8.94556176 16.5783343 9.36723513 17 9.9999636 16.3675015 10.6327649 17 11.0544382 16.5783343 10.2981636 15.8224374 10.2981636 15.2981945 10.8221247 15.2981945 11.5783994 16.0540914 12 15.6324985 11.3675627 15"></polygon>
            </g>
        </g>
    </g>
</svg>