<?xml version="1.0" encoding="UTF-8"?>
<svg width="24px" height="24px" viewBox="0 0 24 24" version="1.1" xmlns="http://www.w3.org/2000/svg" xmlns:xlink="http://www.w3.org/1999/xlink">
    <!-- Generator: Sketch 55.1 (78136) - https://sketchapp.com -->
    <title>15_Blowing Snow</title>
    <desc>Created with Sketch.</desc>
    <g id="15_Blowing-Snow" stroke="none" stroke-width="1" fill="none" fill-rule="evenodd">
        <g>
            <rect id="Rectangle-Copy-5" x="0" y="0" width="24" height="24"></rect>
            <g id="Group-3" transform="translate(2.000000, 4.000000)" fill-rule="nonzero">
                <g id="24_Windy">
                    <g id="Group" transform="translate(0.625000, 10.153846)" fill="#1998F1">
                        <polygon id="Path" points="0.625 0.923076923 1.875 0.923076923 1.875 2.15384615 0.625 2.15384615"></polygon>
                        <polygon id="Path" points="3.125 0.923076923 4.375 0.923076923 4.375 2.15384615 3.125 2.15384615"></polygon>
                    </g>
                    <path d="M13.4375,7.38461538 L9.625,7.38461538 L9.625,6.15384615 L13.4375,6.15384615 C14.6456909,6.15384615 15.625,5.18960338 15.625,4 C15.625,2.81039662 14.6456909,1.84615385 13.4375,1.84615385 L12.5,1.84615385 L12.5,0.615384615 L13.4375,0.615384615 C15.3359985,0.615384615 16.875,2.13070915 16.875,4 C16.875,5.86929085 15.3359985,7.38461538 13.4375,7.38461538 Z" id="Path" fill="#92C5FF"></path>
                    <path d="M16.25,16 L15,16 L15,14.7692308 L16.25,14.7692308 C17.6307678,14.7692308 18.75,13.6672175 18.75,12.3076923 C18.75,10.9481671 17.6307678,9.84615385 16.25,9.84615385 L0,9.84615385 L0,8.61538462 L16.25,8.61538462 C18.3210754,8.61538462 20,10.2684796 20,12.3076923 C20,14.346905 18.3210754,16 16.25,16 Z" id="Path" fill="#92C5FF"></path>
                    <polygon id="Path" fill="#92C5FF" points="6.25 11.0769231 13.75 11.0769231 13.75 12.3076923 6.25 12.3076923"></polygon>
                </g>
                <polygon id="Path" fill="#92C5FF" points="8.35101533 2.77935606 7.47081712 1.92249644 5.89190175 3.45880682 4.79799977 3.45880682 4.79799977 2.39331795 6.37691514 0.857007576 5.49656494 -2.66453526e-15 4.17543167 1.28551136 2.85445039 -2.66453526e-15 1.97410019 0.857007576 3.55286358 2.39331795 3.55286358 3.45880682 2.45911358 3.45880682 0.88019821 1.92249644 8.8817842e-16 2.77935606 1.32037331 4.06486742 8.8817842e-16 5.35037879 0.88019821 6.20723841 2.45911358 4.67092803 3.55286358 4.67092803 3.55286358 5.73641689 1.97410019 7.27272727 2.85445039 8.12973485 4.17543167 6.84422348 5.49656494 8.12973485 6.37691514 7.27272727 4.79799977 5.73641689 4.79799977 4.67092803 5.89190175 4.67092803 7.47081712 6.20723841 8.35101533 5.35037879 7.03064202 4.06486742"></polygon>
            </g>
        </g>
    </g>
</svg>