<?xml version="1.0" encoding="UTF-8"?>
<svg width="24px" height="24px" viewBox="0 0 24 24" version="1.1" xmlns="http://www.w3.org/2000/svg" xmlns:xlink="http://www.w3.org/1999/xlink">
    <!-- Generator: Sketch 55.1 (78136) - https://sketchapp.com -->
    <title>16_Snow</title>
    <desc>Created with Sketch.</desc>
    <g id="16_Snow" stroke="none" stroke-width="1" fill="none" fill-rule="evenodd">
        <g>
            <rect id="Rectangle-Copy-4" x="0" y="0" width="24" height="24"></rect>
            <g id="024-cloud" transform="translate(2.000000, 5.000000)" fill-rule="nonzero">
                <path d="M16.849465,12.1189943 L3.77553502,12.1189943 C1.95282101,12.1195845 0.395792802,10.8393998 0.0913484825,9.08987333 C-0.213095798,7.34034682 0.824112374,5.63254617 2.54544626,5.04868015 C2.72586335,2.70611386 4.42683,0.73922822 6.76708412,0.1666075 C9.10749027,-0.405865303 11.561588,0.544507576 12.8582502,2.52559777 C13.1458232,2.45709045 13.4406919,2.42217091 13.7366245,2.42202295 C15.7988813,2.42409447 17.4700572,4.05095879 17.4720331,6.05838659 L17.4720331,6.11905186 C19.0393969,6.42874053 20.1104998,7.84431227 19.9496899,9.39319958 C19.7890321,10.9422348 18.4487475,12.1206203 16.849465,12.1189943 Z" id="Path" fill="#F2ECDA"></path>
                <path d="M16.849465,9.08868962 L3.77553502,9.08868962 C2.31958292,9.08706205 0.997233696,8.2620147 0.387585136,6.97472773 C-0.150018249,8.09807053 -0.0592777432,9.41110322 0.627735875,10.4542495 C1.31474949,11.4975438 2.50258389,12.1256511 3.77553502,12.1189927 L16.849465,12.1189927 C17.9646461,12.1203243 18.9950146,11.5403054 19.5500973,10.5988104 C20.10518,9.65731534 20.0997082,8.49860913 19.5359618,7.56199693 C18.9861989,8.50275212 17.9613023,9.08513848 16.849465,9.08868962 L16.849465,9.08868962 Z" id="Path" fill="#EAE2CC"></path>
                <polygon id="Path" fill="#1998F1" points="14.1767996 9.62136008 13.2966014 8.76450045 11.717686 10.3008108 10.623784 10.3008108 10.623784 9.23532197 12.2026994 7.69901159 11.3223492 6.84200402 10.001216 8.12751538 8.68023467 6.84200402 7.79988447 7.69901159 9.37864786 9.23532197 9.37864786 10.3008108 8.28489786 10.3008108 6.70598249 8.76450045 5.82578428 9.62136008 7.14615759 10.9068714 5.82578428 12.1923828 6.70598249 13.0492424 8.28489786 11.512932 9.37864786 11.512932 9.37864786 12.5784209 7.79988447 14.1147313 8.68023467 14.9717389 10.001216 13.6862275 11.3223492 14.9717389 12.2026994 14.1147313 10.623784 12.5784209 10.623784 11.512932 11.717686 11.512932 13.2966014 13.0492424 14.1767996 12.1923828 12.8564263 10.9068714"></polygon>
            </g>
        </g>
    </g>
</svg>