<?xml version="1.0" encoding="UTF-8"?>
<svg width="24px" height="24px" viewBox="0 0 24 24" version="1.1" xmlns="http://www.w3.org/2000/svg" xmlns:xlink="http://www.w3.org/1999/xlink">
    <!-- Generator: Sketch 55.1 (78136) - https://sketchapp.com -->
    <title>17_Hail</title>
    <desc>Created with Sketch.</desc>
    <g id="17_Hail" stroke="none" stroke-width="1" fill="none" fill-rule="evenodd">
        <g id="9_Drizzle-Copy">
            <rect id="Rectangle-Copy-3" x="0" y="0" width="24" height="24"></rect>
            <g id="0_Drizzle" transform="translate(2.000000, 3.000000)">
                <path d="M16.849465,12.4652513 L3.77553502,12.4652513 C1.95282101,12.4658584 0.395792802,11.149097 0.0913484825,9.349584 C-0.213095798,7.55007101 0.824112374,5.79347606 2.54544626,5.19292816 C2.72586335,2.7834314 4.42683,0.760349026 6.76708412,0.171367714 C9.10749027,-0.417461455 11.561588,0.560064935 12.8582502,2.5977577 C13.1458232,2.52729304 13.4406919,2.49137579 13.7366245,2.49122361 C15.7988813,2.49335431 17.4700572,4.16670047 17.4720331,6.23148335 L17.4720331,6.29388191 C19.0393969,6.61241883 20.1104998,8.06843548 19.9496899,9.66157671 C19.7890321,11.2548701 18.4487475,12.4669237 16.849465,12.4652513 Z" id="Path" fill="#F2ECDA" fill-rule="nonzero"></path>
                <path d="M16.849465,9.34836647 L3.77553502,9.34836647 C2.31958292,9.34669239 0.997233696,8.49807226 0.387585136,7.17400566 C-0.150018249,8.32944397 -0.0592777432,9.67999188 0.627735875,10.7529424 C1.31474949,11.826045 2.50258389,12.4720982 3.77553502,12.4652496 L16.849465,12.4652496 C17.9646461,12.4666193 18.9950146,11.8700284 19.5500973,10.9016335 C20.10518,9.93323864 20.0997082,8.74142653 19.5359618,7.77805399 C18.9861989,8.7456879 17.9613023,9.34471387 16.849465,9.34836647 L16.849465,9.34836647 Z" id="Path" fill="#EAE2CC" fill-rule="nonzero"></path>
                <g id="Group" transform="translate(5.000000, 14.000000)" fill="#1998F1">
                    <g id="Group-8">
                        <circle id="Oval" cx="1" cy="1" r="1"></circle>
                        <circle id="Oval-Copy-3" cx="3" cy="3" r="1"></circle>
                        <circle id="Oval-Copy-4" cx="7" cy="3" r="1"></circle>
                        <circle id="Oval-Copy" cx="5" cy="1" r="1"></circle>
                        <circle id="Oval-Copy-2" cx="9" cy="1" r="1"></circle>
                    </g>
                </g>
            </g>
        </g>
    </g>
</svg>