<?xml version="1.0" encoding="UTF-8"?>
<svg width="24px" height="24px" viewBox="0 0 24 24" version="1.1" xmlns="http://www.w3.org/2000/svg" xmlns:xlink="http://www.w3.org/1999/xlink">
    <!-- Generator: Sketch 55.1 (78136) - https://sketchapp.com -->
    <title>1_Tropical Storm</title>
    <desc>Created with Sketch.</desc>
    <g id="1_Tropical-Storm" stroke="none" stroke-width="1" fill="none" fill-rule="evenodd">
        <g>
            <rect id="Rectangle-Copy" x="0" y="0" width="24" height="24"></rect>
            <g transform="translate(2.000000, 2.000000)" fill-rule="nonzero">
                <path d="M10.625,8.125 L9.375,8.125 L9.375,4.375 C9.37774656,1.95983887 11.3348389,0.00274658203 13.75,0 L13.75,1.25 C12.0249939,1.25213625 10.6271362,2.64999391 10.625,4.375 L10.625,8.125 Z" id="Path" fill="#92C5FF"></path>
                <path d="M6.25,20 L6.25,18.75 C7.97500609,18.7478638 9.37286375,17.3500061 9.375,15.625 L9.375,11.875 L10.625,11.875 L10.625,15.625 C10.6222534,18.0401611 8.66516113,19.9972534 6.25,20 Z" id="Path" fill="#92C5FF"></path>
                <path d="M20,13.75 L18.75,13.75 C18.7478638,12.0249939 17.3500061,10.6271362 15.625,10.625 L11.875,10.625 L11.875,9.375 L15.625,9.375 C18.0401611,9.37774656 19.9972534,11.3348389 20,13.75 Z" id="Path" fill="#92C5FF"></path>
                <path d="M8.125,10.625 L4.375,10.625 C1.95983887,10.6222534 0.00274658203,8.66516113 0,6.25 L1.25,6.25 C1.25213625,7.97500609 2.64999391,9.37286375 4.375,9.375 L8.125,9.375 L8.125,10.625 Z" id="Path" fill="#92C5FF"></path>
                <g id="Group" fill="#1998F1">
                    <path d="M14.5436433,19.9957643 L13.6350088,19.0872867 C14.2396147,18.4859751 14.578627,17.667859 14.5764307,16.8150728 C14.5764307,16.6748243 14.5673318,16.5345758 14.5494478,16.3954255 L15.8229794,16.2277234 C15.8490211,16.4224084 15.8618851,16.6186622 15.8615867,16.8150728 C15.8647088,18.0087538 15.3901544,19.1541165 14.5436433,19.9957643 L14.5436433,19.9957643 Z M14.2410266,15.3763492 C14.0858747,15.0676142 13.8824046,14.7855484 13.6383032,14.5409764 L14.5121109,13.5978288 C14.8679092,13.9476657 15.1642508,14.3533509 15.3892131,14.7987261 L14.2410266,15.3763492 Z M12.6987638,13.6015939 L11.7901293,12.6929594 L12.6987638,11.7844817 L13.6073984,12.6929594 L12.6987638,13.6015939 Z" id="Shape"></path>
                    <path d="M7.30704064,8.21551831 L6.40154369,7.30704064 L7.30704064,6.40154369 L8.21551831,7.31017823 L7.30704064,8.21551831 Z M5.49102659,6.40154369 C5.13522843,6.05123618 4.83888679,5.64523719 4.61392446,5.19939133 L5.76226783,4.62098394 C5.91741968,4.92987574 6.1208898,5.21178466 6.3649912,5.45635667 L5.49102659,6.40154369 Z M4.17639309,3.77227663 C3.99535643,2.38563631 4.46834213,0.993662169 5.45635667,0.00423570281 L6.3649912,0.912713333 C5.7603853,1.51402486 5.42137301,2.33214104 5.42356928,3.18492723 C5.42356928,3.3251757 5.43266819,3.46542418 5.45055221,3.60457454 L4.17639309,3.77227663 Z" id="Shape"></path>
                    <path d="M12.4661145,8.44299072 L11.5576368,7.53451305 L12.4661145,6.625251 L13.374749,7.53388554 L12.4661145,8.44299072 Z M14.2833835,6.62587851 L13.374749,5.71598896 L13.6350088,5.45902361 C13.8863265,5.2064508 14.1666667,4.98478289 14.4703815,4.79841241 L15.1405622,5.89263301 C14.9232869,6.02613578 14.7224837,6.18458209 14.5423883,6.3649912 L14.2833835,6.62587851 Z M19.0879141,6.3649912 C18.3116843,5.59613454 17.2006777,5.26982932 16.1320281,5.49683108 L15.8595319,4.24134036 C17.3555158,3.92146711 18.9117407,4.37845133 19.9971762,5.45635667 L19.0879141,6.3649912 Z" id="Shape"></path>
                    <path d="M3.18492723,15.8615867 C1.99093249,15.8647088 0.845412892,15.3901544 0.00360819277,14.5436433 L0.912085863,13.6350088 C1.68800201,14.4041792 2.79932229,14.7304844 3.86797189,14.5031689 L4.14046811,15.7586596 C3.82639936,15.8269014 3.50621237,15.8614144 3.18492723,15.8615867 Z M5.52648092,15.204882 L4.85943775,14.107367 C5.07671309,13.9738642 5.27751631,13.8154179 5.45761169,13.6350088 L5.718499,13.3741215 L6.62713353,14.284011 L6.37016819,14.5409764 C6.11634036,14.795118 5.83317647,15.0180409 5.52648092,15.204882 L5.52648092,15.204882 Z M7.53388554,13.3753765 L6.625251,12.4668988 L7.53388554,11.5576368 L8.44236321,12.4661145 L7.53388554,13.3753765 Z" id="Shape"></path>
                    <polygon id="Path" points="9.35742972 9.35742972 10.6425703 9.35742972 10.6425703 10.6425703 9.35742972 10.6425703"></polygon>
                </g>
            </g>
        </g>
    </g>
</svg>