<?xml version="1.0" encoding="UTF-8"?>
<svg width="24px" height="24px" viewBox="0 0 24 24" version="1.1" xmlns="http://www.w3.org/2000/svg" xmlns:xlink="http://www.w3.org/1999/xlink">
    <!-- Generator: Sketch 55.1 (78136) - https://sketchapp.com -->
    <title>21_Haze</title>
    <desc>Created with Sketch.</desc>
    <g id="21_Haze" stroke="none" stroke-width="1" fill="none" fill-rule="evenodd">
        <g>
            <rect id="Rectangle-Copy-6" fill-opacity="0" fill="#D8D8D8" x="0" y="0" width="24" height="24"></rect>
            <g id="Group-6" transform="translate(2.000000, 3.000000)" fill-rule="nonzero">
                <g id="32_Sunny">
                    <g id="Group" fill="#F7D260">
                        <polygon id="Path" points="9.375 0 10.625 0 10.625 2.5 9.375 2.5"></polygon>
                        <polygon id="Path" points="1.86218262 2.74612426 2.74612426 1.8623352 4.513855 3.63006594 3.63006594 4.51400758"></polygon>
                        <polygon id="Path" points="17.5 8.375 20 8.375 20 9.625 17.5 9.625"></polygon>
                        <polygon id="Path" points="0 8.375 2.5 8.375 2.5 9.625 0 9.625"></polygon>
                        <polygon id="Path" points="15.4867554 3.62991332 17.2544861 1.86218262 18.1384277 2.74597168 16.370697 4.513855"></polygon>
                    </g>
                    <path d="M3.75,10 C3.75,6.54815672 6.54815672,3.75 10,3.75 C13.4518433,3.75 16.25,6.54815672 16.25,10 L16.25,10" id="Path" fill="#FF6853"></path>
                </g>
                <g id="Group-4" transform="translate(0.500000, 12.000000)" fill="#CCDADE">
                    <polygon id="Path" points="5 0 16.25 0 16.25 1.25 5 1.25"></polygon>
                    <polygon id="Path" points="3.75 2.75 13.75 2.75 13.75 4 3.75 4"></polygon>
                    <polygon id="Path" points="2.5 0 3.75 0 3.75 1.25 2.5 1.25"></polygon>
                    <polygon id="Path" points="1.25 2.75 2.5 2.75 2.5 4 1.25 4"></polygon>
                    <polygon id="Path" points="15 2.75 16.25 2.75 16.25 4 15 4"></polygon>
                    <polygon id="Path" points="0 0 1.25 0 1.25 1.25 0 1.25"></polygon>
                    <polygon id="Path" points="17.5 0 18.75 0 18.75 1.25 17.5 1.25"></polygon>
                </g>
            </g>
        </g>
    </g>
</svg>