<?xml version="1.0" encoding="UTF-8"?>
<svg width="24px" height="24px" viewBox="0 0 24 24" version="1.1" xmlns="http://www.w3.org/2000/svg" xmlns:xlink="http://www.w3.org/1999/xlink">
    <!-- Generator: Sketch 55.1 (78136) - https://sketchapp.com -->
    <title>22_Smoky</title>
    <desc>Created with Sketch.</desc>
    <g id="22_Smoky" stroke="none" stroke-width="1" fill="none" fill-rule="evenodd">
        <g>
            <rect id="Rectangle-Copy-5" x="0" y="0" width="24" height="24"></rect>
            <g id="047-clouds" transform="translate(2.000000, 5.000000)" fill-rule="nonzero">
                <path d="M16.693823,9.19769892 L8.39509362,9.19769892 L8.39509362,3.08857551 L8.43370016,2.98325891 C9.07739541,1.25162338 10.6975012,0.0773133117 12.5413424,0.00593548052 C14.3850316,-0.0654423896 16.0910141,0.979961455 16.8663363,2.65650366 C18.6369163,2.74812296 20.0118556,4.2365564 19.9650413,6.01126216 C19.9182272,7.78596795 18.4668349,9.19967532 16.693823,9.19769892 L16.693823,9.19769892 Z" id="Path" fill="#CCDADE"></path>
                <path d="M16.849465,14.963932 L3.77553502,14.963932 C1.95282101,14.9645394 0.395792802,13.647778 0.0913484825,11.848265 C-0.213095798,10.048752 0.824112374,8.29200487 2.54544626,7.69160918 C2.72586335,5.28211243 4.42683,3.25887783 6.76708412,2.6700487 C9.10749027,2.08106735 11.561588,3.05859374 12.8582502,5.09643873 C13.1458232,5.02582184 13.4406919,4.99005682 13.7366245,4.98990464 C15.7988813,4.99188312 17.4700572,6.66522931 17.4720331,8.73016438 L17.4720331,8.79241071 C19.0393969,9.11109982 20.1104998,10.5669643 19.9496899,12.1602577 C19.7890321,13.7533989 18.4487475,14.9654525 16.849465,14.963932 Z" id="Path" fill="#F2ECDA"></path>
                <path d="M16.849465,11.8470475 L3.77553502,11.8470475 C2.31958292,11.8453734 0.997233696,10.9966011 0.387585136,9.67268669 C-0.150018249,10.8279728 -0.0592777432,12.1785207 0.627735875,13.2516234 C1.31474949,14.3245738 2.50258389,14.9707792 3.77553502,14.9639306 L16.849465,14.9639306 C17.9646461,14.9653003 18.9950146,14.3687094 19.5500973,13.4003145 C20.10518,12.4319197 20.0997082,11.2399554 19.5359618,10.276735 C18.9861989,11.2443689 17.9613023,11.8433949 16.849465,11.8470475 L16.849465,11.8470475 Z" id="Path" fill="#EAE2CC"></path>
            </g>
        </g>
    </g>
</svg>