<?xml version="1.0" encoding="UTF-8"?>
<svg width="24px" height="24px" viewBox="0 0 24 24" version="1.1" xmlns="http://www.w3.org/2000/svg" xmlns:xlink="http://www.w3.org/1999/xlink">
    <!-- Generator: Sketch 55.1 (78136) - https://sketchapp.com -->
    <title>23_Blustery</title>
    <desc>Created with Sketch.</desc>
    <g id="23_Blustery" stroke="none" stroke-width="1" fill="none" fill-rule="evenodd">
        <g>
            <rect id="Rectangle-Copy-5" x="0" y="0" width="24" height="24"></rect>
            <g id="Group-19" transform="translate(2.000000, 4.000000)" fill-rule="nonzero">
                <g id="099-wind-copy-3">
                    <g id="Group" transform="translate(0.625000, 6.153846)" fill="#1998F1">
                        <polygon id="Path" points="0.625 4.92307692 1.875 4.92307692 1.875 6.15384615 0.625 6.15384615"></polygon>
                        <polygon id="Path" points="3.125 4.92307692 4.375 4.92307692 4.375 6.15384615 3.125 6.15384615"></polygon>
                        <polygon id="Path" points="0 0 1.25 0 1.25 1.23076923 0 1.23076923"></polygon>
                        <polygon id="Path" points="2.5 0 3.75 0 3.75 1.23076923 2.5 1.23076923"></polygon>
                    </g>
                    <path d="M7.5,4.92307692 L0,4.92307692 L0,3.69230769 L7.5,3.69230769 C8.19030762,3.69230769 8.75,3.14122596 8.75,2.46153846 C8.75,1.78185096 8.19030762,1.23076923 7.5,1.23076923 L6.25,1.23076923 L6.25,0 L7.5,0 C8.88076781,0 10,1.10201323 10,2.46153846 C10,3.82106369 8.88076781,4.92307692 7.5,4.92307692 Z" id="Path" fill="#92C5FF"></path>
                    <path d="M13.4375,7.38461538 L5.625,7.38461538 L5.625,6.15384615 L13.4375,6.15384615 C14.6456909,6.15384615 15.625,5.18960338 15.625,4 C15.625,2.81039662 14.6456909,1.84615385 13.4375,1.84615385 L12.5,1.84615385 L12.5,0.615384615 L13.4375,0.615384615 C15.3359985,0.615384615 16.875,2.13070915 16.875,4 C16.875,5.86929085 15.3359985,7.38461538 13.4375,7.38461538 Z" id="Path" fill="#92C5FF"></path>
                    <path d="M16.25,16 L15,16 L15,14.7692308 L16.25,14.7692308 C17.6307678,14.7692308 18.75,13.6672175 18.75,12.3076923 C18.75,10.9481671 17.6307678,9.84615385 16.25,9.84615385 L0,9.84615385 L0,8.61538462 L16.25,8.61538462 C18.3210754,8.61538462 20,10.2684796 20,12.3076923 C20,14.346905 18.3210754,16 16.25,16 Z" id="Path" fill="#92C5FF"></path>
                    <polygon id="Path" fill="#92C5FF" points="6.25 11.0769231 13.75 11.0769231 13.75 12.3076923 6.25 12.3076923"></polygon>
                </g>
                <path d="M5.06172671,5 L1.12520134,5 C0.576387026,5.00019482 0.107569993,4.57759462 0.015902622,4.00006056 C-0.0757647371,3.42252649 0.236535871,2.8587665 0.754824905,2.6660272 C0.809148006,1.89272549 1.32130452,1.24343927 2.02594878,1.05441214 C2.73063882,0.865433841 3.46956109,1.17916027 3.85998262,1.83313554 C3.94657007,1.81052068 4.03535424,1.79899343 4.12445877,1.79894459 C4.74539878,1.79962841 5.24858536,2.33667061 5.2491803,2.99934016 L5.2491803,3.0193663 C5.72110936,3.12159725 6.04361557,3.58888991 5.99519616,4.10019121 C5.94682252,4.61154136 5.54326642,5.00053673 5.06172671,5 Z" id="Path" fill="#CCDADE"></path>
                <path d="M12.7489689,13 L7.50026846,13 C6.76851603,13.0002435 6.14342666,12.4719933 6.0212035,11.7500757 C5.89898035,11.0281581 6.31538116,10.3234581 7.00643321,10.082534 C7.07886401,9.11590687 7.76173936,8.30429909 8.70126504,8.06801518 C9.64085176,7.8317923 10.6260815,8.22395034 11.1466435,9.04141943 C11.2620934,9.01315085 11.3804723,8.99874179 11.4992784,8.99868074 C12.3271984,8.99953552 12.9981138,9.67083827 12.9989071,10.4991752 L12.9989071,10.5242079 C13.6281458,10.6519966 14.0581541,11.2361124 13.9935949,11.875239 C13.9290967,12.5144267 13.3910219,13.0006709 12.7489689,13 Z" id="Path-Copy-11" fill="#CCDADE"></path>
                <path d="M10.1234534,16 L2.25040268,16 C1.15277405,16.0003896 0.215139986,15.1551892 0.0318052441,14.0001211 C-0.151529474,12.845053 0.473071742,11.717533 1.50964981,11.3320544 C1.61829601,9.78545099 2.64260904,8.48687854 4.05189756,8.10882428 C5.46127764,7.73086768 6.93912218,8.35832055 7.71996524,9.66627109 C7.89314013,9.62104136 8.07070848,9.59798686 8.24891753,9.59788918 C9.49079756,9.59925683 10.4971707,10.6733412 10.4983606,11.9986803 L10.4983606,12.0387326 C11.4422187,12.2431945 12.0872311,13.1777798 11.9903923,14.2003824 C11.893645,15.2230827 11.0865328,16.0010735 10.1234534,16 Z" id="Path-Copy-10" fill="#F2ECDA"></path>
            </g>
        </g>
    </g>
</svg>