<?xml version="1.0" encoding="UTF-8"?>
<svg width="24px" height="24px" viewBox="0 0 24 24" version="1.1" xmlns="http://www.w3.org/2000/svg" xmlns:xlink="http://www.w3.org/1999/xlink">
    <!-- Generator: Sketch 55.1 (78136) - https://sketchapp.com -->
    <title>24_Windy</title>
    <desc>Created with Sketch.</desc>
    <g id="24_Windy" stroke="none" stroke-width="1" fill="none" fill-rule="evenodd">
        <g>
            <rect id="Rectangle-Copy-5" x="0" y="0" width="24" height="24"></rect>
            <g id="099-wind-copy-3" transform="translate(2.000000, 4.000000)" fill-rule="nonzero">
                <g id="Group" transform="translate(0.625000, 6.153846)" fill="#1998F1">
                    <polygon id="Path" points="0.625 4.92307692 1.875 4.92307692 1.875 6.15384615 0.625 6.15384615"></polygon>
                    <polygon id="Path" points="3.125 4.92307692 4.375 4.92307692 4.375 6.15384615 3.125 6.15384615"></polygon>
                    <polygon id="Path" points="0 0 1.25 0 1.25 1.23076923 0 1.23076923"></polygon>
                    <polygon id="Path" points="2.5 0 3.75 0 3.75 1.23076923 2.5 1.23076923"></polygon>
                </g>
                <path d="M7.5,4.92307692 L0,4.92307692 L0,3.69230769 L7.5,3.69230769 C8.19030762,3.69230769 8.75,3.14122596 8.75,2.46153846 C8.75,1.78185096 8.19030762,1.23076923 7.5,1.23076923 L6.25,1.23076923 L6.25,0 L7.5,0 C8.88076781,0 10,1.10201323 10,2.46153846 C10,3.82106369 8.88076781,4.92307692 7.5,4.92307692 Z" id="Path" fill="#92C5FF"></path>
                <path d="M13.4375,7.38461538 L5.625,7.38461538 L5.625,6.15384615 L13.4375,6.15384615 C14.6456909,6.15384615 15.625,5.18960338 15.625,4 C15.625,2.81039662 14.6456909,1.84615385 13.4375,1.84615385 L12.5,1.84615385 L12.5,0.615384615 L13.4375,0.615384615 C15.3359985,0.615384615 16.875,2.13070915 16.875,4 C16.875,5.86929085 15.3359985,7.38461538 13.4375,7.38461538 Z" id="Path" fill="#92C5FF"></path>
                <path d="M16.25,16 L15,16 L15,14.7692308 L16.25,14.7692308 C17.6307678,14.7692308 18.75,13.6672175 18.75,12.3076923 C18.75,10.9481671 17.6307678,9.84615385 16.25,9.84615385 L0,9.84615385 L0,8.61538462 L16.25,8.61538462 C18.3210754,8.61538462 20,10.2684796 20,12.3076923 C20,14.346905 18.3210754,16 16.25,16 Z" id="Path" fill="#92C5FF"></path>
                <polygon id="Path" fill="#92C5FF" points="6.25 11.0769231 13.75 11.0769231 13.75 12.3076923 6.25 12.3076923"></polygon>
            </g>
        </g>
    </g>
</svg>