<?xml version="1.0" encoding="UTF-8"?>
<svg width="24px" height="24px" viewBox="0 0 24 24" version="1.1" xmlns="http://www.w3.org/2000/svg" xmlns:xlink="http://www.w3.org/1999/xlink">
    <!-- Generator: Sketch 55.1 (78136) - https://sketchapp.com -->
    <title>25_Cold</title>
    <desc>Created with Sketch.</desc>
    <g id="25_Cold" stroke="none" stroke-width="1" fill="none" fill-rule="evenodd">
        <g>
            <rect id="Rectangle-Copy-6" x="0" y="0" width="24" height="24"></rect>
            <g id="Group-16" transform="translate(2.000000, 2.000000)">
                <g id="080-snowflake" fill-rule="nonzero">
                    <polygon id="Path" fill="#7CB7F2" points="7.22688754 0 8.32331437 0 8.32331437 5.55555556 7.22688754 5.55555556"></polygon>
                    <polygon id="Path" fill="#7CB7F2" points="7.22688754 12.2222222 8.32331437 12.2222222 8.32331437 17.7777778 7.22688754 17.7777778"></polygon>
                    <polygon id="Path" fill="#7CB7F2" points="0.0353340675 4.66593424 0.615133994 3.72287326 5.36796761 6.72295465 4.78816768 7.66601562"></polygon>
                    <polygon id="Path" fill="#7CB7F2" points="10.1606859 11.0656738 10.7406196 10.1227485 15.4992084 13.1282552 14.9192747 14.0711806"></polygon>
                    <polygon id="Path" fill="#7CB7F2" points="0 13.1148275 4.81921884 10.1264106 5.39152366 11.0740831 0.572304821 14.0625"></polygon>
                    <polygon id="Path" fill="#7CB7F2" points="10.230551 6.76459417 14.9614346 3.8309733 15.5336056 4.77878146 10.8028558 7.71240236"></polygon>
                    <g id="Group" transform="translate(0.068527, 0.798611)" fill="#92C5FF">
                        <polygon id="Path" points="7.70657428 3.3203125 5.21993927 0.800238715 5.99514729 0.0147840625 7.70657428 1.74913194 9.4181351 0.0147840625 10.1933431 0.800238715"></polygon>
                        <polygon id="Path" points="9.4181351 16.2608507 7.70657428 14.5263672 5.99514729 16.2608507 5.21993927 15.4752604 7.70657428 12.9553223 10.1933431 15.4752604"></polygon>
                        <polygon id="Path" points="0.281066446 6.37749566 0.0333264415 5.29527451 2.39120624 4.7418891 1.84513428 2.35310872 2.91305295 2.10245767 3.7068649 5.57359483"></polygon>
                        <polygon id="Path" points="12.5666147 14.1452365 11.7733381 10.6740994 15.1991365 9.8703342 15.4463412 10.9525553 13.0884614 11.5058051 13.6345333 13.8947211"></polygon>
                        <polygon id="Path" points="2.86433476 14.1052246 1.79802219 13.8452149 2.36376881 11.4607747 0.0103057611 10.8874512 0.266879266 9.8075358 3.68598568 10.6397841"></polygon>
                        <polygon id="Path" points="15.2127883 6.44029406 11.7940835 5.6080458 12.6158682 2.14301215 13.6816454 2.40302191 13.1164342 4.78691948 15.4693618 5.36024306"></polygon>
                        <polygon id="Path" points="2.22444016 7.53472222 3.32086698 7.53472222 3.32086698 8.64583333 2.22444016 8.64583333"></polygon>
                        <polygon id="Path" points="12.0922816 7.53472222 13.1887084 7.53472222 13.1887084 8.64583333 12.0922816 8.64583333"></polygon>
                        <polygon id="Path" points="7.70657428 12.0713976 4.41729381 10.0713433 4.41729381 6.10921222 7.70657428 4.10915799 10.9958547 6.10921222 10.9958547 10.0713433"></polygon>
                    </g>
                    <polygon id="Path" fill="#FFFFFF" points="8.87152778 7.22222222 9.9679546 7.22222222 9.9679546 8.33333333 8.87152778 8.33333333"></polygon>
                    <polygon id="Path" fill="#FFFFFF" points="6.67867413 8.88888889 7.77510095 8.88888889 7.77510095 10 6.67867413 10"></polygon>
                </g>
                <g id="Group-14-Copy-3" transform="translate(11.111111, 0.000000)">
                    <g id="Group-13">
                        <path d="M8.88888889,15.5339806 C8.88888889,18.000495 6.89904333,20 4.44444444,20 C1.98984556,20 0,18.000495 0,15.5339806 C0,13.9509073 0.827487343,12.5210311 2.12560386,11.7231019 L2.12560386,2.23300971 C2.12560386,0.9997525 3.12052664,0 4.34782609,0 C5.57512553,0 6.57004831,0.9997525 6.57004831,2.23300971 L6.57004831,11.6107502 C7.97387173,12.3789847 8.88888889,13.8690307 8.88888889,15.5339806 Z M4.63768116,2.23300971 C4.63768116,2.07215007 4.50790862,1.94174757 4.34782609,1.94174757 C4.18774355,1.94174757 4.05797101,2.07215007 4.05797101,2.23300971 L4.05797101,12.9567481 L3.46781988,13.2073007 C2.54481468,13.5991686 1.93236715,14.5097365 1.93236715,15.5339806 C1.93236715,16.9280974 3.05706246,18.0582524 4.44444444,18.0582524 C5.83182642,18.0582524 6.95652174,16.9280974 6.95652174,15.5339806 C6.95652174,14.4554863 6.27718564,13.5065889 5.28188784,13.1530939 L4.63768116,12.9242942 L4.63768116,2.23300971 Z" id="Combined-Shape" fill="#F2ECDA" fill-rule="nonzero"></path>
                        <g id="Group-12" transform="translate(0.966184, 0.970874)">
                            <path d="M3.38164251,0 C4.0753335,-1.27428968e-16 4.63768116,0.562347657 4.63768116,1.25603865 L4.63768116,12.815534 L2.12560386,12.815534 L2.12560386,1.25603865 C2.12560386,0.562347657 2.68795152,1.27428968e-16 3.38164251,0 Z" id="Rectangle-Copy-12" fill="#1998F1"></path>
                            <rect id="Rectangle" fill="#1998F1" x="2.12560386" y="9.90291262" width="2.51207729" height="2.52427184"></rect>
                            <ellipse id="Oval" fill="#92C5FF" cx="3.47826087" cy="14.5631068" rx="3.47826087" ry="3.49514563"></ellipse>
                            <path d="M2.12560386,17.7841129 C3.37466345,17.2538164 4.25120773,16.0113225 4.25120773,14.5631068 C4.25120773,13.1148911 3.37466345,11.8723972 2.12560386,11.3421007 C2.5414063,11.165569 2.99848988,11.0679612 3.47826087,11.0679612 C5.3992513,11.0679612 6.95652174,12.6327912 6.95652174,14.5631068 C6.95652174,16.4934224 5.3992513,18.0582524 3.47826087,18.0582524 C2.99848988,18.0582524 2.5414063,17.9606446 2.12560386,17.7841129 Z" id="Combined-Shape" fill="#1998F1"></path>
                        </g>
                    </g>
                    <rect id="Rectangle" fill="#1998F1" x="4.44444444" y="8.54368932" width="3.47826087" height="1.16504854"></rect>
                    <rect id="Rectangle-Copy-13" fill="#1998F1" x="4.44444444" y="4.46601942" width="2.12560386" height="1.16504854"></rect>
                </g>
            </g>
        </g>
    </g>
</svg>