<?xml version="1.0" encoding="UTF-8"?>
<svg width="24px" height="24px" viewBox="0 0 24 24" version="1.1" xmlns="http://www.w3.org/2000/svg" xmlns:xlink="http://www.w3.org/1999/xlink">
    <!-- Generator: Sketch 55.1 (78136) - https://sketchapp.com -->
    <title>26_Cloudy</title>
    <desc>Created with Sketch.</desc>
    <g id="26_Cloudy" stroke="none" stroke-width="1" fill="none" fill-rule="evenodd">
        <g>
            <g id="036-cloud" transform="translate(2.000000, 6.000000)">
                <path d="M16.849465,11.9978044 L3.77553502,11.9978044 C1.95282101,11.9983887 0.395792802,10.7310058 0.0913484825,8.9989746 C-0.213095798,7.26694335 0.824112374,5.57622071 2.54544626,4.99819335 C2.72586335,2.67905272 4.42683,0.731835937 6.76708412,0.164941425 C9.10749027,-0.40180665 11.561588,0.5390625 12.8582502,2.50034179 C13.1458232,2.43251955 13.4406919,2.3979492 13.7366245,2.39780272 C15.7988813,2.39985352 17.4700572,4.0104492 17.4720331,5.99780272 L17.4720331,6.05786134 C19.0393969,6.36445312 20.1104998,7.76586915 19.9496899,9.29926759 C19.7890321,10.8328125 18.4487475,11.9994141 16.849465,11.9978044 Z" id="Path" fill="#F2ECDA" fill-rule="nonzero"></path>
                <path d="M16.849465,8.99780272 L3.77553502,8.99780272 C2.31958292,8.99619143 0.997233696,8.17939455 0.387585136,6.90498045 C-0.150018249,8.01708982 -0.0592777432,9.31699219 0.627735875,10.3497071 C1.31474949,11.3825683 2.50258389,12.0043946 3.77553502,11.9978027 L16.849465,11.9978027 C17.9646461,11.9991211 18.9950146,11.4249023 19.5500973,10.4928223 C20.10518,9.56074219 20.0997082,8.41362304 19.5359618,7.48637696 C18.9861989,8.4177246 17.9613023,8.9942871 16.849465,8.99780273 L16.849465,8.99780272 Z" id="Path" fill="#EAE2CC" fill-rule="nonzero"></path>
                <g id="Group" transform="translate(5.642023, 2.362500)"></g>
            </g>
            <rect id="Rectangle-Copy-5" x="0" y="0" width="24" height="24"></rect>
        </g>
    </g>
</svg>