<?xml version="1.0" encoding="UTF-8"?>
<svg width="24px" height="24px" viewBox="0 0 24 24" version="1.1" xmlns="http://www.w3.org/2000/svg" xmlns:xlink="http://www.w3.org/1999/xlink">
    <!-- Generator: Sketch 55.1 (78136) - https://sketchapp.com -->
    <title>27_Mostly Cloudy(night)</title>
    <desc>Created with Sketch.</desc>
    <g id="27_Mostly-Cloudy(night)" stroke="none" stroke-width="1" fill="none" fill-rule="evenodd">
        <g>
            <rect id="Rectangle-Copy-5" x="0" y="0" width="24" height="24"></rect>
            <g id="013-cloud" transform="translate(2.000000, 5.000000)">
                <path d="M16.5381809,8.10617899 C14.7545294,8.10587458 13.1813898,6.93643465 12.6650657,5.22686688 C12.1488935,3.51729912 12.811436,1.67091113 14.296267,0.681209416 C15.781098,-0.308492299 17.7378709,-0.20804587 19.113874,0.928520688 L19.6946437,1.40914165 L19.113874,1.88976257 C18.4683548,2.42273743 18.0944492,3.2165686 18.0944492,4.05423094 C18.0944492,4.89174109 18.4683548,5.68557226 19.113874,6.21854708 L19.6946437,6.699168 L19.113874,7.17978896 C18.3884059,7.77805399 17.4781128,8.10557022 16.5381809,8.10617899 Z" id="Path" fill="#F7D260" fill-rule="nonzero"></path>
                <path d="M16.849465,14.9633233 L3.77553502,14.9633233 C1.95282101,14.9639306 0.395792802,13.6471692 0.0913484825,11.8476563 C-0.213095798,10.0481433 0.824112374,8.2913961 2.54544626,7.69100042 C2.72586335,5.28150366 4.42683,3.25826906 6.76708412,2.66943994 C9.10749027,2.08045862 11.561588,3.05798497 12.8582502,5.09582996 C13.1458232,5.02521308 13.4406919,4.98944805 13.7366245,4.98929587 C15.7988813,4.99127435 17.4700572,6.66462055 17.4720331,8.72955561 L17.4720331,8.79180195 C19.0393969,9.11049109 20.1104998,10.5663555 19.9496899,12.1596489 C19.7890321,13.7527902 18.4487475,14.9648437 16.849465,14.9633233 Z" id="Path" fill="#F2ECDA" fill-rule="nonzero"></path>
                <polygon id="Path" fill="#FFFFFF" fill-rule="nonzero" points="16.2268969 12.4698154 17.4720331 12.4698154 17.4720331 13.7165686 16.2268969 13.7165686"></polygon>
                <polygon id="Path" fill="#FFFFFF" fill-rule="nonzero" points="13.7366245 12.4698154 14.9817607 12.4698154 14.9817607 13.7165686 13.7366245 13.7165686"></polygon>
                <path d="M16.849465,11.8464387 L3.77553502,11.8464387 C2.31958292,11.8447646 0.997233696,10.9959923 0.387585136,9.67207792 C-0.150018249,10.8273641 -0.0592777432,12.1779119 0.627735875,13.2510146 C1.31474949,14.3239651 2.50258389,14.9701705 3.77553502,14.9633218 L16.849465,14.9633218 C17.9646461,14.9646916 18.9950146,14.3681006 19.5500973,13.3997058 C20.10518,12.4313109 20.0997082,11.2393466 19.5359618,10.2761262 C18.9861989,11.2437602 17.9613023,11.8427861 16.849465,11.8464387 L16.849465,11.8464387 Z" id="Path" fill="#EAE2CC" fill-rule="nonzero"></path>
                <g id="Group" transform="translate(5.642023, 4.987013)"></g>
            </g>
        </g>
    </g>
</svg>