<?xml version="1.0" encoding="UTF-8"?>
<svg width="24px" height="24px" viewBox="0 0 24 24" version="1.1" xmlns="http://www.w3.org/2000/svg" xmlns:xlink="http://www.w3.org/1999/xlink">
    <!-- Generator: Sketch 55.1 (78136) - https://sketchapp.com -->
    <title>28_Mostly Cloudy(day)</title>
    <desc>Created with Sketch.</desc>
    <g id="28_Mostly-Cloudy(day)" stroke="none" stroke-width="1" fill="none" fill-rule="evenodd">
        <g>
            <rect id="Rectangle-Copy-5" x="0" y="0" width="24" height="24"></rect>
            <g id="032-cloudy" transform="translate(2.000000, 4.000000)" fill-rule="nonzero">
                <path d="M17.4720331,7.57460155 C17.4720331,9.74929532 15.6602626,11.5122408 13.4253405,11.5122408 C11.1904183,11.5122408 9.37864786,9.74929532 9.37864786,7.57460155 C9.37864786,5.3997599 11.1904183,3.63696236 13.4253405,3.63696236 C15.6602626,3.63696236 17.4720331,5.3997599 17.4720331,7.57460155 Z" id="Path" fill="#FF6853"></path>
                <path d="M16.849465,16.964358 L3.77553502,16.964358 C1.95282101,16.9649482 0.395792802,15.6853337 0.0913484825,13.9365865 C-0.213095798,12.1878393 0.824112374,10.4806514 2.54544626,9.89719343 C2.72586335,7.5556706 4.42683,5.58951314 6.76708412,5.01729538 C9.10749027,4.44492972 11.561588,5.39487924 12.8582502,7.37523491 C13.1458232,7.30661018 13.4406919,7.27185412 13.7366245,7.27170623 C15.7988813,7.2736289 17.4700572,8.89976859 17.4720331,10.9064501 L17.4720331,10.9669404 C19.0393969,11.2766391 20.1104998,12.6914323 19.9496899,14.2397776 C19.7890321,15.787975 18.4487475,16.9658355 16.849465,16.964358 Z" id="Path" fill="#F2ECDA"></path>
                <path d="M16.849465,13.9354033 L3.77553502,13.9354033 C2.31958292,13.9337764 0.997233696,13.1089487 0.387585136,11.8223831 C-0.150018249,12.9450776 -0.0592777432,14.2575254 0.627735875,15.300355 C1.31474949,16.3430366 2.50258389,16.971012 3.77553502,16.9643566 L16.849465,16.9643566 C17.9646461,16.9656876 18.9950146,16.3859271 19.5500973,15.4448514 C20.10518,14.5037757 20.0997082,13.3454378 19.5359618,12.4093907 C18.9861989,13.3497268 17.9613023,13.9318538 16.849465,13.9354033 L16.849465,13.9354033 Z" id="Path" fill="#EAE2CC"></path>
                <g id="Group" transform="translate(7.042802, 0.000000)" fill="#F7D260">
                    <polygon id="Path" points="6.07125486 0.0022184735 7.31639105 0.0022184735 7.31639105 2.42538106 6.07125486 2.42538106"></polygon>
                    <polygon id="Path" points="11.6743677 7.27170623 12.9195039 7.27170623 12.9195039 8.48328752 11.6743677 8.48328752"></polygon>
                    <polygon id="Path" points="9.98905642 3.20805785 11.8569127 1.39053798 12.7374149 2.24731174 10.8695586 4.06483157"></polygon>
                    <polygon id="Path" points="0.0282708949 2.24819911 0.908621089 1.39142539 2.77647739 3.20894522 1.8961272 4.06571894"></polygon>
                </g>
            </g>
        </g>
    </g>
</svg>