<?xml version="1.0" encoding="UTF-8"?>
<svg width="24px" height="24px" viewBox="0 0 24 24" version="1.1" xmlns="http://www.w3.org/2000/svg" xmlns:xlink="http://www.w3.org/1999/xlink">
    <!-- Generator: Sketch 55.1 (78136) - https://sketchapp.com -->
    <title>29_Partly Cloudy(night)</title>
    <desc>Created with Sketch.</desc>
    <g id="29_Partly-Cloudy(night)" stroke="none" stroke-width="1" fill="none" fill-rule="evenodd">
        <g>
            <rect id="Rectangle-Copy-5" x="0" y="0" width="24" height="24"></rect>
            <g id="005-crescent" transform="translate(2.000000, 2.000000)">
                <path d="M14.3027798,19.9655837 C10.1760841,19.9677144 6.47892442,17.400402 5.01786581,13.5185185 C3.55695857,9.63648269 4.63723353,5.25021322 7.73089267,2.50304581 C10.8245519,-0.243969279 15.2855499,-0.778356491 18.9341085,1.16106238 L19.9703246,1.71250608 L18.9341085,2.26394979 C16.0855741,3.77390959 14.3026284,6.74646686 14.3026284,9.98507556 C14.3026284,13.2238365 16.0855741,16.1962415 18.9341085,17.7062012 L19.9703246,18.257645 L18.9341085,18.8090887 C17.5065104,19.5670382 15.9169089,19.9639072 14.3027798,19.9655837 L14.3027798,19.9655837 Z" id="Path" fill="#F7D260" fill-rule="nonzero"></path>
                <path d="M9.38060198,8.30713938 C8.90700702,6.58427754 7.51771438,5.27092472 5.77867612,4.90253411 C3.50003027,8.73263891 4.0473595,13.6222283 7.11573403,16.8466744 L8.10122942,16.8466744 C10.2496669,16.8475877 12.0754603,15.2677266 12.3956819,13.1309393 C12.7157522,10.9939998 11.4338057,8.94310429 9.38060198,8.30713938 Z" id="Path" fill="#EFC057" fill-rule="nonzero"></path>
                <path d="M8.10122942,15.5991242 L3.13998911,15.5991242 C1.80020589,15.6030702 0.610313721,14.7388219 0.192738605,13.4583638 C-0.224836473,12.1779057 0.224987907,10.7725694 1.3067769,9.97761329 C1.28906248,9.84207481 1.27982678,9.70562257 1.27952399,9.56901801 C1.28391473,7.65914351 2.79569403,6.09816643 4.6937076,6.04379875 C6.59172116,5.98927875 8.18949853,7.46101365 8.30214388,9.36753778 C9.97410973,9.47398877 11.2596899,10.897143 11.2053355,12.5813231 C11.1509811,14.2655032 9.77652616,15.6018519 8.10122942,15.5991242 L8.10122942,15.5991242 Z" id="Path" fill="#F2ECDA" fill-rule="nonzero"></path>
                <g id="Group" transform="translate(3.759690, 3.118908)"></g>
            </g>
        </g>
    </g>
</svg>