<?xml version="1.0" encoding="UTF-8"?>
<svg width="24px" height="24px" viewBox="0 0 24 24" version="1.1" xmlns="http://www.w3.org/2000/svg" xmlns:xlink="http://www.w3.org/1999/xlink">
    <!-- Generator: Sketch 55.1 (78136) - https://sketchapp.com -->
    <title>2_Hurricane</title>
    <desc>Created with Sketch.</desc>
    <g id="2_Hurricane" stroke="none" stroke-width="1" fill="none" fill-rule="evenodd">
        <g>
            <rect id="Rectangle-Copy-2" x="0" y="0" width="24" height="24"></rect>
            <g transform="translate(2.000000, 2.000000)" fill-rule="nonzero">
                <polygon id="Path" fill="#917C38" points="0 18.7187805 7.48538012 18.7187805 7.48538012 19.9663438 0 19.9663438"></polygon>
                <polygon id="Path" fill="#F7D260" points="18.0896686 19.9663438 6.86159844 19.9663438 6.86159844 11.857182 12.4756335 6.24314694 18.0896686 11.857182"></polygon>
                <path d="M10.3734162,13.5077059 C12.2447612,12.6244213 14.3463694,11.61702 15.9014072,9.66892055 L12.4756335,6.24314694 L6.86159844,11.857182 L6.86159844,15.6397722 C7.31968811,15.1832054 7.84265349,14.7966922 8.41359041,14.4925682 C9.01239645,14.1508285 9.66861598,13.8395468 10.3734162,13.5077059 L10.3734162,13.5077059 Z" id="Path" fill="#EFC057"></path>
                <path d="M14.9707602,19.9663438 L9.98050682,19.9663438 L9.98050682,16.8474354 C9.98050682,15.4693591 11.0975573,14.3523087 12.4756335,14.3523087 C13.8537098,14.3523087 14.9707602,15.4693591 14.9707602,16.8474354 L14.9707602,19.9663438 Z" id="Path" fill="#917C38"></path>
                <polygon id="Path" fill="#917C38" points="19.0896077 13.5457785 12.4756335 6.93180433 5.86165934 13.5457785 4.97959306 12.6637122 12.4756335 5.16767177 19.971674 12.6637122"></polygon>
                <path d="M4.36647173,19.9663438 L1.41477825,19.9663438 L1.2769554,19.5297271 C-0.922575517,12.5670078 0.441033138,11.0462354 2.01982823,9.28286429 C3.17373294,7.99524854 4.36647173,6.66423002 4.36647173,2.50045688 L16.8421053,2.50045688 C16.8421053,5.03548366 16.2932505,7.03094542 15.1653874,8.59725267 C13.7800012,10.5197673 11.7776864,11.4667093 9.84070417,12.3792337 C9.11899977,12.7205166 8.43795688,13.0416971 7.79483431,13.409174 C6.01455899,14.4264742 4.36647173,15.8493238 4.36647173,19.3425621 L4.36647173,19.9663438 Z" id="Path" fill="#92C5FF"></path>
                <polygon id="Path" fill="#1998F1" points="4.99025341 0.00533017544 16.2183236 0.00533017544 16.2183236 1.25289353 4.99025341 1.25289353"></polygon>
                <polygon id="Path" fill="#1998F1" points="1.24756335 3.74802023 8.73294347 3.74802023 8.73294347 4.99558359 1.24756335 4.99558359"></polygon>
                <g id="Group" fill="#1998F1">
                    <polygon id="Path" points="1.87134503 6.24314694 9.98050682 6.24314694 9.98050682 7.49071029 1.87134503 7.49071029"></polygon>
                    <polygon id="Path" points="2.49512671 0.00533017544 3.74269006 0.00533017544 3.74269006 1.25289353 2.49512671 1.25289353"></polygon>
                    <polygon id="Path" points="0 0.00533017544 1.24756335 0.00533017544 1.24756335 1.25289353 0 1.25289353"></polygon>
                    <polygon id="Path" points="17.4658869 0.00533017544 18.7134503 0.00533017544 18.7134503 1.25289353 17.4658869 1.25289353"></polygon>
                </g>
                <path d="M12.4756335,14.3523087 C11.0975573,14.3523087 9.98050682,15.4693591 9.98050682,16.8474354 L9.98050682,18.0949988 C9.98050682,16.7169225 11.0975573,15.5998721 12.4756335,15.5998721 C13.8537098,15.5998721 14.9707602,16.7169225 14.9707602,18.0949988 L14.9707602,16.8474354 C14.9707602,15.4693591 13.8537098,14.3523087 12.4756335,14.3523087 Z" id="Path" fill="#846B2D"></path>
            </g>
        </g>
    </g>
</svg>