<?xml version="1.0" encoding="UTF-8"?>
<svg width="24px" height="24px" viewBox="0 0 24 24" version="1.1" xmlns="http://www.w3.org/2000/svg" xmlns:xlink="http://www.w3.org/1999/xlink">
    <!-- Generator: Sketch 55.1 (78136) - https://sketchapp.com -->
    <title>30_Partly Cloudy(day)</title>
    <desc>Created with Sketch.</desc>
    <g id="30_Partly-Cloudy(day)" stroke="none" stroke-width="1" fill="none" fill-rule="evenodd">
        <g>
            <rect id="Rectangle-Copy-5" x="0" y="0" width="24" height="24"></rect>
            <g id="006-cloud" transform="translate(2.000000, 2.000000)" fill-rule="nonzero">
                <path d="M17.4658869,10.6048977 C17.4658869,14.3944932 14.393884,17.4664961 10.6042885,17.4664961 C6.81469298,17.4664961 3.74269006,14.3944932 3.74269006,10.6048977 C3.74269006,6.81530214 6.81469298,3.74329922 10.6042885,3.74329922 C14.393884,3.74329922 17.4658869,6.81530214 17.4658869,10.6048977 Z" id="Path" fill="#FF6853"></path>
                <g id="Group" fill="#F7D260">
                    <polygon id="Path" points="9.98050682 0.000609161793 11.2280702 0.000609161793 11.2280702 2.49573587 9.98050682 2.49573587"></polygon>
                    <polygon id="Path" points="4.76181774 1.73291302 5.84231848 1.10928363 7.08972951 3.27013279 6.00938109 3.89391446"></polygon>
                    <polygon id="Path" points="1.10821758 5.8435368 1.73199926 4.76303606 3.89284842 6.01059942 3.26921906 7.09094784"></polygon>
                    <polygon id="Path" points="0 9.98111598 2.49512671 9.98111598 2.49512671 11.2286793 0 11.2286793"></polygon>
                    <polygon id="Path" points="1.10852218 15.36702 3.26952363 14.1196089 3.89315302 15.2001096 1.73230386 16.4475207"></polygon>
                    <polygon id="Path" points="14.1182383 3.27028507 15.3656494 1.10943591 16.4461501 1.7330653 15.198739 3.89406674"></polygon>
                </g>
                <path d="M10.6042885,17.4664964 C14.1496101,17.4614705 17.1086136,14.7590765 17.4340582,11.2286793 C16.319749,9.631914 14.3947977,8.80710893 12.4699988,9.10179096 C10.5453521,9.39662526 8.95528752,10.7594725 8.36988304,12.6166545 C7.22587719,13.3627254 6.46274975,14.5693226 6.2789352,15.9227278 C7.49923856,16.9214486 9.02747322,17.466953 10.6042885,17.4664964 Z" id="Path" fill="#F45747"></path>
                <path d="M16.5302144,19.9616342 L10.9161793,19.9616342 C9.31301778,19.9657347 7.92184452,18.8562987 7.56883528,17.2924281 C7.21597832,15.7285575 7.9958577,14.1293555 9.44535821,13.4443531 C9.79029606,11.6132127 11.3919347,10.2884381 13.2553606,10.292995 C14.9934515,10.3036671 16.5160514,11.4598562 16.9930251,13.1312439 C18.7818287,13.3741472 20.0764498,14.9616228 19.9544651,16.7627619 C19.8324805,18.5639011 18.3354654,19.9623842 16.5302144,19.9616342 Z" id="Path" fill="#F2ECDA"></path>
                <path d="M16.5302144,18.0902778 L10.9161793,18.0902778 C9.38307138,18.0887549 8.03697614,17.0702363 7.61893883,15.5951511 C7.53076265,15.8992751 7.485837,16.2142117 7.48538012,16.5308236 C7.4875122,18.4247076 9.02229532,19.959643 10.9161793,19.9616228 L16.5302144,19.9616228 C18.4240984,19.959643 19.9588816,18.4247076 19.9610136,16.5308236 C19.9569018,16.2210648 19.9103009,15.9134381 19.8225816,15.6164717 C19.3960161,17.0804398 18.055251,18.0879934 16.5302144,18.0902778 Z" id="Path" fill="#EAE2CC"></path>
            </g>
        </g>
    </g>
</svg>