<?xml version="1.0" encoding="UTF-8"?>
<svg width="24px" height="24px" viewBox="0 0 24 24" version="1.1" xmlns="http://www.w3.org/2000/svg" xmlns:xlink="http://www.w3.org/1999/xlink">
    <!-- Generator: Sketch 55.1 (78136) - https://sketchapp.com -->
    <title>33_Fair(night)</title>
    <desc>Created with Sketch.</desc>
    <g id="33_Fair(night)" stroke="none" stroke-width="1" fill="none" fill-rule="evenodd">
        <g>
            <rect id="Rectangle-Copy-6" x="0" y="0" width="24" height="24"></rect>
            <g id="Group-21" transform="translate(2.000000, 4.000000)">
                <path d="M13.4979379,16 L3.00053691,16 C1.53703207,16.0004871 0.286853314,14.9439866 0.0424069921,13.5001514 C-0.202039299,12.0563162 0.630762323,10.6469162 2.01286641,10.165068 C2.15772802,8.23181373 3.52347872,6.60859817 5.40253009,6.13603035 C7.28170352,5.6635846 9.25216291,6.44790068 10.293287,8.08283886 C10.5241868,8.0263017 10.7609446,7.99748357 10.9985567,7.99736147 C12.6543967,7.99907104 13.9962276,9.34167653 13.9978141,10.9983504 L13.9978141,11.0484157 C15.2562916,11.3039931 16.1163082,12.4722248 15.9871897,13.750478 C15.8581934,15.0288534 14.7820438,16.0013418 13.4979379,16 Z" id="Path" fill="#F2ECDA" fill-rule="nonzero"></path>
                <path d="M15.1508119,9.76099923 C15.1508119,13.0747688 14.5706522,17.0508464 11.8619432,16.5222557 C9.15323415,15.9936651 5.88407696,13.9866244 6.15075593,9.76099923 C6.4174349,5.53537409 10.2110946,4.33622866 12.6964218,4.33622866 C15.181749,4.33622866 15.1508119,6.44722968 15.1508119,9.76099923 Z" id="Path" fill="#EAE2CC" fill-rule="nonzero" transform="translate(10.643128, 10.453052) rotate(-15.000000) translate(-10.643128, -10.453052) "></path>
                <g id="33_Fair(night)" transform="translate(7.000000, 0.000000)">
                    <path d="M8.16141389,16.1904861 C4.7456936,16.1957774 1.69213035,14.0719855 0.522427576,10.8777296 C-0.647151288,7.68335046 0.317320868,4.10186345 2.93540396,1.9182795 C5.55348706,-0.26542774 9.26485329,-0.58399035 12.2199505,1.12125656 L12.9778296,1.55804733 L12.2199505,1.99483807 C10.0226086,3.25478771 8.66835938,5.5868041 8.66835938,8.11101829 C8.66835938,10.6351092 10.0226086,12.9671256 12.2199505,14.2271985 L12.9778296,14.6639892 L12.2199505,15.10078 C10.9868331,15.8127379 9.58700457,16.1886269 8.16141389,16.1904861 L8.16141389,16.1904861 Z" id="Path" fill="#F7D260" fill-rule="nonzero"></path>
                    <g id="Group" transform="translate(4.597561, 2.051425)"></g>
                </g>
            </g>
        </g>
    </g>
</svg>