<?xml version="1.0" encoding="UTF-8"?>
<svg width="24px" height="24px" viewBox="0 0 24 24" version="1.1" xmlns="http://www.w3.org/2000/svg" xmlns:xlink="http://www.w3.org/1999/xlink">
    <!-- Generator: Sketch 55.1 (78136) - https://sketchapp.com -->
    <title>34_Fair(day)</title>
    <desc>Created with Sketch.</desc>
    <g id="34_Fair(day)" stroke="none" stroke-width="1" fill="none" fill-rule="evenodd">
        <g>
            <rect id="Rectangle-Copy-6" x="0" y="0" width="24" height="24"></rect>
            <g id="Group-21" transform="translate(2.000000, 4.000000)" fill-rule="nonzero">
                <path d="M13.4979379,16 L3.00053691,16 C1.53703207,16.0004871 0.286853314,14.9439866 0.0424069921,13.5001514 C-0.202039299,12.0563162 0.630762323,10.6469162 2.01286641,10.165068 C2.15772802,8.23181373 3.52347872,6.60859817 5.40253009,6.13603035 C7.28170352,5.6635846 9.25216291,6.44790068 10.293287,8.08283886 C10.5241868,8.0263017 10.7609446,7.99748357 10.9985567,7.99736147 C12.6543967,7.99907104 13.9962276,9.34167653 13.9978141,10.9983504 L13.9978141,11.0484157 C15.2562916,11.3039931 16.1163082,12.4722248 15.9871897,13.750478 C15.8581934,15.0288534 14.7820438,16.0013418 13.4979379,16 Z" id="Path" fill="#F2ECDA"></path>
                <g id="32_Sunny" transform="translate(3.000000, 0.000000)">
                    <g id="Group" fill="#F7D260">
                        <polygon id="Path" points="7.4375 0 8.5625 0 8.5625 2.25 7.4375 2.25"></polygon>
                        <polygon id="Path" points="0.675964355 2.47151183 1.47151183 1.67610168 3.0624695 3.26705934 2.26705934 4.06260682"></polygon>
                        <polygon id="Path" points="12.9382172 14.7329407 13.7337646 13.9373932 15.3247223 15.5284882 14.5291748 16.3238983"></polygon>
                        <polygon id="Path" points="14.75 8.4375 17 8.4375 17 9.5625 14.75 9.5625"></polygon>
                        <polygon id="Path" points="12.9380799 3.26692199 14.5290375 1.67596436 15.324585 2.47137451 13.7336273 4.0624695"></polygon>
                    </g>
                    <path d="M12.625,10 C12.625,13.106659 10.106659,15.625 7,15.625 C3.89334105,15.625 1.375,13.106659 1.375,10 C1.375,6.89334105 3.89334105,4.375 7,4.375 C10.106659,4.375 12.625,6.89334105 12.625,10 Z" id="Path" fill="#EAE2CC"></path>
                    <path d="M13.625,9 C13.625,12.106659 11.106659,14.625 8,14.625 C4.89334105,14.625 2.375,12.106659 2.375,9 C2.375,5.89334105 4.89334105,3.375 8,3.375 C11.106659,3.375 13.625,5.89334105 13.625,9 Z" id="Path" fill="#FF6853"></path>
                    <path d="M8,12.9375 C5.22238161,12.9325562 2.86361696,10.9021454 2.4453125,8.15625 C2.09484863,10.3517304 3.07043457,12.5474854 4.93453981,13.75914 C6.79864502,14.9707947 9.20135498,14.9707947 11.0654602,13.75914 C12.9295654,12.5474854 13.9051514,10.3517304 13.5546875,8.15625 C13.136383,10.9021454 10.7776184,12.9325562 8,12.9375 Z" id="Path" fill="#F45747"></path>
                </g>
            </g>
        </g>
    </g>
</svg>