<?xml version="1.0" encoding="UTF-8"?>
<svg width="24px" height="24px" viewBox="0 0 24 24" version="1.1" xmlns="http://www.w3.org/2000/svg" xmlns:xlink="http://www.w3.org/1999/xlink">
    <!-- Generator: Sketch 55.1 (78136) - https://sketchapp.com -->
    <title>36_Hot</title>
    <desc>Created with Sketch.</desc>
    <g id="36_Hot" stroke="none" stroke-width="1" fill="none" fill-rule="evenodd">
        <g>
            <rect id="Rectangle-Copy-6" x="0" y="0" width="24" height="24"></rect>
            <g id="Group-15" transform="translate(2.000000, 2.000000)">
                <g id="32_Sunny" fill-rule="nonzero">
                    <g id="Group" fill="#F7D260">
                        <polygon id="Path" points="8.33333333 0 9.44444444 0 9.44444444 2.22222222 8.33333333 2.22222222"></polygon>
                        <polygon id="Path" points="8.33333333 15.5555556 9.44444444 15.5555556 9.44444444 17.7777778 8.33333333 17.7777778"></polygon>
                        <polygon id="Path" points="1.65527344 2.44099934 2.44099934 1.65540906 4.01231556 3.22672528 3.22672528 4.01245118"></polygon>
                        <polygon id="Path" points="13.7661404 14.5510525 14.5518663 13.7653266 16.1231825 15.3367784 15.3374566 16.1223687"></polygon>
                        <polygon id="Path" points="15.5555556 8.33333333 17.7777778 8.33333333 17.7777778 9.44444444 15.5555556 9.44444444"></polygon>
                        <polygon id="Path" points="0 8.33333333 2.22222222 8.33333333 2.22222222 9.44444444 0 9.44444444"></polygon>
                        <polygon id="Path" points="13.7660048 3.22658962 15.337321 1.65527344 16.1230469 2.44086372 14.5517307 4.01231556"></polygon>
                        <polygon id="Path" points="1.65540906 15.3369141 3.2268609 13.7654622 4.01245118 14.5511882 2.441135 16.1225043"></polygon>
                    </g>
                    <path d="M14.4444444,8.88888889 C14.4444444,11.957194 11.957194,14.4444444 8.88888889,14.4444444 C5.82058375,14.4444444 3.33333333,11.957194 3.33333333,8.88888889 C3.33333333,5.82058375 5.82058375,3.33333333 8.88888889,3.33333333 C11.957194,3.33333333 14.4444444,5.82058375 14.4444444,8.88888889 Z" id="Path" fill="#FF6853"></path>
                    <path d="M8.88888889,12.7777778 C6.14556208,12.772895 3.81591799,10.767551 3.40277778,8.05555556 C3.05664062,10.2239312 4.02018229,12.3925781 5.86127389,13.5892741 C7.70236545,14.7859701 10.0754123,14.7859701 11.9165039,13.5892741 C13.7575955,12.3925781 14.7211372,10.2239312 14.375,8.05555556 C13.9618598,10.767551 11.6322157,12.772895 8.88888889,12.7777778 Z" id="Path" fill="#F45747"></path>
                </g>
                <g id="Group-14-Copy-2" transform="translate(11.111111, 0.000000)">
                    <g id="Group-13">
                        <path d="M8.88888889,15.5339806 C8.88888889,18.000495 6.89904333,20 4.44444444,20 C1.98984556,20 0,18.000495 0,15.5339806 C0,13.9509073 0.827487343,12.5210311 2.12560386,11.7231019 L2.12560386,2.23300971 C2.12560386,0.9997525 3.12052664,0 4.34782609,0 C5.57512553,0 6.57004831,0.9997525 6.57004831,2.23300971 L6.57004831,11.6107502 C7.97387173,12.3789847 8.88888889,13.8690307 8.88888889,15.5339806 Z M4.63768116,2.23300971 C4.63768116,2.07215007 4.50790862,1.94174757 4.34782609,1.94174757 C4.18774355,1.94174757 4.05797101,2.07215007 4.05797101,2.23300971 L4.05797101,12.9567481 L3.46781988,13.2073007 C2.54481468,13.5991686 1.93236715,14.5097365 1.93236715,15.5339806 C1.93236715,16.9280974 3.05706246,18.0582524 4.44444444,18.0582524 C5.83182642,18.0582524 6.95652174,16.9280974 6.95652174,15.5339806 C6.95652174,14.4554863 6.27718564,13.5065889 5.28188784,13.1530939 L4.63768116,12.9242942 L4.63768116,2.23300971 Z" id="Combined-Shape" fill="#F2ECDA" fill-rule="nonzero"></path>
                        <g id="Group-12" transform="translate(0.966184, 0.970874)">
                            <path d="M3.38164251,0 C4.0753335,-1.27428968e-16 4.63768116,0.562347657 4.63768116,1.25603865 L4.63768116,12.815534 L2.12560386,12.815534 L2.12560386,1.25603865 C2.12560386,0.562347657 2.68795152,1.27428968e-16 3.38164251,0 Z" id="Rectangle-Copy-12" fill="#F45747"></path>
                            <rect id="Rectangle" fill="#F45747" x="2.12560386" y="9.90291262" width="2.51207729" height="2.52427184"></rect>
                            <ellipse id="Oval" fill="#FF6853" cx="3.47826087" cy="14.5631068" rx="3.47826087" ry="3.49514563"></ellipse>
                            <path d="M2.12560386,17.7841129 C3.37466345,17.2538164 4.25120773,16.0113225 4.25120773,14.5631068 C4.25120773,13.1148911 3.37466345,11.8723972 2.12560386,11.3421007 C2.5414063,11.165569 2.99848988,11.0679612 3.47826087,11.0679612 C5.3992513,11.0679612 6.95652174,12.6327912 6.95652174,14.5631068 C6.95652174,16.4934224 5.3992513,18.0582524 3.47826087,18.0582524 C2.99848988,18.0582524 2.5414063,17.9606446 2.12560386,17.7841129 Z" id="Combined-Shape" fill="#F45747"></path>
                        </g>
                    </g>
                    <rect id="Rectangle" fill="#F45747" x="4.44444444" y="8.54368932" width="2.12560386" height="1.16504854"></rect>
                    <rect id="Rectangle-Copy-13" fill="#F45747" x="4.44444444" y="4.46601942" width="3.47826087" height="1.16504854"></rect>
                </g>
            </g>
        </g>
    </g>
</svg>