<?xml version="1.0" encoding="UTF-8"?>
<svg width="24px" height="24px" viewBox="0 0 24 24" version="1.1" xmlns="http://www.w3.org/2000/svg" xmlns:xlink="http://www.w3.org/1999/xlink">
    <!-- Generator: Sketch 55.1 (78136) - https://sketchapp.com -->
    <title>38_Scattered Thunderstorms</title>
    <desc>Created with Sketch.</desc>
    <g id="38_Scattered-Thunderstorms" stroke="none" stroke-width="1" fill="none" fill-rule="evenodd">
        <g>
            <rect id="Rectangle-Copy-2" x="0" y="0" width="24" height="24"></rect>
            <g id="4_Thunderstorms" transform="translate(2.000000, 5.000000)">
                <path d="M16.849465,12.2115057 L3.77553502,12.2115057 C1.95282101,12.2121004 0.395792802,10.9221434 0.0913484825,9.15926168 C-0.213095798,7.39638 0.824112374,5.67554271 2.54544626,5.08721969 C2.72586335,2.72677122 4.42683,0.744871183 6.76708412,0.167879313 C9.10749027,-0.408963511 11.561588,0.548664122 12.8582502,2.54487714 C13.1458232,2.47584687 13.4406919,2.44066076 13.7366245,2.44051168 C15.7988813,2.44259901 17.4700572,4.08188214 17.4720331,6.10463382 L17.4720331,6.16576218 C19.0393969,6.47781489 20.1104998,7.90419252 19.9496899,9.4649034 C19.7890321,11.0257634 18.4487475,12.2131441 16.849465,12.2115057 Z" id="Path" fill="#F2ECDA" fill-rule="nonzero"></path>
                <path d="M9.91559339,14.9688395 C9.32570405,14.6214516 9.13479938,13.8707657 9.48909774,13.292432 L10.1502724,12.211504 L7.66,12.211504 L10.0935785,8.2329437 C10.6834679,8.58018248 10.8743726,9.33086832 10.5200742,9.90920206 L9.85889953,10.99013 L12.3491719,10.99013 L9.91559339,14.9688395 Z" id="Path" fill="#F7D260" fill-rule="nonzero"></path>
                <path d="M14.9155934,14.9688395 C14.325704,14.6214516 14.1347994,13.8707657 14.4890977,13.292432 L15.1502724,12.211504 L12.66,12.211504 L15.0935785,8.2329437 C15.6834679,8.58018248 15.8743726,9.33086832 15.5200742,9.90920206 L14.8588995,10.99013 L17.3491719,10.99013 L14.9155934,14.9688395 Z" id="Path-Copy-7" fill="#F7D260" fill-rule="nonzero"></path>
                <polygon id="Path" fill="#EFC057" fill-rule="nonzero" points="4.43357852 6.68188858 2 2.73522761 4.49027237 2.73522761 3.18844233 0.623982122 4.25559339 0 6.68917191 3.9468089 4.19889953 3.9468089 5.50072957 6.05790646"></polygon>
                <g id="Group" transform="translate(5.642023, 2.404580)"></g>
            </g>
        </g>
    </g>
</svg>