<?xml version="1.0" encoding="UTF-8"?>
<svg width="24px" height="24px" viewBox="0 0 24 24" version="1.1" xmlns="http://www.w3.org/2000/svg" xmlns:xlink="http://www.w3.org/1999/xlink">
    <!-- Generator: Sketch 55.1 (78136) - https://sketchapp.com -->
    <title>3_Severe Thunderstorms</title>
    <desc>Created with Sketch.</desc>
    <g id="3_Severe-Thunderstorms" stroke="none" stroke-width="1" fill="none" fill-rule="evenodd">
        <g>
            <rect id="Rectangle-Copy-2" x="0" y="0" width="24" height="24"></rect>
            <g id="4_Thunderstorms" transform="translate(2.000000, 5.000000)">
                <path d="M16.849465,12.2115057 L3.77553502,12.2115057 C1.95282101,12.2121004 0.395792802,10.9221434 0.0913484825,9.15926168 C-0.213095798,7.39638 0.824112374,5.67554271 2.54544626,5.08721969 C2.72586335,2.72677122 4.42683,0.744871183 6.76708412,0.167879313 C9.10749027,-0.408963511 11.561588,0.548664122 12.8582502,2.54487714 C13.1458232,2.47584687 13.4406919,2.44066076 13.7366245,2.44051168 C15.7988813,2.44259901 17.4700572,4.08188214 17.4720331,6.10463382 L17.4720331,6.16576218 C19.0393969,6.47781489 20.1104998,7.90419252 19.9496899,9.4649034 C19.7890321,11.0257634 18.4487475,12.2131441 16.849465,12.2115057 Z" id="Path" fill="#F2ECDA" fill-rule="nonzero"></path>
                <g id="Group-11" transform="translate(2.656706, 8.232944)" fill="#F7D260" fill-rule="nonzero">
                    <path d="M2.25559339,6.73589576 C1.66570405,6.38850786 1.47479938,5.63782202 1.82909774,5.05948832 L2.49027237,3.97856034 L-5.32907052e-15,3.97856034 L2.43357852,-4.4408921e-15 C3.0234679,0.347238779 3.21437257,1.09792462 2.86007416,1.67625836 L2.19889953,2.7571863 L4.68917191,2.7571863 L2.25559339,6.73589576 Z" id="Path"></path>
                    <path d="M7.25888739,6.73589576 C6.66899805,6.38850786 6.47809339,5.63782202 6.83239175,5.05948832 L7.49356638,3.97856034 L5.00329401,3.97856034 L7.43687253,-4.4408921e-15 C8.02676191,0.347238779 8.21766658,1.09792462 7.86336817,1.67625836 L7.20219354,2.7571863 L9.69246591,2.7571863 L7.25888739,6.73589576 Z" id="Path-Copy-8"></path>
                    <path d="M12.2588874,6.73589576 C11.6689981,6.38850786 11.4780934,5.63782202 11.8323918,5.05948832 L12.4935664,3.97856034 L10.003294,3.97856034 L12.4368725,-4.4408921e-15 C13.0267619,0.347238779 13.2176666,1.09792462 12.8633682,1.67625836 L12.2021935,2.7571863 L14.6924659,2.7571863 L12.2588874,6.73589576 Z" id="Path-Copy-9"></path>
                </g>
                <g id="Group" transform="translate(5.642023, 2.404580)"></g>
            </g>
        </g>
    </g>
</svg>