<?xml version="1.0" encoding="UTF-8"?>
<svg width="24px" height="24px" viewBox="0 0 24 24" version="1.1" xmlns="http://www.w3.org/2000/svg" xmlns:xlink="http://www.w3.org/1999/xlink">
    <!-- Generator: Sketch 55.1 (78136) - https://sketchapp.com -->
    <title>40_Heavy Rain</title>
    <desc>Created with Sketch.</desc>
    <g id="40_Heavy-Rain" stroke="none" stroke-width="1" fill="none" fill-rule="evenodd">
        <g>
            <rect id="Rectangle-Copy-5" x="0" y="0" width="24" height="24"></rect>
            <g id="040-rainy" transform="translate(2.000000, 3.000000)" fill-rule="nonzero">
                <path d="M16.693823,9.44297089 L8.39509362,9.44297089 L8.39509362,3.17093752 L8.43370016,3.06281248 C9.07739541,1.285 10.6975012,0.079375 12.5413424,0.00609376 C14.3850316,-0.06718752 16.0910141,1.00609376 16.8663363,2.72734376 C18.6369163,2.82140624 20.0118556,4.34953124 19.9650413,6.17156248 C19.9182272,7.99359376 18.4668349,9.445 16.693823,9.44297089 L16.693823,9.44297089 Z" id="Path" fill="#CCDADE"></path>
                <path d="M16.849465,15.3629702 L3.77553502,15.3629702 C1.95282101,15.3635938 0.395792802,14.0117188 0.0913484825,12.1642188 C-0.213095798,10.3167188 0.824112374,8.513125 2.54544626,7.89671876 C2.72586335,5.42296876 4.42683,3.34578124 6.76708412,2.74125 C9.10749027,2.13656248 11.561588,3.14015624 12.8582502,5.23234376 C13.1458232,5.15984376 13.4406919,5.123125 13.7366245,5.12296876 C15.7988813,5.125 17.4700572,6.84296876 17.4720331,8.96296876 L17.4720331,9.026875 C19.0393969,9.35406248 20.1104998,10.84875 19.9496899,12.4845312 C19.7890321,14.1201562 18.4487475,15.3645312 16.849465,15.3629702 Z" id="Path" fill="#F2ECDA"></path>
                <path d="M16.849465,12.1629688 L3.77553502,12.1629688 C2.31958292,12.16125 0.997233696,11.2898438 0.387585136,9.930625 C-0.150018249,11.1167188 -0.0592777432,12.5032812 0.627735875,13.605 C1.31474949,14.7065625 2.50258389,15.37 3.77553502,15.3629688 L16.849465,15.3629688 C17.9646461,15.364375 18.9950146,14.751875 19.5500973,13.7576562 C20.10518,12.7634375 20.0997082,11.5396875 19.5359618,10.5507812 C18.9861989,11.5442188 17.9613023,12.1592188 16.849465,12.1629688 L16.849465,12.1629688 Z" id="Path" fill="#EAE2CC"></path>
                <g id="Group" transform="translate(3.264591, 12.800000)" fill="#1998F1">
                    <polygon id="Path" points="0.73540856 0.00296876 1.98054475 0.00296876 1.98054475 5.12296876 0.73540856 5.12296876"></polygon>
                    <polygon id="Path" points="3.22568093 0.00296876 4.47081712 0.00296876 4.47081712 2.56296876 3.22568093 2.56296876"></polygon>
                    <polygon id="Path-Copy" points="8.46960117 0.00296876 9.71473735 0.00296876 9.71473735 2.56296876 8.46960117 2.56296876"></polygon>
                    <polygon id="Path" points="3.22568093 3.84296876 4.47081712 3.84296876 4.47081712 5.12296876 3.22568093 5.12296876"></polygon>
                    <polygon id="Path-Copy-2" points="8.46960117 3.84296876 9.71473735 3.84296876 9.71473735 5.12296876 8.46960117 5.12296876"></polygon>
                    <polygon id="Path" points="5.71595331 0.00296876 6.96108949 0.00296876 6.96108949 5.12296876 5.71595331 5.12296876"></polygon>
                    <polygon id="Path-Copy-3" points="10.9598735 0.00296876 12.2050097 0.00296876 12.2050097 5.12296876 10.9598735 5.12296876"></polygon>
                </g>
            </g>
        </g>
    </g>
</svg>