<?xml version="1.0" encoding="UTF-8"?>
<svg width="24px" height="24px" viewBox="0 0 24 24" version="1.1" xmlns="http://www.w3.org/2000/svg" xmlns:xlink="http://www.w3.org/1999/xlink">
    <!-- Generator: Sketch 55.1 (78136) - https://sketchapp.com -->
    <title>41_Scattered Snow Showers(day)</title>
    <desc>Created with Sketch.</desc>
    <g id="41_Scattered-Snow-Showers(day)" stroke="none" stroke-width="1" fill="none" fill-rule="evenodd">
        <g>
            <rect id="Rectangle-Copy-5" x="0" y="0" width="24" height="24"></rect>
            <g transform="translate(2.000000, 2.000000)" fill-rule="nonzero">
                <path d="M16.6400315,7.42814793 C16.6400315,9.56079436 14.9145359,11.2896535 12.7860385,11.2896535 C10.6575412,11.2896535 8.93204558,9.56079436 8.93204558,7.42814793 C8.93204558,5.29535647 10.6575412,3.56664231 12.7860385,3.56664231 C14.9145359,3.56664231 16.6400315,5.29535647 16.6400315,7.42814793 Z" id="Path" fill="#FF6853"></path>
                <path d="M16.0471095,16.636355 L3.59574764,16.636355 C1.85982953,16.6369338 0.376945525,15.3820605 0.0869985548,13.667125 C-0.202948379,11.9521895 0.784868927,10.2780098 2.42423454,9.70583288 C2.59606033,7.40958299 4.21602857,5.48144086 6.44484202,4.92028683 C8.67380026,4.35898777 11.0110362,5.29057017 12.2459526,7.232636 C12.5198316,7.16533812 12.8006589,7.13125406 13.0824995,7.13110903 C15.0465536,7.13299452 16.6381497,8.72769308 16.6400315,10.6955758 L16.6400315,10.7548965 C18.1327589,11.0586072 19.1528569,12.4460457 18.9997047,13.9644539 C18.8466972,15.4827172 17.5702358,16.637804 16.0471095,16.636355 Z" id="Path" fill="#F2ECDA"></path>
                <polygon id="Path" fill="#1998F1" points="8.57142857 9.57262113 7.96914204 8.97034556 6.88874963 10.0501983 6.14023365 10.0501983 6.14023365 9.30127992 7.22062605 8.22142718 6.61823552 7.61904762 5.71423372 8.52261697 4.8103359 7.61904762 4.20794538 8.22142718 5.28823378 9.30127992 5.28823378 10.0501983 4.53982179 10.0501983 3.45942939 8.97034556 2.85714286 9.57262113 3.76062465 10.4761905 2.85714286 11.3797598 3.45942939 11.9820354 4.53982179 10.9021827 5.28823378 10.9021827 5.28823378 11.651101 4.20794538 12.7309538 4.8103359 13.3333333 5.71423372 12.429764 6.61823552 13.3333333 7.22062605 12.7309538 6.14023365 11.651101 6.14023365 10.9021827 6.88874963 10.9021827 7.96914204 11.9820354 8.57142857 11.3797598 7.66794678 10.4761905"></polygon>
                <path d="M16.0471095,13.6659647 L3.59574764,13.6659647 C2.20912659,13.6643693 0.949746378,12.8554894 0.369128701,11.5937993 C-0.142874523,12.6947867 -0.0564549935,13.9818586 0.597843691,15.0045252 C1.25214238,16.0270468 2.38341323,16.6428803 3.59574764,16.6363536 L16.0471095,16.6363536 C17.1091868,16.637659 18.0904901,16.069108 18.6191403,15.1462278 C19.1477904,14.2233477 19.1425792,13.087406 18.6056779,12.1694572 C18.0820942,13.0916121 17.1060022,13.6624838 16.0471095,13.6659647 L16.0471095,13.6659647 Z" id="Path" fill="#EAE2CC"></path>
                <g id="Group" transform="translate(6.707430, 0.000000)" fill="#F7D260">
                    <polygon id="Path" points="5.78214749 0.00217557969 6.96799148 0.00217557969 6.96799148 2.37848674 5.78214749 2.37848674"></polygon>
                    <polygon id="Path" points="11.1184454 7.13110903 12.3042894 7.13110903 12.3042894 8.31926461 11.1184454 8.31926461"></polygon>
                    <polygon id="Path" points="9.51338707 3.14661075 11.2922978 1.36423236 12.1307266 2.20429548 10.3518158 3.98667387"></polygon>
                    <polygon id="Path" points="0.0267799148 2.20458554 0.865208671 1.36437739 2.6441194 3.14675578 1.80569064 3.98696393"></polygon>
                </g>
                <g id="Group-10" transform="translate(2.008842, 15.430358)" fill="#1998F1">
                    <polygon id="Path" points="-1.13686838e-13 2.97009884 1.77920022 -5.68434189e-14 2.7959688 0.61148241 1.01662383 3.58158125"></polygon>
                    <polygon id="Path" transform="translate(11.369902, 1.790791) scale(-1, 1) translate(-11.369902, -1.790791) " points="9.97191725 2.97009884 11.7511175 -5.68434189e-14 12.7678861 0.61148241 10.9886858 3.58158125"></polygon>
                    <path d="M4.57430054,3.58230647 L3.5579662,2.97096909 L4.11600193,2.03822634 L5.13334953,2.64956372 L4.57430054,3.58230647 Z M5.74349754,1.63066811 L4.72658421,1.01933073 L5.33673218,0.000580154089 L6.35306652,0.611917535 L5.74349754,1.63066811 Z" id="Shape"></path>
                </g>
            </g>
        </g>
    </g>
</svg>