<?xml version="1.0" encoding="UTF-8"?>
<svg width="24px" height="24px" viewBox="0 0 24 24" version="1.1" xmlns="http://www.w3.org/2000/svg" xmlns:xlink="http://www.w3.org/1999/xlink">
    <!-- Generator: Sketch 55.1 (78136) - https://sketchapp.com -->
    <title>43_Blizzard</title>
    <desc>Created with Sketch.</desc>
    <g id="43_Blizzard" stroke="none" stroke-width="1" fill="none" fill-rule="evenodd">
        <g>
            <rect id="Rectangle-Copy-5" x="0" y="0" width="24" height="24"></rect>
            <g id="012-cloud" transform="translate(2.000000, 3.000000)" fill-rule="nonzero">
                <path d="M16.849465,12.3848303 L3.77553502,12.3848303 C1.95282101,12.3854335 0.395792802,11.0771673 0.0913484825,9.2892641 C-0.213095798,7.50136088 0.824112374,5.7560988 2.54544626,5.15942539 C2.72586335,2.76547378 4.42683,0.755443548 6.76708412,0.170262116 C9.10749027,-0.414768155 11.561588,0.556451613 12.8582502,2.58099797 C13.1458232,2.51098792 13.4406919,2.4753024 13.7366245,2.4751512 C15.7988813,2.47726815 17.4700572,4.13981853 17.4720331,6.19128023 L17.4720331,6.25327622 C19.0393969,6.56975806 20.1104998,8.01638106 19.9496899,9.59924396 C19.7890321,11.1822581 18.4487475,12.3864919 16.849465,12.3848303 Z" id="Path" fill="#F2ECDA"></path>
                <polygon id="Path-Copy-4" fill="#1998F1" points="7 11.7093768 6.47299928 11.1823857 5.52765593 12.1272568 4.87270444 12.1272568 4.87270444 11.4719533 5.8180478 10.5270821 5.29095608 10 4.4999545 10.7906232 3.70904392 10 3.1819522 10.5270821 4.12720456 11.4719533 4.12720456 12.1272568 3.47234407 12.1272568 2.52700072 11.1823857 2 11.7093768 2.79054657 12.5 2 13.2906232 2.52700072 13.8176143 3.47234407 12.8727432 4.12720456 12.8727432 4.12720456 13.5280467 3.1819522 14.4729179 3.70904392 15 4.4999545 14.2093768 5.29095608 15 5.8180478 14.4729179 4.87270444 13.5280467 4.87270444 12.8727432 5.52765593 12.8727432 6.47299928 13.8176143 7 13.2906232 6.20945343 12.5"></polygon>
                <polygon id="Path-Copy-12" fill="#1998F1" points="14 7.02562609 13.6837996 6.70943142 13.1165936 7.27635411 12.7236227 7.27635411 12.7236227 6.88317196 13.2908287 6.31624927 12.9745737 6 12.4999727 6.47437391 12.0254263 6 11.7091713 6.31624927 12.2763227 6.88317196 12.2763227 7.27635411 11.8834064 7.27635411 11.3162004 6.70943142 11 7.02562609 11.4743279 7.5 11 7.97437391 11.3162004 8.29056858 11.8834064 7.72364589 12.2763227 7.72364589 12.2763227 8.11682804 11.7091713 8.68375073 12.0254263 9 12.4999727 8.52562609 12.9745737 9 13.2908287 8.68375073 12.7236227 8.11682804 12.7236227 7.72364589 13.1165936 7.72364589 13.6837996 8.29056858 14 7.97437391 13.5256721 7.5"></polygon>
                <g id="Group" transform="translate(8.000000, 9.000000)" fill="#92C5FF">
                    <polygon id="Path" points="0.90740085 4.06377774 1.81391643 4.06377774 1.81391643 4.960974 0.90740085 4.960974"></polygon>
                    <polygon id="Path" points="0.000885269122 2.26938521 2.72043201 2.26938521 2.72043201 3.16658148 0.000885269122 3.16658148"></polygon>
                    <polygon id="Path" points="2.72043201 4.06377774 3.62694759 4.06377774 3.62694759 4.960974 2.72043201 4.960974"></polygon>
                    <polygon id="Path" points="4.53346317 4.06377774 8.61278329 4.06377774 8.61278329 4.960974 4.53346317 4.960974"></polygon>
                    <path d="M6.57312323,3.16658148 L3.62694759,3.16658148 L3.62694759,2.26938521 L6.57312323,2.26938521 C6.94869864,2.26938521 7.25300992,1.96809286 7.25300992,1.59648802 C7.25300992,1.22488318 6.94869864,0.923590822 6.57312323,0.923590822 L6.34649433,0.923590822 L6.34649433,0.0263945607 L6.57312323,0.0263945607 C7.44931836,0.0263945607 8.1595255,0.729410047 8.1595255,1.59648802 C8.1595255,2.46367553 7.44931836,3.16658148 6.57312323,3.16658148 Z" id="Path"></path>
                    <path d="M8.38615439,8.99835718 L7.70626771,8.99835718 L7.70626771,8.10116092 L8.38615439,8.10116092 C8.7617298,8.10116092 9.06604108,7.79986856 9.06604108,7.42826372 C9.06604108,7.05665888 8.7617298,6.75536652 8.38615439,6.75536652 L2.72043201,6.75536652 L2.72043201,5.85817026 L8.38615439,5.85817026 C9.26234952,5.85817026 9.97255666,6.56118575 9.97255666,7.42826372 C9.97255666,8.29545123 9.26234952,8.99835718 8.38615439,8.99835718 Z" id="Path"></path>
                </g>
            </g>
        </g>
    </g>
</svg>