<?xml version="1.0" encoding="UTF-8"?>
<svg width="24px" height="24px" viewBox="0 0 24 24" version="1.1" xmlns="http://www.w3.org/2000/svg" xmlns:xlink="http://www.w3.org/1999/xlink">
    <!-- Generator: Sketch 55.1 (78136) - https://sketchapp.com -->
    <title>46_Scattered Snow Showers(night)</title>
    <desc>Created with Sketch.</desc>
    <g id="46_Scattered-Snow-Showers(night)" stroke="none" stroke-width="1" fill="none" fill-rule="evenodd">
        <g>
            <rect id="Rectangle-Copy-5" x="0" y="0" width="24" height="24"></rect>
            <g id="029-cloud" transform="translate(2.000000, 3.000000)" fill-rule="nonzero">
                <path d="M16.5381809,7.87749688 C14.7545294,7.87720106 13.1813898,6.74075201 12.6650657,5.07941258 C12.1488935,3.41807316 12.811436,1.62377333 14.296267,0.661991927 C15.781098,-0.299789472 17.7378709,-0.202176722 19.113874,0.902326341 L19.6946437,1.36938858 L19.113874,1.83645078 C18.4683548,2.35438997 18.0944492,3.1258265 18.0944492,3.93985768 C18.0944492,4.75374097 18.4683548,5.5251775 19.113874,6.04311665 L19.6946437,6.51017885 L19.113874,6.97724109 C18.3884059,7.55862856 17.4781128,7.87690529 16.5381809,7.87749688 Z" id="Path" fill="#F7D260"></path>
                <path d="M16.849465,14.5411954 L3.77553502,14.5411954 C1.95282101,14.5417856 0.395792802,13.2621712 0.0913484825,11.5134239 C-0.213095798,9.76467672 0.824112374,8.05748886 2.54544626,7.47403084 C2.72586335,5.13250801 4.42683,3.16635056 6.76708412,2.5941328 C9.10749027,2.02176714 11.561588,2.97171665 12.8582502,4.95207232 C13.1458232,4.8834476 13.4406919,4.84869154 13.7366245,4.84854365 C15.7988813,4.85046631 17.4700572,6.47660601 17.4720331,8.48328752 L17.4720331,8.54377784 C19.0393969,8.85347649 20.1104998,10.2682698 19.9496899,11.816615 C19.7890321,13.3648124 18.4487475,14.5426729 16.849465,14.5411954 Z" id="Path" fill="#F2ECDA"></path>
                <polygon id="Path" fill="#1998F1" points="8.71428571 6.95357351 8.11199918 6.35129794 7.03160678 7.43115068 6.28309079 7.43115068 6.28309079 6.68223231 7.3634832 5.60237957 6.76109267 5 5.85709086 5.90356935 4.95319305 5 4.35080252 5.60237957 5.43109093 6.68223231 5.43109093 7.43115068 4.68267894 7.43115068 3.60228653 6.35129794 3 6.95357351 3.9034818 7.85714286 3 8.76071221 3.60228653 9.36298778 4.68267894 8.28313504 5.43109093 8.28313504 5.43109093 9.03205341 4.35080252 10.1119061 4.95319305 10.7142857 5.85709086 9.81071637 6.76109267 10.7142857 7.3634832 10.1119061 6.28309079 9.03205341 6.28309079 8.28313504 7.03160678 8.28313504 8.11199918 9.36298778 8.71428571 8.76071221 7.81080392 7.85714286"></polygon>
                <path d="M16.849465,11.5122408 L3.77553502,11.5122408 C2.31958292,11.5106139 0.997233696,10.6857861 0.387585136,9.39922049 C-0.150018249,10.521915 -0.0592777432,11.8343628 0.627735875,12.8771924 C1.31474949,13.919874 2.50258389,14.5478494 3.77553502,14.541194 L16.849465,14.541194 C17.9646461,14.5425251 18.9950146,13.9627645 19.5500973,13.0216888 C20.10518,12.0806131 20.0997082,10.9222752 19.5359618,9.98622807 C18.9861989,10.9265642 17.9613023,11.5086912 16.849465,11.5122408 L16.849465,11.5122408 Z" id="Path" fill="#EAE2CC"></path>
                <g id="Group" transform="translate(2.474708, 12.645880)" fill="#1998F1">
                    <polygon id="Path" points="0.0276629572 3.64672361 2.51778331 0.0119797372 3.55392755 0.684028735 1.06365518 4.31877261"></polygon>
                    <polygon id="Path" transform="translate(11.261764, 2.165006) scale(-1, 1) translate(-11.261764, -2.165006) " points="9.49863206 3.64627995 11.9889044 0.0116839599 13.0248967 0.683732958 10.5346243 4.31832894"></polygon>
                    <path d="M5.21522374,3.70780556 L4.18181541,3.03590445 L4.8723249,2.02797884 L5.90816514,2.69973206 L5.21522374,3.70780556 Z M6.59669868,1.69165857 L5.56085844,1.01990535 L6.25121595,0.0118318486 L7.28964008,0.683732958 L6.59669868,1.69165857 Z" id="Shape"></path>
                </g>
            </g>
        </g>
    </g>
</svg>