<?xml version="1.0" encoding="UTF-8"?>
<svg width="24px" height="24px" viewBox="0 0 24 24" version="1.1" xmlns="http://www.w3.org/2000/svg" xmlns:xlink="http://www.w3.org/1999/xlink">
    <!-- Generator: Sketch 55.1 (78136) - https://sketchapp.com -->
    <title>47_Scattered Thundershowers</title>
    <desc>Created with Sketch.</desc>
    <g id="47_Scattered-Thundershowers" stroke="none" stroke-width="1" fill="none" fill-rule="evenodd">
        <g>
            <rect id="Rectangle-Copy-5" x="0" y="0" width="24" height="24"></rect>
            <g id="028-cloud" transform="translate(2.000000, 5.000000)" fill-rule="nonzero">
                <path d="M16.849465,12.4375116 L3.77553502,12.4375116 C1.95282101,12.4381173 0.395792802,11.1247673 0.0913484825,9.32991622 C-0.213095798,7.53506518 0.824112374,5.78286917 2.54544626,5.18402891 C2.72586335,2.78077438 4.42683,0.762781321 6.76708412,0.175477655 C9.10749027,-0.411977798 11.561588,0.563016101 12.8582502,2.5955817 C13.1458232,2.52514776 13.4406919,2.48947539 13.7366245,2.4893236 C15.7988813,2.49129696 17.4700572,4.16030806 17.4720331,6.21989355 L17.4720331,6.28197863 C19.0393969,6.59984215 20.1104998,8.05193491 19.9496899,9.64110062 C19.7890321,11.2301145 18.4487475,12.4390281 16.849465,12.4375116 Z" id="Path" fill="#F2ECDA"></path>
                <path d="M16.849465,9.32870184 L3.77553502,9.32870184 C2.31958292,9.32703206 0.997233696,8.48045864 0.387585136,7.15997409 C-0.150018249,8.31226725 -0.0592777432,9.6593163 0.627735875,10.7296389 C1.31474949,11.7998098 2.50258389,12.444341 3.77553502,12.4375101 L16.849465,12.4375101 C17.9646461,12.4388763 18.9950146,11.843831 19.5500973,10.8779449 C20.10518,9.91205876 20.0997082,8.72318246 19.5359618,7.76245749 C18.9861989,8.72758461 17.9613023,9.3250587 16.849465,9.32870184 L16.849465,9.32870184 Z" id="Path" fill="#EAE2CC"></path>
                <path d="M4.48717167,6.85956727 L2.05298518,2.80946405 L4.54325755,2.80946405 L3.88208292,1.70832661 C3.52824051,1.11935316 3.71944918,0.355509249 4.30918654,0.00227696114 L6.74337307,4.05298737 L4.2531007,4.05298737 L4.91427529,5.15351767 C5.2681177,5.74233929 5.07690903,6.50633503 4.48717167,6.85956727 Z" id="Path" fill="#F7D260"></path>
                <g id="Group" transform="translate(3.852140, 10.492228)" fill="#1998F1">
                    <polygon id="Path" points="-1.97233704 3.74256194 0.517935331 0.0121437824 1.55392755 0.701910622 -0.93619284 4.43232878"></polygon>
                    <polygon id="Path" transform="translate(9.261916, 2.222464) scale(-1, 1) translate(-9.261916, -2.222464) " points="7.49878405 3.74286552 9.98905642 0.0122955699 11.0250486 0.702062409 8.53477626 4.43263236"></polygon>
                    <path d="M3.21522374,3.80555782 L2.18181541,3.11594277 L2.8723249,2.0814443 L3.90816514,2.77090756 L3.21522374,3.80555782 Z M4.59669868,1.73625731 L3.56085844,1.04679404 L4.25121595,0.0121437824 L5.28964008,0.701758834 L4.59669868,1.73625731 Z" id="Shape"></path>
                </g>
            </g>
        </g>
    </g>
</svg>