<?xml version="1.0" encoding="UTF-8"?>
<svg width="24px" height="24px" viewBox="0 0 24 24" version="1.1" xmlns="http://www.w3.org/2000/svg" xmlns:xlink="http://www.w3.org/1999/xlink">
    <!-- Generator: Sketch 55.1 (78136) - https://sketchapp.com -->
    <title>4_Thunderstorms</title>
    <desc>Created with Sketch.</desc>
    <g id="4_Thunderstorms" stroke="none" stroke-width="1" fill="none" fill-rule="evenodd">
        <g>
            <rect id="Rectangle-Copy-2" x="0" y="0" width="24" height="24"></rect>
            <g transform="translate(2.000000, 5.000000)">
                <path d="M16.849465,12.2115057 L3.77553502,12.2115057 C1.95282101,12.2121004 0.395792802,10.9221434 0.0913484825,9.15926168 C-0.213095798,7.39638 0.824112374,5.67554271 2.54544626,5.08721969 C2.72586335,2.72677122 4.42683,0.744871183 6.76708412,0.167879313 C9.10749027,-0.408963511 11.561588,0.548664122 12.8582502,2.54487714 C13.1458232,2.47584687 13.4406919,2.44066076 13.7366245,2.44051168 C15.7988813,2.44259901 17.4700572,4.08188214 17.4720331,6.10463382 L17.4720331,6.16576218 C19.0393969,6.47781489 20.1104998,7.90419252 19.9496899,9.4649034 C19.7890321,11.0257634 18.4487475,12.2131441 16.849465,12.2115057 Z" id="Path" fill="#F2ECDA" fill-rule="nonzero"></path>
                <path d="M9.91229938,14.9688395 C9.32241004,14.6214516 9.13150537,13.8707657 9.48580374,13.292432 L10.1469784,12.211504 L7.65670599,12.211504 L10.0902845,8.2329437 C10.6801739,8.58018248 10.8710786,9.33086832 10.5167802,9.90920206 L9.85560553,10.99013 L12.3458779,10.99013 L9.91229938,14.9688395 Z" id="Path" fill="#F7D260" fill-rule="nonzero"></path>
                <g id="Group" transform="translate(5.642023, 2.404580)"></g>
            </g>
        </g>
    </g>
</svg>