<?xml version="1.0" encoding="UTF-8"?>
<svg width="24px" height="24px" viewBox="0 0 24 24" version="1.1" xmlns="http://www.w3.org/2000/svg" xmlns:xlink="http://www.w3.org/1999/xlink">
    <!-- Generator: Sketch 55.1 (78136) - https://sketchapp.com -->
    <title>7_Mixed Snow And Sleet</title>
    <desc>Created with Sketch.</desc>
    <g id="7_Mixed-Snow-And-Sleet" stroke="none" stroke-width="1" fill="none" fill-rule="evenodd">
        <g>
            <rect id="Rectangle-Copy-5" x="0" y="0" width="24" height="24"></rect>
            <g id="022-cloud" transform="translate(2.000000, 4.000000)">
                <path d="M16.849465,12.4652513 L3.77553502,12.4652513 C1.95282101,12.4658584 0.395792802,11.149097 0.0913484825,9.349584 C-0.213095798,7.55007101 0.824112374,5.79347606 2.54544626,5.19292816 C2.72586335,2.7834314 4.42683,0.760349026 6.76708412,0.171367714 C9.10749027,-0.417461455 11.561588,0.560064935 12.8582502,2.5977577 C13.1458232,2.52729304 13.4406919,2.49137579 13.7366245,2.49122361 C15.7988813,2.49335431 17.4700572,4.16670047 17.4720331,6.23148335 L17.4720331,6.29388191 C19.0393969,6.61241883 20.1104998,8.06843548 19.9496899,9.66157671 C19.7890321,11.2548701 18.4487475,12.4669237 16.849465,12.4652513 Z" id="Path" fill="#F2ECDA" fill-rule="nonzero"></path>
                <path d="M16.849465,9.34836647 L3.77553502,9.34836647 C2.31958292,9.34669239 0.997233696,8.49807226 0.387585136,7.17400566 C-0.150018249,8.32944397 -0.0592777432,9.67999188 0.627735875,10.7529424 C1.31474949,11.826045 2.50258389,12.4720982 3.77553502,12.4652496 L16.849465,12.4652496 C17.9646461,12.4666193 18.9950146,11.8700284 19.5500973,10.9016335 C20.10518,9.93323864 20.0997082,8.74142653 19.5359618,7.77805399 C18.9861989,8.7456879 17.9613023,9.34471387 16.849465,9.34836647 L16.849465,9.34836647 Z" id="Path" fill="#EAE2CC" fill-rule="nonzero"></path>
                <g id="Group-9" transform="translate(9.000000, 10.000000)" fill="#1998F1">
                    <rect id="Rectangle" transform="translate(1.750000, 1.750000) rotate(45.000000) translate(-1.750000, -1.750000) " x="1" y="1" width="1.5" height="1.5"></rect>
                    <rect id="Rectangle-Copy-8" transform="translate(4.750000, 1.750000) rotate(45.000000) translate(-4.750000, -1.750000) " x="4" y="1" width="1.5" height="1.5"></rect>
                    <rect id="Rectangle-Copy-10" transform="translate(3.350660, 3.750000) rotate(45.000000) translate(-3.350660, -3.750000) " x="2.60066017" y="3" width="1.5" height="1.5"></rect>
                    <rect id="Rectangle-Copy-11" transform="translate(6.350660, 3.750000) rotate(45.000000) translate(-6.350660, -3.750000) " x="5.60066017" y="3" width="1.5" height="1.5"></rect>
                    <rect id="Rectangle-Copy-9" transform="translate(7.750000, 1.750000) rotate(45.000000) translate(-7.750000, -1.750000) " x="7" y="1" width="1.5" height="1.5"></rect>
                </g>
                <polygon id="Path" fill="#1998F1" fill-rule="nonzero" points="9 11.0512522 8.36759914 10.4188628 7.23318712 11.5527082 6.44724533 11.5527082 6.44724533 10.7663439 7.58165736 9.63249854 6.9491473 9 5.9999454 9.94874782 5.0508527 9 4.41834264 9.63249854 5.55264547 10.7663439 5.55264547 11.5527082 4.76681288 11.5527082 3.63240086 10.4188628 3 11.0512522 3.94865589 12 3 12.9487478 3.63240086 13.5811372 4.76681288 12.4472918 5.55264547 12.4472918 5.55264547 13.2336561 4.41834264 14.3675015 5.0508527 15 5.9999454 14.0512522 6.9491473 15 7.58165736 14.3675015 6.44724533 13.2336561 6.44724533 12.4472918 7.23318712 12.4472918 8.36759914 13.5811372 9 12.9487478 8.05134411 12"></polygon>
            </g>
        </g>
    </g>
</svg>