<?xml version="1.0" encoding="UTF-8"?>
<svg width="24px" height="24px" viewBox="0 0 24 24" version="1.1" xmlns="http://www.w3.org/2000/svg" xmlns:xlink="http://www.w3.org/1999/xlink">
    <!-- Generator: Sketch 55.1 (78136) - https://sketchapp.com -->
    <title>AUD_Australia Dollar</title>
    <desc>Created with Sketch.</desc>
    <g id="AUD_Australia-Dollar" stroke="none" stroke-width="1" fill="none" fill-rule="evenodd">
        <rect id="Rectangle" x="0" y="0" width="24" height="24"></rect>
        <g transform="translate(2.000000, 2.000000)" fill-rule="nonzero">
            <path d="M20,10.0194932 C20,15.53154 15.5228125,20 10,20 C4.4771875,20 0,15.53154 0,10.0194932 C0,10.0218324 10,0.0401169591 10,0.0389863548 C15.5228125,0.0389863548 20,4.50744639 20,10.0194932 Z" id="Path" fill="#0052B4"></path>
            <g id="Group" fill="#F0F0F0">
                <path d="M10.0317789,0.0694626706 C10.0303789,0.0694626706 10.0288789,0.0695626706 10.0274789,0.0695626706 L10.0317789,0.0694626706 L10.0317789,0.0694626706 Z" id="Path"></path>
                <path d="M9.98283984,10.0708972 L10.0513398,10.0708972 C10.0513398,10.0476972 10.0513398,10.0254972 10.0513398,10.0023972 C10.0285398,10.0252972 10.0057398,10.0480972 9.98283984,10.0708972 Z" id="Path"></path>
                <path d="M10.0000391,5.24623782 C10.0000391,3.49009747 10.0000391,2.33933723 10.0000391,0.0390253411 L9.99832031,0.0390253411 C4.47625,0.0399220273 0,4.50795322 0,10.0194932 L5.21738281,10.0194932 L5.21738281,7.08725146 L8.15535156,10.0194932 L9.97328125,10.0194932 C9.98222656,10.0106043 9.99113281,10.0017154 10.0000391,9.99278752 C10.0000391,9.32038986 10.0000391,8.72042885 10.0000391,8.17851852 L7.06203125,5.24623782 L10.0000391,5.24623782 Z" id="Path"></path>
            </g>
            <g id="Group" transform="translate(1.289062, 1.325536)" fill="#D80027">
                <path d="M3.77011719,0.0152436647 C2.20609375,0.904093567 0.905859375,2.20179337 0.0152734375,3.76276803 L0.0152734375,8.69395712 L2.62398438,8.69395712 L2.62398438,2.61890838 L2.62398438,2.6188694 L8.7109375,2.6188694 C8.7109375,1.79769981 8.7109375,1.01539961 8.7109375,0.0152436647 L3.77011719,0.0152436647 Z" id="Path"></path>
                <path d="M8.7109375,7.46662768 L5.15808594,3.92072341 L3.92835937,3.92072341 C3.92835937,3.92072341 3.92835937,3.92072341 3.92835937,3.92072341 L8.7109375,8.69395712 L8.7109375,8.69395712 C8.7109375,8.69395712 8.7109375,7.84775828 8.7109375,7.46662768 Z" id="Path"></path>
            </g>
            <g id="Group" transform="translate(3.789062, 4.366472)" fill="#F0F0F0">
                <polygon id="Path" points="2.24199219 7.38877193 2.79082031 8.53411306 4.03015625 8.24822612 3.47515625 9.39060429 4.47179687 10.1794152 3.23089844 10.4585575 3.234375 11.7281092 2.24199219 10.9338402 1.24964844 11.7281092 1.253125 10.4585575 0.0121875 10.1794152 1.00886719 9.39060429 0.453789063 8.24822612 1.69320313 8.53411306"></polygon>
                <polygon id="Path" points="11.1829688 9.55844055 11.4573828 10.1311111 12.0770703 9.98814815 11.7995313 10.5593372 12.2978906 10.9537622 11.6774219 11.0933333 11.6791406 11.7281092 11.1829688 11.3309552 10.6867969 11.7281092 10.6885156 11.0933333 10.0680859 10.9537622 10.5664062 10.5593372 10.2889063 9.98814815 10.9085547 10.1311111"></polygon>
                <polygon id="Path" points="8.63019531 3.48335283 8.90457031 4.05606238 9.52425781 3.91306043 9.24675781 4.48424951 9.74507812 4.87867446 9.12464844 5.01824561 9.12632813 5.65302144 8.63019531 5.25586745 8.13402344 5.65302144 8.13570312 5.01824561 7.51527344 4.87867446 8.01359375 4.48424951 7.73609375 3.91306043 8.35578125 4.05606238"></polygon>
                <polygon id="Path" points="11.1829688 0.0118518519 11.4573828 0.584561404 12.0770703 0.441598441 11.7995703 1.01278752 12.2978516 1.40717349 11.6774219 1.54678363 11.6791406 2.18155945 11.1829688 1.78440546 10.6867969 2.18155945 10.6885156 1.54678363 10.0680859 1.40717349 10.5663672 1.01278752 10.2889063 0.441598441 10.9085547 0.584561404"></polygon>
                <polygon id="Path" points="13.4128125 2.61547758 13.6871875 3.18818713 14.306875 3.04518519 14.029375 3.61637427 14.5276953 4.01079922 13.9072266 4.15040936 13.9089453 4.7851462 13.4128125 4.38803119 12.9166406 4.7851462 12.9183203 4.15040936 12.2978906 4.01079922 12.7962109 3.61637427 12.5187109 3.04518519 13.1383594 3.18818713"></polygon>
                <polygon id="Path" points="11.8183594 5.65302144 12.0341797 6.31602339 12.7326953 6.31602339 12.1675781 6.72580897 12.3834766 7.38877193 11.8183594 6.97902534 11.2532813 7.38877193 11.4691016 6.72580897 10.9040234 6.31602339 11.6025 6.31602339"></polygon>
            </g>
        </g>
    </g>
</svg>