<?xml version="1.0" encoding="UTF-8"?>
<svg width="24px" height="24px" viewBox="0 0 24 24" version="1.1" xmlns="http://www.w3.org/2000/svg" xmlns:xlink="http://www.w3.org/1999/xlink">
    <!-- Generator: Sketch 55.1 (78136) - https://sketchapp.com -->
    <title>CNY_China Yuan</title>
    <desc>Created with Sketch.</desc>
    <g id="CNY_China-Yuan" stroke="none" stroke-width="1" fill="none" fill-rule="evenodd">
        <rect id="Rectangle" x="0" y="0" width="24" height="24"></rect>
        <g transform="translate(2.000000, 2.000000)" fill-rule="nonzero">
            <circle id="Oval" fill="#D80027" cx="10" cy="10" r="10"></circle>
            <g id="Group" transform="translate(1.796875, 4.453125)" fill="#FFDA44">
                <polygon id="Path" points="3.67578125 1.6328125 4.5390625 4.2890625 7.33203125 4.2890625 5.07421875 5.93359375 5.9375 8.58984375 3.67578125 6.94921875 1.4140625 8.58984375 2.28125 5.93359375 0.01953125 4.2890625 2.8125 4.2890625"></polygon>
                <polygon id="Path" points="10.0585938 11.0351562 9.3984375 10.2226563 8.421875 10.6015625 8.98828125 9.72265625 8.328125 8.90625 9.33984375 9.17578125 9.91015625 8.296875 9.96484375 9.34375 10.9804688 9.61328125 10 9.98828125"></polygon>
                <polygon id="Path" points="11.3710938 8.65234375 11.6835938 7.65234375 10.828125 7.046875 11.875 7.03125 12.1835938 6.03125 12.5234375 7.0234375 13.5703125 7.01171875 12.7304688 7.63671875 13.0664062 8.62890625 12.2109375 8.0234375"></polygon>
                <polygon id="Path" points="13.140625 2.88671875 12.6796875 3.828125 13.4296875 4.55859375 12.3945312 4.41015625 11.9335938 5.34765625 11.7539062 4.31640625 10.7148438 4.16796875 11.6445312 3.6796875 11.4648438 2.64453125 12.2148438 3.375"></polygon>
                <polygon id="Path" points="10.0859375 0.03515625 10.0078125 1.078125 10.9804688 1.47265625 9.9609375 1.72265625 9.88671875 2.76953125 9.3359375 1.87890625 8.31640625 2.12890625 8.9921875 1.328125 8.4375 0.44140625 9.41015625 0.8359375"></polygon>
            </g>
        </g>
    </g>
</svg>