<?xml version="1.0" encoding="UTF-8"?>
<svg width="24px" height="24px" viewBox="0 0 24 24" version="1.1" xmlns="http://www.w3.org/2000/svg" xmlns:xlink="http://www.w3.org/1999/xlink">
    <!-- Generator: Sketch 55.1 (78136) - https://sketchapp.com -->
    <title>EUR_Euro</title>
    <desc>Created with Sketch.</desc>
    <g id="EUR_Euro" stroke="none" stroke-width="1" fill="none" fill-rule="evenodd">
        <rect id="Rectangle" x="0" y="0" width="24" height="24"></rect>
        <g transform="translate(2.000000, 2.000000)" fill-rule="nonzero">
            <circle id="Oval" fill="#0052B4" cx="10" cy="10" r="10"></circle>
            <g id="Group" transform="translate(3.906250, 3.906250)" fill="#FFDA44">
                <polygon id="Path" points="6.09378906 0.006796875 6.41757813 1.00324219 7.46523438 1.00324219 6.61761719 1.6190625 6.94140625 2.61550781 6.09378906 1.99964844 5.24613281 2.61550781 5.56992188 1.6190625 4.72230469 1.00324219 5.77 1.00324219"></polygon>
                <polygon id="Path" points="1.78960937 1.78960937 2.72320312 2.26523437 3.46402344 1.52445312 3.30007812 2.55921875 4.23363281 3.03488281 3.19882812 3.19878906 3.03492187 4.23363281 2.55925781 3.30007812 1.52449219 3.46402344 2.2653125 2.72320312"></polygon>
                <polygon id="Path" points="0.0068359375 6.09375 1.00328125 5.76996094 1.00328125 4.72226562 1.6190625 5.56992187 2.61554688 5.24613281 1.99964844 6.09375 2.61554688 6.94136719 1.6190625 6.61761719 1.00328125 7.46523437 1.00328125 6.41753906"></polygon>
                <polygon id="Path" points="1.78960937 10.3978906 2.26527344 9.46429687 1.52449219 8.72347656 2.55929687 8.88746094 3.03488281 7.95390625 3.19882812 8.98871094 4.23359375 9.15261719 3.30015625 9.62828125 3.46402344 10.6630469 2.72320312 9.92222656"></polygon>
                <polygon id="Path" points="6.09378906 12.1807031 5.76996094 11.1842578 4.72230469 11.1842578 5.56996094 10.5684375 5.24613281 9.57207031 6.09378906 10.1878516 6.94140625 9.57207031 6.61761719 10.5684375 7.46523438 11.1842578 6.41753906 11.1842578"></polygon>
                <polygon id="Path" points="10.3979297 10.3978906 9.464375 9.92226562 8.72351563 10.6630859 8.88746094 9.62824219 7.95398438 9.15261719 8.98875 8.98871094 9.15265625 7.95390625 9.62828125 8.88746094 10.6630469 8.72347656 9.92222656 9.464375"></polygon>
                <polygon id="Path" points="12.1807031 6.09375 11.1842578 6.41753906 11.1842578 7.46523437 10.5684375 6.61757812 9.57207031 6.94136719 10.1878906 6.09375 9.57207031 5.24613281 10.5684766 5.56992187 11.1842578 4.72226562 11.1842578 5.77"></polygon>
                <polygon id="Path" points="10.3979297 1.78960937 9.92226562 2.72320312 10.6630859 3.46402344 9.62824219 3.30003906 9.15265625 4.23359375 8.98875 3.19878906 7.95398438 3.03484375 8.88746094 2.55921875 8.72351563 1.52449219 9.46441406 2.26527344"></polygon>
            </g>
        </g>
    </g>
</svg>