<?xml version="1.0" encoding="UTF-8"?>
<svg width="24px" height="24px" viewBox="0 0 24 24" version="1.1" xmlns="http://www.w3.org/2000/svg" xmlns:xlink="http://www.w3.org/1999/xlink">
    <!-- Generator: Sketch 55.1 (78136) - https://sketchapp.com -->
    <title>HKD_Hong Kong Dollar</title>
    <desc>Created with Sketch.</desc>
    <g id="HKD_Hong-Kong-Dollar" stroke="none" stroke-width="1" fill="none" fill-rule="evenodd">
        <rect id="Rectangle" x="0" y="0" width="24" height="24"></rect>
        <g transform="translate(2.000000, 2.000000)" fill-rule="nonzero">
            <circle id="Oval" fill="#D80027" cx="10" cy="10" r="10"></circle>
            <g id="Group" transform="translate(5.195312, 4.843750)" fill="#F0F0F0">
                <path d="M5.83710938,2.72140625 C5.60984375,3.66667969 5.20605469,3.48640625 5.00789062,4.31078125 C3.84058594,4.03011719 3.12167969,2.85628906 3.40234375,1.68890625 C3.68289062,0.521601562 4.85683594,-0.197304688 6.02417969,0.083359375 C5.6278125,1.73207031 6.04042969,1.87597656 5.83710938,2.72140625 Z" id="Path"></path>
                <path d="M2.80808594,3.421875 C3.636875,3.93007812 3.340625,4.25847656 4.06335937,4.70171875 C3.43570312,5.72519531 2.09722656,6.04609375 1.07371094,5.41847656 C0.050234375,4.79085938 -0.270742188,3.45230469 0.356914062,2.42882813 C1.80246094,3.31523438 2.06671875,2.96730469 2.80808594,3.421875 Z" id="Path"></path>
                <path d="M2.53820312,6.51921875 C3.27769531,5.88804687 3.49835937,6.27125 4.14324219,5.72085937 C4.92273437,6.63402344 4.81429687,8.00621094 3.90117188,8.78570312 C2.98796875,9.56519531 1.61578125,9.45664062 0.83640625,8.54355469 C2.12601562,7.44265625 1.87675781,7.08371094 2.53820312,6.51921875 Z" id="Path"></path>
                <path d="M5.40054687,7.73300781 C5.02867187,6.8346875 5.46132812,6.743125 5.13714844,5.95980469 C6.24648438,5.50070312 7.51804688,6.0278125 7.9771875,7.13714844 C8.43628906,8.24648437 7.90910156,9.51800781 6.79976563,9.97714844 C6.15144531,8.41039062 5.733125,8.53652344 5.40054687,7.73300781 Z" id="Path"></path>
                <path d="M7.43945312,5.38578125 C6.47019531,5.46183594 6.51671875,5.02199219 5.67160156,5.08832031 C5.57773437,3.89148437 6.47203125,2.84496094 7.66894531,2.75101562 C8.86582031,2.65730469 9.91230469,3.55152344 10.0061328,4.74847656 C8.315625,4.88101562 8.30628906,5.31785156 7.43945312,5.38578125 Z" id="Path"></path>
            </g>
        </g>
    </g>
</svg>