<?xml version="1.0" encoding="UTF-8"?>
<svg width="24px" height="24px" viewBox="0 0 24 24" version="1.1" xmlns="http://www.w3.org/2000/svg" xmlns:xlink="http://www.w3.org/1999/xlink">
    <!-- Generator: Sketch 55.1 (78136) - https://sketchapp.com -->
    <title>MYR_Malaysian Ringgit</title>
    <desc>Created with Sketch.</desc>
    <g id="MYR_Malaysian-Ringgit" stroke="none" stroke-width="1" fill="none" fill-rule="evenodd">
        <rect id="Rectangle" x="0" y="0" width="24" height="24"></rect>
        <g transform="translate(2.000000, 2.000000)" fill-rule="nonzero">
            <circle id="Oval" fill="#F0F0F0" cx="10" cy="10" r="10"></circle>
            <g id="Group" transform="translate(0.312500, 2.148438)" fill="#D80027">
                <path d="M9.25273437,7.8515625 L19.6875,7.8515625 C19.6875,6.94894531 19.5671875,6.07464844 19.3430078,5.24285156 L9.25273437,5.24285156 L9.25273437,7.8515625 Z" id="Path"></path>
                <path d="M9.25273437,2.63417969 L18.2197656,2.63417969 C17.6076172,1.63527344 16.825,0.75234375 15.9123828,0.02546875 L9.25273437,0.02546875 L9.25273437,2.63417969 Z" id="Path"></path>
                <path d="M9.6875,17.8515625 C12.0409766,17.8515625 14.2041406,17.038125 15.9123828,15.6776563 L3.46261719,15.6776563 C5.17085938,17.038125 7.33402344,17.8515625 9.6875,17.8515625 Z" id="Path"></path>
                <path d="M1.15523437,13.0689453 L18.2197656,13.0689453 C18.7112109,12.2670703 19.0923047,11.3904688 19.3430078,10.4602344 L0.0319921875,10.4602344 C0.28265625,11.3904688 0.663789063,12.2670703 1.15523437,13.0689453 Z" id="Path"></path>
            </g>
            <path d="M10,10 C10,4.4771875 10,3.82609375 10,0 C4.4771875,0 0,4.4771875 0,10 L10,10 Z" id="Path" fill="#0052B4"></path>
            <g id="Group" transform="translate(2.617188, 3.007812)" fill="#FFDA44">
                <path d="M4.03257812,5.55195312 C2.666875,5.55195312 1.55976562,4.44480469 1.55976562,3.07914062 C1.55976562,1.71347656 2.66691406,0.606328125 4.03257812,0.606328125 C4.45839844,0.606328125 4.8590625,0.714023437 5.20886719,0.903554687 C4.66011719,0.366953125 3.90964844,0.035703125 3.08148438,0.035703125 C1.40066406,0.035703125 0.0380078125,1.39832031 0.0380078125,3.07917969 C0.0380078125,4.76003906 1.40066406,6.12265625 3.08148438,6.12265625 C3.90964844,6.12265625 4.66011719,5.79140625 5.20886719,5.25480469 C4.8590625,5.44425781 4.4584375,5.55195312 4.03257812,5.55195312 Z" id="Path"></path>
                <polygon id="Path" points="4.72941406 1.34 5.1684375 2.25804688 6.15988281 2.02898438 5.71589844 2.94457031 6.51324219 3.576875 5.52050781 3.80066406 5.52328125 4.81828125 4.72941406 4.18164062 3.93550781 4.81828125 3.93824219 3.80066406 2.94550781 3.576875 3.74285156 2.94457031 3.29882812 2.02898438 4.29035156 2.25804688"></polygon>
            </g>
        </g>
    </g>
</svg>