<?xml version="1.0" encoding="UTF-8"?>
<svg width="24px" height="24px" viewBox="0 0 24 24" version="1.1" xmlns="http://www.w3.org/2000/svg" xmlns:xlink="http://www.w3.org/1999/xlink">
    <!-- Generator: Sketch 55.1 (78136) - https://sketchapp.com -->
    <title>NZD_New Zealand Dollar</title>
    <desc>Created with Sketch.</desc>
    <g id="NZD_New-Zealand-Dollar" stroke="none" stroke-width="1" fill="none" fill-rule="evenodd">
        <rect id="Rectangle" x="0" y="0" width="24" height="24"></rect>
        <g transform="translate(2.000000, 2.000000)" fill-rule="nonzero">
            <path d="M20,10.0194932 C20,15.53154 15.5228125,20 10,20 C4.4771875,20 0,15.53154 0,10.0194932 C0,10.0218713 10,0.0400779727 10,0.0389863548 C15.5228125,0.0389863548 20,4.50744639 20,10.0194932 Z" id="Path" fill="#0052B4"></path>
            <g id="Group" fill="#F0F0F0">
                <path d="M10.0317789,0.0694931774 C10.0303789,0.0694931774 10.0288789,0.0694931774 10.0274789,0.0694931774 L10.0317789,0.0694931774 L10.0317789,0.0694931774 Z" id="Path"></path>
                <path d="M9.98283984,10.0708972 L10.0513398,10.0708972 C10.0513398,10.0478972 10.0513398,10.0254972 10.0513398,10.0023972 C10.0285398,10.0252972 10.0057398,10.0480972 9.98283984,10.0708972 Z" id="Path"></path>
                <path d="M10.0000391,5.24619883 C10.0000391,3.49005848 10.0000391,2.33937622 10.0000391,0.0389863548 L9.99832031,0.0389863548 C4.47625,0.0399220273 0,4.50795322 0,10.0194932 L5.21738281,10.0194932 L5.21738281,7.08729045 L8.15535156,10.0194932 L9.97328125,10.0194932 C9.9821875,10.0106043 9.99113281,10.0017154 10.0000391,9.99278752 C10.0000391,9.32038986 10.0000391,8.72042885 10.0000391,8.17847953 L7.06203125,5.24619883 L10.0000391,5.24619883 Z" id="Path"></path>
            </g>
            <g id="Group" transform="translate(1.289062, 1.325536)" fill="#D80027">
                <path d="M3.77011719,0.0152436647 C2.20609375,0.904093567 0.905859375,2.20179337 0.0152734375,3.76276803 L0.0152734375,8.69395712 L2.62398438,8.69395712 L2.62398438,2.61894737 L2.62398438,2.6188694 L8.7109375,2.6188694 C8.7109375,1.79769981 8.7109375,1.01539961 8.7109375,0.0152436647 L3.77011719,0.0152436647 Z" id="Path"></path>
                <path d="M8.7109375,7.46662768 L5.15808594,3.92070175 C5.15808594,3.92070175 3.92835937,3.92077973 3.92835937,3.92070175 L3.92835937,3.92077973 L8.7109375,8.69395712 L8.7109375,8.69395712 C8.7109375,8.69395712 8.7109375,7.84768031 8.7109375,7.46662768 Z" id="Path"></path>
                <polygon id="Path" points="16.0285156 6.11925926 16.2443359 6.78226121 16.9428125 6.78226121 16.3777344 7.1920078 16.5935937 7.85497076 16.0285156 7.44526316 15.4633984 7.85497076 15.6792578 7.1920078 15.1141406 6.78226121 15.8126172 6.78226121"></polygon>
                <polygon id="Path" points="13.5316797 10.8925146 13.8554688 11.8870565 14.9031641 11.8870565 14.0555078 12.5016374 14.3793359 13.4961404 13.5316797 12.8815205 12.6840234 13.4961404 13.0078516 12.5016374 12.1601953 11.8870565 13.2078906 11.8870565"></polygon>
                <polygon id="Path" points="13.6259766 3.0817154 13.8958203 3.91052632 14.7689063 3.91052632 14.0625 4.42261209 14.3323438 5.25138402 13.6259766 4.7391423 12.9196484 5.25138402 13.1894531 4.42261209 12.483125 3.91052632 13.3561719 3.91052632"></polygon>
                <polygon id="Path" points="11.2235156 6.09033138 11.5472656 7.08487329 12.595 7.08487329 11.7473438 7.69945419 12.0711719 8.69395712 11.2235156 8.07933723 10.3758594 8.69395712 10.6996875 7.69945419 9.85203125 7.08487329 10.8997266 7.08487329"></polygon>
            </g>
        </g>
    </g>
</svg>