<?xml version="1.0" encoding="UTF-8"?>
<svg width="24px" height="24px" viewBox="0 0 24 24" version="1.1" xmlns="http://www.w3.org/2000/svg" xmlns:xlink="http://www.w3.org/1999/xlink">
    <!-- Generator: Sketch 55.1 (78136) - https://sketchapp.com -->
    <title>PHP_Philippine Peso</title>
    <desc>Created with Sketch.</desc>
    <g id="PHP_Philippine-Peso" stroke="none" stroke-width="1" fill="none" fill-rule="evenodd">
        <rect id="Rectangle" x="0" y="0" width="24" height="24"></rect>
        <g transform="translate(2.000000, 2.000000)" fill-rule="nonzero">
            <circle id="Oval" fill="#F0F0F0" cx="10" cy="10" r="10"></circle>
            <path d="M10,0 L10,10 L2.92890625,17.0710937 C4.73855469,18.8807031 7.23855469,20 10,20 C15.5228125,20 20,15.5228125 20,10 C20,4.4771875 10,0 10,0 Z" id="Path" fill="#D80027"></path>
            <path d="M10,0 C7.23855469,0 4.73855469,1.11929688 2.92890625,2.92890625 C5.38242188,5.38242187 6.25339844,6.2534375 10,10 L20,10 C20,4.4771875 15.5228125,0 10,0 Z" id="Path" fill="#0052B4"></path>
            <g id="Group" transform="translate(0.859375, 3.906250)" fill="#FFDA44">
                <polygon id="Path" points="5.98792969 6.09375 4.76667969 5.51929688 5.41703125 4.33652344 4.09085937 4.59023437 3.9228125 3.25050781 2.9990625 4.23582031 2.07535156 3.25050781 1.90726562 4.59023437 0.581132813 4.33648438 1.23148438 5.51929688 0.0101953125 6.09375 1.23148438 6.66820313 0.581132813 7.85097656 1.90738281 7.59730469 2.0753125 8.93699219 2.9990625 7.95167969 3.9228125 8.93699219 4.09085937 7.59730469 5.41695313 7.85101563 4.76664062 6.66824219"></polygon>
                <polygon id="Path" points="1.80753906 0.006796875 2.21394531 0.574882812 2.87976562 0.363984375 2.465 0.926015625 2.87140625 1.49410156 2.20867187 1.27335938 1.79394531 1.83535156 1.79914062 1.13691406 1.13644531 0.916132813 1.80238281 0.705234375"></polygon>
                <polygon id="Path" points="1.80753906 10.3521484 2.21394531 10.9202344 2.87976562 10.7092969 2.465 11.2713672 2.87140625 11.8394531 2.20867187 11.6187109 1.79394531 12.1807031 1.79914062 11.4822656 1.13644531 11.2614844 1.80238281 11.0505859"></polygon>
                <polygon id="Path" points="7.60414062 5.17949219 7.19777344 5.74757813 6.53191406 5.53660156 6.94667969 6.09867187 6.54027344 6.66679688 7.20300781 6.44601562 7.61777344 7.00800781 7.61253906 6.30960938 8.27523438 6.08882813 7.60933594 5.87792969"></polygon>
            </g>
        </g>
    </g>
</svg>