<?xml version="1.0" encoding="UTF-8"?>
<svg width="24px" height="24px" viewBox="0 0 24 24" version="1.1" xmlns="http://www.w3.org/2000/svg" xmlns:xlink="http://www.w3.org/1999/xlink">
    <!-- Generator: Sketch 55.1 (78136) - https://sketchapp.com -->
    <title>SGD_Singapore Dollar</title>
    <desc>Created with Sketch.</desc>
    <g id="SGD_Singapore-Dollar" stroke="none" stroke-width="1" fill="none" fill-rule="evenodd">
        <rect id="Rectangle" x="0" y="0" width="24" height="24"></rect>
        <g transform="translate(2.000000, 2.000000)" fill-rule="nonzero">
            <circle id="Oval" fill="#F0F0F0" cx="10" cy="10" r="10"></circle>
            <path d="M0,10.0000391 C0,4.4771875 4.4771875,0 10,0 C15.5228125,0 20,4.4771875 20,10.0000391" id="Path" fill="#D80027"></path>
            <g id="Group" transform="translate(4.765625, 2.148438)" fill="#F0F0F0">
                <path d="M1.32132812,3.06890625 C1.32132812,1.61195312 2.34527344,0.39484375 3.71261719,0.0962109375 C3.50246094,0.0503515625 3.28445313,0.02546875 3.06042969,0.02546875 C1.37953125,0.02546875 0.016953125,1.38804687 0.016953125,3.06894531 C0.016953125,4.74984375 1.37953125,6.11242188 3.06042969,6.11242188 C3.284375,6.11242188 3.50242188,6.08753906 3.71261719,6.04164063 C2.34527344,5.74300781 1.32132812,4.52589844 1.32132812,3.06890625 Z" id="Path"></path>
                <polygon id="Path" points="5.234375 0.242851563 5.45023438 0.907109375 6.14871094 0.907109375 5.58359375 1.31769531 5.79945313 1.98195312 5.234375 1.57144531 4.66929687 1.98195312 4.88515625 1.31769531 4.32007813 0.907109375 5.01851563 0.907109375"></polygon>
                <polygon id="Path" points="3.54003906 1.5471875 3.75585938 2.21148438 4.45433594 2.21148438 3.88925781 2.62203125 4.10511719 3.28628906 3.54003906 2.87578125 2.97488281 3.28628906 3.19078125 2.62203125 2.62566406 2.21148438 3.32414063 2.21148438"></polygon>
                <polygon id="Path" points="6.92875 1.5471875 7.14464844 2.21148438 7.84308594 2.21148438 7.27796875 2.62203125 7.49386719 3.28628906 6.92875 2.87578125 6.36367188 3.28628906 6.57953125 2.62203125 6.01445313 2.21148438 6.71289063 2.21148438"></polygon>
                <polygon id="Path" points="6.27660156 3.50371094 6.49246094 4.16800781 7.19089844 4.16800781 6.62582031 4.57855469 6.84167969 5.2428125 6.27660156 4.83230469 5.71152344 5.2428125 5.92738281 4.57855469 5.36230469 4.16800781 6.06070312 4.16800781"></polygon>
                <polygon id="Path" points="4.1921875 3.50371094 4.40800781 4.16800781 5.10652344 4.16800781 4.54140625 4.57855469 4.75730469 5.2428125 4.1921875 4.83230469 3.62707031 5.2428125 3.84292969 4.57855469 3.27785156 4.16800781 3.97632813 4.16800781"></polygon>
            </g>
        </g>
    </g>
</svg>